%TF.GenerationSoftware,KiCad,Pcbnew,9.0.6*%
%TF.CreationDate,2026-09-06T15:37:54-07:00*%
%TF.ProjectId,pitclaw-carrier,70697463-6c61-4772-9d63-617272696572,rev?*%
%TF.SameCoordinates,Original*%
%TF.FileFunction,Copper,L1,Top*%
%TF.FilePolarity,Positive*%
%FSLAX46Y46*%
G04 Gerber Fmt 4.6, Leading zero omitted, Abs format (unit mm)*
G04 Created by KiCad (PCBNEW 9.0.6) date 2026-09-06 15:37:54*
%MOMM*%
%LPD*%
G01*
G04 APERTURE LIST*
G04 Aperture macros list*
%AMRoundRect*
0 Rectangle with rounded corners*
0 $1 Rounding radius*
0 $2 $3 $4 $5 $6 $7 $8 $9 X,Y pos of 4 corners*
0 Add a 4 corners polygon primitive as box body*
4,1,4,$2,$3,$4,$5,$6,$7,$8,$9,$2,$3,0*
0 Add four circle primitives for the rounded corners*
1,1,$1+$1,$2,$3*
1,1,$1+$1,$4,$5*
1,1,$1+$1,$6,$7*
1,1,$1+$1,$8,$9*
0 Add four rect primitives between the rounded corners*
20,1,$1+$1,$2,$3,$4,$5,0*
20,1,$1+$1,$4,$5,$6,$7,0*
20,1,$1+$1,$6,$7,$8,$9,0*
20,1,$1+$1,$8,$9,$2,$3,0*%
G04 Aperture macros list end*
%TA.AperFunction,ComponentPad*%
%ADD10RoundRect,0.250000X-0.600000X-0.750000X0.600000X-0.750000X0.600000X0.750000X-0.600000X0.750000X0*%
%TD*%
%TA.AperFunction,ComponentPad*%
%ADD11O,1.700000X2.000000*%
%TD*%
%TA.AperFunction,ComponentPad*%
%ADD12R,1.800000X1.800000*%
%TD*%
%TA.AperFunction,ComponentPad*%
%ADD13C,1.800000*%
%TD*%
%TA.AperFunction,ComponentPad*%
%ADD14R,2.100000X1.100000*%
%TD*%
%TA.AperFunction,ComponentPad*%
%ADD15O,1.100000X2.100000*%
%TD*%
%TA.AperFunction,ComponentPad*%
%ADD16RoundRect,0.249999X-0.850001X0.850001X-0.850001X-0.850001X0.850001X-0.850001X0.850001X0.850001X0*%
%TD*%
%TA.AperFunction,ComponentPad*%
%ADD17C,2.200000*%
%TD*%
%TA.AperFunction,ComponentPad*%
%ADD18C,1.600000*%
%TD*%
%TA.AperFunction,ComponentPad*%
%ADD19RoundRect,0.250000X-0.550000X-0.550000X0.550000X-0.550000X0.550000X0.550000X-0.550000X0.550000X0*%
%TD*%
%TA.AperFunction,ComponentPad*%
%ADD20RoundRect,0.250000X-0.750000X-0.750000X0.750000X-0.750000X0.750000X0.750000X-0.750000X0.750000X0*%
%TD*%
%TA.AperFunction,ComponentPad*%
%ADD21C,2.000000*%
%TD*%
%TA.AperFunction,ComponentPad*%
%ADD22R,2.500000X1.800000*%
%TD*%
%TA.AperFunction,ComponentPad*%
%ADD23O,2.500000X1.800000*%
%TD*%
%TA.AperFunction,ComponentPad*%
%ADD24O,1.800000X2.500000*%
%TD*%
%TA.AperFunction,ComponentPad*%
%ADD25R,2.100000X2.100000*%
%TD*%
%TA.AperFunction,ComponentPad*%
%ADD26C,2.100000*%
%TD*%
%TA.AperFunction,ComponentPad*%
%ADD27R,1.500000X1.500000*%
%TD*%
%TA.AperFunction,ComponentPad*%
%ADD28C,1.500000*%
%TD*%
%TA.AperFunction,ComponentPad*%
%ADD29R,1.700000X1.700000*%
%TD*%
%TA.AperFunction,ComponentPad*%
%ADD30C,1.700000*%
%TD*%
%TA.AperFunction,ComponentPad*%
%ADD31RoundRect,0.250000X-0.600000X-0.725000X0.600000X-0.725000X0.600000X0.725000X-0.600000X0.725000X0*%
%TD*%
%TA.AperFunction,ComponentPad*%
%ADD32O,1.700000X1.950000*%
%TD*%
%TA.AperFunction,ComponentPad*%
%ADD33R,2.300000X2.300000*%
%TD*%
%TA.AperFunction,ComponentPad*%
%ADD34C,2.300000*%
%TD*%
%TA.AperFunction,ComponentPad*%
%ADD35RoundRect,0.249999X-0.850001X-0.850001X0.850001X-0.850001X0.850001X0.850001X-0.850001X0.850001X0*%
%TD*%
%TA.AperFunction,ViaPad*%
%ADD36C,0.800000*%
%TD*%
%TA.AperFunction,ViaPad*%
%ADD37C,1.200000*%
%TD*%
%TA.AperFunction,Conductor*%
%ADD38C,2.000000*%
%TD*%
%TA.AperFunction,Conductor*%
%ADD39C,0.300000*%
%TD*%
%TA.AperFunction,Conductor*%
%ADD40C,1.200000*%
%TD*%
G04 APERTURE END LIST*
D10*
%TO.P,J7,1*%
%TO.N,/+3V3_A*%
X140000000Y-62000000D03*
D11*
%TO.P,J7,2*%
%TO.N,/GND*%
X142500000Y-62000000D03*
%TD*%
D12*
%TO.P,C12,1*%
%TO.N,/AIN2*%
X115000000Y-104000000D03*
D13*
%TO.P,C12,2*%
%TO.N,/GND*%
X120000000Y-104000000D03*
%TD*%
D12*
%TO.P,C11,1*%
%TO.N,/AIN1*%
X115000000Y-96000000D03*
D13*
%TO.P,C11,2*%
%TO.N,/GND*%
X120000000Y-96000000D03*
%TD*%
D14*
%TO.P,J5,1*%
%TO.N,/GND*%
X130000000Y-58100000D03*
D15*
%TO.P,J5,2*%
%TO.N,/PROBE1*%
X128200000Y-56000000D03*
%TO.P,J5,3*%
X131800000Y-56000000D03*
%TD*%
D16*
%TO.P,D3,1*%
%TO.N,/WALL_12V*%
X155000000Y-81000000D03*
D17*
%TO.P,D3,2*%
%TO.N,/GND*%
X155000000Y-91160000D03*
%TD*%
D18*
%TO.P,R12,1*%
%TO.N,/+3V3_A*%
X115000000Y-108000000D03*
%TO.P,R12,2*%
%TO.N,/PROBE2*%
X122620000Y-108000000D03*
%TD*%
%TO.P,R4,1*%
%TO.N,/GPIO13_SERVO*%
X103000000Y-75000000D03*
%TO.P,R4,2*%
%TO.N,/SERVO_SIG*%
X103000000Y-82620000D03*
%TD*%
%TO.P,R3,1*%
%TO.N,/FAN_BASE*%
X103000000Y-102000000D03*
%TO.P,R3,2*%
%TO.N,/GND*%
X110620000Y-102000000D03*
%TD*%
%TO.P,R16,1*%
%TO.N,/+3V3_A*%
X126000000Y-92000000D03*
%TO.P,R16,2*%
%TO.N,/AIN3*%
X133620000Y-92000000D03*
%TD*%
D12*
%TO.P,BZ1,1*%
%TO.N,/BUZZ_DIRECT*%
X104300000Y-93000000D03*
D13*
%TO.P,BZ1,2*%
%TO.N,/GND*%
X109300000Y-93000000D03*
%TD*%
D19*
%TO.P,C3,1*%
%TO.N,/+5V*%
X153250000Y-64500000D03*
D18*
%TO.P,C3,2*%
%TO.N,/GND*%
X156750000Y-64500000D03*
%TD*%
D12*
%TO.P,U2,1*%
%TO.N,/+12V*%
X117000000Y-121500000D03*
D13*
%TO.P,U2,2*%
%TO.N,/GND*%
X119540000Y-121500000D03*
%TO.P,U2,3*%
%TO.N,/+5V*%
X122080000Y-121500000D03*
%TD*%
D10*
%TO.P,J1,1*%
%TO.N,/PD_12V*%
X154000000Y-101000000D03*
D11*
%TO.P,J1,2*%
%TO.N,/GND*%
X156500000Y-101000000D03*
%TD*%
D14*
%TO.P,J4,1*%
%TO.N,/GND*%
X113000000Y-58100000D03*
D15*
%TO.P,J4,2*%
%TO.N,/PROBE0*%
X111200000Y-56000000D03*
%TO.P,J4,3*%
X114800000Y-56000000D03*
%TD*%
D20*
%TO.P,C1,1*%
%TO.N,/+12V*%
X143000000Y-109000000D03*
D21*
%TO.P,C1,2*%
%TO.N,/GND*%
X148000000Y-109000000D03*
%TD*%
D22*
%TO.P,J9,1*%
%TO.N,/WALL_12V*%
X126500000Y-129900000D03*
D23*
%TO.P,J9,2*%
%TO.N,/GND*%
X126500000Y-135800000D03*
D24*
%TO.P,J9,3*%
%TO.N,unconnected-(J9-Pad3)*%
X131200000Y-132700000D03*
%TD*%
D18*
%TO.P,R14,1*%
%TO.N,/PROBE1*%
X126000000Y-95000000D03*
%TO.P,R14,2*%
%TO.N,/AIN1*%
X126000000Y-102620000D03*
%TD*%
D25*
%TO.P,Q1,1*%
%TO.N,/FAN_GATE*%
X143300000Y-91000000D03*
D26*
%TO.P,Q1,2*%
%TO.N,/FAN_OUT*%
X145840000Y-91000000D03*
%TO.P,Q1,3*%
%TO.N,/+12V*%
X148380000Y-91000000D03*
%TD*%
D27*
%TO.P,J2,1*%
%TO.N,unconnected-(J2-NC-Pad1)*%
X113060000Y-135880000D03*
D28*
%TO.P,J2,2*%
%TO.N,unconnected-(J2-NC-Pad2)*%
X112044000Y-134100000D03*
%TO.P,J2,3*%
%TO.N,/+5V*%
X111028000Y-135880000D03*
%TO.P,J2,4*%
%TO.N,/GND*%
X110012000Y-134100000D03*
%TO.P,J2,5*%
%TO.N,/FAN_OUT*%
X108996000Y-135880000D03*
%TO.P,J2,6*%
%TO.N,/SERVO_SIG*%
X107980000Y-134100000D03*
%TO.P,J2,7*%
%TO.N,unconnected-(J2-NC-Pad7)*%
X106964000Y-135880000D03*
%TO.P,J2,8*%
%TO.N,unconnected-(J2-NC-Pad8)*%
X105948000Y-134100000D03*
%TD*%
D29*
%TO.P,JP1,1*%
%TO.N,/+5V*%
X155000000Y-73500000D03*
D30*
%TO.P,JP1,2*%
%TO.N,/+5V_WT32*%
X155000000Y-76040000D03*
%TD*%
D12*
%TO.P,J8,1*%
%TO.N,/+3V3_A*%
X113000000Y-83000000D03*
D13*
%TO.P,J8,2*%
%TO.N,/GND*%
X115540000Y-83000000D03*
%TO.P,J8,3*%
%TO.N,/SCL*%
X118080000Y-83000000D03*
%TO.P,J8,4*%
%TO.N,/SDA*%
X120620000Y-83000000D03*
%TO.P,J8,5*%
%TO.N,/GND*%
X123160000Y-83000000D03*
%TO.P,J8,6*%
%TO.N,unconnected-(J8-ALRT-Pad6)*%
X125700000Y-83000000D03*
%TO.P,J8,7*%
%TO.N,/AIN0*%
X128240000Y-83000000D03*
%TO.P,J8,8*%
%TO.N,/AIN1*%
X130780000Y-83000000D03*
%TO.P,J8,9*%
%TO.N,/AIN2*%
X133320000Y-83000000D03*
%TO.P,J8,10*%
%TO.N,/AIN3*%
X135860000Y-83000000D03*
%TD*%
D18*
%TO.P,R2,1*%
%TO.N,/GPIO12_FAN*%
X107000000Y-64000000D03*
%TO.P,R2,2*%
%TO.N,/FAN_BASE*%
X107000000Y-71620000D03*
%TD*%
%TO.P,R5,1*%
%TO.N,/SERVO_SIG*%
X103000000Y-106000000D03*
%TO.P,R5,2*%
%TO.N,/GND*%
X110620000Y-106000000D03*
%TD*%
%TO.P,R6,1*%
%TO.N,/GPIO14_BUZZ*%
X107000000Y-75000000D03*
%TO.P,R6,2*%
%TO.N,/BUZZ_DIRECT*%
X107000000Y-82620000D03*
%TD*%
%TO.P,R13,1*%
%TO.N,/PROBE0*%
X126000000Y-88000000D03*
%TO.P,R13,2*%
%TO.N,/AIN0*%
X133620000Y-88000000D03*
%TD*%
D12*
%TO.P,C2,1*%
%TO.N,/+12V*%
X115000000Y-115000000D03*
D13*
%TO.P,C2,2*%
%TO.N,/GND*%
X120000000Y-115000000D03*
%TD*%
D18*
%TO.P,R10,1*%
%TO.N,/+3V3_A*%
X115000000Y-92000000D03*
%TO.P,R10,2*%
%TO.N,/PROBE0*%
X122620000Y-92000000D03*
%TD*%
D31*
%TO.P,J3,1*%
%TO.N,/+5V_WT32*%
X112000000Y-62000000D03*
D32*
%TO.P,J3,2*%
%TO.N,/GND*%
X114500000Y-62000000D03*
%TO.P,J3,3*%
%TO.N,/SDA*%
X117000000Y-62000000D03*
%TO.P,J3,4*%
%TO.N,/SCL*%
X119500000Y-62000000D03*
%TO.P,J3,5*%
%TO.N,/GPIO12_FAN*%
X122000000Y-62000000D03*
%TO.P,J3,6*%
%TO.N,/GPIO13_SERVO*%
X124500000Y-62000000D03*
%TO.P,J3,7*%
%TO.N,/GPIO14_BUZZ*%
X127000000Y-62000000D03*
%TO.P,J3,8*%
%TO.N,unconnected-(J3-GPIO21_SPARE-Pad8)*%
X129500000Y-62000000D03*
%TD*%
D12*
%TO.P,C4,1*%
%TO.N,/+5V*%
X130500000Y-120000000D03*
D13*
%TO.P,C4,2*%
%TO.N,/GND*%
X130500000Y-125000000D03*
%TD*%
D18*
%TO.P,R11,1*%
%TO.N,/+3V3_A*%
X115000000Y-100000000D03*
%TO.P,R11,2*%
%TO.N,/PROBE1*%
X122620000Y-100000000D03*
%TD*%
D14*
%TO.P,J6,1*%
%TO.N,/GND*%
X147000000Y-58100000D03*
D15*
%TO.P,J6,2*%
%TO.N,/PROBE2*%
X145200000Y-56000000D03*
%TO.P,J6,3*%
X148800000Y-56000000D03*
%TD*%
D18*
%TO.P,R15,1*%
%TO.N,/PROBE2*%
X126000000Y-106000000D03*
%TO.P,R15,2*%
%TO.N,/AIN2*%
X126000000Y-113620000D03*
%TD*%
%TO.P,R1,1*%
%TO.N,/+12V*%
X103000000Y-64500000D03*
%TO.P,R1,2*%
%TO.N,/FAN_GATE*%
X103000000Y-72120000D03*
%TD*%
D33*
%TO.P,K1,1*%
%TO.N,/WALL_12V*%
X130340000Y-96330000D03*
D34*
%TO.P,K1,2*%
%TO.N,/+12V*%
X130340000Y-106490000D03*
%TO.P,K1,3*%
%TO.N,/WALL_12V*%
X130340000Y-114110000D03*
%TO.P,K1,4*%
%TO.N,/PD_12V*%
X137960000Y-111570000D03*
%TO.P,K1,5*%
%TO.N,/GND*%
X137960000Y-96330000D03*
%TD*%
D12*
%TO.P,C10,1*%
%TO.N,/AIN0*%
X115000000Y-88000000D03*
D13*
%TO.P,C10,2*%
%TO.N,/GND*%
X120000000Y-88000000D03*
%TD*%
D35*
%TO.P,D2,1*%
%TO.N,/FAN_OUT*%
X141500000Y-95500000D03*
D17*
%TO.P,D2,2*%
%TO.N,/GND*%
X151660000Y-95500000D03*
%TD*%
D27*
%TO.P,Q2,1*%
%TO.N,/GND*%
X105500000Y-124000000D03*
D28*
%TO.P,Q2,2*%
%TO.N,/FAN_BASE*%
X108040000Y-124000000D03*
%TO.P,Q2,3*%
%TO.N,/FAN_GATE*%
X110580000Y-124000000D03*
%TD*%
D36*
%TO.N,/+12V*%
X100950000Y-104214000D03*
%TO.N,/+3V3_A*%
X138618500Y-85536100D03*
D37*
%TO.N,/+5V*%
X135485500Y-78711700D03*
X121062500Y-78851100D03*
X115050000Y-110083200D03*
D36*
%TO.N,/PROBE1*%
X133217000Y-94490000D03*
%TO.N,/PROBE2*%
X133777100Y-99292700D03*
%TO.N,/SCL*%
X120005100Y-81213900D03*
%TO.N,/SERVO_SIG*%
X109288700Y-81885300D03*
X112488800Y-101886700D03*
X120195300Y-109179300D03*
X109000000Y-130600000D03*
%TD*%
D38*
%TO.N,/+12V*%
X148380000Y-91000000D02*
X148380000Y-103620000D01*
X117000000Y-119298300D02*
X115000000Y-117298300D01*
X115000000Y-117298300D02*
X115000000Y-115000000D01*
X148380000Y-103620000D02*
X143000000Y-109000000D01*
D39*
X100771500Y-66728500D02*
X100950000Y-104214000D01*
D38*
X117000000Y-121500000D02*
X117000000Y-119298300D01*
D39*
X103000000Y-64500000D02*
X100771500Y-66728500D01*
%TO.N,/+3V3_A*%
X115000000Y-100000000D02*
X113648300Y-100000000D01*
X113648300Y-106648300D02*
X113648300Y-100000000D01*
X138618500Y-63381500D02*
X140000000Y-62000000D01*
X115000000Y-108000000D02*
X113648300Y-106648300D01*
X113648300Y-93351700D02*
X115000000Y-92000000D01*
X138618500Y-85536100D02*
X138618500Y-63381500D01*
X113648300Y-100000000D02*
X113648300Y-93351700D01*
D40*
%TO.N,/+5V*%
X153250000Y-69998300D02*
X155000000Y-71748300D01*
X121201800Y-78711700D02*
X135485500Y-78711700D01*
X117709300Y-110083200D02*
X122080000Y-114453900D01*
X155000000Y-73500000D02*
X155000000Y-71748300D01*
X115050000Y-110083200D02*
X117709300Y-110083200D01*
X121062500Y-78851000D02*
X121201800Y-78711700D01*
X121062500Y-78851000D02*
X121062500Y-78851100D01*
X153250000Y-64500000D02*
X153250000Y-69998300D01*
X122080000Y-114453900D02*
X122080000Y-121500000D01*
D39*
%TO.N,/AIN1*%
X127641600Y-100978400D02*
X126000000Y-102620000D01*
X127641600Y-86138400D02*
X127641600Y-100978400D01*
X130780000Y-83000000D02*
X127641600Y-86138400D01*
%TO.N,/AIN2*%
X115000000Y-104000000D02*
X116380000Y-104000000D01*
X116380000Y-104000000D02*
X123093800Y-110713700D01*
X128455600Y-105351900D02*
X123093800Y-110713700D01*
X128455600Y-95273000D02*
X128455600Y-105351900D01*
X132368300Y-91360300D02*
X128455600Y-95273000D01*
X132368300Y-83951700D02*
X132368300Y-91360300D01*
X123093800Y-110713700D02*
X126000000Y-113620000D01*
X133320000Y-83000000D02*
X132368300Y-83951700D01*
%TO.N,/AIN3*%
X135858500Y-88910600D02*
X133620000Y-91149100D01*
X135860000Y-83000000D02*
X135858500Y-83001500D01*
X135858500Y-83001500D02*
X135858500Y-88910600D01*
X133620000Y-91149100D02*
X133620000Y-92000000D01*
%TO.N,/FAN_BASE*%
X105739400Y-99260600D02*
X105739400Y-72880600D01*
X108708400Y-123331600D02*
X108040000Y-124000000D01*
X108708400Y-107708400D02*
X108708400Y-123331600D01*
X105739400Y-72880600D02*
X107000000Y-71620000D01*
X103000000Y-102000000D02*
X108708400Y-107708400D01*
X103000000Y-102000000D02*
X105739400Y-99260600D01*
%TO.N,/FAN_GATE*%
X107922100Y-83468100D02*
X107922100Y-105156200D01*
X108256800Y-83133400D02*
X107922100Y-83468100D01*
X107518300Y-70345200D02*
X108256800Y-71083700D01*
X107922100Y-105156200D02*
X110580000Y-107814100D01*
X110580000Y-107814100D02*
X110580000Y-124000000D01*
X108256800Y-71083700D02*
X108256800Y-83133400D01*
X104774800Y-70345200D02*
X107518300Y-70345200D01*
X103000000Y-72120000D02*
X104774800Y-70345200D01*
D40*
%TO.N,/FAN_OUT*%
X141500000Y-104980200D02*
X141500000Y-95500000D01*
X135420100Y-111060100D02*
X141500000Y-104980200D01*
X108996000Y-136250600D02*
X107691900Y-137554700D01*
X106257400Y-137554700D02*
X104258300Y-135555600D01*
X104258300Y-133427800D02*
X105477300Y-132208800D01*
X127616400Y-132208800D02*
X128651700Y-131173500D01*
X135420100Y-112004700D02*
X135420100Y-111060100D01*
X108996000Y-135880000D02*
X108996000Y-136250600D01*
X105477300Y-132208800D02*
X127616400Y-132208800D01*
X128651700Y-118773100D02*
X135420100Y-112004700D01*
X107691900Y-137554700D02*
X106257400Y-137554700D01*
X104258300Y-135555600D02*
X104258300Y-133427800D01*
X128651700Y-131173500D02*
X128651700Y-118773100D01*
D39*
%TO.N,/GND*%
X119422500Y-116351700D02*
X113048100Y-109977300D01*
X114500000Y-81960000D02*
X115540000Y-83000000D01*
X155708300Y-99548300D02*
X151660000Y-95500000D01*
X126500000Y-134448300D02*
X126864200Y-134448300D01*
X113048100Y-109977300D02*
X113048100Y-108428100D01*
X119540000Y-121500000D02*
X119540000Y-116351700D01*
X119540000Y-116351700D02*
X119422500Y-116351700D01*
X151660000Y-95500000D02*
X155000000Y-92160000D01*
X156500000Y-99548300D02*
X155708300Y-99548300D01*
X109300000Y-100680000D02*
X109300000Y-93000000D01*
X110620000Y-102000000D02*
X109300000Y-100680000D01*
X114500000Y-60573300D02*
X114471600Y-60573300D01*
X114471600Y-60573300D02*
X113000000Y-59101700D01*
X114500000Y-62000000D02*
X114500000Y-81960000D01*
X155000000Y-92160000D02*
X155000000Y-91160000D01*
X110620000Y-106000000D02*
X110620000Y-102000000D01*
X151660000Y-105340000D02*
X151660000Y-95500000D01*
X120000000Y-86160000D02*
X120000000Y-88000000D01*
X113048100Y-108428100D02*
X110620000Y-106000000D01*
X113000000Y-58100000D02*
X113000000Y-59101700D01*
X118700000Y-86160000D02*
X120000000Y-86160000D01*
X114500000Y-61695900D02*
X114500000Y-62000000D01*
X114500000Y-61695900D02*
X114500000Y-60573300D01*
X120000000Y-115000000D02*
X120000000Y-115891700D01*
X156500000Y-101000000D02*
X156500000Y-99548300D01*
X148000000Y-109000000D02*
X151660000Y-105340000D01*
X126500000Y-135800000D02*
X126500000Y-134448300D01*
X115540000Y-83000000D02*
X118700000Y-86160000D01*
X120000000Y-115891700D02*
X119540000Y-116351700D01*
X120000000Y-104000000D02*
X120000000Y-96000000D01*
X130500000Y-130812500D02*
X130500000Y-125000000D01*
X126864200Y-134448300D02*
X130500000Y-130812500D01*
X123160000Y-83000000D02*
X120000000Y-86160000D01*
%TO.N,/PROBE0*%
X110650100Y-58051600D02*
X111200000Y-57501700D01*
X114559500Y-90050000D02*
X110650100Y-86140600D01*
X122620000Y-90050000D02*
X114559500Y-90050000D01*
X126000000Y-88000000D02*
X123950000Y-90050000D01*
X122620000Y-90050000D02*
X122620000Y-92000000D01*
X110650100Y-86140600D02*
X110650100Y-58051600D01*
X111200000Y-56000000D02*
X111200000Y-57501700D01*
X123950000Y-90050000D02*
X122620000Y-90050000D01*
%TO.N,/PROBE1*%
X134874800Y-92832200D02*
X134874800Y-91169500D01*
X131800000Y-56000000D02*
X132801700Y-56000000D01*
X126000000Y-95000000D02*
X126000000Y-96620000D01*
X134874800Y-91169500D02*
X136460200Y-89584100D01*
X126000000Y-96620000D02*
X122620000Y-100000000D01*
X137258700Y-60457000D02*
X132801700Y-56000000D01*
X133217000Y-94490000D02*
X134874800Y-92832200D01*
X137258700Y-84540400D02*
X137258700Y-60457000D01*
X136460200Y-85338900D02*
X137258700Y-84540400D01*
X136460200Y-89584100D02*
X136460200Y-85338900D01*
%TO.N,/PROBE2*%
X137860400Y-85089500D02*
X137860400Y-61784100D01*
X137258700Y-90741900D02*
X137258700Y-85691200D01*
X135966700Y-92033900D02*
X137258700Y-90741900D01*
X143644500Y-56000000D02*
X145200000Y-56000000D01*
X137860400Y-61784100D02*
X143644500Y-56000000D01*
X133777100Y-99292700D02*
X135966700Y-97103100D01*
X137258700Y-85691200D02*
X137860400Y-85089500D01*
X135966700Y-97103100D02*
X135966700Y-92033900D01*
%TO.N,/SCL*%
X119500000Y-80708800D02*
X119500000Y-62000000D01*
X120005100Y-81213900D02*
X119500000Y-80708800D01*
%TO.N,/SDA*%
X120586800Y-83000000D02*
X120620000Y-83000000D01*
X117000000Y-62000000D02*
X117000000Y-79413200D01*
X117000000Y-79413200D02*
X120586800Y-83000000D01*
%TO.N,/SERVO_SIG*%
X103000000Y-106000000D02*
X103000000Y-104715000D01*
X109288700Y-81342900D02*
X109288700Y-81885300D01*
X109288700Y-87087600D02*
X112488800Y-90287700D01*
X109288700Y-81885300D02*
X109288700Y-87087600D01*
X112488800Y-90287700D02*
X112488800Y-101886700D01*
X123444400Y-112428400D02*
X123444400Y-122752400D01*
X109288700Y-81885300D02*
X109288700Y-81342900D01*
X115596800Y-130600000D02*
X117187000Y-129009800D01*
X109000000Y-130600000D02*
X115596800Y-130600000D01*
X120195300Y-109179300D02*
X123444400Y-112428400D01*
X101734400Y-83885600D02*
X103000000Y-82620000D01*
X123444400Y-122752400D02*
X117187000Y-129009800D01*
X103000000Y-104715000D02*
X101734400Y-103449400D01*
X101734400Y-103449400D02*
X101734400Y-83885600D01*
D38*
%TO.N,/WALL_12V*%
X126500000Y-117950000D02*
X126500000Y-129900000D01*
X132818200Y-111631800D02*
X130340000Y-114110000D01*
X130340000Y-114110000D02*
X126500000Y-117950000D01*
X130340000Y-98781700D02*
X132818200Y-101259900D01*
X130340000Y-96330000D02*
X130340000Y-98781700D01*
X132818200Y-101259900D02*
X132818200Y-111631800D01*
%TD*%
%TA.AperFunction,Conductor*%
%TO.N,/GND*%
G36*
X155400637Y-50520462D02*
G01*
X155455175Y-50575000D01*
X155475137Y-50649500D01*
X155455175Y-50724000D01*
X155400637Y-50778538D01*
X155340743Y-50797782D01*
X155066828Y-50824760D01*
X154774668Y-50853535D01*
X154077222Y-51065104D01*
X154077215Y-51065107D01*
X153434453Y-51408669D01*
X153434446Y-51408674D01*
X153434444Y-51408675D01*
X153434443Y-51408676D01*
X152871045Y-51871045D01*
X152408674Y-52434446D01*
X152408669Y-52434453D01*
X152065107Y-53077215D01*
X152065104Y-53077222D01*
X151853535Y-53774668D01*
X151782097Y-54499999D01*
X151853535Y-55225330D01*
X152065104Y-55922776D01*
X152065107Y-55922783D01*
X152408669Y-56565545D01*
X152408673Y-56565551D01*
X152408676Y-56565556D01*
X152871045Y-57128954D01*
X153434443Y-57591323D01*
X153434449Y-57591326D01*
X153434453Y-57591329D01*
X153778058Y-57774989D01*
X154077220Y-57934894D01*
X154453869Y-58049149D01*
X154774668Y-58146463D01*
X154774670Y-58146463D01*
X154774673Y-58146464D01*
X155500000Y-58217902D01*
X156225326Y-58146464D01*
X156225328Y-58146463D01*
X156225330Y-58146463D01*
X156357804Y-58106277D01*
X156922779Y-57934894D01*
X157565556Y-57591323D01*
X158128954Y-57128954D01*
X158591323Y-56565556D01*
X158934894Y-55922779D01*
X159138397Y-55251920D01*
X159146463Y-55225330D01*
X159146463Y-55225328D01*
X159146464Y-55225326D01*
X159202217Y-54659246D01*
X159229386Y-54587063D01*
X159289007Y-54538133D01*
X159365104Y-54525569D01*
X159437289Y-54552738D01*
X159486219Y-54612359D01*
X159499500Y-54673852D01*
X159499500Y-112326147D01*
X159479538Y-112400647D01*
X159425000Y-112455185D01*
X159350500Y-112475147D01*
X159276000Y-112455185D01*
X159221462Y-112400647D01*
X159202217Y-112340751D01*
X159201181Y-112330228D01*
X159146464Y-111774673D01*
X159146463Y-111774670D01*
X159146463Y-111774668D01*
X158998394Y-111286552D01*
X158934894Y-111077220D01*
X158785348Y-110797438D01*
X158591329Y-110434453D01*
X158591326Y-110434449D01*
X158591323Y-110434443D01*
X158128954Y-109871045D01*
X157565556Y-109408676D01*
X157565551Y-109408673D01*
X157565545Y-109408669D01*
X156922783Y-109065107D01*
X156922781Y-109065106D01*
X156922779Y-109065105D01*
X156819251Y-109033700D01*
X156225330Y-108853535D01*
X155645065Y-108796384D01*
X155500000Y-108782097D01*
X155499999Y-108782097D01*
X154774668Y-108853535D01*
X154077222Y-109065104D01*
X154077215Y-109065107D01*
X153434453Y-109408669D01*
X153434446Y-109408674D01*
X153434444Y-109408675D01*
X153434443Y-109408676D01*
X152871045Y-109871045D01*
X152481369Y-110345867D01*
X152408674Y-110434446D01*
X152408669Y-110434453D01*
X152065107Y-111077215D01*
X152065104Y-111077222D01*
X151853535Y-111774668D01*
X151782901Y-112491837D01*
X151782097Y-112500000D01*
X151787291Y-112552738D01*
X151853535Y-113225330D01*
X152065104Y-113922776D01*
X152065107Y-113922783D01*
X152408669Y-114565545D01*
X152408673Y-114565551D01*
X152408676Y-114565556D01*
X152871045Y-115128954D01*
X153434443Y-115591323D01*
X153434449Y-115591326D01*
X153434453Y-115591329D01*
X153862961Y-115820370D01*
X154077220Y-115934894D01*
X154469675Y-116053944D01*
X154523976Y-116070416D01*
X154589474Y-116111145D01*
X154625832Y-116179166D01*
X154623308Y-116256252D01*
X154582579Y-116321750D01*
X154514558Y-116358108D01*
X154480724Y-116362000D01*
X133840000Y-116362000D01*
X133840000Y-140857000D01*
X155160000Y-140857000D01*
X155160000Y-116348811D01*
X155179962Y-116274311D01*
X155234500Y-116219773D01*
X155309000Y-116199811D01*
X155323590Y-116200527D01*
X155500000Y-116217902D01*
X156225326Y-116146464D01*
X156225328Y-116146463D01*
X156225330Y-116146463D01*
X156357804Y-116106277D01*
X156922779Y-115934894D01*
X157565556Y-115591323D01*
X158128954Y-115128954D01*
X158591323Y-114565556D01*
X158934894Y-113922779D01*
X159146464Y-113225326D01*
X159202217Y-112659246D01*
X159229386Y-112587063D01*
X159289007Y-112538133D01*
X159365104Y-112525569D01*
X159437289Y-112552738D01*
X159486219Y-112612359D01*
X159499500Y-112673852D01*
X159499500Y-141350500D01*
X159479538Y-141425000D01*
X159425000Y-141479538D01*
X159350500Y-141499500D01*
X100649500Y-141499500D01*
X100575000Y-141479538D01*
X100520462Y-141425000D01*
X100500500Y-141350500D01*
X100500500Y-112673863D01*
X100520462Y-112599363D01*
X100575000Y-112544825D01*
X100649500Y-112524863D01*
X100724000Y-112544825D01*
X100778538Y-112599363D01*
X100797782Y-112659257D01*
X100802850Y-112710708D01*
X100853535Y-113225330D01*
X101065104Y-113922776D01*
X101065107Y-113922783D01*
X101408669Y-114565545D01*
X101408673Y-114565551D01*
X101408676Y-114565556D01*
X101871045Y-115128954D01*
X102434443Y-115591323D01*
X102434449Y-115591326D01*
X102434453Y-115591329D01*
X102862961Y-115820370D01*
X103077220Y-115934894D01*
X103453869Y-116049149D01*
X103774668Y-116146463D01*
X103774670Y-116146463D01*
X103774673Y-116146464D01*
X104500000Y-116217902D01*
X105225326Y-116146464D01*
X105225328Y-116146463D01*
X105225330Y-116146463D01*
X105357804Y-116106277D01*
X105922779Y-115934894D01*
X106565556Y-115591323D01*
X107128954Y-115128954D01*
X107591323Y-114565556D01*
X107934894Y-113922779D01*
X107966316Y-113819193D01*
X108007045Y-113753696D01*
X108075066Y-113717338D01*
X108152152Y-113719862D01*
X108217650Y-113760591D01*
X108254008Y-113828612D01*
X108257900Y-113862446D01*
X108257900Y-122800500D01*
X108237938Y-122875000D01*
X108183400Y-122929538D01*
X108108900Y-122949500D01*
X107936535Y-122949500D01*
X107733582Y-122989869D01*
X107542403Y-123069057D01*
X107370345Y-123184022D01*
X107224022Y-123330345D01*
X107109057Y-123502403D01*
X107029869Y-123693582D01*
X106989500Y-123896534D01*
X106989500Y-124103465D01*
X107029869Y-124306417D01*
X107109057Y-124497596D01*
X107224022Y-124669654D01*
X107370345Y-124815977D01*
X107542403Y-124930942D01*
X107621591Y-124963742D01*
X107733580Y-125010130D01*
X107936535Y-125050500D01*
X108143465Y-125050500D01*
X108346420Y-125010130D01*
X108537598Y-124930941D01*
X108709655Y-124815977D01*
X108855977Y-124669655D01*
X108970941Y-124497598D01*
X109050130Y-124306420D01*
X109090500Y-124103465D01*
X109090500Y-123896535D01*
X109053248Y-123709255D01*
X109058292Y-123632293D01*
X109070347Y-123605688D01*
X109118391Y-123522474D01*
X109122238Y-123515808D01*
X109128198Y-123505487D01*
X109128199Y-123505486D01*
X109158900Y-123390909D01*
X109158900Y-107649091D01*
X109128996Y-107537487D01*
X109128199Y-107534513D01*
X109068890Y-107431786D01*
X104094165Y-102457062D01*
X104055602Y-102390268D01*
X104055602Y-102313140D01*
X104057812Y-102305678D01*
X104073402Y-102257701D01*
X104100500Y-102086611D01*
X104100500Y-101913389D01*
X104073402Y-101742299D01*
X104057817Y-101694337D01*
X104053781Y-101617317D01*
X104088795Y-101548595D01*
X104094146Y-101542955D01*
X106099890Y-99537214D01*
X106159199Y-99434486D01*
X106174006Y-99379225D01*
X106189900Y-99319909D01*
X106189900Y-83684150D01*
X106209862Y-83609650D01*
X106264400Y-83555112D01*
X106338900Y-83535150D01*
X106413400Y-83555112D01*
X106418178Y-83558216D01*
X106418209Y-83558167D01*
X106423201Y-83561225D01*
X106423205Y-83561227D01*
X106423212Y-83561232D01*
X106577555Y-83639873D01*
X106742299Y-83693402D01*
X106913389Y-83720500D01*
X106913393Y-83720500D01*
X107086607Y-83720500D01*
X107086611Y-83720500D01*
X107257701Y-83693402D01*
X107276558Y-83687274D01*
X107353576Y-83683237D01*
X107422298Y-83718252D01*
X107464307Y-83782936D01*
X107471600Y-83828982D01*
X107471600Y-105215509D01*
X107494105Y-105299500D01*
X107495813Y-105305872D01*
X107502302Y-105330091D01*
X107561606Y-105432807D01*
X107561609Y-105432811D01*
X107561611Y-105432814D01*
X110085860Y-107957063D01*
X110124423Y-108023856D01*
X110129500Y-108062420D01*
X110129500Y-122957946D01*
X110109538Y-123032446D01*
X110063280Y-123081835D01*
X109910346Y-123184022D01*
X109910341Y-123184026D01*
X109764022Y-123330345D01*
X109649057Y-123502403D01*
X109569869Y-123693582D01*
X109529500Y-123896534D01*
X109529500Y-124103465D01*
X109569869Y-124306417D01*
X109649057Y-124497596D01*
X109764022Y-124669654D01*
X109910345Y-124815977D01*
X110082403Y-124930942D01*
X110161591Y-124963742D01*
X110273580Y-125010130D01*
X110476535Y-125050500D01*
X110683465Y-125050500D01*
X110886420Y-125010130D01*
X111077598Y-124930941D01*
X111249655Y-124815977D01*
X111395977Y-124669655D01*
X111510941Y-124497598D01*
X111590130Y-124306420D01*
X111630500Y-124103465D01*
X111630500Y-123896535D01*
X111590130Y-123693580D01*
X111543742Y-123581591D01*
X111510942Y-123502403D01*
X111395977Y-123330345D01*
X111249658Y-123184026D01*
X111249655Y-123184023D01*
X111205233Y-123154341D01*
X111096720Y-123081835D01*
X111045866Y-123023847D01*
X111030500Y-122957946D01*
X111030500Y-114897648D01*
X113699500Y-114897648D01*
X113699500Y-117195948D01*
X113699500Y-117400652D01*
X113731523Y-117602833D01*
X113731523Y-117602834D01*
X113744348Y-117642308D01*
X113744354Y-117642325D01*
X113745375Y-117645466D01*
X113794780Y-117797519D01*
X113820322Y-117847648D01*
X113884853Y-117974299D01*
X113887715Y-117979915D01*
X114008031Y-118145515D01*
X114008034Y-118145519D01*
X115655860Y-119793345D01*
X115694423Y-119860138D01*
X115699500Y-119898702D01*
X115699500Y-121602352D01*
X115722373Y-121746767D01*
X115731523Y-121804536D01*
X115792207Y-121991301D01*
X115799500Y-122037344D01*
X115799500Y-122444866D01*
X115802414Y-122469989D01*
X115802415Y-122469992D01*
X115847793Y-122572764D01*
X115847794Y-122572765D01*
X115927235Y-122652206D01*
X116030009Y-122697585D01*
X116055135Y-122700500D01*
X116462650Y-122700499D01*
X116508693Y-122707791D01*
X116544974Y-122719579D01*
X116695466Y-122768477D01*
X116897648Y-122800500D01*
X116897653Y-122800500D01*
X117102347Y-122800500D01*
X117102352Y-122800500D01*
X117304534Y-122768477D01*
X117491307Y-122707790D01*
X117537348Y-122700499D01*
X117944867Y-122700499D01*
X117959940Y-122698750D01*
X117969991Y-122697585D01*
X118072765Y-122652206D01*
X118152206Y-122572765D01*
X118197585Y-122469991D01*
X118200500Y-122444865D01*
X118200499Y-122037344D01*
X118207792Y-121991304D01*
X118268476Y-121804536D01*
X118268477Y-121804534D01*
X118300500Y-121602352D01*
X118300500Y-119195948D01*
X118275129Y-119035766D01*
X118268477Y-118993765D01*
X118206286Y-118802364D01*
X118205624Y-118800078D01*
X118205619Y-118799865D01*
X118119890Y-118631611D01*
X118119888Y-118631607D01*
X118112288Y-118616691D01*
X118112287Y-118616689D01*
X117991966Y-118451081D01*
X116344141Y-116803256D01*
X116305577Y-116736461D01*
X116300500Y-116697897D01*
X116300500Y-114897652D01*
X116300500Y-114897648D01*
X116268477Y-114695466D01*
X116207790Y-114508693D01*
X116200499Y-114462651D01*
X116200499Y-114055133D01*
X116197585Y-114030010D01*
X116197584Y-114030008D01*
X116152206Y-113927235D01*
X116072765Y-113847794D01*
X116072764Y-113847793D01*
X115969994Y-113802416D01*
X115969991Y-113802415D01*
X115969982Y-113802414D01*
X115944865Y-113799500D01*
X115944859Y-113799500D01*
X115537345Y-113799500D01*
X115491304Y-113792208D01*
X115304534Y-113731523D01*
X115304532Y-113731522D01*
X115304530Y-113731522D01*
X115240570Y-113721391D01*
X115102352Y-113699500D01*
X114897648Y-113699500D01*
X114785025Y-113717338D01*
X114695469Y-113731522D01*
X114508697Y-113792208D01*
X114462654Y-113799500D01*
X114055133Y-113799500D01*
X114030010Y-113802414D01*
X114030007Y-113802415D01*
X113927235Y-113847793D01*
X113847793Y-113927235D01*
X113802416Y-114030005D01*
X113802415Y-114030008D01*
X113802415Y-114030009D01*
X113799500Y-114055135D01*
X113799500Y-114055136D01*
X113799500Y-114055140D01*
X113799500Y-114462654D01*
X113792208Y-114508697D01*
X113731522Y-114695469D01*
X113727558Y-114720500D01*
X113699500Y-114897648D01*
X111030500Y-114897648D01*
X111030500Y-107754791D01*
X111030499Y-107754789D01*
X111027153Y-107742303D01*
X110999799Y-107640214D01*
X110999799Y-107640213D01*
X110976092Y-107599152D01*
X110940491Y-107537489D01*
X110940490Y-107537488D01*
X110940489Y-107537486D01*
X108416241Y-105013238D01*
X108377677Y-104946443D01*
X108372600Y-104907879D01*
X108372600Y-83716421D01*
X108377677Y-83697473D01*
X108377677Y-83677857D01*
X108387484Y-83660869D01*
X108392562Y-83641921D01*
X108416241Y-83611062D01*
X108583841Y-83443462D01*
X108650636Y-83404898D01*
X108727764Y-83404898D01*
X108794559Y-83443462D01*
X108833123Y-83510257D01*
X108838200Y-83548821D01*
X108838200Y-87146909D01*
X108862413Y-87237273D01*
X108867530Y-87256373D01*
X108868902Y-87261491D01*
X108928206Y-87364207D01*
X108928209Y-87364211D01*
X108928211Y-87364214D01*
X111994660Y-90430663D01*
X112033223Y-90497456D01*
X112038300Y-90536020D01*
X112038300Y-101284826D01*
X112018338Y-101359326D01*
X111994659Y-101390185D01*
X111944689Y-101440154D01*
X111944683Y-101440161D01*
X111868027Y-101554884D01*
X111868024Y-101554890D01*
X111815220Y-101682370D01*
X111815219Y-101682374D01*
X111788300Y-101817706D01*
X111788300Y-101955693D01*
X111815219Y-102091025D01*
X111815220Y-102091029D01*
X111868024Y-102218509D01*
X111868027Y-102218515D01*
X111922808Y-102300500D01*
X111944686Y-102333242D01*
X112042258Y-102430814D01*
X112042261Y-102430816D01*
X112156984Y-102507472D01*
X112156986Y-102507473D01*
X112156989Y-102507475D01*
X112284472Y-102560280D01*
X112419807Y-102587200D01*
X112557793Y-102587200D01*
X112693128Y-102560280D01*
X112820611Y-102507475D01*
X112935342Y-102430814D01*
X112943441Y-102422715D01*
X113010236Y-102384151D01*
X113087364Y-102384151D01*
X113154159Y-102422715D01*
X113192723Y-102489510D01*
X113197800Y-102528074D01*
X113197800Y-106707610D01*
X113213781Y-106767250D01*
X113228502Y-106822191D01*
X113287806Y-106924907D01*
X113287809Y-106924911D01*
X113287811Y-106924914D01*
X113609518Y-107246621D01*
X113905833Y-107542936D01*
X113944397Y-107609731D01*
X113944397Y-107686859D01*
X113942186Y-107694321D01*
X113937053Y-107710122D01*
X113926597Y-107742303D01*
X113924619Y-107754791D01*
X113899500Y-107913389D01*
X113899500Y-108086611D01*
X113904541Y-108118436D01*
X113926597Y-108257700D01*
X113964653Y-108374821D01*
X113980127Y-108422445D01*
X114027580Y-108515576D01*
X114058771Y-108576793D01*
X114101199Y-108635189D01*
X114160586Y-108716928D01*
X114283072Y-108839414D01*
X114423212Y-108941232D01*
X114577555Y-109019873D01*
X114583434Y-109021783D01*
X114648117Y-109063786D01*
X114683134Y-109132507D01*
X114679100Y-109209530D01*
X114637095Y-109274216D01*
X114620172Y-109287378D01*
X114475970Y-109383731D01*
X114475963Y-109383737D01*
X114350537Y-109509163D01*
X114350533Y-109509168D01*
X114251987Y-109656651D01*
X114251986Y-109656653D01*
X114184106Y-109820532D01*
X114184105Y-109820536D01*
X114149500Y-109994508D01*
X114149500Y-110171891D01*
X114184105Y-110345863D01*
X114184106Y-110345867D01*
X114251986Y-110509746D01*
X114251987Y-110509748D01*
X114329039Y-110625063D01*
X114350536Y-110657235D01*
X114475965Y-110782664D01*
X114475968Y-110782666D01*
X114623451Y-110881212D01*
X114623453Y-110881213D01*
X114787334Y-110949094D01*
X114961309Y-110983700D01*
X115138691Y-110983700D01*
X117274582Y-110983700D01*
X117349082Y-111003662D01*
X117379941Y-111027341D01*
X121135859Y-114783259D01*
X121174423Y-114850054D01*
X121179500Y-114888618D01*
X121179500Y-120648607D01*
X121159538Y-120723107D01*
X121151043Y-120736187D01*
X121053241Y-120870798D01*
X121053238Y-120870804D01*
X120967458Y-121039157D01*
X120967455Y-121039163D01*
X120967453Y-121039168D01*
X120909060Y-121218882D01*
X120879500Y-121405519D01*
X120879500Y-121594481D01*
X120909060Y-121781118D01*
X120967453Y-121960832D01*
X121053240Y-122129199D01*
X121164310Y-122282073D01*
X121297927Y-122415690D01*
X121450801Y-122526760D01*
X121619168Y-122612547D01*
X121798882Y-122670940D01*
X121985519Y-122700500D01*
X121985524Y-122700500D01*
X122174476Y-122700500D01*
X122174481Y-122700500D01*
X122361118Y-122670940D01*
X122540832Y-122612547D01*
X122540847Y-122612539D01*
X122542397Y-122611898D01*
X122543123Y-122611802D01*
X122546399Y-122610738D01*
X122546596Y-122611344D01*
X122618865Y-122601825D01*
X122690124Y-122631336D01*
X122737080Y-122692523D01*
X122747153Y-122768991D01*
X122717642Y-122840250D01*
X122704785Y-122854911D01*
X116910386Y-128649311D01*
X115453838Y-130105859D01*
X115387043Y-130144423D01*
X115348479Y-130149500D01*
X109601874Y-130149500D01*
X109527374Y-130129538D01*
X109496515Y-130105859D01*
X109446545Y-130055889D01*
X109446542Y-130055886D01*
X109446538Y-130055883D01*
X109331815Y-129979227D01*
X109331809Y-129979224D01*
X109204329Y-129926420D01*
X109204325Y-129926419D01*
X109068993Y-129899500D01*
X108931007Y-129899500D01*
X108795674Y-129926419D01*
X108795670Y-129926420D01*
X108668190Y-129979224D01*
X108668184Y-129979227D01*
X108553461Y-130055883D01*
X108553454Y-130055889D01*
X108455889Y-130153454D01*
X108455883Y-130153461D01*
X108379227Y-130268184D01*
X108379224Y-130268190D01*
X108326420Y-130395670D01*
X108326419Y-130395674D01*
X108299500Y-130531006D01*
X108299500Y-130668993D01*
X108326419Y-130804325D01*
X108326420Y-130804329D01*
X108379224Y-130931809D01*
X108379227Y-130931815D01*
X108455883Y-131046538D01*
X108455889Y-131046545D01*
X108463285Y-131053941D01*
X108501849Y-131120736D01*
X108501849Y-131197864D01*
X108463285Y-131264659D01*
X108396490Y-131303223D01*
X108357926Y-131308300D01*
X105565991Y-131308300D01*
X105388608Y-131308300D01*
X105359744Y-131314041D01*
X105214634Y-131342905D01*
X105214632Y-131342906D01*
X105050753Y-131410786D01*
X105050751Y-131410787D01*
X104903268Y-131509333D01*
X104903263Y-131509337D01*
X104903264Y-131509337D01*
X103558837Y-132853762D01*
X103558835Y-132853765D01*
X103525225Y-132904066D01*
X103525219Y-132904076D01*
X103522421Y-132908264D01*
X103460287Y-133001253D01*
X103440303Y-133049500D01*
X103436638Y-133058347D01*
X103436635Y-133058353D01*
X103392405Y-133165133D01*
X103392404Y-133165135D01*
X103357800Y-133339107D01*
X103357800Y-135644292D01*
X103378676Y-135749248D01*
X103392405Y-135818266D01*
X103426346Y-135900206D01*
X103460287Y-135982147D01*
X103519363Y-136070559D01*
X103523108Y-136076165D01*
X103523112Y-136076171D01*
X103558831Y-136129630D01*
X103558838Y-136129638D01*
X103749186Y-136319986D01*
X103787750Y-136386781D01*
X103787750Y-136463909D01*
X103749186Y-136530704D01*
X103682391Y-136569268D01*
X103605263Y-136569268D01*
X103522535Y-136547101D01*
X103274898Y-136514500D01*
X103274893Y-136514500D01*
X103025107Y-136514500D01*
X103025101Y-136514500D01*
X102777465Y-136547101D01*
X102536179Y-136611754D01*
X102305405Y-136707344D01*
X102089090Y-136832234D01*
X102089089Y-136832235D01*
X101890920Y-136984295D01*
X101890918Y-136984296D01*
X101890914Y-136984300D01*
X101714300Y-137160914D01*
X101562234Y-137359090D01*
X101437344Y-137575405D01*
X101341754Y-137806179D01*
X101277101Y-138047465D01*
X101244500Y-138295101D01*
X101244500Y-138544898D01*
X101277101Y-138792534D01*
X101277102Y-138792540D01*
X101277103Y-138792542D01*
X101341753Y-139033817D01*
X101437342Y-139264590D01*
X101562235Y-139480911D01*
X101714295Y-139679080D01*
X101890920Y-139855705D01*
X102089089Y-140007765D01*
X102305410Y-140132658D01*
X102536183Y-140228247D01*
X102777458Y-140292897D01*
X102777464Y-140292897D01*
X102777465Y-140292898D01*
X102844791Y-140301761D01*
X103025107Y-140325500D01*
X103274893Y-140325500D01*
X103522542Y-140292897D01*
X103763817Y-140228247D01*
X103994590Y-140132658D01*
X104210911Y-140007765D01*
X104409080Y-139855705D01*
X104585705Y-139679080D01*
X104737765Y-139480911D01*
X104862658Y-139264590D01*
X104958247Y-139033817D01*
X105022897Y-138792542D01*
X105055500Y-138544893D01*
X105055500Y-138295107D01*
X105022897Y-138047458D01*
X105000730Y-137964734D01*
X105000730Y-137887609D01*
X105039293Y-137820813D01*
X105106087Y-137782249D01*
X105183215Y-137782248D01*
X105250011Y-137820811D01*
X105250012Y-137820812D01*
X105476659Y-138047458D01*
X105557936Y-138128735D01*
X105683365Y-138254164D01*
X105683368Y-138254166D01*
X105830851Y-138352712D01*
X105830853Y-138352713D01*
X105994734Y-138420594D01*
X106168708Y-138455200D01*
X106168709Y-138455200D01*
X107780592Y-138455200D01*
X107954566Y-138420595D01*
X108039738Y-138385315D01*
X108118447Y-138352713D01*
X108204667Y-138295101D01*
X113944500Y-138295101D01*
X113944500Y-138544898D01*
X113977101Y-138792534D01*
X113977102Y-138792540D01*
X113977103Y-138792542D01*
X114041753Y-139033817D01*
X114137342Y-139264590D01*
X114262235Y-139480911D01*
X114414295Y-139679080D01*
X114590920Y-139855705D01*
X114789089Y-140007765D01*
X115005410Y-140132658D01*
X115236183Y-140228247D01*
X115477458Y-140292897D01*
X115477464Y-140292897D01*
X115477465Y-140292898D01*
X115544791Y-140301761D01*
X115725107Y-140325500D01*
X115974893Y-140325500D01*
X116222542Y-140292897D01*
X116463817Y-140228247D01*
X116694590Y-140132658D01*
X116910911Y-140007765D01*
X117109080Y-139855705D01*
X117285705Y-139679080D01*
X117437765Y-139480911D01*
X117562658Y-139264590D01*
X117658247Y-139033817D01*
X117722897Y-138792542D01*
X117755500Y-138544893D01*
X117755500Y-138295107D01*
X117722897Y-138047458D01*
X117658247Y-137806183D01*
X117562658Y-137575410D01*
X117437765Y-137359089D01*
X117285705Y-137160920D01*
X117109080Y-136984295D01*
X116910911Y-136832235D01*
X116838804Y-136790604D01*
X116694594Y-136707344D01*
X116694592Y-136707343D01*
X116694590Y-136707342D01*
X116559407Y-136651347D01*
X116463820Y-136611754D01*
X116463818Y-136611753D01*
X116463817Y-136611753D01*
X116222542Y-136547103D01*
X116222540Y-136547102D01*
X116222534Y-136547101D01*
X115974898Y-136514500D01*
X115974893Y-136514500D01*
X115725107Y-136514500D01*
X115725101Y-136514500D01*
X115477465Y-136547101D01*
X115236179Y-136611754D01*
X115005405Y-136707344D01*
X114789090Y-136832234D01*
X114789089Y-136832235D01*
X114590920Y-136984295D01*
X114590918Y-136984296D01*
X114590914Y-136984300D01*
X114414300Y-137160914D01*
X114262234Y-137359090D01*
X114137344Y-137575405D01*
X114041754Y-137806179D01*
X113977101Y-138047465D01*
X113944500Y-138295101D01*
X108204667Y-138295101D01*
X108206859Y-138293636D01*
X108265936Y-138254164D01*
X109695464Y-136824636D01*
X109773837Y-136707342D01*
X109794013Y-136677147D01*
X109827953Y-136595206D01*
X109861895Y-136513266D01*
X109866459Y-136490315D01*
X109900569Y-136421144D01*
X109964698Y-136378293D01*
X110041661Y-136373246D01*
X110110836Y-136407357D01*
X110136485Y-136436604D01*
X110212023Y-136549655D01*
X110212026Y-136549658D01*
X110358345Y-136695977D01*
X110530403Y-136810942D01*
X110609591Y-136843742D01*
X110721580Y-136890130D01*
X110924535Y-136930500D01*
X111131465Y-136930500D01*
X111334420Y-136890130D01*
X111525598Y-136810941D01*
X111697655Y-136695977D01*
X111762556Y-136631075D01*
X111829349Y-136592512D01*
X111906477Y-136592512D01*
X111973272Y-136631075D01*
X112007412Y-136689946D01*
X112007887Y-136689737D01*
X112009790Y-136694047D01*
X112011688Y-136697320D01*
X112012414Y-136699991D01*
X112057793Y-136802764D01*
X112057794Y-136802765D01*
X112137235Y-136882206D01*
X112240009Y-136927585D01*
X112265135Y-136930500D01*
X113854864Y-136930499D01*
X113854866Y-136930499D01*
X113867427Y-136929042D01*
X113879991Y-136927585D01*
X113982765Y-136882206D01*
X114062206Y-136802765D01*
X114107585Y-136699991D01*
X114110500Y-136674865D01*
X114110499Y-135085136D01*
X114107585Y-135060009D01*
X114062206Y-134957235D01*
X113982765Y-134877794D01*
X113982764Y-134877793D01*
X113879994Y-134832416D01*
X113879991Y-134832415D01*
X113854865Y-134829500D01*
X113854859Y-134829500D01*
X113098748Y-134829500D01*
X113024248Y-134809538D01*
X112969710Y-134755000D01*
X112949748Y-134680500D01*
X112969710Y-134606000D01*
X112974862Y-134597716D01*
X112974942Y-134597596D01*
X112984548Y-134574402D01*
X113054130Y-134406420D01*
X113094500Y-134203465D01*
X113094500Y-133996535D01*
X113054130Y-133793580D01*
X112975528Y-133603818D01*
X112974942Y-133602403D01*
X112859977Y-133430345D01*
X112793291Y-133363659D01*
X112754727Y-133296864D01*
X112754727Y-133219736D01*
X112793291Y-133152941D01*
X112860086Y-133114377D01*
X112898650Y-133109300D01*
X127705092Y-133109300D01*
X127879066Y-133074695D01*
X127961006Y-133040753D01*
X128042947Y-133006813D01*
X128131359Y-132947736D01*
X128190436Y-132908264D01*
X128843180Y-132255519D01*
X129999500Y-132255519D01*
X129999500Y-133144481D01*
X130029060Y-133331118D01*
X130087453Y-133510832D01*
X130173240Y-133679199D01*
X130284310Y-133832073D01*
X130417927Y-133965690D01*
X130570801Y-134076760D01*
X130739168Y-134162547D01*
X130918882Y-134220940D01*
X131105519Y-134250500D01*
X131105524Y-134250500D01*
X131294476Y-134250500D01*
X131294481Y-134250500D01*
X131481118Y-134220940D01*
X131660832Y-134162547D01*
X131829199Y-134076760D01*
X131982073Y-133965690D01*
X132115690Y-133832073D01*
X132226760Y-133679199D01*
X132312547Y-133510832D01*
X132370940Y-133331118D01*
X132400500Y-133144481D01*
X132400500Y-132255519D01*
X132370940Y-132068882D01*
X132312547Y-131889168D01*
X132226760Y-131720801D01*
X132115690Y-131567927D01*
X131982073Y-131434310D01*
X131829199Y-131323240D01*
X131760700Y-131288338D01*
X131660842Y-131237458D01*
X131660841Y-131237457D01*
X131660832Y-131237453D01*
X131481118Y-131179060D01*
X131294481Y-131149500D01*
X131105519Y-131149500D01*
X130918882Y-131179060D01*
X130739168Y-131237453D01*
X130739163Y-131237455D01*
X130739157Y-131237458D01*
X130570804Y-131323238D01*
X130570799Y-131323241D01*
X130417936Y-131434303D01*
X130417925Y-131434312D01*
X130284312Y-131567925D01*
X130284303Y-131567936D01*
X130173241Y-131720799D01*
X130173238Y-131720804D01*
X130087458Y-131889157D01*
X130087455Y-131889163D01*
X130087453Y-131889168D01*
X130029060Y-132068882D01*
X129999500Y-132255519D01*
X128843180Y-132255519D01*
X129351163Y-131747536D01*
X129369027Y-131720801D01*
X129369029Y-131720799D01*
X129449712Y-131600048D01*
X129449713Y-131600047D01*
X129517594Y-131436166D01*
X129552200Y-131262191D01*
X129552200Y-121349499D01*
X129572162Y-121274999D01*
X129626700Y-121220461D01*
X129701196Y-121200499D01*
X131444864Y-121200499D01*
X131444867Y-121200499D01*
X131459940Y-121198750D01*
X131469991Y-121197585D01*
X131572765Y-121152206D01*
X131652206Y-121072765D01*
X131697585Y-120969991D01*
X131700500Y-120944865D01*
X131700499Y-119055136D01*
X131697585Y-119030009D01*
X131652206Y-118927235D01*
X131572765Y-118847794D01*
X131572764Y-118847793D01*
X131469994Y-118802416D01*
X131469991Y-118802415D01*
X131444865Y-118799500D01*
X131444859Y-118799500D01*
X130258517Y-118799500D01*
X130184017Y-118779538D01*
X130129479Y-118725000D01*
X130109517Y-118650500D01*
X130129479Y-118576000D01*
X130153158Y-118545141D01*
X132763408Y-115934891D01*
X136119564Y-112578736D01*
X136182882Y-112483973D01*
X136218113Y-112431247D01*
X136266922Y-112313411D01*
X136285995Y-112267366D01*
X136317165Y-112110659D01*
X136351277Y-112041485D01*
X136415407Y-111998635D01*
X136492369Y-111993590D01*
X136561544Y-112027702D01*
X136604394Y-112091832D01*
X136605005Y-112093672D01*
X136615769Y-112126799D01*
X136719421Y-112330228D01*
X136792816Y-112431247D01*
X136842768Y-112500000D01*
X136853621Y-112514937D01*
X137015063Y-112676379D01*
X137199772Y-112810579D01*
X137403201Y-112914231D01*
X137620340Y-112984784D01*
X137845843Y-113020500D01*
X137845847Y-113020500D01*
X138074153Y-113020500D01*
X138074157Y-113020500D01*
X138299660Y-112984784D01*
X138516799Y-112914231D01*
X138720228Y-112810579D01*
X138904937Y-112676379D01*
X139066379Y-112514937D01*
X139200579Y-112330228D01*
X139304231Y-112126799D01*
X139374784Y-111909660D01*
X139410500Y-111684157D01*
X139410500Y-111455843D01*
X139374784Y-111230340D01*
X139304231Y-111013201D01*
X139200579Y-110809772D01*
X139066379Y-110625063D01*
X138904937Y-110463621D01*
X138720228Y-110329421D01*
X138516799Y-110225769D01*
X138299660Y-110155216D01*
X138074157Y-110119500D01*
X137993917Y-110119500D01*
X137919417Y-110099538D01*
X137864879Y-110045000D01*
X137844917Y-109970500D01*
X137864879Y-109896000D01*
X137888558Y-109865141D01*
X139858696Y-107895003D01*
X142199464Y-105554236D01*
X142280595Y-105432814D01*
X142298013Y-105406747D01*
X142342436Y-105299500D01*
X142365895Y-105242866D01*
X142400500Y-105068892D01*
X142400500Y-104891508D01*
X142400500Y-97023253D01*
X142420462Y-96948753D01*
X142475000Y-96894215D01*
X142494823Y-96884648D01*
X142622343Y-96834361D01*
X142742923Y-96742923D01*
X142834361Y-96622343D01*
X142889877Y-96481565D01*
X142900500Y-96393103D01*
X142900499Y-94606898D01*
X142889877Y-94518435D01*
X142834361Y-94377657D01*
X142742923Y-94257077D01*
X142622343Y-94165639D01*
X142622341Y-94165638D01*
X142622342Y-94165638D01*
X142481564Y-94110122D01*
X142393103Y-94099500D01*
X140606902Y-94099500D01*
X140606891Y-94099501D01*
X140518439Y-94110122D01*
X140518430Y-94110124D01*
X140377657Y-94165638D01*
X140257077Y-94257076D01*
X140257076Y-94257077D01*
X140165638Y-94377657D01*
X140110122Y-94518435D01*
X140099500Y-94606893D01*
X140099500Y-96393097D01*
X140099501Y-96393108D01*
X140110122Y-96481560D01*
X140110124Y-96481569D01*
X140165638Y-96622342D01*
X140208834Y-96679304D01*
X140257077Y-96742923D01*
X140377657Y-96834361D01*
X140505164Y-96884643D01*
X140567144Y-96930542D01*
X140597872Y-97001285D01*
X140599500Y-97023253D01*
X140599500Y-104545482D01*
X140579538Y-104619982D01*
X140555859Y-104650841D01*
X134720639Y-110486060D01*
X134720635Y-110486065D01*
X134687578Y-110535537D01*
X134687569Y-110535552D01*
X134684727Y-110539806D01*
X134622087Y-110633553D01*
X134601316Y-110683700D01*
X134597679Y-110692479D01*
X134597675Y-110692487D01*
X134554207Y-110797428D01*
X134554204Y-110797438D01*
X134523821Y-110950188D01*
X134523821Y-110950189D01*
X134519600Y-110971405D01*
X134519600Y-111569981D01*
X134514523Y-111588928D01*
X134514523Y-111608545D01*
X134504715Y-111625532D01*
X134499638Y-111644481D01*
X134475959Y-111675340D01*
X134373059Y-111778240D01*
X134306264Y-111816804D01*
X134229136Y-111816804D01*
X134162341Y-111778240D01*
X134123777Y-111711445D01*
X134118700Y-111672881D01*
X134118700Y-101157552D01*
X134118700Y-101157548D01*
X134086677Y-100955366D01*
X134023420Y-100760681D01*
X133991639Y-100698308D01*
X133950675Y-100617910D01*
X133950674Y-100617909D01*
X133949972Y-100616532D01*
X133930487Y-100578289D01*
X133810166Y-100412681D01*
X133645041Y-100247556D01*
X133606479Y-100180764D01*
X133606479Y-100103636D01*
X133645043Y-100036841D01*
X133711838Y-99998277D01*
X133750402Y-99993200D01*
X133846093Y-99993200D01*
X133981428Y-99966280D01*
X134108911Y-99913475D01*
X134223642Y-99836814D01*
X134321214Y-99739242D01*
X134397875Y-99624511D01*
X134450680Y-99497028D01*
X134477600Y-99361693D01*
X134477600Y-99291020D01*
X134497562Y-99216520D01*
X134521237Y-99185665D01*
X136327189Y-97379714D01*
X136386499Y-97276987D01*
X136406993Y-97200500D01*
X136417200Y-97162409D01*
X136417200Y-92282220D01*
X136437162Y-92207720D01*
X136460837Y-92176865D01*
X137619189Y-91018514D01*
X137678499Y-90915787D01*
X137707109Y-90809011D01*
X137709200Y-90801209D01*
X137709200Y-89500000D01*
X140005000Y-89500000D01*
X141915311Y-89500000D01*
X141989811Y-89519962D01*
X142044349Y-89574500D01*
X142064311Y-89649000D01*
X142044349Y-89723500D01*
X142020670Y-89754359D01*
X141997793Y-89777235D01*
X141952416Y-89880005D01*
X141952415Y-89880008D01*
X141952415Y-89880009D01*
X141949500Y-89905135D01*
X141949500Y-89905136D01*
X141949500Y-89905140D01*
X141949500Y-92094866D01*
X141952414Y-92119989D01*
X141952415Y-92119992D01*
X141997793Y-92222764D01*
X141997794Y-92222765D01*
X142077235Y-92302206D01*
X142180009Y-92347585D01*
X142205135Y-92350500D01*
X144394864Y-92350499D01*
X144394866Y-92350499D01*
X144407427Y-92349042D01*
X144419991Y-92347585D01*
X144522765Y-92302206D01*
X144602206Y-92222765D01*
X144647585Y-92119991D01*
X144650500Y-92094865D01*
X144650499Y-92080117D01*
X144670457Y-92005620D01*
X144724992Y-91951079D01*
X144799491Y-91931113D01*
X144873992Y-91951071D01*
X144904858Y-91974754D01*
X144960208Y-92030104D01*
X145132184Y-92155051D01*
X145321588Y-92251557D01*
X145523757Y-92317246D01*
X145733713Y-92350500D01*
X145733718Y-92350500D01*
X145946282Y-92350500D01*
X145946287Y-92350500D01*
X146156243Y-92317246D01*
X146358412Y-92251557D01*
X146547816Y-92155051D01*
X146719792Y-92030104D01*
X146825141Y-91924755D01*
X146891936Y-91886191D01*
X146969064Y-91886191D01*
X147035859Y-91924755D01*
X147074423Y-91991550D01*
X147079500Y-92030114D01*
X147079500Y-103019597D01*
X147059538Y-103094097D01*
X147035859Y-103124956D01*
X142504956Y-107655859D01*
X142438161Y-107694423D01*
X142399597Y-107699500D01*
X142206894Y-107699500D01*
X142118436Y-107710122D01*
X141977658Y-107765638D01*
X141977658Y-107765639D01*
X141857079Y-107857076D01*
X141857076Y-107857079D01*
X141765639Y-107977658D01*
X141765638Y-107977658D01*
X141710122Y-108118436D01*
X141699500Y-108206894D01*
X141699500Y-109793105D01*
X141710122Y-109881563D01*
X141765638Y-110022341D01*
X141824178Y-110099538D01*
X141857078Y-110142922D01*
X141977658Y-110234361D01*
X142118436Y-110289877D01*
X142206898Y-110300500D01*
X142206899Y-110300500D01*
X143793101Y-110300500D01*
X143793102Y-110300500D01*
X143881564Y-110289877D01*
X144022342Y-110234361D01*
X144142922Y-110142922D01*
X144234361Y-110022342D01*
X144289877Y-109881564D01*
X144300500Y-109793102D01*
X144300500Y-109600402D01*
X144320462Y-109525902D01*
X144344137Y-109495047D01*
X149371966Y-104467219D01*
X149492287Y-104301611D01*
X149538753Y-104210414D01*
X149585220Y-104119219D01*
X149620814Y-104009672D01*
X149648477Y-103924535D01*
X149680500Y-103722352D01*
X149680500Y-103517648D01*
X149680500Y-100206894D01*
X152849500Y-100206894D01*
X152849500Y-101793105D01*
X152860122Y-101881563D01*
X152915638Y-102022341D01*
X152964372Y-102086607D01*
X153007078Y-102142922D01*
X153127658Y-102234361D01*
X153268436Y-102289877D01*
X153356898Y-102300500D01*
X153356899Y-102300500D01*
X154643101Y-102300500D01*
X154643102Y-102300500D01*
X154731564Y-102289877D01*
X154872342Y-102234361D01*
X154992922Y-102142922D01*
X155084361Y-102022342D01*
X155139877Y-101881564D01*
X155150500Y-101793102D01*
X155150500Y-100206898D01*
X155139877Y-100118436D01*
X155084361Y-99977658D01*
X155035687Y-99913472D01*
X154992923Y-99857079D01*
X154992920Y-99857076D01*
X154945982Y-99821482D01*
X154872342Y-99765639D01*
X154872341Y-99765638D01*
X154731563Y-99710122D01*
X154643105Y-99699500D01*
X154643102Y-99699500D01*
X153356898Y-99699500D01*
X153356894Y-99699500D01*
X153268436Y-99710122D01*
X153127658Y-99765638D01*
X153127658Y-99765639D01*
X153007079Y-99857076D01*
X153007076Y-99857079D01*
X152915639Y-99977658D01*
X152915638Y-99977658D01*
X152860122Y-100118436D01*
X152849500Y-100206894D01*
X149680500Y-100206894D01*
X149680500Y-91391379D01*
X149687792Y-91345337D01*
X149697246Y-91316243D01*
X149730500Y-91106287D01*
X149730500Y-90893713D01*
X149697246Y-90683757D01*
X149631557Y-90481588D01*
X149535051Y-90292184D01*
X149410104Y-90120208D01*
X149259792Y-89969896D01*
X149087816Y-89844949D01*
X148963799Y-89781759D01*
X148906483Y-89730151D01*
X148882649Y-89656798D01*
X148898685Y-89581355D01*
X148950294Y-89524038D01*
X149023647Y-89500204D01*
X149031445Y-89500000D01*
X151675000Y-89500000D01*
X151675000Y-80106893D01*
X153599500Y-80106893D01*
X153599500Y-81893097D01*
X153599501Y-81893108D01*
X153610122Y-81981560D01*
X153610124Y-81981569D01*
X153665638Y-82122342D01*
X153738121Y-82217925D01*
X153757077Y-82242923D01*
X153877657Y-82334361D01*
X154018435Y-82389877D01*
X154106897Y-82400500D01*
X155893102Y-82400499D01*
X155981565Y-82389877D01*
X156122343Y-82334361D01*
X156242923Y-82242923D01*
X156334361Y-82122343D01*
X156389877Y-81981565D01*
X156400500Y-81893103D01*
X156400499Y-80106898D01*
X156389877Y-80018435D01*
X156334361Y-79877657D01*
X156242923Y-79757077D01*
X156235700Y-79751600D01*
X156190064Y-79716993D01*
X156122343Y-79665639D01*
X156122341Y-79665638D01*
X156122342Y-79665638D01*
X155981564Y-79610122D01*
X155893103Y-79599500D01*
X154106902Y-79599500D01*
X154106891Y-79599501D01*
X154018439Y-79610122D01*
X154018430Y-79610124D01*
X153877657Y-79665638D01*
X153757077Y-79757076D01*
X153757076Y-79757077D01*
X153665638Y-79877657D01*
X153610122Y-80018435D01*
X153599500Y-80106893D01*
X151675000Y-80106893D01*
X151675000Y-67990000D01*
X140005000Y-67990000D01*
X140005000Y-89500000D01*
X137709200Y-89500000D01*
X137709200Y-85939520D01*
X137714277Y-85920572D01*
X137714277Y-85900956D01*
X137724084Y-85883968D01*
X137729162Y-85865020D01*
X137752838Y-85834164D01*
X137758610Y-85828391D01*
X137825404Y-85789829D01*
X137902532Y-85789829D01*
X137969327Y-85828393D01*
X137995375Y-85863514D01*
X137997729Y-85867918D01*
X138062273Y-85964514D01*
X138074386Y-85982642D01*
X138171958Y-86080214D01*
X138171961Y-86080216D01*
X138286684Y-86156872D01*
X138286686Y-86156873D01*
X138286689Y-86156875D01*
X138414172Y-86209680D01*
X138549507Y-86236600D01*
X138687493Y-86236600D01*
X138822828Y-86209680D01*
X138950311Y-86156875D01*
X139065042Y-86080214D01*
X139162614Y-85982642D01*
X139239275Y-85867911D01*
X139292080Y-85740428D01*
X139319000Y-85605093D01*
X139319000Y-85467107D01*
X139292080Y-85331772D01*
X139239275Y-85204289D01*
X139162614Y-85089558D01*
X139112641Y-85039585D01*
X139074077Y-84972790D01*
X139069000Y-84934226D01*
X139069000Y-63906894D01*
X152149500Y-63906894D01*
X152149500Y-65093105D01*
X152160122Y-65181563D01*
X152215638Y-65322341D01*
X152313237Y-65451044D01*
X152311855Y-65452091D01*
X152344420Y-65508485D01*
X152349500Y-65547061D01*
X152349500Y-69909608D01*
X152349500Y-70086992D01*
X152384105Y-70260966D01*
X152418046Y-70342906D01*
X152451987Y-70424847D01*
X152511063Y-70513259D01*
X152514808Y-70518865D01*
X152514812Y-70518871D01*
X152550531Y-70572330D01*
X152550537Y-70572337D01*
X154055859Y-72077658D01*
X154065666Y-72094645D01*
X154079538Y-72108517D01*
X154084615Y-72127465D01*
X154094423Y-72144453D01*
X154099500Y-72183017D01*
X154099500Y-72246720D01*
X154079538Y-72321220D01*
X154025000Y-72375758D01*
X154010686Y-72383024D01*
X153977233Y-72397795D01*
X153897793Y-72477235D01*
X153852416Y-72580005D01*
X153852415Y-72580008D01*
X153852415Y-72580009D01*
X153849500Y-72605135D01*
X153849500Y-72605136D01*
X153849500Y-72605140D01*
X153849500Y-74394866D01*
X153852414Y-74419989D01*
X153852415Y-74419992D01*
X153897793Y-74522764D01*
X153897794Y-74522765D01*
X153977235Y-74602206D01*
X154080009Y-74647585D01*
X154105135Y-74650500D01*
X154612596Y-74650499D01*
X154687094Y-74670461D01*
X154741632Y-74724999D01*
X154761594Y-74799499D01*
X154741632Y-74873999D01*
X154687094Y-74928537D01*
X154658638Y-74941206D01*
X154558364Y-74973786D01*
X154558363Y-74973787D01*
X154397004Y-75056005D01*
X154397003Y-75056005D01*
X154250500Y-75162446D01*
X154250497Y-75162448D01*
X154122448Y-75290497D01*
X154122446Y-75290500D01*
X154016005Y-75437003D01*
X154016005Y-75437004D01*
X153933789Y-75598360D01*
X153933789Y-75598361D01*
X153877829Y-75770591D01*
X153849500Y-75949454D01*
X153849500Y-76130546D01*
X153877829Y-76309409D01*
X153933789Y-76481639D01*
X154016004Y-76642994D01*
X154122447Y-76789501D01*
X154250499Y-76917553D01*
X154397006Y-77023996D01*
X154558361Y-77106211D01*
X154730591Y-77162171D01*
X154909454Y-77190500D01*
X154909458Y-77190500D01*
X155090542Y-77190500D01*
X155090546Y-77190500D01*
X155269409Y-77162171D01*
X155441639Y-77106211D01*
X155602994Y-77023996D01*
X155749501Y-76917553D01*
X155877553Y-76789501D01*
X155983996Y-76642994D01*
X156066211Y-76481639D01*
X156122171Y-76309409D01*
X156150500Y-76130546D01*
X156150500Y-75949454D01*
X156122171Y-75770591D01*
X156066211Y-75598361D01*
X155983996Y-75437006D01*
X155877553Y-75290499D01*
X155749501Y-75162447D01*
X155602994Y-75056004D01*
X155441639Y-74973789D01*
X155441630Y-74973786D01*
X155341361Y-74941207D01*
X155276676Y-74899200D01*
X155241660Y-74830478D01*
X155245696Y-74753456D01*
X155287703Y-74688771D01*
X155356425Y-74653755D01*
X155387401Y-74650499D01*
X155894864Y-74650499D01*
X155894867Y-74650499D01*
X155909940Y-74648750D01*
X155919991Y-74647585D01*
X156022765Y-74602206D01*
X156102206Y-74522765D01*
X156147585Y-74419991D01*
X156150500Y-74394865D01*
X156150499Y-72605136D01*
X156147585Y-72580009D01*
X156102206Y-72477235D01*
X156022765Y-72397794D01*
X155989313Y-72383023D01*
X155929226Y-72334669D01*
X155901365Y-72262749D01*
X155900500Y-72246720D01*
X155900500Y-71659607D01*
X155877348Y-71543212D01*
X155865895Y-71485634D01*
X155817895Y-71369752D01*
X155798013Y-71321753D01*
X155699464Y-71174265D01*
X155574035Y-71048836D01*
X154950046Y-70424847D01*
X154194141Y-69668941D01*
X154155577Y-69602146D01*
X154150500Y-69563582D01*
X154150500Y-65547061D01*
X154170462Y-65472561D01*
X154186896Y-65451145D01*
X154186763Y-65451044D01*
X154194207Y-65441228D01*
X154284361Y-65322342D01*
X154339877Y-65181564D01*
X154350500Y-65093102D01*
X154350500Y-63906898D01*
X154339877Y-63818436D01*
X154284361Y-63677658D01*
X154192922Y-63557078D01*
X154192920Y-63557076D01*
X154145982Y-63521482D01*
X154072342Y-63465639D01*
X154072341Y-63465638D01*
X153931563Y-63410122D01*
X153843105Y-63399500D01*
X153843102Y-63399500D01*
X152656898Y-63399500D01*
X152656894Y-63399500D01*
X152568436Y-63410122D01*
X152427658Y-63465638D01*
X152427658Y-63465639D01*
X152307079Y-63557076D01*
X152307076Y-63557079D01*
X152215639Y-63677658D01*
X152215638Y-63677658D01*
X152160122Y-63818436D01*
X152149500Y-63906894D01*
X139069000Y-63906894D01*
X139069000Y-63629820D01*
X139088962Y-63555320D01*
X139112638Y-63524464D01*
X139292961Y-63344140D01*
X139359756Y-63305577D01*
X139398320Y-63300500D01*
X140643101Y-63300500D01*
X140643102Y-63300500D01*
X140731564Y-63289877D01*
X140872342Y-63234361D01*
X140992922Y-63142922D01*
X141084361Y-63022342D01*
X141139877Y-62881564D01*
X141150500Y-62793102D01*
X141150500Y-61206898D01*
X141139877Y-61118436D01*
X141084361Y-60977658D01*
X140992922Y-60857078D01*
X140992920Y-60857076D01*
X140932366Y-60811157D01*
X140872342Y-60765639D01*
X140872341Y-60765638D01*
X140731563Y-60710122D01*
X140643105Y-60699500D01*
X140643102Y-60699500D01*
X139941821Y-60699500D01*
X139867321Y-60679538D01*
X139812783Y-60625000D01*
X139792821Y-60550500D01*
X139812783Y-60476000D01*
X139836462Y-60445141D01*
X143787463Y-56494141D01*
X143854258Y-56455577D01*
X143892822Y-56450500D01*
X144201329Y-56450500D01*
X144275829Y-56470462D01*
X144330367Y-56525000D01*
X144347008Y-56576799D01*
X144348072Y-56576588D01*
X144382183Y-56748079D01*
X144446294Y-56902858D01*
X144446301Y-56902870D01*
X144539371Y-57042158D01*
X144539374Y-57042162D01*
X144657838Y-57160626D01*
X144657841Y-57160628D01*
X144797129Y-57253698D01*
X144797133Y-57253700D01*
X144797137Y-57253703D01*
X144797138Y-57253703D01*
X144797141Y-57253705D01*
X144842472Y-57272481D01*
X144951918Y-57317816D01*
X145116233Y-57350500D01*
X145283767Y-57350500D01*
X145448082Y-57317816D01*
X145602863Y-57253703D01*
X145742162Y-57160626D01*
X145860626Y-57042162D01*
X145953703Y-56902863D01*
X146017816Y-56748082D01*
X146050500Y-56583767D01*
X146050500Y-55416233D01*
X146050500Y-55416232D01*
X147949500Y-55416232D01*
X147949500Y-56583767D01*
X147982183Y-56748079D01*
X148046294Y-56902858D01*
X148046301Y-56902870D01*
X148139371Y-57042158D01*
X148139374Y-57042162D01*
X148257838Y-57160626D01*
X148257841Y-57160628D01*
X148397129Y-57253698D01*
X148397133Y-57253700D01*
X148397137Y-57253703D01*
X148397138Y-57253703D01*
X148397141Y-57253705D01*
X148442472Y-57272481D01*
X148551918Y-57317816D01*
X148716233Y-57350500D01*
X148883767Y-57350500D01*
X149048082Y-57317816D01*
X149202863Y-57253703D01*
X149342162Y-57160626D01*
X149460626Y-57042162D01*
X149553703Y-56902863D01*
X149617816Y-56748082D01*
X149650500Y-56583767D01*
X149650500Y-55416233D01*
X149617816Y-55251918D01*
X149553703Y-55097137D01*
X149460626Y-54957838D01*
X149342162Y-54839374D01*
X149342158Y-54839371D01*
X149202870Y-54746301D01*
X149202858Y-54746294D01*
X149080136Y-54695461D01*
X149048082Y-54682184D01*
X149048080Y-54682183D01*
X149048079Y-54682183D01*
X148883767Y-54649500D01*
X148716233Y-54649500D01*
X148551920Y-54682183D01*
X148397141Y-54746294D01*
X148397129Y-54746301D01*
X148257841Y-54839371D01*
X148257834Y-54839377D01*
X148139377Y-54957834D01*
X148139371Y-54957841D01*
X148046301Y-55097129D01*
X148046294Y-55097141D01*
X147982183Y-55251920D01*
X147949500Y-55416232D01*
X146050500Y-55416232D01*
X146017816Y-55251918D01*
X145953703Y-55097137D01*
X145860626Y-54957838D01*
X145742162Y-54839374D01*
X145742158Y-54839371D01*
X145602870Y-54746301D01*
X145602858Y-54746294D01*
X145480136Y-54695461D01*
X145448082Y-54682184D01*
X145448080Y-54682183D01*
X145448079Y-54682183D01*
X145283767Y-54649500D01*
X145116233Y-54649500D01*
X144951920Y-54682183D01*
X144797141Y-54746294D01*
X144797129Y-54746301D01*
X144657841Y-54839371D01*
X144657834Y-54839377D01*
X144539377Y-54957834D01*
X144539371Y-54957841D01*
X144446301Y-55097129D01*
X144446294Y-55097141D01*
X144382183Y-55251920D01*
X144348072Y-55423412D01*
X144346593Y-55423117D01*
X144322448Y-55487283D01*
X144262829Y-55536216D01*
X144201329Y-55549500D01*
X143585187Y-55549500D01*
X143494826Y-55573712D01*
X143494826Y-55573713D01*
X143482719Y-55576957D01*
X143470612Y-55580201D01*
X143367885Y-55639510D01*
X137963559Y-61043837D01*
X137896764Y-61082401D01*
X137819636Y-61082401D01*
X137752841Y-61043837D01*
X137714277Y-60977042D01*
X137709200Y-60938478D01*
X137709200Y-60397691D01*
X137709199Y-60397689D01*
X137678499Y-60283115D01*
X137678499Y-60283113D01*
X137678498Y-60283112D01*
X137619190Y-60180386D01*
X133078314Y-55639511D01*
X133078311Y-55639509D01*
X133078307Y-55639506D01*
X132975590Y-55580202D01*
X132975587Y-55580201D01*
X132951373Y-55573713D01*
X132861009Y-55549500D01*
X132787328Y-55549500D01*
X132776116Y-55547783D01*
X132750839Y-55536683D01*
X132724171Y-55529538D01*
X132716032Y-55521399D01*
X132705497Y-55516773D01*
X132689157Y-55494524D01*
X132669633Y-55475000D01*
X132665600Y-55462448D01*
X132659843Y-55454609D01*
X132658149Y-55439257D01*
X132652991Y-55423200D01*
X132651928Y-55423412D01*
X132617816Y-55251920D01*
X132617816Y-55251918D01*
X132553703Y-55097137D01*
X132460626Y-54957838D01*
X132342162Y-54839374D01*
X132342158Y-54839371D01*
X132202870Y-54746301D01*
X132202858Y-54746294D01*
X132080136Y-54695461D01*
X132048082Y-54682184D01*
X132048080Y-54682183D01*
X132048079Y-54682183D01*
X131883767Y-54649500D01*
X131716233Y-54649500D01*
X131551920Y-54682183D01*
X131397141Y-54746294D01*
X131397129Y-54746301D01*
X131257841Y-54839371D01*
X131257834Y-54839377D01*
X131139377Y-54957834D01*
X131139371Y-54957841D01*
X131046301Y-55097129D01*
X131046294Y-55097141D01*
X130982183Y-55251920D01*
X130949500Y-55416232D01*
X130949500Y-56583767D01*
X130982183Y-56748079D01*
X131046294Y-56902858D01*
X131046301Y-56902870D01*
X131139371Y-57042158D01*
X131139374Y-57042162D01*
X131257838Y-57160626D01*
X131257841Y-57160628D01*
X131397129Y-57253698D01*
X131397133Y-57253700D01*
X131397137Y-57253703D01*
X131397138Y-57253703D01*
X131397141Y-57253705D01*
X131442472Y-57272481D01*
X131551918Y-57317816D01*
X131716233Y-57350500D01*
X131883767Y-57350500D01*
X132048082Y-57317816D01*
X132202863Y-57253703D01*
X132342162Y-57160626D01*
X132460626Y-57042162D01*
X132553703Y-56902863D01*
X132617816Y-56748082D01*
X132617817Y-56748076D01*
X132618842Y-56745602D01*
X132665794Y-56684412D01*
X132737051Y-56654896D01*
X132813519Y-56664963D01*
X132861859Y-56697262D01*
X136764559Y-60599962D01*
X136803123Y-60666757D01*
X136808200Y-60705321D01*
X136808200Y-81912579D01*
X136788238Y-81987079D01*
X136733700Y-82041617D01*
X136659200Y-82061579D01*
X136584700Y-82041617D01*
X136571620Y-82033123D01*
X136489199Y-81973240D01*
X136489196Y-81973238D01*
X136489194Y-81973237D01*
X136320842Y-81887458D01*
X136320841Y-81887457D01*
X136320832Y-81887453D01*
X136141118Y-81829060D01*
X135954481Y-81799500D01*
X135765519Y-81799500D01*
X135578882Y-81829060D01*
X135441317Y-81873758D01*
X135399168Y-81887453D01*
X135399163Y-81887455D01*
X135399157Y-81887458D01*
X135230804Y-81973238D01*
X135230799Y-81973241D01*
X135077936Y-82084303D01*
X135077925Y-82084312D01*
X134944312Y-82217925D01*
X134944303Y-82217936D01*
X134833241Y-82370799D01*
X134833238Y-82370804D01*
X134747458Y-82539157D01*
X134747455Y-82539163D01*
X134747453Y-82539168D01*
X134747451Y-82539173D01*
X134747451Y-82539174D01*
X134731707Y-82587629D01*
X134689700Y-82652314D01*
X134620978Y-82687329D01*
X134543956Y-82683292D01*
X134479271Y-82641285D01*
X134448293Y-82587629D01*
X134437105Y-82553197D01*
X134432547Y-82539168D01*
X134346760Y-82370801D01*
X134235690Y-82217927D01*
X134102073Y-82084310D01*
X133949199Y-81973240D01*
X133780832Y-81887453D01*
X133601118Y-81829060D01*
X133414481Y-81799500D01*
X133225519Y-81799500D01*
X133038882Y-81829060D01*
X132901317Y-81873758D01*
X132859168Y-81887453D01*
X132859163Y-81887455D01*
X132859157Y-81887458D01*
X132690804Y-81973238D01*
X132690799Y-81973241D01*
X132537936Y-82084303D01*
X132537925Y-82084312D01*
X132404312Y-82217925D01*
X132404303Y-82217936D01*
X132293241Y-82370799D01*
X132293238Y-82370804D01*
X132207458Y-82539157D01*
X132207455Y-82539163D01*
X132207453Y-82539168D01*
X132207451Y-82539173D01*
X132207451Y-82539174D01*
X132191707Y-82587629D01*
X132149700Y-82652314D01*
X132080978Y-82687329D01*
X132003956Y-82683292D01*
X131939271Y-82641285D01*
X131908293Y-82587629D01*
X131897105Y-82553197D01*
X131892547Y-82539168D01*
X131806760Y-82370801D01*
X131695690Y-82217927D01*
X131562073Y-82084310D01*
X131409199Y-81973240D01*
X131240832Y-81887453D01*
X131061118Y-81829060D01*
X130874481Y-81799500D01*
X130685519Y-81799500D01*
X130498882Y-81829060D01*
X130361317Y-81873758D01*
X130319168Y-81887453D01*
X130319163Y-81887455D01*
X130319157Y-81887458D01*
X130150804Y-81973238D01*
X130150799Y-81973241D01*
X129997936Y-82084303D01*
X129997925Y-82084312D01*
X129864312Y-82217925D01*
X129864303Y-82217936D01*
X129753241Y-82370799D01*
X129753238Y-82370804D01*
X129667458Y-82539157D01*
X129667455Y-82539163D01*
X129667453Y-82539168D01*
X129667451Y-82539173D01*
X129667451Y-82539174D01*
X129651707Y-82587629D01*
X129609700Y-82652314D01*
X129540978Y-82687329D01*
X129463956Y-82683292D01*
X129399271Y-82641285D01*
X129368293Y-82587629D01*
X129357105Y-82553197D01*
X129352547Y-82539168D01*
X129266760Y-82370801D01*
X129155690Y-82217927D01*
X129022073Y-82084310D01*
X128869199Y-81973240D01*
X128700832Y-81887453D01*
X128521118Y-81829060D01*
X128334481Y-81799500D01*
X128145519Y-81799500D01*
X127958882Y-81829060D01*
X127821317Y-81873758D01*
X127779168Y-81887453D01*
X127779163Y-81887455D01*
X127779157Y-81887458D01*
X127610804Y-81973238D01*
X127610799Y-81973241D01*
X127457936Y-82084303D01*
X127457925Y-82084312D01*
X127324312Y-82217925D01*
X127324303Y-82217936D01*
X127213241Y-82370799D01*
X127213238Y-82370804D01*
X127127458Y-82539157D01*
X127127455Y-82539163D01*
X127127453Y-82539168D01*
X127127451Y-82539173D01*
X127127451Y-82539174D01*
X127111707Y-82587629D01*
X127069700Y-82652314D01*
X127000978Y-82687329D01*
X126923956Y-82683292D01*
X126859271Y-82641285D01*
X126828293Y-82587629D01*
X126817105Y-82553197D01*
X126812547Y-82539168D01*
X126726760Y-82370801D01*
X126615690Y-82217927D01*
X126482073Y-82084310D01*
X126329199Y-81973240D01*
X126160832Y-81887453D01*
X125981118Y-81829060D01*
X125794481Y-81799500D01*
X125605519Y-81799500D01*
X125418882Y-81829060D01*
X125281317Y-81873758D01*
X125239168Y-81887453D01*
X125239163Y-81887455D01*
X125239157Y-81887458D01*
X125070804Y-81973238D01*
X125070799Y-81973241D01*
X124917936Y-82084303D01*
X124917925Y-82084312D01*
X124784312Y-82217925D01*
X124784303Y-82217936D01*
X124673241Y-82370799D01*
X124673238Y-82370804D01*
X124587458Y-82539157D01*
X124587456Y-82539161D01*
X124587453Y-82539168D01*
X124529060Y-82718882D01*
X124499500Y-82905519D01*
X124499500Y-83094481D01*
X124529060Y-83281118D01*
X124587453Y-83460832D01*
X124587457Y-83460841D01*
X124587458Y-83460842D01*
X124637072Y-83558216D01*
X124673240Y-83629199D01*
X124784310Y-83782073D01*
X124917927Y-83915690D01*
X125070801Y-84026760D01*
X125239168Y-84112547D01*
X125418882Y-84170940D01*
X125605519Y-84200500D01*
X125605524Y-84200500D01*
X125794476Y-84200500D01*
X125794481Y-84200500D01*
X125981118Y-84170940D01*
X126160832Y-84112547D01*
X126329199Y-84026760D01*
X126482073Y-83915690D01*
X126615690Y-83782073D01*
X126726760Y-83629199D01*
X126812547Y-83460832D01*
X126828293Y-83412370D01*
X126870299Y-83347686D01*
X126939021Y-83312670D01*
X127016043Y-83316707D01*
X127080728Y-83358713D01*
X127111707Y-83412371D01*
X127127449Y-83460822D01*
X127127451Y-83460828D01*
X127127453Y-83460832D01*
X127127457Y-83460840D01*
X127127458Y-83460842D01*
X127177072Y-83558216D01*
X127213240Y-83629199D01*
X127324310Y-83782073D01*
X127457927Y-83915690D01*
X127610801Y-84026760D01*
X127779168Y-84112547D01*
X127958882Y-84170940D01*
X128145519Y-84200500D01*
X128145524Y-84200500D01*
X128334476Y-84200500D01*
X128334481Y-84200500D01*
X128521118Y-84170940D01*
X128598697Y-84145732D01*
X128675714Y-84141696D01*
X128744436Y-84176710D01*
X128786444Y-84241395D01*
X128790481Y-84318417D01*
X128755467Y-84387139D01*
X128750096Y-84392799D01*
X127281109Y-85861788D01*
X127281108Y-85861789D01*
X127221801Y-85964511D01*
X127221802Y-85964511D01*
X127221801Y-85964515D01*
X127191100Y-86079089D01*
X127191100Y-87308550D01*
X127171138Y-87383050D01*
X127116600Y-87437588D01*
X127042100Y-87457550D01*
X126967600Y-87437588D01*
X126921557Y-87396131D01*
X126890114Y-87352855D01*
X126839414Y-87283072D01*
X126716928Y-87160586D01*
X126698105Y-87146910D01*
X126576793Y-87058771D01*
X126576790Y-87058769D01*
X126576788Y-87058768D01*
X126422445Y-86980127D01*
X126374821Y-86964653D01*
X126257700Y-86926597D01*
X126160086Y-86911137D01*
X126086611Y-86899500D01*
X125913389Y-86899500D01*
X125847037Y-86910009D01*
X125742299Y-86926597D01*
X125577561Y-86980125D01*
X125577555Y-86980127D01*
X125577549Y-86980129D01*
X125577549Y-86980130D01*
X125423206Y-87058771D01*
X125283075Y-87160583D01*
X125160583Y-87283075D01*
X125058771Y-87423206D01*
X124980130Y-87577549D01*
X124980125Y-87577561D01*
X124926597Y-87742299D01*
X124908228Y-87858282D01*
X124899500Y-87913389D01*
X124899500Y-88086611D01*
X124926598Y-88257700D01*
X124942181Y-88305661D01*
X124946217Y-88382684D01*
X124911201Y-88451405D01*
X124905832Y-88457063D01*
X123807038Y-89555859D01*
X123740243Y-89594423D01*
X123701679Y-89599500D01*
X114807821Y-89599500D01*
X114788873Y-89594423D01*
X114769257Y-89594423D01*
X114752269Y-89584615D01*
X114733321Y-89579538D01*
X114702462Y-89555859D01*
X114601461Y-89454858D01*
X114562897Y-89388063D01*
X114562897Y-89310935D01*
X114601461Y-89244140D01*
X114668256Y-89205576D01*
X114706820Y-89200499D01*
X115944867Y-89200499D01*
X115959940Y-89198750D01*
X115969991Y-89197585D01*
X116072765Y-89152206D01*
X116152206Y-89072765D01*
X116197585Y-88969991D01*
X116200500Y-88944865D01*
X116200499Y-87055136D01*
X116197585Y-87030009D01*
X116152206Y-86927235D01*
X116072765Y-86847794D01*
X116072764Y-86847793D01*
X115969994Y-86802416D01*
X115969991Y-86802415D01*
X115969982Y-86802414D01*
X115944865Y-86799500D01*
X115944859Y-86799500D01*
X114055133Y-86799500D01*
X114030010Y-86802414D01*
X114030007Y-86802415D01*
X113927235Y-86847793D01*
X113847793Y-86927235D01*
X113802416Y-87030005D01*
X113802415Y-87030008D01*
X113802415Y-87030009D01*
X113799500Y-87055135D01*
X113799500Y-87055136D01*
X113799500Y-87055140D01*
X113799500Y-88293179D01*
X113779538Y-88367679D01*
X113725000Y-88422217D01*
X113650500Y-88442179D01*
X113576000Y-88422217D01*
X113545141Y-88398538D01*
X111144241Y-85997638D01*
X111105677Y-85930843D01*
X111100600Y-85892279D01*
X111100600Y-82055135D01*
X111799500Y-82055135D01*
X111799500Y-82055136D01*
X111799500Y-82055140D01*
X111799500Y-83944866D01*
X111802414Y-83969989D01*
X111802415Y-83969992D01*
X111847793Y-84072764D01*
X111847794Y-84072765D01*
X111927235Y-84152206D01*
X112030009Y-84197585D01*
X112055135Y-84200500D01*
X113944864Y-84200499D01*
X113944866Y-84200499D01*
X113957427Y-84199042D01*
X113969991Y-84197585D01*
X114072765Y-84152206D01*
X114152206Y-84072765D01*
X114197585Y-83969991D01*
X114200500Y-83944865D01*
X114200499Y-82055136D01*
X114199115Y-82043206D01*
X114197585Y-82030010D01*
X114197584Y-82030008D01*
X114152206Y-81927235D01*
X114072765Y-81847794D01*
X114072764Y-81847793D01*
X113969994Y-81802416D01*
X113969991Y-81802415D01*
X113969982Y-81802414D01*
X113944865Y-81799500D01*
X113944859Y-81799500D01*
X112055133Y-81799500D01*
X112030010Y-81802414D01*
X112030007Y-81802415D01*
X111927235Y-81847793D01*
X111847793Y-81927235D01*
X111802416Y-82030005D01*
X111802415Y-82030008D01*
X111802415Y-82030009D01*
X111799500Y-82055135D01*
X111100600Y-82055135D01*
X111100600Y-63412685D01*
X111120562Y-63338185D01*
X111175100Y-63283647D01*
X111249600Y-63263685D01*
X111267366Y-63264748D01*
X111268434Y-63264876D01*
X111268436Y-63264877D01*
X111356898Y-63275500D01*
X111356899Y-63275500D01*
X112643101Y-63275500D01*
X112643102Y-63275500D01*
X112731564Y-63264877D01*
X112872342Y-63209361D01*
X112992922Y-63117922D01*
X113084361Y-62997342D01*
X113139877Y-62856564D01*
X113150500Y-62768102D01*
X113150500Y-61784454D01*
X115849500Y-61784454D01*
X115849500Y-62215546D01*
X115877829Y-62394409D01*
X115933789Y-62566639D01*
X115997806Y-62692279D01*
X116016005Y-62727995D01*
X116016005Y-62727996D01*
X116045144Y-62768102D01*
X116122447Y-62874501D01*
X116250499Y-63002553D01*
X116397006Y-63108996D01*
X116468145Y-63145243D01*
X116525462Y-63196852D01*
X116549296Y-63270205D01*
X116549500Y-63278003D01*
X116549500Y-79472509D01*
X116549500Y-79472511D01*
X116549501Y-79472514D01*
X116559468Y-79509713D01*
X116559469Y-79509713D01*
X116580202Y-79587091D01*
X116639506Y-79689807D01*
X116639509Y-79689811D01*
X116639511Y-79689814D01*
X117619480Y-80669783D01*
X118540918Y-81591221D01*
X118579482Y-81658016D01*
X118579482Y-81735144D01*
X118540918Y-81801939D01*
X118474123Y-81840503D01*
X118396995Y-81840503D01*
X118389521Y-81838289D01*
X118361118Y-81829060D01*
X118174481Y-81799500D01*
X117985519Y-81799500D01*
X117798882Y-81829060D01*
X117661317Y-81873758D01*
X117619168Y-81887453D01*
X117619163Y-81887455D01*
X117619157Y-81887458D01*
X117450804Y-81973238D01*
X117450799Y-81973241D01*
X117297936Y-82084303D01*
X117297925Y-82084312D01*
X117164312Y-82217925D01*
X117164303Y-82217936D01*
X117053241Y-82370799D01*
X117053238Y-82370804D01*
X116967458Y-82539157D01*
X116967456Y-82539161D01*
X116967453Y-82539168D01*
X116909060Y-82718882D01*
X116879500Y-82905519D01*
X116879500Y-83094481D01*
X116909060Y-83281118D01*
X116967453Y-83460832D01*
X116967457Y-83460841D01*
X116967458Y-83460842D01*
X117017072Y-83558216D01*
X117053240Y-83629199D01*
X117164310Y-83782073D01*
X117297927Y-83915690D01*
X117450801Y-84026760D01*
X117619168Y-84112547D01*
X117798882Y-84170940D01*
X117985519Y-84200500D01*
X117985524Y-84200500D01*
X118174476Y-84200500D01*
X118174481Y-84200500D01*
X118361118Y-84170940D01*
X118540832Y-84112547D01*
X118709199Y-84026760D01*
X118862073Y-83915690D01*
X118995690Y-83782073D01*
X119106760Y-83629199D01*
X119192547Y-83460832D01*
X119208293Y-83412370D01*
X119250299Y-83347686D01*
X119319021Y-83312670D01*
X119396043Y-83316707D01*
X119460728Y-83358713D01*
X119491707Y-83412371D01*
X119507449Y-83460822D01*
X119507451Y-83460828D01*
X119507453Y-83460832D01*
X119507457Y-83460840D01*
X119507458Y-83460842D01*
X119557072Y-83558216D01*
X119593240Y-83629199D01*
X119704310Y-83782073D01*
X119837927Y-83915690D01*
X119990801Y-84026760D01*
X120159168Y-84112547D01*
X120338882Y-84170940D01*
X120525519Y-84200500D01*
X120525524Y-84200500D01*
X120714476Y-84200500D01*
X120714481Y-84200500D01*
X120901118Y-84170940D01*
X121080832Y-84112547D01*
X121249199Y-84026760D01*
X121402073Y-83915690D01*
X121535690Y-83782073D01*
X121646760Y-83629199D01*
X121732547Y-83460832D01*
X121790940Y-83281118D01*
X121820500Y-83094481D01*
X121820500Y-82905519D01*
X121790940Y-82718882D01*
X121732547Y-82539168D01*
X121646760Y-82370801D01*
X121535690Y-82217927D01*
X121402073Y-82084310D01*
X121249199Y-81973240D01*
X121080832Y-81887453D01*
X120901118Y-81829060D01*
X120714481Y-81799500D01*
X120714476Y-81799500D01*
X120710902Y-81798934D01*
X120640442Y-81767563D01*
X120595107Y-81705166D01*
X120587044Y-81628460D01*
X120610324Y-81568984D01*
X120625875Y-81545711D01*
X120678680Y-81418228D01*
X120705600Y-81282893D01*
X120705600Y-81144907D01*
X120678680Y-81009572D01*
X120625875Y-80882089D01*
X120549214Y-80767358D01*
X120451642Y-80669786D01*
X120451638Y-80669783D01*
X120336915Y-80593127D01*
X120336909Y-80593124D01*
X120209429Y-80540320D01*
X120209427Y-80540319D01*
X120070431Y-80512671D01*
X120001257Y-80478558D01*
X119958407Y-80414428D01*
X119950500Y-80366534D01*
X119950500Y-79268687D01*
X119970462Y-79194187D01*
X120025000Y-79139649D01*
X120099500Y-79119687D01*
X120174000Y-79139649D01*
X120228538Y-79194187D01*
X120237152Y-79211654D01*
X120264487Y-79277647D01*
X120264489Y-79277651D01*
X120353702Y-79411166D01*
X120363036Y-79425135D01*
X120488465Y-79550564D01*
X120488468Y-79550566D01*
X120635951Y-79649112D01*
X120635953Y-79649113D01*
X120799834Y-79716994D01*
X120973809Y-79751600D01*
X121151191Y-79751600D01*
X121325166Y-79716994D01*
X121489047Y-79649113D01*
X121489050Y-79649111D01*
X121506709Y-79637312D01*
X121579743Y-79612519D01*
X121589490Y-79612200D01*
X135574191Y-79612200D01*
X135748166Y-79577594D01*
X135912047Y-79509713D01*
X136059535Y-79411164D01*
X136184964Y-79285735D01*
X136283513Y-79138247D01*
X136351394Y-78974366D01*
X136386000Y-78800391D01*
X136386000Y-78623009D01*
X136375364Y-78569541D01*
X136367019Y-78527586D01*
X136351394Y-78449034D01*
X136283513Y-78285153D01*
X136278041Y-78276964D01*
X136184966Y-78137668D01*
X136184962Y-78137663D01*
X136059536Y-78012237D01*
X136059531Y-78012233D01*
X135912048Y-77913687D01*
X135912046Y-77913686D01*
X135748167Y-77845806D01*
X135748163Y-77845805D01*
X135574191Y-77811200D01*
X121290492Y-77811200D01*
X121113108Y-77811200D01*
X120939136Y-77845804D01*
X120939130Y-77845806D01*
X120857192Y-77879745D01*
X120857193Y-77879746D01*
X120775256Y-77913685D01*
X120686840Y-77972763D01*
X120686839Y-77972764D01*
X120627765Y-78012235D01*
X120627763Y-78012236D01*
X120363036Y-78276963D01*
X120363035Y-78276965D01*
X120357564Y-78285153D01*
X120323563Y-78336040D01*
X120264487Y-78424453D01*
X120233881Y-78498341D01*
X120229722Y-78505821D01*
X120208646Y-78527586D01*
X120190205Y-78551620D01*
X120182141Y-78554960D01*
X120176070Y-78561230D01*
X120146936Y-78569541D01*
X120118948Y-78581135D01*
X120110295Y-78579995D01*
X120101901Y-78582391D01*
X120072511Y-78575021D01*
X120042480Y-78571068D01*
X120035556Y-78565755D01*
X120027089Y-78563632D01*
X120005323Y-78542556D01*
X119981290Y-78524115D01*
X119977949Y-78516051D01*
X119971680Y-78509980D01*
X119963368Y-78480846D01*
X119951775Y-78452858D01*
X119950698Y-78436440D01*
X119950519Y-78435811D01*
X119950628Y-78435373D01*
X119950500Y-78433410D01*
X119950500Y-63278003D01*
X119970462Y-63203503D01*
X120025000Y-63148965D01*
X120031845Y-63145248D01*
X120102994Y-63108996D01*
X120249501Y-63002553D01*
X120377553Y-62874501D01*
X120483996Y-62727994D01*
X120566211Y-62566639D01*
X120608292Y-62437125D01*
X120650299Y-62372439D01*
X120719020Y-62337423D01*
X120796042Y-62341459D01*
X120860728Y-62383466D01*
X120891708Y-62437125D01*
X120933788Y-62566638D01*
X121016005Y-62727995D01*
X121016005Y-62727996D01*
X121045144Y-62768102D01*
X121122447Y-62874501D01*
X121250499Y-63002553D01*
X121397006Y-63108996D01*
X121558361Y-63191211D01*
X121730591Y-63247171D01*
X121909454Y-63275500D01*
X121909458Y-63275500D01*
X122090542Y-63275500D01*
X122090546Y-63275500D01*
X122269409Y-63247171D01*
X122441639Y-63191211D01*
X122602994Y-63108996D01*
X122749501Y-63002553D01*
X122877553Y-62874501D01*
X122983996Y-62727994D01*
X123066211Y-62566639D01*
X123108292Y-62437125D01*
X123150299Y-62372439D01*
X123219020Y-62337423D01*
X123296042Y-62341459D01*
X123360728Y-62383466D01*
X123391708Y-62437125D01*
X123433788Y-62566638D01*
X123516005Y-62727995D01*
X123516005Y-62727996D01*
X123545144Y-62768102D01*
X123622447Y-62874501D01*
X123750499Y-63002553D01*
X123897006Y-63108996D01*
X124058361Y-63191211D01*
X124230591Y-63247171D01*
X124409454Y-63275500D01*
X124409458Y-63275500D01*
X124590542Y-63275500D01*
X124590546Y-63275500D01*
X124769409Y-63247171D01*
X124941639Y-63191211D01*
X125102994Y-63108996D01*
X125249501Y-63002553D01*
X125377553Y-62874501D01*
X125483996Y-62727994D01*
X125566211Y-62566639D01*
X125608292Y-62437125D01*
X125650299Y-62372439D01*
X125719020Y-62337423D01*
X125796042Y-62341459D01*
X125860728Y-62383466D01*
X125891708Y-62437125D01*
X125933788Y-62566638D01*
X126016005Y-62727995D01*
X126016005Y-62727996D01*
X126045144Y-62768102D01*
X126122447Y-62874501D01*
X126250499Y-63002553D01*
X126397006Y-63108996D01*
X126558361Y-63191211D01*
X126730591Y-63247171D01*
X126909454Y-63275500D01*
X126909458Y-63275500D01*
X127090542Y-63275500D01*
X127090546Y-63275500D01*
X127269409Y-63247171D01*
X127441639Y-63191211D01*
X127602994Y-63108996D01*
X127749501Y-63002553D01*
X127877553Y-62874501D01*
X127983996Y-62727994D01*
X128066211Y-62566639D01*
X128108292Y-62437125D01*
X128150299Y-62372439D01*
X128219020Y-62337423D01*
X128296042Y-62341459D01*
X128360728Y-62383466D01*
X128391708Y-62437125D01*
X128433788Y-62566638D01*
X128516005Y-62727995D01*
X128516005Y-62727996D01*
X128545144Y-62768102D01*
X128622447Y-62874501D01*
X128750499Y-63002553D01*
X128897006Y-63108996D01*
X129058361Y-63191211D01*
X129230591Y-63247171D01*
X129409454Y-63275500D01*
X129409458Y-63275500D01*
X129590542Y-63275500D01*
X129590546Y-63275500D01*
X129769409Y-63247171D01*
X129941639Y-63191211D01*
X130102994Y-63108996D01*
X130249501Y-63002553D01*
X130377553Y-62874501D01*
X130483996Y-62727994D01*
X130566211Y-62566639D01*
X130622171Y-62394409D01*
X130650500Y-62215546D01*
X130650500Y-61784454D01*
X130622171Y-61605591D01*
X130566211Y-61433361D01*
X130483996Y-61272006D01*
X130377553Y-61125499D01*
X130249501Y-60997447D01*
X130102994Y-60891004D01*
X129941639Y-60808789D01*
X129769409Y-60752829D01*
X129590546Y-60724500D01*
X129409454Y-60724500D01*
X129230591Y-60752829D01*
X129058360Y-60808789D01*
X128897004Y-60891005D01*
X128897003Y-60891005D01*
X128750500Y-60997446D01*
X128750497Y-60997448D01*
X128622448Y-61125497D01*
X128622446Y-61125500D01*
X128516005Y-61272003D01*
X128516005Y-61272004D01*
X128433789Y-61433360D01*
X128391708Y-61562875D01*
X128349701Y-61627560D01*
X128280980Y-61662576D01*
X128203957Y-61658540D01*
X128139272Y-61616533D01*
X128108292Y-61562875D01*
X128105841Y-61555332D01*
X128066211Y-61433361D01*
X127983996Y-61272006D01*
X127877553Y-61125499D01*
X127749501Y-60997447D01*
X127602994Y-60891004D01*
X127441639Y-60808789D01*
X127269409Y-60752829D01*
X127090546Y-60724500D01*
X126909454Y-60724500D01*
X126730591Y-60752829D01*
X126558360Y-60808789D01*
X126397004Y-60891005D01*
X126397003Y-60891005D01*
X126250500Y-60997446D01*
X126250497Y-60997448D01*
X126122448Y-61125497D01*
X126122446Y-61125500D01*
X126016005Y-61272003D01*
X126016005Y-61272004D01*
X125933789Y-61433360D01*
X125891708Y-61562875D01*
X125849701Y-61627560D01*
X125780980Y-61662576D01*
X125703957Y-61658540D01*
X125639272Y-61616533D01*
X125608292Y-61562875D01*
X125605841Y-61555332D01*
X125566211Y-61433361D01*
X125483996Y-61272006D01*
X125377553Y-61125499D01*
X125249501Y-60997447D01*
X125102994Y-60891004D01*
X124941639Y-60808789D01*
X124769409Y-60752829D01*
X124590546Y-60724500D01*
X124409454Y-60724500D01*
X124230591Y-60752829D01*
X124058360Y-60808789D01*
X123897004Y-60891005D01*
X123897003Y-60891005D01*
X123750500Y-60997446D01*
X123750497Y-60997448D01*
X123622448Y-61125497D01*
X123622446Y-61125500D01*
X123516005Y-61272003D01*
X123516005Y-61272004D01*
X123433789Y-61433360D01*
X123391708Y-61562875D01*
X123349701Y-61627560D01*
X123280980Y-61662576D01*
X123203957Y-61658540D01*
X123139272Y-61616533D01*
X123108292Y-61562875D01*
X123105841Y-61555332D01*
X123066211Y-61433361D01*
X122983996Y-61272006D01*
X122877553Y-61125499D01*
X122749501Y-60997447D01*
X122602994Y-60891004D01*
X122441639Y-60808789D01*
X122269409Y-60752829D01*
X122090546Y-60724500D01*
X121909454Y-60724500D01*
X121730591Y-60752829D01*
X121558360Y-60808789D01*
X121397004Y-60891005D01*
X121397003Y-60891005D01*
X121250500Y-60997446D01*
X121250497Y-60997448D01*
X121122448Y-61125497D01*
X121122446Y-61125500D01*
X121016005Y-61272003D01*
X121016005Y-61272004D01*
X120933789Y-61433360D01*
X120891708Y-61562875D01*
X120849701Y-61627560D01*
X120780980Y-61662576D01*
X120703957Y-61658540D01*
X120639272Y-61616533D01*
X120608292Y-61562875D01*
X120605841Y-61555332D01*
X120566211Y-61433361D01*
X120483996Y-61272006D01*
X120377553Y-61125499D01*
X120249501Y-60997447D01*
X120102994Y-60891004D01*
X119941639Y-60808789D01*
X119769409Y-60752829D01*
X119590546Y-60724500D01*
X119409454Y-60724500D01*
X119230591Y-60752829D01*
X119058360Y-60808789D01*
X118897004Y-60891005D01*
X118897003Y-60891005D01*
X118750500Y-60997446D01*
X118750497Y-60997448D01*
X118622448Y-61125497D01*
X118622446Y-61125500D01*
X118516005Y-61272003D01*
X118516005Y-61272004D01*
X118433789Y-61433360D01*
X118391708Y-61562875D01*
X118349701Y-61627560D01*
X118280980Y-61662576D01*
X118203957Y-61658540D01*
X118139272Y-61616533D01*
X118108292Y-61562875D01*
X118105841Y-61555332D01*
X118066211Y-61433361D01*
X117983996Y-61272006D01*
X117877553Y-61125499D01*
X117749501Y-60997447D01*
X117602994Y-60891004D01*
X117441639Y-60808789D01*
X117269409Y-60752829D01*
X117090546Y-60724500D01*
X116909454Y-60724500D01*
X116730591Y-60752829D01*
X116558360Y-60808789D01*
X116397004Y-60891005D01*
X116397003Y-60891005D01*
X116250500Y-60997446D01*
X116250497Y-60997448D01*
X116122448Y-61125497D01*
X116122446Y-61125500D01*
X116016005Y-61272003D01*
X116016005Y-61272004D01*
X115933789Y-61433360D01*
X115933789Y-61433361D01*
X115877829Y-61605591D01*
X115849500Y-61784454D01*
X113150500Y-61784454D01*
X113150500Y-61231898D01*
X113139877Y-61143436D01*
X113084361Y-61002658D01*
X112992922Y-60882078D01*
X112992920Y-60882076D01*
X112945982Y-60846482D01*
X112872342Y-60790639D01*
X112872341Y-60790638D01*
X112731563Y-60735122D01*
X112643105Y-60724500D01*
X112643102Y-60724500D01*
X111356898Y-60724500D01*
X111356892Y-60724500D01*
X111267364Y-60735251D01*
X111191016Y-60724314D01*
X111130365Y-60676667D01*
X111101663Y-60605078D01*
X111100600Y-60587314D01*
X111100600Y-58299920D01*
X111120562Y-58225420D01*
X111144237Y-58194565D01*
X111560489Y-57778314D01*
X111619799Y-57675587D01*
X111631531Y-57631801D01*
X111650500Y-57561009D01*
X111650500Y-57301514D01*
X111670462Y-57227014D01*
X111716724Y-57177623D01*
X111742155Y-57160631D01*
X111742159Y-57160628D01*
X111742162Y-57160626D01*
X111860626Y-57042162D01*
X111953703Y-56902863D01*
X112017816Y-56748082D01*
X112050500Y-56583767D01*
X112050500Y-55416233D01*
X112050500Y-55416232D01*
X113949500Y-55416232D01*
X113949500Y-56583767D01*
X113982183Y-56748079D01*
X114046294Y-56902858D01*
X114046301Y-56902870D01*
X114139371Y-57042158D01*
X114139374Y-57042162D01*
X114257838Y-57160626D01*
X114257841Y-57160628D01*
X114397129Y-57253698D01*
X114397133Y-57253700D01*
X114397137Y-57253703D01*
X114397138Y-57253703D01*
X114397141Y-57253705D01*
X114442472Y-57272481D01*
X114551918Y-57317816D01*
X114716233Y-57350500D01*
X114883767Y-57350500D01*
X115048082Y-57317816D01*
X115202863Y-57253703D01*
X115342162Y-57160626D01*
X115460626Y-57042162D01*
X115553703Y-56902863D01*
X115617816Y-56748082D01*
X115650500Y-56583767D01*
X115650500Y-55416233D01*
X115650500Y-55416232D01*
X127349500Y-55416232D01*
X127349500Y-56583767D01*
X127382183Y-56748079D01*
X127446294Y-56902858D01*
X127446301Y-56902870D01*
X127539371Y-57042158D01*
X127539374Y-57042162D01*
X127657838Y-57160626D01*
X127657841Y-57160628D01*
X127797129Y-57253698D01*
X127797133Y-57253700D01*
X127797137Y-57253703D01*
X127797138Y-57253703D01*
X127797141Y-57253705D01*
X127842472Y-57272481D01*
X127951918Y-57317816D01*
X128116233Y-57350500D01*
X128283767Y-57350500D01*
X128448082Y-57317816D01*
X128602863Y-57253703D01*
X128742162Y-57160626D01*
X128860626Y-57042162D01*
X128953703Y-56902863D01*
X129017816Y-56748082D01*
X129050500Y-56583767D01*
X129050500Y-55416233D01*
X129017816Y-55251918D01*
X128953703Y-55097137D01*
X128860626Y-54957838D01*
X128742162Y-54839374D01*
X128742158Y-54839371D01*
X128602870Y-54746301D01*
X128602858Y-54746294D01*
X128480136Y-54695461D01*
X128448082Y-54682184D01*
X128448080Y-54682183D01*
X128448079Y-54682183D01*
X128283767Y-54649500D01*
X128116233Y-54649500D01*
X127951920Y-54682183D01*
X127797141Y-54746294D01*
X127797129Y-54746301D01*
X127657841Y-54839371D01*
X127657834Y-54839377D01*
X127539377Y-54957834D01*
X127539371Y-54957841D01*
X127446301Y-55097129D01*
X127446294Y-55097141D01*
X127382183Y-55251920D01*
X127349500Y-55416232D01*
X115650500Y-55416232D01*
X115617816Y-55251918D01*
X115553703Y-55097137D01*
X115460626Y-54957838D01*
X115342162Y-54839374D01*
X115342158Y-54839371D01*
X115202870Y-54746301D01*
X115202858Y-54746294D01*
X115080136Y-54695461D01*
X115048082Y-54682184D01*
X115048080Y-54682183D01*
X115048079Y-54682183D01*
X114883767Y-54649500D01*
X114716233Y-54649500D01*
X114551920Y-54682183D01*
X114397141Y-54746294D01*
X114397129Y-54746301D01*
X114257841Y-54839371D01*
X114257834Y-54839377D01*
X114139377Y-54957834D01*
X114139371Y-54957841D01*
X114046301Y-55097129D01*
X114046294Y-55097141D01*
X113982183Y-55251920D01*
X113949500Y-55416232D01*
X112050500Y-55416232D01*
X112017816Y-55251918D01*
X111953703Y-55097137D01*
X111860626Y-54957838D01*
X111742162Y-54839374D01*
X111742158Y-54839371D01*
X111602870Y-54746301D01*
X111602858Y-54746294D01*
X111480136Y-54695461D01*
X111448082Y-54682184D01*
X111448080Y-54682183D01*
X111448079Y-54682183D01*
X111283767Y-54649500D01*
X111116233Y-54649500D01*
X110951920Y-54682183D01*
X110797141Y-54746294D01*
X110797129Y-54746301D01*
X110657841Y-54839371D01*
X110657834Y-54839377D01*
X110539377Y-54957834D01*
X110539371Y-54957841D01*
X110446301Y-55097129D01*
X110446294Y-55097141D01*
X110382183Y-55251920D01*
X110349500Y-55416232D01*
X110349500Y-56583767D01*
X110382183Y-56748079D01*
X110446294Y-56902858D01*
X110446301Y-56902870D01*
X110539371Y-57042158D01*
X110539377Y-57042165D01*
X110657837Y-57160625D01*
X110663499Y-57165272D01*
X110662046Y-57167041D01*
X110705272Y-57216320D01*
X110720326Y-57291965D01*
X110695541Y-57365002D01*
X110677003Y-57387593D01*
X110289609Y-57774988D01*
X110289608Y-57774989D01*
X110230301Y-57877711D01*
X110230302Y-57877711D01*
X110230301Y-57877715D01*
X110199600Y-57992289D01*
X110199600Y-81504839D01*
X110179638Y-81579339D01*
X110125100Y-81633877D01*
X110050600Y-81653839D01*
X109976100Y-81633877D01*
X109930454Y-81592963D01*
X109919820Y-81578465D01*
X109909475Y-81553489D01*
X109832814Y-81438758D01*
X109774790Y-81380734D01*
X109768054Y-81371550D01*
X109758060Y-81345863D01*
X109744277Y-81321990D01*
X109741978Y-81304528D01*
X109740088Y-81299670D01*
X109740761Y-81295288D01*
X109740495Y-81293267D01*
X109740474Y-81293270D01*
X109739200Y-81283596D01*
X109739200Y-81283591D01*
X109708499Y-81169014D01*
X109694580Y-81144906D01*
X109649193Y-81066293D01*
X109649190Y-81066289D01*
X109649189Y-81066287D01*
X109565313Y-80982411D01*
X109565310Y-80982409D01*
X109565306Y-80982406D01*
X109462589Y-80923102D01*
X109462586Y-80923101D01*
X109348009Y-80892400D01*
X109229391Y-80892400D01*
X109114810Y-80923102D01*
X109012093Y-80982406D01*
X109012089Y-80982409D01*
X109012087Y-80982410D01*
X109012087Y-80982411D01*
X108961656Y-81032841D01*
X108894864Y-81071404D01*
X108817736Y-81071404D01*
X108750941Y-81032840D01*
X108712377Y-80966045D01*
X108707300Y-80927481D01*
X108707300Y-71024394D01*
X108707300Y-71024391D01*
X108683086Y-70934026D01*
X108683086Y-70934025D01*
X108683086Y-70934024D01*
X108683083Y-70934016D01*
X108676599Y-70909814D01*
X108676599Y-70909813D01*
X108672707Y-70903072D01*
X108617290Y-70807086D01*
X107794914Y-69984711D01*
X107794911Y-69984709D01*
X107794907Y-69984706D01*
X107692190Y-69925402D01*
X107692187Y-69925401D01*
X107667973Y-69918913D01*
X107577609Y-69894700D01*
X104715491Y-69894700D01*
X104715487Y-69894700D01*
X104625126Y-69918912D01*
X104625126Y-69918913D01*
X104600913Y-69925401D01*
X104498189Y-69984708D01*
X104498188Y-69984709D01*
X103457063Y-71025833D01*
X103390268Y-71064397D01*
X103313140Y-71064397D01*
X103305660Y-71062181D01*
X103257701Y-71046598D01*
X103086611Y-71019500D01*
X102913389Y-71019500D01*
X102847037Y-71030009D01*
X102742299Y-71046597D01*
X102577561Y-71100125D01*
X102577555Y-71100127D01*
X102577549Y-71100129D01*
X102577549Y-71100130D01*
X102423206Y-71178771D01*
X102283075Y-71280583D01*
X102160583Y-71403075D01*
X102058771Y-71543206D01*
X101980130Y-71697549D01*
X101980125Y-71697561D01*
X101926597Y-71862299D01*
X101908228Y-71978282D01*
X101899500Y-72033389D01*
X101899500Y-72206611D01*
X101911137Y-72280086D01*
X101926597Y-72377700D01*
X101953148Y-72459414D01*
X101980127Y-72542445D01*
X102057043Y-72693401D01*
X102058771Y-72696793D01*
X102149225Y-72821291D01*
X102160586Y-72836928D01*
X102283072Y-72959414D01*
X102423212Y-73061232D01*
X102577555Y-73139873D01*
X102742299Y-73193402D01*
X102913389Y-73220500D01*
X102913393Y-73220500D01*
X103086607Y-73220500D01*
X103086611Y-73220500D01*
X103257701Y-73193402D01*
X103422445Y-73139873D01*
X103576788Y-73061232D01*
X103716928Y-72959414D01*
X103839414Y-72836928D01*
X103941232Y-72696788D01*
X104019873Y-72542445D01*
X104073402Y-72377701D01*
X104100500Y-72206611D01*
X104100500Y-72033389D01*
X104073402Y-71862299D01*
X104057817Y-71814337D01*
X104053781Y-71737317D01*
X104088795Y-71668595D01*
X104094146Y-71662955D01*
X104917762Y-70839341D01*
X104984557Y-70800777D01*
X105023121Y-70795700D01*
X105946167Y-70795700D01*
X106020667Y-70815662D01*
X106075205Y-70870200D01*
X106095167Y-70944700D01*
X106075205Y-71019200D01*
X106066713Y-71032275D01*
X106058768Y-71043212D01*
X106029770Y-71100125D01*
X105980130Y-71197549D01*
X105980125Y-71197561D01*
X105926597Y-71362299D01*
X105908228Y-71478282D01*
X105899500Y-71533389D01*
X105899500Y-71706611D01*
X105924159Y-71862299D01*
X105926598Y-71877700D01*
X105942181Y-71925660D01*
X105946218Y-72002683D01*
X105911203Y-72071404D01*
X105905833Y-72077063D01*
X105378909Y-72603988D01*
X105378908Y-72603989D01*
X105319601Y-72706711D01*
X105319602Y-72706711D01*
X105319601Y-72706715D01*
X105288900Y-72821289D01*
X105288900Y-91650500D01*
X105268938Y-91725000D01*
X105214400Y-91779538D01*
X105139900Y-91799500D01*
X103355133Y-91799500D01*
X103330010Y-91802414D01*
X103330007Y-91802415D01*
X103227235Y-91847793D01*
X103147793Y-91927235D01*
X103102416Y-92030005D01*
X103102415Y-92030008D01*
X103102415Y-92030009D01*
X103099500Y-92055135D01*
X103099500Y-92055139D01*
X103099500Y-92055140D01*
X103099500Y-93944866D01*
X103102414Y-93969989D01*
X103102415Y-93969992D01*
X103147793Y-94072764D01*
X103147794Y-94072765D01*
X103227235Y-94152206D01*
X103330009Y-94197585D01*
X103355135Y-94200500D01*
X105139900Y-94200499D01*
X105214400Y-94220461D01*
X105268938Y-94274999D01*
X105288900Y-94349499D01*
X105288900Y-99012278D01*
X105268938Y-99086778D01*
X105245259Y-99117637D01*
X103457062Y-100905833D01*
X103390267Y-100944397D01*
X103313139Y-100944397D01*
X103305670Y-100942184D01*
X103289839Y-100937040D01*
X103257700Y-100926597D01*
X103160086Y-100911137D01*
X103086611Y-100899500D01*
X102913389Y-100899500D01*
X102847037Y-100910009D01*
X102742299Y-100926597D01*
X102577561Y-100980125D01*
X102577555Y-100980127D01*
X102577549Y-100980129D01*
X102577549Y-100980130D01*
X102423205Y-101058771D01*
X102421477Y-101060028D01*
X102420615Y-101060358D01*
X102418209Y-101061833D01*
X102417935Y-101061387D01*
X102349471Y-101087666D01*
X102273292Y-101075599D01*
X102213354Y-101027059D01*
X102185716Y-100955053D01*
X102184900Y-100939482D01*
X102184900Y-84133920D01*
X102204862Y-84059420D01*
X102228538Y-84028564D01*
X102542937Y-83714164D01*
X102609730Y-83675602D01*
X102686858Y-83675602D01*
X102694323Y-83677813D01*
X102742299Y-83693402D01*
X102913389Y-83720500D01*
X102913393Y-83720500D01*
X103086607Y-83720500D01*
X103086611Y-83720500D01*
X103257701Y-83693402D01*
X103422445Y-83639873D01*
X103576788Y-83561232D01*
X103716928Y-83459414D01*
X103839414Y-83336928D01*
X103941232Y-83196788D01*
X104019873Y-83042445D01*
X104073402Y-82877701D01*
X104100500Y-82706611D01*
X104100500Y-82533389D01*
X104073402Y-82362299D01*
X104019873Y-82197555D01*
X103941232Y-82043212D01*
X103940073Y-82041617D01*
X103873353Y-81949785D01*
X103839414Y-81903072D01*
X103716928Y-81780586D01*
X103716924Y-81780583D01*
X103576793Y-81678771D01*
X103576790Y-81678769D01*
X103576788Y-81678768D01*
X103422445Y-81600127D01*
X103358467Y-81579339D01*
X103257700Y-81546597D01*
X103160086Y-81531137D01*
X103086611Y-81519500D01*
X102913389Y-81519500D01*
X102847037Y-81530009D01*
X102742299Y-81546597D01*
X102599603Y-81592963D01*
X102577555Y-81600127D01*
X102577549Y-81600129D01*
X102577549Y-81600130D01*
X102423206Y-81678771D01*
X102283075Y-81780583D01*
X102160583Y-81903075D01*
X102058771Y-82043206D01*
X101980130Y-82197549D01*
X101980125Y-82197561D01*
X101926597Y-82362299D01*
X101908228Y-82478282D01*
X101899500Y-82533389D01*
X101899500Y-82706611D01*
X101901444Y-82718882D01*
X101926598Y-82877700D01*
X101942181Y-82925660D01*
X101946218Y-83002683D01*
X101911203Y-83071404D01*
X101905833Y-83077063D01*
X101555380Y-83427516D01*
X101488585Y-83466080D01*
X101411457Y-83466080D01*
X101344662Y-83427516D01*
X101306098Y-83360721D01*
X101301023Y-83322871D01*
X101260978Y-74913389D01*
X101899500Y-74913389D01*
X101899500Y-75086611D01*
X101911137Y-75160086D01*
X101926597Y-75257700D01*
X101937255Y-75290500D01*
X101980127Y-75422445D01*
X101987547Y-75437006D01*
X102058771Y-75576793D01*
X102160583Y-75716924D01*
X102160586Y-75716928D01*
X102283072Y-75839414D01*
X102283075Y-75839416D01*
X102420965Y-75939600D01*
X102423212Y-75941232D01*
X102577555Y-76019873D01*
X102742299Y-76073402D01*
X102913389Y-76100500D01*
X102913393Y-76100500D01*
X103086607Y-76100500D01*
X103086611Y-76100500D01*
X103257701Y-76073402D01*
X103422445Y-76019873D01*
X103576788Y-75941232D01*
X103716928Y-75839414D01*
X103839414Y-75716928D01*
X103941232Y-75576788D01*
X104019873Y-75422445D01*
X104073402Y-75257701D01*
X104100500Y-75086611D01*
X104100500Y-74913389D01*
X104073402Y-74742299D01*
X104019873Y-74577555D01*
X103941232Y-74423212D01*
X103938890Y-74419989D01*
X103839416Y-74283075D01*
X103839414Y-74283072D01*
X103716928Y-74160586D01*
X103611568Y-74084037D01*
X103576793Y-74058771D01*
X103576790Y-74058769D01*
X103576788Y-74058768D01*
X103422445Y-73980127D01*
X103374821Y-73964653D01*
X103257700Y-73926597D01*
X103160086Y-73911137D01*
X103086611Y-73899500D01*
X102913389Y-73899500D01*
X102847037Y-73910009D01*
X102742299Y-73926597D01*
X102577561Y-73980125D01*
X102577555Y-73980127D01*
X102577549Y-73980129D01*
X102577549Y-73980130D01*
X102423206Y-74058771D01*
X102283075Y-74160583D01*
X102160583Y-74283075D01*
X102058771Y-74423206D01*
X101980130Y-74577549D01*
X101980125Y-74577561D01*
X101926597Y-74742299D01*
X101917538Y-74799499D01*
X101899500Y-74913389D01*
X101260978Y-74913389D01*
X101223183Y-66976344D01*
X101242790Y-66901753D01*
X101266818Y-66870283D01*
X102542937Y-65594164D01*
X102609730Y-65555602D01*
X102686858Y-65555602D01*
X102694323Y-65557813D01*
X102742299Y-65573402D01*
X102913389Y-65600500D01*
X102913393Y-65600500D01*
X103086607Y-65600500D01*
X103086611Y-65600500D01*
X103257701Y-65573402D01*
X103422445Y-65519873D01*
X103576788Y-65441232D01*
X103716928Y-65339414D01*
X103839414Y-65216928D01*
X103941232Y-65076788D01*
X104019873Y-64922445D01*
X104073402Y-64757701D01*
X104100500Y-64586611D01*
X104100500Y-64413389D01*
X104073402Y-64242299D01*
X104019873Y-64077555D01*
X103941232Y-63923212D01*
X103941230Y-63923208D01*
X103934096Y-63913389D01*
X105899500Y-63913389D01*
X105899500Y-64086611D01*
X105911137Y-64160086D01*
X105926597Y-64257700D01*
X105964653Y-64374821D01*
X105980127Y-64422445D01*
X105980130Y-64422450D01*
X106058771Y-64576793D01*
X106160583Y-64716924D01*
X106160586Y-64716928D01*
X106283072Y-64839414D01*
X106423212Y-64941232D01*
X106577555Y-65019873D01*
X106742299Y-65073402D01*
X106913389Y-65100500D01*
X106913393Y-65100500D01*
X107086607Y-65100500D01*
X107086611Y-65100500D01*
X107257701Y-65073402D01*
X107422445Y-65019873D01*
X107576788Y-64941232D01*
X107716928Y-64839414D01*
X107839414Y-64716928D01*
X107941232Y-64576788D01*
X108019873Y-64422445D01*
X108073402Y-64257701D01*
X108100500Y-64086611D01*
X108100500Y-63913389D01*
X108073402Y-63742299D01*
X108019873Y-63577555D01*
X107941232Y-63423212D01*
X107931722Y-63410123D01*
X107839416Y-63283075D01*
X107839414Y-63283072D01*
X107716928Y-63160586D01*
X107658208Y-63117923D01*
X107576793Y-63058771D01*
X107576790Y-63058769D01*
X107576788Y-63058768D01*
X107422445Y-62980127D01*
X107374821Y-62964653D01*
X107257700Y-62926597D01*
X107160086Y-62911137D01*
X107086611Y-62899500D01*
X106913389Y-62899500D01*
X106847037Y-62910009D01*
X106742299Y-62926597D01*
X106577561Y-62980125D01*
X106577555Y-62980127D01*
X106577549Y-62980129D01*
X106577549Y-62980130D01*
X106423206Y-63058771D01*
X106283075Y-63160583D01*
X106160583Y-63283075D01*
X106058771Y-63423206D01*
X105980130Y-63577549D01*
X105980125Y-63577561D01*
X105926597Y-63742299D01*
X105914539Y-63818436D01*
X105899500Y-63913389D01*
X103934096Y-63913389D01*
X103839416Y-63783075D01*
X103839414Y-63783072D01*
X103716928Y-63660586D01*
X103716924Y-63660583D01*
X103576793Y-63558771D01*
X103576790Y-63558769D01*
X103576788Y-63558768D01*
X103422445Y-63480127D01*
X103374821Y-63464653D01*
X103257700Y-63426597D01*
X103153682Y-63410123D01*
X103086611Y-63399500D01*
X102913389Y-63399500D01*
X102847037Y-63410009D01*
X102742299Y-63426597D01*
X102577561Y-63480125D01*
X102577555Y-63480127D01*
X102577549Y-63480129D01*
X102577549Y-63480130D01*
X102423206Y-63558771D01*
X102283075Y-63660583D01*
X102160583Y-63783075D01*
X102058771Y-63923206D01*
X101980130Y-64077549D01*
X101980125Y-64077561D01*
X101926597Y-64242299D01*
X101908228Y-64358282D01*
X101899500Y-64413389D01*
X101899500Y-64586611D01*
X101911137Y-64660086D01*
X101926597Y-64757700D01*
X101942181Y-64805659D01*
X101946218Y-64882681D01*
X101911203Y-64951403D01*
X101905833Y-64957062D01*
X100754859Y-66108037D01*
X100688064Y-66146601D01*
X100610936Y-66146601D01*
X100544141Y-66108037D01*
X100505577Y-66041242D01*
X100500500Y-66002678D01*
X100500500Y-54673863D01*
X100520462Y-54599363D01*
X100575000Y-54544825D01*
X100649500Y-54524863D01*
X100724000Y-54544825D01*
X100778538Y-54599363D01*
X100797782Y-54659257D01*
X100815522Y-54839371D01*
X100853535Y-55225330D01*
X101065104Y-55922776D01*
X101065107Y-55922783D01*
X101408669Y-56565545D01*
X101408673Y-56565551D01*
X101408676Y-56565556D01*
X101871045Y-57128954D01*
X102434443Y-57591323D01*
X102434449Y-57591326D01*
X102434453Y-57591329D01*
X102778058Y-57774989D01*
X103077220Y-57934894D01*
X103453869Y-58049149D01*
X103774668Y-58146463D01*
X103774670Y-58146463D01*
X103774673Y-58146464D01*
X104500000Y-58217902D01*
X105225326Y-58146464D01*
X105225328Y-58146463D01*
X105225330Y-58146463D01*
X105357804Y-58106277D01*
X105922779Y-57934894D01*
X106565556Y-57591323D01*
X107128954Y-57128954D01*
X107591323Y-56565556D01*
X107934894Y-55922779D01*
X108138397Y-55251920D01*
X108146463Y-55225330D01*
X108146463Y-55225328D01*
X108146464Y-55225326D01*
X108217902Y-54500000D01*
X108146464Y-53774673D01*
X108036836Y-53413277D01*
X112119500Y-53413277D01*
X112119500Y-53586722D01*
X112153336Y-53756829D01*
X112153337Y-53756833D01*
X112219707Y-53917065D01*
X112219713Y-53917077D01*
X112283951Y-54013215D01*
X112316071Y-54061286D01*
X112438714Y-54183929D01*
X112534204Y-54247733D01*
X112582922Y-54280286D01*
X112582924Y-54280287D01*
X112582927Y-54280289D01*
X112743168Y-54346663D01*
X112913278Y-54380500D01*
X113086722Y-54380500D01*
X113256832Y-54346663D01*
X113417073Y-54280289D01*
X113561286Y-54183929D01*
X113683929Y-54061286D01*
X113780289Y-53917073D01*
X113846663Y-53756832D01*
X113880500Y-53586722D01*
X113880500Y-53413278D01*
X113880500Y-53413277D01*
X129119500Y-53413277D01*
X129119500Y-53586722D01*
X129153336Y-53756829D01*
X129153337Y-53756833D01*
X129219707Y-53917065D01*
X129219713Y-53917077D01*
X129283951Y-54013215D01*
X129316071Y-54061286D01*
X129438714Y-54183929D01*
X129534204Y-54247733D01*
X129582922Y-54280286D01*
X129582924Y-54280287D01*
X129582927Y-54280289D01*
X129743168Y-54346663D01*
X129913278Y-54380500D01*
X130086722Y-54380500D01*
X130256832Y-54346663D01*
X130417073Y-54280289D01*
X130561286Y-54183929D01*
X130683929Y-54061286D01*
X130780289Y-53917073D01*
X130846663Y-53756832D01*
X130880500Y-53586722D01*
X130880500Y-53413278D01*
X130880500Y-53413277D01*
X146119500Y-53413277D01*
X146119500Y-53586722D01*
X146153336Y-53756829D01*
X146153337Y-53756833D01*
X146219707Y-53917065D01*
X146219713Y-53917077D01*
X146283951Y-54013215D01*
X146316071Y-54061286D01*
X146438714Y-54183929D01*
X146534204Y-54247733D01*
X146582922Y-54280286D01*
X146582924Y-54280287D01*
X146582927Y-54280289D01*
X146743168Y-54346663D01*
X146913278Y-54380500D01*
X147086722Y-54380500D01*
X147256832Y-54346663D01*
X147417073Y-54280289D01*
X147561286Y-54183929D01*
X147683929Y-54061286D01*
X147780289Y-53917073D01*
X147846663Y-53756832D01*
X147880500Y-53586722D01*
X147880500Y-53413278D01*
X147846663Y-53243168D01*
X147780289Y-53082927D01*
X147776472Y-53077215D01*
X147747733Y-53034204D01*
X147683929Y-52938714D01*
X147561286Y-52816071D01*
X147513215Y-52783951D01*
X147417077Y-52719713D01*
X147417065Y-52719707D01*
X147256833Y-52653337D01*
X147256829Y-52653336D01*
X147086722Y-52619500D01*
X146913278Y-52619500D01*
X146743170Y-52653336D01*
X146743166Y-52653337D01*
X146582934Y-52719707D01*
X146582922Y-52719713D01*
X146438715Y-52816070D01*
X146438710Y-52816074D01*
X146316074Y-52938710D01*
X146316070Y-52938715D01*
X146219713Y-53082922D01*
X146219707Y-53082934D01*
X146153337Y-53243166D01*
X146153336Y-53243170D01*
X146119500Y-53413277D01*
X130880500Y-53413277D01*
X130846663Y-53243168D01*
X130780289Y-53082927D01*
X130776472Y-53077215D01*
X130747733Y-53034204D01*
X130683929Y-52938714D01*
X130561286Y-52816071D01*
X130513215Y-52783951D01*
X130417077Y-52719713D01*
X130417065Y-52719707D01*
X130256833Y-52653337D01*
X130256829Y-52653336D01*
X130086722Y-52619500D01*
X129913278Y-52619500D01*
X129743170Y-52653336D01*
X129743166Y-52653337D01*
X129582934Y-52719707D01*
X129582922Y-52719713D01*
X129438715Y-52816070D01*
X129438710Y-52816074D01*
X129316074Y-52938710D01*
X129316070Y-52938715D01*
X129219713Y-53082922D01*
X129219707Y-53082934D01*
X129153337Y-53243166D01*
X129153336Y-53243170D01*
X129119500Y-53413277D01*
X113880500Y-53413277D01*
X113846663Y-53243168D01*
X113780289Y-53082927D01*
X113776472Y-53077215D01*
X113747733Y-53034204D01*
X113683929Y-52938714D01*
X113561286Y-52816071D01*
X113513215Y-52783951D01*
X113417077Y-52719713D01*
X113417065Y-52719707D01*
X113256833Y-52653337D01*
X113256829Y-52653336D01*
X113086722Y-52619500D01*
X112913278Y-52619500D01*
X112743170Y-52653336D01*
X112743166Y-52653337D01*
X112582934Y-52719707D01*
X112582922Y-52719713D01*
X112438715Y-52816070D01*
X112438710Y-52816074D01*
X112316074Y-52938710D01*
X112316070Y-52938715D01*
X112219713Y-53082922D01*
X112219707Y-53082934D01*
X112153337Y-53243166D01*
X112153336Y-53243170D01*
X112119500Y-53413277D01*
X108036836Y-53413277D01*
X107934894Y-53077220D01*
X107690238Y-52619500D01*
X107591329Y-52434453D01*
X107591326Y-52434449D01*
X107591323Y-52434443D01*
X107128954Y-51871045D01*
X106565556Y-51408676D01*
X106565551Y-51408673D01*
X106565545Y-51408669D01*
X105922783Y-51065107D01*
X105922781Y-51065106D01*
X105922779Y-51065105D01*
X105922776Y-51065104D01*
X105225330Y-50853535D01*
X104957940Y-50827200D01*
X104659257Y-50797782D01*
X104587074Y-50770614D01*
X104538144Y-50710993D01*
X104525580Y-50634896D01*
X104552749Y-50562711D01*
X104612370Y-50513781D01*
X104673863Y-50500500D01*
X155326137Y-50500500D01*
X155400637Y-50520462D01*
G37*
%TD.AperFunction*%
%TA.AperFunction,Conductor*%
G36*
X111263850Y-133129262D02*
G01*
X111318388Y-133183800D01*
X111338350Y-133258300D01*
X111318388Y-133332800D01*
X111294709Y-133363659D01*
X111228026Y-133430341D01*
X111228022Y-133430345D01*
X111113057Y-133602403D01*
X111033869Y-133793582D01*
X110993500Y-133996534D01*
X110993500Y-134203465D01*
X111033869Y-134406417D01*
X111113057Y-134597596D01*
X111113138Y-134597716D01*
X111113166Y-134597799D01*
X111116507Y-134604049D01*
X111115475Y-134604600D01*
X111137933Y-134670750D01*
X111122888Y-134746397D01*
X111072036Y-134804386D01*
X110999002Y-134829181D01*
X110989252Y-134829500D01*
X110924535Y-134829500D01*
X110721582Y-134869869D01*
X110530403Y-134949057D01*
X110358345Y-135064022D01*
X110212026Y-135210341D01*
X110212022Y-135210346D01*
X110135889Y-135324288D01*
X110077901Y-135375142D01*
X110002255Y-135390189D01*
X109929220Y-135365397D01*
X109888111Y-135324288D01*
X109821769Y-135225000D01*
X109811977Y-135210345D01*
X109665655Y-135064023D01*
X109665654Y-135064022D01*
X109493596Y-134949057D01*
X109321550Y-134877794D01*
X109302420Y-134869870D01*
X109302418Y-134869869D01*
X109302417Y-134869869D01*
X109099465Y-134829500D01*
X109034748Y-134829500D01*
X108960248Y-134809538D01*
X108905710Y-134755000D01*
X108885748Y-134680500D01*
X108905710Y-134606000D01*
X108910862Y-134597716D01*
X108910942Y-134597596D01*
X108920548Y-134574402D01*
X108990130Y-134406420D01*
X109030500Y-134203465D01*
X109030500Y-133996535D01*
X108990130Y-133793580D01*
X108911528Y-133603818D01*
X108910942Y-133602403D01*
X108795977Y-133430345D01*
X108729291Y-133363659D01*
X108690727Y-133296864D01*
X108690727Y-133219736D01*
X108729291Y-133152941D01*
X108796086Y-133114377D01*
X108834650Y-133109300D01*
X111189350Y-133109300D01*
X111263850Y-133129262D01*
G37*
%TD.AperFunction*%
%TA.AperFunction,Conductor*%
G36*
X110086600Y-82125334D02*
G01*
X110107618Y-82128101D01*
X110121920Y-82139075D01*
X110138724Y-82145613D01*
X110151991Y-82162149D01*
X110168808Y-82175053D01*
X110175707Y-82191708D01*
X110186991Y-82205772D01*
X110190212Y-82226725D01*
X110198325Y-82246309D01*
X110199600Y-82265760D01*
X110199600Y-86199909D01*
X110221425Y-86281362D01*
X110223813Y-86290272D01*
X110230302Y-86314491D01*
X110289606Y-86417207D01*
X110289609Y-86417211D01*
X110289611Y-86417214D01*
X114282887Y-90410490D01*
X114377797Y-90465286D01*
X114385614Y-90469799D01*
X114500191Y-90500500D01*
X122020500Y-90500500D01*
X122095000Y-90520462D01*
X122149538Y-90575000D01*
X122169500Y-90649500D01*
X122169500Y-90903113D01*
X122149538Y-90977613D01*
X122095000Y-91032151D01*
X122088146Y-91035872D01*
X122043215Y-91058765D01*
X122043210Y-91058769D01*
X121903081Y-91160579D01*
X121903070Y-91160588D01*
X121780583Y-91283075D01*
X121678771Y-91423206D01*
X121600130Y-91577549D01*
X121600125Y-91577561D01*
X121546597Y-91742299D01*
X121534798Y-91816801D01*
X121519500Y-91913389D01*
X121519500Y-92086611D01*
X121525703Y-92125775D01*
X121546597Y-92257700D01*
X121562181Y-92305660D01*
X121600127Y-92422445D01*
X121661688Y-92543265D01*
X121678771Y-92576793D01*
X121762074Y-92691449D01*
X121780586Y-92716928D01*
X121903072Y-92839414D01*
X122043212Y-92941232D01*
X122197555Y-93019873D01*
X122362299Y-93073402D01*
X122533389Y-93100500D01*
X122533393Y-93100500D01*
X122706607Y-93100500D01*
X122706611Y-93100500D01*
X122877701Y-93073402D01*
X123042445Y-93019873D01*
X123196788Y-92941232D01*
X123336928Y-92839414D01*
X123459414Y-92716928D01*
X123561232Y-92576788D01*
X123639873Y-92422445D01*
X123693402Y-92257701D01*
X123720500Y-92086611D01*
X123720500Y-91913389D01*
X123693402Y-91742299D01*
X123639873Y-91577555D01*
X123561232Y-91423212D01*
X123557315Y-91417821D01*
X123459416Y-91283075D01*
X123459414Y-91283072D01*
X123336928Y-91160586D01*
X123196788Y-91058768D01*
X123196787Y-91058767D01*
X123196784Y-91058765D01*
X123151854Y-91035872D01*
X123148874Y-91033189D01*
X123145000Y-91032151D01*
X123120393Y-91007544D01*
X123094537Y-90984263D01*
X123093297Y-90980448D01*
X123090462Y-90977613D01*
X123081456Y-90944002D01*
X123070704Y-90910909D01*
X123070500Y-90903113D01*
X123070500Y-90649500D01*
X123090462Y-90575000D01*
X123145000Y-90520462D01*
X123219500Y-90500500D01*
X124009306Y-90500500D01*
X124009309Y-90500500D01*
X124099673Y-90476286D01*
X124123887Y-90469799D01*
X124226614Y-90410489D01*
X125542938Y-89094164D01*
X125609731Y-89055602D01*
X125686859Y-89055602D01*
X125694300Y-89057806D01*
X125742299Y-89073402D01*
X125913389Y-89100500D01*
X125913393Y-89100500D01*
X126086607Y-89100500D01*
X126086611Y-89100500D01*
X126257701Y-89073402D01*
X126422445Y-89019873D01*
X126576788Y-88941232D01*
X126716928Y-88839414D01*
X126839414Y-88716928D01*
X126921557Y-88603867D01*
X126981497Y-88555330D01*
X127057676Y-88543265D01*
X127129681Y-88570906D01*
X127178219Y-88630846D01*
X127191100Y-88691449D01*
X127191100Y-91308550D01*
X127171138Y-91383050D01*
X127116600Y-91437588D01*
X127042100Y-91457550D01*
X126967600Y-91437588D01*
X126921557Y-91396131D01*
X126884650Y-91345334D01*
X126839414Y-91283072D01*
X126716928Y-91160586D01*
X126664041Y-91122161D01*
X126576793Y-91058771D01*
X126576790Y-91058769D01*
X126576788Y-91058768D01*
X126422445Y-90980127D01*
X126374821Y-90964653D01*
X126257700Y-90926597D01*
X126160086Y-90911137D01*
X126086611Y-90899500D01*
X125913389Y-90899500D01*
X125847037Y-90910009D01*
X125742299Y-90926597D01*
X125585292Y-90977613D01*
X125577555Y-90980127D01*
X125577549Y-90980129D01*
X125577549Y-90980130D01*
X125423206Y-91058771D01*
X125283075Y-91160583D01*
X125160583Y-91283075D01*
X125058771Y-91423206D01*
X124980130Y-91577549D01*
X124980125Y-91577561D01*
X124926597Y-91742299D01*
X124914798Y-91816801D01*
X124899500Y-91913389D01*
X124899500Y-92086611D01*
X124905703Y-92125775D01*
X124926597Y-92257700D01*
X124942181Y-92305660D01*
X124980127Y-92422445D01*
X125041688Y-92543265D01*
X125058771Y-92576793D01*
X125142074Y-92691449D01*
X125160586Y-92716928D01*
X125283072Y-92839414D01*
X125423212Y-92941232D01*
X125577555Y-93019873D01*
X125742299Y-93073402D01*
X125913389Y-93100500D01*
X125913393Y-93100500D01*
X126086607Y-93100500D01*
X126086611Y-93100500D01*
X126257701Y-93073402D01*
X126422445Y-93019873D01*
X126576788Y-92941232D01*
X126716928Y-92839414D01*
X126839414Y-92716928D01*
X126921557Y-92603867D01*
X126981497Y-92555330D01*
X127057676Y-92543265D01*
X127129681Y-92570906D01*
X127178219Y-92630846D01*
X127191100Y-92691449D01*
X127191100Y-94308550D01*
X127171138Y-94383050D01*
X127116600Y-94437588D01*
X127042100Y-94457550D01*
X126967600Y-94437588D01*
X126921557Y-94396131D01*
X126887676Y-94349499D01*
X126839414Y-94283072D01*
X126716928Y-94160586D01*
X126705394Y-94152206D01*
X126576793Y-94058771D01*
X126576790Y-94058769D01*
X126576788Y-94058768D01*
X126422445Y-93980127D01*
X126374821Y-93964653D01*
X126257700Y-93926597D01*
X126160086Y-93911137D01*
X126086611Y-93899500D01*
X125913389Y-93899500D01*
X125847037Y-93910009D01*
X125742299Y-93926597D01*
X125577561Y-93980125D01*
X125577555Y-93980127D01*
X125577549Y-93980129D01*
X125577549Y-93980130D01*
X125423206Y-94058771D01*
X125283075Y-94160583D01*
X125160583Y-94283075D01*
X125058771Y-94423206D01*
X124980130Y-94577549D01*
X124980125Y-94577561D01*
X124926597Y-94742299D01*
X124914004Y-94821815D01*
X124899500Y-94913389D01*
X124899500Y-95086611D01*
X124907185Y-95135133D01*
X124926597Y-95257700D01*
X124964653Y-95374821D01*
X124980127Y-95422445D01*
X125041688Y-95543265D01*
X125058771Y-95576793D01*
X125142074Y-95691449D01*
X125160586Y-95716928D01*
X125283072Y-95839414D01*
X125423212Y-95941232D01*
X125468143Y-95964125D01*
X125471124Y-95966809D01*
X125475000Y-95967848D01*
X125499602Y-95992450D01*
X125525461Y-96015733D01*
X125526700Y-96019548D01*
X125529538Y-96022386D01*
X125538542Y-96055992D01*
X125549296Y-96089086D01*
X125549500Y-96096886D01*
X125549500Y-96371678D01*
X125529538Y-96446178D01*
X125505859Y-96477037D01*
X123077062Y-98905833D01*
X123010267Y-98944397D01*
X122933139Y-98944397D01*
X122925670Y-98942184D01*
X122909839Y-98937040D01*
X122877700Y-98926597D01*
X122780086Y-98911137D01*
X122706611Y-98899500D01*
X122533389Y-98899500D01*
X122467037Y-98910009D01*
X122362299Y-98926597D01*
X122197561Y-98980125D01*
X122197555Y-98980127D01*
X122197549Y-98980129D01*
X122197549Y-98980130D01*
X122043206Y-99058771D01*
X121903075Y-99160583D01*
X121780583Y-99283075D01*
X121678771Y-99423206D01*
X121600130Y-99577549D01*
X121600125Y-99577561D01*
X121546597Y-99742299D01*
X121542901Y-99765638D01*
X121519500Y-99913389D01*
X121519500Y-100086611D01*
X121524541Y-100118436D01*
X121546597Y-100257700D01*
X121584653Y-100374821D01*
X121600127Y-100422445D01*
X121600130Y-100422450D01*
X121678771Y-100576793D01*
X121780583Y-100716924D01*
X121780586Y-100716928D01*
X121903072Y-100839414D01*
X121903075Y-100839416D01*
X122023068Y-100926597D01*
X122043212Y-100941232D01*
X122197555Y-101019873D01*
X122362299Y-101073402D01*
X122533389Y-101100500D01*
X122533393Y-101100500D01*
X122706607Y-101100500D01*
X122706611Y-101100500D01*
X122877701Y-101073402D01*
X123042445Y-101019873D01*
X123196788Y-100941232D01*
X123336928Y-100839414D01*
X123459414Y-100716928D01*
X123561232Y-100576788D01*
X123639873Y-100422445D01*
X123693402Y-100257701D01*
X123720500Y-100086611D01*
X123720500Y-99913389D01*
X123693402Y-99742299D01*
X123677817Y-99694337D01*
X123673781Y-99617317D01*
X123708795Y-99548595D01*
X123714146Y-99542955D01*
X126360490Y-96896614D01*
X126419799Y-96793887D01*
X126431424Y-96750500D01*
X126450500Y-96679309D01*
X126450500Y-96096886D01*
X126470462Y-96022386D01*
X126525000Y-95967848D01*
X126531857Y-95964125D01*
X126576788Y-95941232D01*
X126716928Y-95839414D01*
X126839414Y-95716928D01*
X126921557Y-95603867D01*
X126981497Y-95555330D01*
X127057676Y-95543265D01*
X127129681Y-95570906D01*
X127178219Y-95630846D01*
X127191100Y-95691449D01*
X127191100Y-100730078D01*
X127171138Y-100804578D01*
X127147459Y-100835437D01*
X126457062Y-101525833D01*
X126390267Y-101564397D01*
X126313139Y-101564397D01*
X126305670Y-101562184D01*
X126283218Y-101554889D01*
X126257700Y-101546597D01*
X126160086Y-101531137D01*
X126086611Y-101519500D01*
X125913389Y-101519500D01*
X125847037Y-101530009D01*
X125742299Y-101546597D01*
X125577561Y-101600125D01*
X125577555Y-101600127D01*
X125577549Y-101600129D01*
X125577549Y-101600130D01*
X125423206Y-101678771D01*
X125283075Y-101780583D01*
X125160583Y-101903075D01*
X125058771Y-102043206D01*
X124980130Y-102197549D01*
X124980125Y-102197561D01*
X124926597Y-102362299D01*
X124917029Y-102422715D01*
X124899500Y-102533389D01*
X124899500Y-102706611D01*
X124902413Y-102725000D01*
X124926597Y-102877700D01*
X124961792Y-102986017D01*
X124980127Y-103042445D01*
X125022169Y-103124956D01*
X125058771Y-103196793D01*
X125116012Y-103275578D01*
X125160586Y-103336928D01*
X125283072Y-103459414D01*
X125423212Y-103561232D01*
X125577555Y-103639873D01*
X125742299Y-103693402D01*
X125913389Y-103720500D01*
X125913393Y-103720500D01*
X126086607Y-103720500D01*
X126086611Y-103720500D01*
X126257701Y-103693402D01*
X126422445Y-103639873D01*
X126576788Y-103561232D01*
X126716928Y-103459414D01*
X126839414Y-103336928D01*
X126941232Y-103196788D01*
X127019873Y-103042445D01*
X127073402Y-102877701D01*
X127100500Y-102706611D01*
X127100500Y-102533389D01*
X127073402Y-102362299D01*
X127057817Y-102314337D01*
X127053781Y-102237317D01*
X127088795Y-102168595D01*
X127094146Y-102162955D01*
X127750742Y-101506359D01*
X127817536Y-101467797D01*
X127894664Y-101467797D01*
X127961459Y-101506361D01*
X128000023Y-101573156D01*
X128005100Y-101611720D01*
X128005100Y-105103579D01*
X127985138Y-105178079D01*
X127961459Y-105208938D01*
X127328677Y-105841719D01*
X127261882Y-105880283D01*
X127184754Y-105880283D01*
X127117959Y-105841719D01*
X127079395Y-105774924D01*
X127076152Y-105759663D01*
X127073403Y-105742305D01*
X127073402Y-105742300D01*
X127070501Y-105733372D01*
X127019873Y-105577555D01*
X126941232Y-105423212D01*
X126932511Y-105411209D01*
X126839416Y-105283075D01*
X126839414Y-105283072D01*
X126716928Y-105160586D01*
X126705394Y-105152206D01*
X126576793Y-105058771D01*
X126576790Y-105058769D01*
X126576788Y-105058768D01*
X126422445Y-104980127D01*
X126366656Y-104962000D01*
X126257700Y-104926597D01*
X126160086Y-104911137D01*
X126086611Y-104899500D01*
X125913389Y-104899500D01*
X125847037Y-104910009D01*
X125742299Y-104926597D01*
X125577561Y-104980125D01*
X125577555Y-104980127D01*
X125577549Y-104980129D01*
X125577549Y-104980130D01*
X125423206Y-105058771D01*
X125283075Y-105160583D01*
X125160583Y-105283075D01*
X125058771Y-105423206D01*
X124980130Y-105577549D01*
X124980125Y-105577561D01*
X124926597Y-105742299D01*
X124910851Y-105841719D01*
X124899500Y-105913389D01*
X124899500Y-106086611D01*
X124909594Y-106150340D01*
X124926597Y-106257700D01*
X124964653Y-106374821D01*
X124980127Y-106422445D01*
X124988330Y-106438543D01*
X125058771Y-106576793D01*
X125153815Y-106707609D01*
X125160586Y-106716928D01*
X125283072Y-106839414D01*
X125283075Y-106839416D01*
X125403068Y-106926597D01*
X125423212Y-106941232D01*
X125577555Y-107019873D01*
X125742299Y-107073402D01*
X125759663Y-107076152D01*
X125830124Y-107107520D01*
X125875461Y-107169916D01*
X125883526Y-107246621D01*
X125852158Y-107317082D01*
X125841719Y-107328677D01*
X123199155Y-109971240D01*
X123132360Y-110009804D01*
X123055232Y-110009804D01*
X122988438Y-109971241D01*
X122363718Y-109346530D01*
X122325153Y-109279735D01*
X122325153Y-109202607D01*
X122363716Y-109135812D01*
X122430511Y-109097247D01*
X122492382Y-109094005D01*
X122533389Y-109100500D01*
X122533390Y-109100500D01*
X122706607Y-109100500D01*
X122706611Y-109100500D01*
X122877701Y-109073402D01*
X123042445Y-109019873D01*
X123196788Y-108941232D01*
X123336928Y-108839414D01*
X123459414Y-108716928D01*
X123561232Y-108576788D01*
X123639873Y-108422445D01*
X123693402Y-108257701D01*
X123720500Y-108086611D01*
X123720500Y-107913389D01*
X123693402Y-107742299D01*
X123639873Y-107577555D01*
X123561232Y-107423212D01*
X123459414Y-107283072D01*
X123336928Y-107160586D01*
X123336924Y-107160583D01*
X123196793Y-107058771D01*
X123196790Y-107058769D01*
X123196788Y-107058768D01*
X123042445Y-106980127D01*
X122994821Y-106964653D01*
X122877700Y-106926597D01*
X122780086Y-106911137D01*
X122706611Y-106899500D01*
X122533389Y-106899500D01*
X122467037Y-106910009D01*
X122362299Y-106926597D01*
X122197561Y-106980125D01*
X122197555Y-106980127D01*
X122197549Y-106980129D01*
X122197549Y-106980130D01*
X122043206Y-107058771D01*
X121903075Y-107160583D01*
X121780583Y-107283075D01*
X121678771Y-107423206D01*
X121600130Y-107577549D01*
X121600125Y-107577561D01*
X121546597Y-107742299D01*
X121544619Y-107754791D01*
X121519500Y-107913389D01*
X121519500Y-108086611D01*
X121524541Y-108118436D01*
X121525998Y-108127635D01*
X121517935Y-108204340D01*
X121472600Y-108266738D01*
X121402140Y-108298109D01*
X121325435Y-108290046D01*
X121273474Y-108256303D01*
X116656612Y-103639510D01*
X116656611Y-103639509D01*
X116553884Y-103580200D01*
X116511945Y-103568963D01*
X116439309Y-103549500D01*
X116340437Y-103549500D01*
X116331443Y-103548402D01*
X116303794Y-103537253D01*
X116274999Y-103529538D01*
X116268471Y-103523010D01*
X116259911Y-103519559D01*
X116241540Y-103496079D01*
X116220461Y-103475000D01*
X116218071Y-103466083D01*
X116212384Y-103458814D01*
X116208214Y-103429295D01*
X116200499Y-103400500D01*
X116200499Y-103055133D01*
X116197585Y-103030010D01*
X116197584Y-103030007D01*
X116193109Y-103019873D01*
X116152206Y-102927235D01*
X116072765Y-102847794D01*
X116072764Y-102847793D01*
X115969994Y-102802416D01*
X115969991Y-102802415D01*
X115944865Y-102799500D01*
X115944859Y-102799500D01*
X114247800Y-102799500D01*
X114173300Y-102779538D01*
X114118762Y-102725000D01*
X114098800Y-102650500D01*
X114098800Y-100997961D01*
X114118762Y-100923461D01*
X114173300Y-100868923D01*
X114247800Y-100848961D01*
X114322300Y-100868923D01*
X114335370Y-100877410D01*
X114423212Y-100941232D01*
X114577555Y-101019873D01*
X114742299Y-101073402D01*
X114913389Y-101100500D01*
X114913393Y-101100500D01*
X115086607Y-101100500D01*
X115086611Y-101100500D01*
X115257701Y-101073402D01*
X115422445Y-101019873D01*
X115576788Y-100941232D01*
X115716928Y-100839414D01*
X115839414Y-100716928D01*
X115941232Y-100576788D01*
X116019873Y-100422445D01*
X116073402Y-100257701D01*
X116100500Y-100086611D01*
X116100500Y-99913389D01*
X116073402Y-99742299D01*
X116019873Y-99577555D01*
X115941232Y-99423212D01*
X115919933Y-99393897D01*
X115854429Y-99303738D01*
X115839414Y-99283072D01*
X115716928Y-99160586D01*
X115657814Y-99117637D01*
X115576793Y-99058771D01*
X115576790Y-99058769D01*
X115576788Y-99058768D01*
X115422445Y-98980127D01*
X115363222Y-98960884D01*
X115257700Y-98926597D01*
X115160086Y-98911137D01*
X115086611Y-98899500D01*
X114913389Y-98899500D01*
X114847037Y-98910009D01*
X114742299Y-98926597D01*
X114577561Y-98980125D01*
X114577555Y-98980127D01*
X114423212Y-99058768D01*
X114423210Y-99058769D01*
X114423203Y-99058773D01*
X114335380Y-99122581D01*
X114263375Y-99150222D01*
X114187197Y-99138156D01*
X114127257Y-99089618D01*
X114099616Y-99017613D01*
X114098800Y-99002038D01*
X114098800Y-97349499D01*
X114118762Y-97274999D01*
X114173300Y-97220461D01*
X114247800Y-97200499D01*
X115944867Y-97200499D01*
X115959940Y-97198750D01*
X115969991Y-97197585D01*
X116072765Y-97152206D01*
X116152206Y-97072765D01*
X116197585Y-96969991D01*
X116200500Y-96944865D01*
X116200499Y-95055136D01*
X116197585Y-95030009D01*
X116152206Y-94927235D01*
X116072765Y-94847794D01*
X116072764Y-94847793D01*
X115969994Y-94802416D01*
X115969991Y-94802415D01*
X115944865Y-94799500D01*
X115944859Y-94799500D01*
X114247800Y-94799500D01*
X114173300Y-94779538D01*
X114118762Y-94725000D01*
X114098800Y-94650500D01*
X114098800Y-93600020D01*
X114118762Y-93525520D01*
X114142437Y-93494664D01*
X114542937Y-93094164D01*
X114609730Y-93055602D01*
X114686858Y-93055602D01*
X114694323Y-93057813D01*
X114742299Y-93073402D01*
X114913389Y-93100500D01*
X114913393Y-93100500D01*
X115086607Y-93100500D01*
X115086611Y-93100500D01*
X115257701Y-93073402D01*
X115422445Y-93019873D01*
X115576788Y-92941232D01*
X115716928Y-92839414D01*
X115839414Y-92716928D01*
X115941232Y-92576788D01*
X116019873Y-92422445D01*
X116073402Y-92257701D01*
X116100500Y-92086611D01*
X116100500Y-91913389D01*
X116073402Y-91742299D01*
X116019873Y-91577555D01*
X115941232Y-91423212D01*
X115937315Y-91417821D01*
X115839416Y-91283075D01*
X115839414Y-91283072D01*
X115716928Y-91160586D01*
X115664041Y-91122161D01*
X115576793Y-91058771D01*
X115576790Y-91058769D01*
X115576788Y-91058768D01*
X115422445Y-90980127D01*
X115374821Y-90964653D01*
X115257700Y-90926597D01*
X115160086Y-90911137D01*
X115086611Y-90899500D01*
X114913389Y-90899500D01*
X114847037Y-90910009D01*
X114742299Y-90926597D01*
X114585292Y-90977613D01*
X114577555Y-90980127D01*
X114577549Y-90980129D01*
X114577549Y-90980130D01*
X114423206Y-91058771D01*
X114283075Y-91160583D01*
X114160583Y-91283075D01*
X114058771Y-91423206D01*
X113980130Y-91577549D01*
X113980125Y-91577561D01*
X113926597Y-91742299D01*
X113914798Y-91816801D01*
X113899500Y-91913389D01*
X113899500Y-92086611D01*
X113921065Y-92222764D01*
X113926598Y-92257700D01*
X113942181Y-92305660D01*
X113946218Y-92382683D01*
X113911203Y-92451404D01*
X113905833Y-92457063D01*
X113287809Y-93075088D01*
X113287808Y-93075089D01*
X113218693Y-93194801D01*
X113215469Y-93192939D01*
X113193659Y-93230717D01*
X113126865Y-93269281D01*
X113049736Y-93269281D01*
X112982941Y-93230717D01*
X112944377Y-93163923D01*
X112939300Y-93125358D01*
X112939300Y-90228391D01*
X112939299Y-90228389D01*
X112930180Y-90194357D01*
X112908599Y-90113814D01*
X112908599Y-90113813D01*
X112849290Y-90011086D01*
X109782841Y-86944637D01*
X109744277Y-86877842D01*
X109739200Y-86839278D01*
X109739200Y-82487174D01*
X109759162Y-82412674D01*
X109768053Y-82399050D01*
X109774786Y-82389869D01*
X109832814Y-82331842D01*
X109909475Y-82217111D01*
X109919822Y-82192129D01*
X109930453Y-82177636D01*
X109946989Y-82164368D01*
X109959893Y-82147552D01*
X109976548Y-82140652D01*
X109990612Y-82129369D01*
X110011565Y-82126147D01*
X110031149Y-82118035D01*
X110049023Y-82120387D01*
X110066844Y-82117648D01*
X110086600Y-82125334D01*
G37*
%TD.AperFunction*%
%TD*%
M02*
