%TF.GenerationSoftware,KiCad,Pcbnew,9.0.6*%
%TF.CreationDate,2026-09-06T15:37:54-07:00*%
%TF.ProjectId,pitclaw-carrier,70697463-6c61-4772-9d63-617272696572,rev?*%
%TF.SameCoordinates,Original*%
%TF.FileFunction,Copper,L2,Bot*%
%TF.FilePolarity,Positive*%
%FSLAX46Y46*%
G04 Gerber Fmt 4.6, Leading zero omitted, Abs format (unit mm)*
G04 Created by KiCad (PCBNEW 9.0.6) date 2026-09-06 15:37:54*
%MOMM*%
%LPD*%
G01*
G04 APERTURE LIST*
G04 Aperture macros list*
%AMRoundRect*
0 Rectangle with rounded corners*
0 $1 Rounding radius*
0 $2 $3 $4 $5 $6 $7 $8 $9 X,Y pos of 4 corners*
0 Add a 4 corners polygon primitive as box body*
4,1,4,$2,$3,$4,$5,$6,$7,$8,$9,$2,$3,0*
0 Add four circle primitives for the rounded corners*
1,1,$1+$1,$2,$3*
1,1,$1+$1,$4,$5*
1,1,$1+$1,$6,$7*
1,1,$1+$1,$8,$9*
0 Add four rect primitives between the rounded corners*
20,1,$1+$1,$2,$3,$4,$5,0*
20,1,$1+$1,$4,$5,$6,$7,0*
20,1,$1+$1,$6,$7,$8,$9,0*
20,1,$1+$1,$8,$9,$2,$3,0*%
G04 Aperture macros list end*
%TA.AperFunction,ComponentPad*%
%ADD10RoundRect,0.250000X-0.600000X-0.750000X0.600000X-0.750000X0.600000X0.750000X-0.600000X0.750000X0*%
%TD*%
%TA.AperFunction,ComponentPad*%
%ADD11O,1.700000X2.000000*%
%TD*%
%TA.AperFunction,ComponentPad*%
%ADD12R,1.800000X1.800000*%
%TD*%
%TA.AperFunction,ComponentPad*%
%ADD13C,1.800000*%
%TD*%
%TA.AperFunction,ComponentPad*%
%ADD14R,2.100000X1.100000*%
%TD*%
%TA.AperFunction,ComponentPad*%
%ADD15O,1.100000X2.100000*%
%TD*%
%TA.AperFunction,ComponentPad*%
%ADD16RoundRect,0.249999X-0.850001X0.850001X-0.850001X-0.850001X0.850001X-0.850001X0.850001X0.850001X0*%
%TD*%
%TA.AperFunction,ComponentPad*%
%ADD17C,2.200000*%
%TD*%
%TA.AperFunction,ComponentPad*%
%ADD18C,1.600000*%
%TD*%
%TA.AperFunction,ComponentPad*%
%ADD19RoundRect,0.250000X-0.550000X-0.550000X0.550000X-0.550000X0.550000X0.550000X-0.550000X0.550000X0*%
%TD*%
%TA.AperFunction,ComponentPad*%
%ADD20RoundRect,0.250000X-0.750000X-0.750000X0.750000X-0.750000X0.750000X0.750000X-0.750000X0.750000X0*%
%TD*%
%TA.AperFunction,ComponentPad*%
%ADD21C,2.000000*%
%TD*%
%TA.AperFunction,ComponentPad*%
%ADD22R,2.500000X1.800000*%
%TD*%
%TA.AperFunction,ComponentPad*%
%ADD23O,2.500000X1.800000*%
%TD*%
%TA.AperFunction,ComponentPad*%
%ADD24O,1.800000X2.500000*%
%TD*%
%TA.AperFunction,ComponentPad*%
%ADD25R,2.100000X2.100000*%
%TD*%
%TA.AperFunction,ComponentPad*%
%ADD26C,2.100000*%
%TD*%
%TA.AperFunction,ComponentPad*%
%ADD27R,1.500000X1.500000*%
%TD*%
%TA.AperFunction,ComponentPad*%
%ADD28C,1.500000*%
%TD*%
%TA.AperFunction,ComponentPad*%
%ADD29R,1.700000X1.700000*%
%TD*%
%TA.AperFunction,ComponentPad*%
%ADD30C,1.700000*%
%TD*%
%TA.AperFunction,ComponentPad*%
%ADD31RoundRect,0.250000X-0.600000X-0.725000X0.600000X-0.725000X0.600000X0.725000X-0.600000X0.725000X0*%
%TD*%
%TA.AperFunction,ComponentPad*%
%ADD32O,1.700000X1.950000*%
%TD*%
%TA.AperFunction,ComponentPad*%
%ADD33R,2.300000X2.300000*%
%TD*%
%TA.AperFunction,ComponentPad*%
%ADD34C,2.300000*%
%TD*%
%TA.AperFunction,ComponentPad*%
%ADD35RoundRect,0.249999X-0.850001X-0.850001X0.850001X-0.850001X0.850001X0.850001X-0.850001X0.850001X0*%
%TD*%
%TA.AperFunction,ViaPad*%
%ADD36C,0.800000*%
%TD*%
%TA.AperFunction,ViaPad*%
%ADD37C,1.200000*%
%TD*%
%TA.AperFunction,Conductor*%
%ADD38C,2.000000*%
%TD*%
%TA.AperFunction,Conductor*%
%ADD39C,0.300000*%
%TD*%
%TA.AperFunction,Conductor*%
%ADD40C,1.200000*%
%TD*%
G04 APERTURE END LIST*
D10*
%TO.P,J7,1*%
%TO.N,/+3V3_A*%
X140000000Y-62000000D03*
D11*
%TO.P,J7,2*%
%TO.N,/GND*%
X142500000Y-62000000D03*
%TD*%
D12*
%TO.P,C12,1*%
%TO.N,/AIN2*%
X115000000Y-104000000D03*
D13*
%TO.P,C12,2*%
%TO.N,/GND*%
X120000000Y-104000000D03*
%TD*%
D12*
%TO.P,C11,1*%
%TO.N,/AIN1*%
X115000000Y-96000000D03*
D13*
%TO.P,C11,2*%
%TO.N,/GND*%
X120000000Y-96000000D03*
%TD*%
D14*
%TO.P,J5,1*%
%TO.N,/GND*%
X130000000Y-58100000D03*
D15*
%TO.P,J5,2*%
%TO.N,/PROBE1*%
X128200000Y-56000000D03*
%TO.P,J5,3*%
X131800000Y-56000000D03*
%TD*%
D16*
%TO.P,D3,1*%
%TO.N,/WALL_12V*%
X155000000Y-81000000D03*
D17*
%TO.P,D3,2*%
%TO.N,/GND*%
X155000000Y-91160000D03*
%TD*%
D18*
%TO.P,R12,1*%
%TO.N,/+3V3_A*%
X115000000Y-108000000D03*
%TO.P,R12,2*%
%TO.N,/PROBE2*%
X122620000Y-108000000D03*
%TD*%
%TO.P,R4,1*%
%TO.N,/GPIO13_SERVO*%
X103000000Y-75000000D03*
%TO.P,R4,2*%
%TO.N,/SERVO_SIG*%
X103000000Y-82620000D03*
%TD*%
%TO.P,R3,1*%
%TO.N,/FAN_BASE*%
X103000000Y-102000000D03*
%TO.P,R3,2*%
%TO.N,/GND*%
X110620000Y-102000000D03*
%TD*%
%TO.P,R16,1*%
%TO.N,/+3V3_A*%
X126000000Y-92000000D03*
%TO.P,R16,2*%
%TO.N,/AIN3*%
X133620000Y-92000000D03*
%TD*%
D12*
%TO.P,BZ1,1*%
%TO.N,/BUZZ_DIRECT*%
X104300000Y-93000000D03*
D13*
%TO.P,BZ1,2*%
%TO.N,/GND*%
X109300000Y-93000000D03*
%TD*%
D19*
%TO.P,C3,1*%
%TO.N,/+5V*%
X153250000Y-64500000D03*
D18*
%TO.P,C3,2*%
%TO.N,/GND*%
X156750000Y-64500000D03*
%TD*%
D12*
%TO.P,U2,1*%
%TO.N,/+12V*%
X117000000Y-121500000D03*
D13*
%TO.P,U2,2*%
%TO.N,/GND*%
X119540000Y-121500000D03*
%TO.P,U2,3*%
%TO.N,/+5V*%
X122080000Y-121500000D03*
%TD*%
D10*
%TO.P,J1,1*%
%TO.N,/PD_12V*%
X154000000Y-101000000D03*
D11*
%TO.P,J1,2*%
%TO.N,/GND*%
X156500000Y-101000000D03*
%TD*%
D14*
%TO.P,J4,1*%
%TO.N,/GND*%
X113000000Y-58100000D03*
D15*
%TO.P,J4,2*%
%TO.N,/PROBE0*%
X111200000Y-56000000D03*
%TO.P,J4,3*%
X114800000Y-56000000D03*
%TD*%
D20*
%TO.P,C1,1*%
%TO.N,/+12V*%
X143000000Y-109000000D03*
D21*
%TO.P,C1,2*%
%TO.N,/GND*%
X148000000Y-109000000D03*
%TD*%
D22*
%TO.P,J9,1*%
%TO.N,/WALL_12V*%
X126500000Y-129900000D03*
D23*
%TO.P,J9,2*%
%TO.N,/GND*%
X126500000Y-135800000D03*
D24*
%TO.P,J9,3*%
%TO.N,unconnected-(J9-Pad3)*%
X131200000Y-132700000D03*
%TD*%
D18*
%TO.P,R14,1*%
%TO.N,/PROBE1*%
X126000000Y-95000000D03*
%TO.P,R14,2*%
%TO.N,/AIN1*%
X126000000Y-102620000D03*
%TD*%
D25*
%TO.P,Q1,1*%
%TO.N,/FAN_GATE*%
X143300000Y-91000000D03*
D26*
%TO.P,Q1,2*%
%TO.N,/FAN_OUT*%
X145840000Y-91000000D03*
%TO.P,Q1,3*%
%TO.N,/+12V*%
X148380000Y-91000000D03*
%TD*%
D27*
%TO.P,J2,1*%
%TO.N,unconnected-(J2-NC-Pad1)*%
X113060000Y-135880000D03*
D28*
%TO.P,J2,2*%
%TO.N,unconnected-(J2-NC-Pad2)*%
X112044000Y-134100000D03*
%TO.P,J2,3*%
%TO.N,/+5V*%
X111028000Y-135880000D03*
%TO.P,J2,4*%
%TO.N,/GND*%
X110012000Y-134100000D03*
%TO.P,J2,5*%
%TO.N,/FAN_OUT*%
X108996000Y-135880000D03*
%TO.P,J2,6*%
%TO.N,/SERVO_SIG*%
X107980000Y-134100000D03*
%TO.P,J2,7*%
%TO.N,unconnected-(J2-NC-Pad7)*%
X106964000Y-135880000D03*
%TO.P,J2,8*%
%TO.N,unconnected-(J2-NC-Pad8)*%
X105948000Y-134100000D03*
%TD*%
D29*
%TO.P,JP1,1*%
%TO.N,/+5V*%
X155000000Y-73500000D03*
D30*
%TO.P,JP1,2*%
%TO.N,/+5V_WT32*%
X155000000Y-76040000D03*
%TD*%
D12*
%TO.P,J8,1*%
%TO.N,/+3V3_A*%
X113000000Y-83000000D03*
D13*
%TO.P,J8,2*%
%TO.N,/GND*%
X115540000Y-83000000D03*
%TO.P,J8,3*%
%TO.N,/SCL*%
X118080000Y-83000000D03*
%TO.P,J8,4*%
%TO.N,/SDA*%
X120620000Y-83000000D03*
%TO.P,J8,5*%
%TO.N,/GND*%
X123160000Y-83000000D03*
%TO.P,J8,6*%
%TO.N,unconnected-(J8-ALRT-Pad6)*%
X125700000Y-83000000D03*
%TO.P,J8,7*%
%TO.N,/AIN0*%
X128240000Y-83000000D03*
%TO.P,J8,8*%
%TO.N,/AIN1*%
X130780000Y-83000000D03*
%TO.P,J8,9*%
%TO.N,/AIN2*%
X133320000Y-83000000D03*
%TO.P,J8,10*%
%TO.N,/AIN3*%
X135860000Y-83000000D03*
%TD*%
D18*
%TO.P,R2,1*%
%TO.N,/GPIO12_FAN*%
X107000000Y-64000000D03*
%TO.P,R2,2*%
%TO.N,/FAN_BASE*%
X107000000Y-71620000D03*
%TD*%
%TO.P,R5,1*%
%TO.N,/SERVO_SIG*%
X103000000Y-106000000D03*
%TO.P,R5,2*%
%TO.N,/GND*%
X110620000Y-106000000D03*
%TD*%
%TO.P,R6,1*%
%TO.N,/GPIO14_BUZZ*%
X107000000Y-75000000D03*
%TO.P,R6,2*%
%TO.N,/BUZZ_DIRECT*%
X107000000Y-82620000D03*
%TD*%
%TO.P,R13,1*%
%TO.N,/PROBE0*%
X126000000Y-88000000D03*
%TO.P,R13,2*%
%TO.N,/AIN0*%
X133620000Y-88000000D03*
%TD*%
D12*
%TO.P,C2,1*%
%TO.N,/+12V*%
X115000000Y-115000000D03*
D13*
%TO.P,C2,2*%
%TO.N,/GND*%
X120000000Y-115000000D03*
%TD*%
D18*
%TO.P,R10,1*%
%TO.N,/+3V3_A*%
X115000000Y-92000000D03*
%TO.P,R10,2*%
%TO.N,/PROBE0*%
X122620000Y-92000000D03*
%TD*%
D31*
%TO.P,J3,1*%
%TO.N,/+5V_WT32*%
X112000000Y-62000000D03*
D32*
%TO.P,J3,2*%
%TO.N,/GND*%
X114500000Y-62000000D03*
%TO.P,J3,3*%
%TO.N,/SDA*%
X117000000Y-62000000D03*
%TO.P,J3,4*%
%TO.N,/SCL*%
X119500000Y-62000000D03*
%TO.P,J3,5*%
%TO.N,/GPIO12_FAN*%
X122000000Y-62000000D03*
%TO.P,J3,6*%
%TO.N,/GPIO13_SERVO*%
X124500000Y-62000000D03*
%TO.P,J3,7*%
%TO.N,/GPIO14_BUZZ*%
X127000000Y-62000000D03*
%TO.P,J3,8*%
%TO.N,unconnected-(J3-GPIO21_SPARE-Pad8)*%
X129500000Y-62000000D03*
%TD*%
D12*
%TO.P,C4,1*%
%TO.N,/+5V*%
X130500000Y-120000000D03*
D13*
%TO.P,C4,2*%
%TO.N,/GND*%
X130500000Y-125000000D03*
%TD*%
D18*
%TO.P,R11,1*%
%TO.N,/+3V3_A*%
X115000000Y-100000000D03*
%TO.P,R11,2*%
%TO.N,/PROBE1*%
X122620000Y-100000000D03*
%TD*%
D14*
%TO.P,J6,1*%
%TO.N,/GND*%
X147000000Y-58100000D03*
D15*
%TO.P,J6,2*%
%TO.N,/PROBE2*%
X145200000Y-56000000D03*
%TO.P,J6,3*%
X148800000Y-56000000D03*
%TD*%
D18*
%TO.P,R15,1*%
%TO.N,/PROBE2*%
X126000000Y-106000000D03*
%TO.P,R15,2*%
%TO.N,/AIN2*%
X126000000Y-113620000D03*
%TD*%
%TO.P,R1,1*%
%TO.N,/+12V*%
X103000000Y-64500000D03*
%TO.P,R1,2*%
%TO.N,/FAN_GATE*%
X103000000Y-72120000D03*
%TD*%
D33*
%TO.P,K1,1*%
%TO.N,/WALL_12V*%
X130340000Y-96330000D03*
D34*
%TO.P,K1,2*%
%TO.N,/+12V*%
X130340000Y-106490000D03*
%TO.P,K1,3*%
%TO.N,/WALL_12V*%
X130340000Y-114110000D03*
%TO.P,K1,4*%
%TO.N,/PD_12V*%
X137960000Y-111570000D03*
%TO.P,K1,5*%
%TO.N,/GND*%
X137960000Y-96330000D03*
%TD*%
D12*
%TO.P,C10,1*%
%TO.N,/AIN0*%
X115000000Y-88000000D03*
D13*
%TO.P,C10,2*%
%TO.N,/GND*%
X120000000Y-88000000D03*
%TD*%
D35*
%TO.P,D2,1*%
%TO.N,/FAN_OUT*%
X141500000Y-95500000D03*
D17*
%TO.P,D2,2*%
%TO.N,/GND*%
X151660000Y-95500000D03*
%TD*%
D27*
%TO.P,Q2,1*%
%TO.N,/GND*%
X105500000Y-124000000D03*
D28*
%TO.P,Q2,2*%
%TO.N,/FAN_BASE*%
X108040000Y-124000000D03*
%TO.P,Q2,3*%
%TO.N,/FAN_GATE*%
X110580000Y-124000000D03*
%TD*%
D36*
%TO.N,/+12V*%
X100950000Y-104214000D03*
%TO.N,/+3V3_A*%
X138618500Y-85536100D03*
D37*
%TO.N,/+5V*%
X135485500Y-78711700D03*
X121062500Y-78851100D03*
X115050000Y-110083200D03*
D36*
%TO.N,/PROBE1*%
X133217000Y-94490000D03*
%TO.N,/PROBE2*%
X133777100Y-99292700D03*
%TO.N,/SCL*%
X120005100Y-81213900D03*
%TO.N,/SERVO_SIG*%
X109288700Y-81885300D03*
X112488800Y-101886700D03*
X120195300Y-109179300D03*
X109000000Y-130600000D03*
%TD*%
D38*
%TO.N,/+12V*%
X143000000Y-109000000D02*
X140490000Y-106490000D01*
X119704100Y-111171700D02*
X117799800Y-113076000D01*
X140490000Y-106490000D02*
X130340000Y-106490000D01*
X125658300Y-111171700D02*
X119704100Y-111171700D01*
D39*
X114741500Y-113076500D02*
X118712500Y-113076500D01*
X105879000Y-104214000D02*
X114741500Y-113076500D01*
D38*
X130340000Y-106490000D02*
X125658300Y-111171700D01*
D39*
X100950000Y-104214000D02*
X105879000Y-104214000D01*
D38*
X115000000Y-113076000D02*
X115000000Y-115000000D01*
D39*
%TO.N,/+3V3_A*%
X124713000Y-90713000D02*
X115223500Y-90713000D01*
X113000000Y-88489500D02*
X115017500Y-90507000D01*
X130368300Y-86648300D02*
X132994700Y-89274700D01*
X113000000Y-83000000D02*
X113000000Y-88489500D01*
X138110400Y-85329800D02*
X138412200Y-85329800D01*
X115223500Y-90713000D02*
X115136800Y-90626300D01*
X132994700Y-89274700D02*
X134165500Y-89274700D01*
X126000000Y-92000000D02*
X124713000Y-90713000D01*
X115223500Y-90713000D02*
X115223500Y-91776500D01*
X138412200Y-85329800D02*
X138618500Y-85536100D01*
X115136800Y-90626300D02*
X115136800Y-90507000D01*
X115017500Y-90507000D02*
X115136800Y-90507000D01*
X118995500Y-86648300D02*
X130368300Y-86648300D01*
X115136800Y-90507000D02*
X118995500Y-86648300D01*
X134165500Y-89274700D02*
X138110400Y-85329800D01*
X115223500Y-91776500D02*
X115000000Y-92000000D01*
D40*
%TO.N,/+5V*%
X154887000Y-78711700D02*
X156781000Y-76817700D01*
X111127200Y-104053200D02*
X111127200Y-104053300D01*
X107470000Y-85544900D02*
X107470000Y-101260100D01*
X114649000Y-110083200D02*
X115050000Y-110083200D01*
X107470000Y-101260100D02*
X110263100Y-104053200D01*
X104282300Y-135579700D02*
X106295100Y-137592500D01*
X110590400Y-82424500D02*
X107470000Y-85544900D01*
X113200100Y-108634300D02*
X114649000Y-110083200D01*
X122080000Y-121500000D02*
X123580000Y-120000000D01*
X130500000Y-120000000D02*
X128698300Y-120000000D01*
X110590400Y-82305400D02*
X110590400Y-82424500D01*
X123580000Y-120000000D02*
X128698300Y-120000000D01*
X111028000Y-136243000D02*
X111028000Y-135880000D01*
X108557400Y-129088000D02*
X104282300Y-133363100D01*
X104282300Y-133363100D02*
X104282300Y-135579700D01*
X111127200Y-104053300D02*
X113200100Y-106126200D01*
X156781000Y-75281000D02*
X155000000Y-73500000D01*
X121062500Y-78851100D02*
X114044700Y-78851100D01*
X114044700Y-78851100D02*
X110590400Y-82305400D01*
X113200100Y-106126200D02*
X113200100Y-108634300D01*
X110263100Y-104053200D02*
X111127200Y-104053200D01*
X135485500Y-78711700D02*
X154887000Y-78711700D01*
X122080000Y-121600900D02*
X114592900Y-129088000D01*
X106295100Y-137592500D02*
X109678500Y-137592500D01*
X114592900Y-129088000D02*
X108557400Y-129088000D01*
X156781000Y-76817700D02*
X156781000Y-75281000D01*
X122080000Y-121500000D02*
X122080000Y-121600900D01*
X109678500Y-137592500D02*
X111028000Y-136243000D01*
%TO.N,/+5V_WT32*%
X113805500Y-60088800D02*
X131973300Y-60088800D01*
X131973300Y-60088800D02*
X147924500Y-76040000D01*
X112000000Y-62000000D02*
X112000000Y-61894300D01*
X147924500Y-76040000D02*
X155000000Y-76040000D01*
X112000000Y-61894300D02*
X113805500Y-60088800D01*
D39*
%TO.N,/AIN0*%
X118305100Y-86046600D02*
X116351700Y-88000000D01*
X125193400Y-86046600D02*
X118305100Y-86046600D01*
X115000000Y-88000000D02*
X116351700Y-88000000D01*
X128240000Y-83000000D02*
X133240000Y-88000000D01*
X133240000Y-88000000D02*
X133620000Y-88000000D01*
X128240000Y-83000000D02*
X125193400Y-86046600D01*
%TO.N,/AIN1*%
X126000000Y-102620000D02*
X122971700Y-102620000D01*
X115000000Y-96000000D02*
X116351700Y-96000000D01*
X122971700Y-102620000D02*
X116351700Y-96000000D01*
%TO.N,/BUZZ_DIRECT*%
X104300000Y-85320000D02*
X104300000Y-91648300D01*
X104300000Y-93000000D02*
X104300000Y-91648300D01*
X107000000Y-82620000D02*
X104300000Y-85320000D01*
%TO.N,/FAN_GATE*%
X143300000Y-91000000D02*
X143300000Y-88460300D01*
X101726700Y-75519500D02*
X101726700Y-73393300D01*
X101726700Y-73393300D02*
X103000000Y-72120000D01*
X143300000Y-88460300D02*
X131832900Y-76993200D01*
X103200400Y-76993200D02*
X101726700Y-75519500D01*
X131832900Y-76993200D02*
X103200400Y-76993200D01*
D40*
%TO.N,/FAN_OUT*%
X141500000Y-95500000D02*
X142203200Y-95500000D01*
X142203200Y-95500000D02*
X145840000Y-91863200D01*
X145840000Y-91863200D02*
X145840000Y-91000000D01*
D39*
%TO.N,/GND*%
X131855400Y-118902500D02*
X127952900Y-115000000D01*
X143150900Y-62000000D02*
X143801700Y-62000000D01*
X113262900Y-122798300D02*
X115912900Y-120148300D01*
D40*
X110012000Y-132400000D02*
X124551999Y-132400000D01*
D39*
X151660000Y-95500000D02*
X146557800Y-95500000D01*
X142500000Y-62000000D02*
X143150900Y-62000000D01*
D40*
X110012000Y-134100000D02*
X110012000Y-132400000D01*
D39*
X144962500Y-97095300D02*
X138725300Y-97095300D01*
D40*
X124551999Y-132400000D02*
X126500000Y-134447999D01*
D39*
X120000000Y-88000000D02*
X123773000Y-88000000D01*
X105500000Y-124000000D02*
X106701700Y-124000000D01*
X143150900Y-62000000D02*
X146927200Y-65776300D01*
X127952900Y-115000000D02*
X120000000Y-115000000D01*
X146927200Y-65776300D02*
X155473700Y-65776300D01*
X146700000Y-59101700D02*
X147000000Y-59101700D01*
X115912900Y-120148300D02*
X118188300Y-120148300D01*
X135130000Y-93500000D02*
X137960000Y-96330000D01*
X127267600Y-93500000D02*
X135130000Y-93500000D01*
X122500000Y-93500000D02*
X127267600Y-93500000D01*
X131855400Y-123644600D02*
X131855400Y-118902500D01*
D40*
X126500000Y-134447999D02*
X126500000Y-135800000D01*
D39*
X138725300Y-97095300D02*
X137960000Y-96330000D01*
X113000000Y-58100000D02*
X130000000Y-58100000D01*
X123773000Y-88000000D02*
X127267600Y-91494600D01*
X155473700Y-65776300D02*
X156750000Y-64500000D01*
X107527800Y-122798300D02*
X113262900Y-122798300D01*
X147000000Y-58100000D02*
X147000000Y-59101700D01*
X110226500Y-93926500D02*
X117926500Y-93926500D01*
X146557800Y-95500000D02*
X144962500Y-97095300D01*
X106701700Y-124000000D02*
X106701700Y-123624400D01*
X120000000Y-96000000D02*
X122500000Y-93500000D01*
X117926500Y-93926500D02*
X120000000Y-96000000D01*
X118188300Y-120148300D02*
X119540000Y-121500000D01*
X143801700Y-62000000D02*
X146700000Y-59101700D01*
X130500000Y-125000000D02*
X131855400Y-123644600D01*
X109300000Y-93000000D02*
X110226500Y-93926500D01*
X127267600Y-91494600D02*
X127267600Y-93500000D01*
X130000000Y-58100000D02*
X147000000Y-58100000D01*
X106701700Y-123624400D02*
X107527800Y-122798300D01*
%TO.N,/GPIO12_FAN*%
X107000000Y-64000000D02*
X120000000Y-64000000D01*
X120000000Y-64000000D02*
X122000000Y-62000000D01*
%TO.N,/GPIO13_SERVO*%
X124500000Y-62000000D02*
X113129800Y-73370200D01*
X104629800Y-73370200D02*
X103000000Y-75000000D01*
X113129800Y-73370200D02*
X104629800Y-73370200D01*
%TO.N,/GPIO14_BUZZ*%
X107000000Y-75000000D02*
X114000000Y-75000000D01*
X114000000Y-75000000D02*
X127000000Y-62000000D01*
D38*
%TO.N,/PD_12V*%
X144132800Y-111570000D02*
X137960000Y-111570000D01*
X154000000Y-101000000D02*
X152719500Y-101000000D01*
X145310600Y-108408900D02*
X145310600Y-110392200D01*
X145310600Y-110392200D02*
X144132800Y-111570000D01*
X152719500Y-101000000D02*
X145310600Y-108408900D01*
D39*
%TO.N,/PROBE0*%
X114800000Y-56000000D02*
X111200000Y-56000000D01*
%TO.N,/PROBE1*%
X126000000Y-95000000D02*
X126510000Y-94490000D01*
X126510000Y-94490000D02*
X133217000Y-94490000D01*
X131800000Y-56000000D02*
X128200000Y-56000000D01*
%TO.N,/PROBE2*%
X127069800Y-106000000D02*
X133777100Y-99292700D01*
X126000000Y-106000000D02*
X127069800Y-106000000D01*
X145200000Y-56000000D02*
X148800000Y-56000000D01*
X122620000Y-108000000D02*
X124000000Y-108000000D01*
X124000000Y-108000000D02*
X126000000Y-106000000D01*
%TO.N,/SCL*%
X118080000Y-83000000D02*
X119866100Y-81213900D01*
X119866100Y-81213900D02*
X120005100Y-81213900D01*
%TO.N,/SERVO_SIG*%
X107980000Y-134100000D02*
X107980000Y-133000000D01*
X108746300Y-81342900D02*
X109288700Y-81885300D01*
X116420900Y-105404900D02*
X120195300Y-109179300D01*
X109000000Y-131980000D02*
X109000000Y-130600000D01*
X112488800Y-101886700D02*
X112488800Y-103927600D01*
X112488800Y-103927600D02*
X113966100Y-105404900D01*
X109288700Y-81885300D02*
X109288700Y-81342900D01*
X104277100Y-81342900D02*
X108746300Y-81342900D01*
X113966100Y-105404900D02*
X116420900Y-105404900D01*
X109288700Y-81342900D02*
X109288700Y-81885300D01*
X103000000Y-82620000D02*
X104277100Y-81342900D01*
X107980000Y-133000000D02*
X109000000Y-131980000D01*
D38*
%TO.N,/WALL_12V*%
X154084600Y-96473000D02*
X152012100Y-98545500D01*
X133221000Y-96330000D02*
X132791700Y-96330000D01*
X152012100Y-98545500D02*
X145565300Y-98545500D01*
X130340000Y-96330000D02*
X132791700Y-96330000D01*
X155000000Y-81000000D02*
X152590500Y-83409500D01*
X145565300Y-98545500D02*
X145329100Y-98781700D01*
X152590500Y-83409500D02*
X152590500Y-92590400D01*
X145329100Y-98781700D02*
X135672700Y-98781700D01*
X154084600Y-94084500D02*
X154084600Y-96473000D01*
X135672700Y-98781700D02*
X133221000Y-96330000D01*
X152590500Y-92590400D02*
X154084600Y-94084500D01*
%TD*%
%TA.AperFunction,Conductor*%
%TO.N,/GND*%
G36*
X150925500Y-50520462D02*
G01*
X150980038Y-50575000D01*
X151000000Y-50649500D01*
X151000000Y-54500000D01*
X151000000Y-63000000D01*
X159350500Y-63000000D01*
X159425000Y-63019962D01*
X159479538Y-63074500D01*
X159499500Y-63149000D01*
X159499500Y-107851000D01*
X159479538Y-107925500D01*
X159425000Y-107980038D01*
X159350500Y-108000000D01*
X151000000Y-108000000D01*
X151000000Y-116213000D01*
X150980038Y-116287500D01*
X150925500Y-116342038D01*
X150851000Y-116362000D01*
X133840000Y-116362000D01*
X133840000Y-140857000D01*
X155160000Y-140857000D01*
X155160000Y-121149000D01*
X155179962Y-121074500D01*
X155234500Y-121019962D01*
X155309000Y-121000000D01*
X159350500Y-121000000D01*
X159425000Y-121019962D01*
X159479538Y-121074500D01*
X159499500Y-121149000D01*
X159499500Y-141350500D01*
X159479538Y-141425000D01*
X159425000Y-141479538D01*
X159350500Y-141499500D01*
X159149000Y-141499500D01*
X159074500Y-141479538D01*
X159019962Y-141425000D01*
X159000000Y-141350500D01*
X159000000Y-140700000D01*
X156000000Y-140700000D01*
X156000000Y-141350500D01*
X155980038Y-141425000D01*
X155925500Y-141479538D01*
X155851000Y-141499500D01*
X105149000Y-141499500D01*
X105074500Y-141479538D01*
X105019962Y-141425000D01*
X105000000Y-141350500D01*
X105000000Y-140700000D01*
X102000000Y-140700000D01*
X102000000Y-141350500D01*
X101980038Y-141425000D01*
X101925500Y-141479538D01*
X101851000Y-141499500D01*
X100649500Y-141499500D01*
X100575000Y-141479538D01*
X100520462Y-141425000D01*
X100500500Y-141350500D01*
X100500500Y-138295101D01*
X101244500Y-138295101D01*
X101244500Y-138544898D01*
X101277101Y-138792534D01*
X101277102Y-138792540D01*
X101277103Y-138792542D01*
X101341753Y-139033817D01*
X101437342Y-139264590D01*
X101562235Y-139480911D01*
X101714295Y-139679080D01*
X101890920Y-139855705D01*
X102089089Y-140007765D01*
X102305410Y-140132658D01*
X102536183Y-140228247D01*
X102777458Y-140292897D01*
X102777464Y-140292897D01*
X102777465Y-140292898D01*
X102844791Y-140301761D01*
X103025107Y-140325500D01*
X103274893Y-140325500D01*
X103522542Y-140292897D01*
X103763817Y-140228247D01*
X103994590Y-140132658D01*
X104210911Y-140007765D01*
X104409080Y-139855705D01*
X104585705Y-139679080D01*
X104737765Y-139480911D01*
X104862658Y-139264590D01*
X104958247Y-139033817D01*
X105022897Y-138792542D01*
X105055500Y-138544893D01*
X105055500Y-138295107D01*
X105022897Y-138047458D01*
X105000767Y-137964868D01*
X105000767Y-137887745D01*
X105039330Y-137820950D01*
X105106125Y-137782385D01*
X105183253Y-137782385D01*
X105250048Y-137820948D01*
X105721064Y-138291964D01*
X105780140Y-138331436D01*
X105868553Y-138390513D01*
X105950493Y-138424453D01*
X106032434Y-138458395D01*
X106206408Y-138493000D01*
X109767192Y-138493000D01*
X109941166Y-138458395D01*
X110023106Y-138424453D01*
X110105047Y-138390513D01*
X110193459Y-138331436D01*
X110247841Y-138295101D01*
X113944500Y-138295101D01*
X113944500Y-138544898D01*
X113977101Y-138792534D01*
X113977102Y-138792540D01*
X113977103Y-138792542D01*
X114041753Y-139033817D01*
X114137342Y-139264590D01*
X114262235Y-139480911D01*
X114414295Y-139679080D01*
X114590920Y-139855705D01*
X114789089Y-140007765D01*
X115005410Y-140132658D01*
X115236183Y-140228247D01*
X115477458Y-140292897D01*
X115477464Y-140292897D01*
X115477465Y-140292898D01*
X115544791Y-140301761D01*
X115725107Y-140325500D01*
X115974893Y-140325500D01*
X116222542Y-140292897D01*
X116463817Y-140228247D01*
X116694590Y-140132658D01*
X116910911Y-140007765D01*
X117109080Y-139855705D01*
X117285705Y-139679080D01*
X117437765Y-139480911D01*
X117562658Y-139264590D01*
X117658247Y-139033817D01*
X117722897Y-138792542D01*
X117755500Y-138544893D01*
X117755500Y-138295107D01*
X117722897Y-138047458D01*
X117658247Y-137806183D01*
X117562658Y-137575410D01*
X117437765Y-137359089D01*
X117285705Y-137160920D01*
X117109080Y-136984295D01*
X116910911Y-136832235D01*
X116749709Y-136739165D01*
X116694594Y-136707344D01*
X116694592Y-136707343D01*
X116694590Y-136707342D01*
X116559407Y-136651347D01*
X116463820Y-136611754D01*
X116463818Y-136611753D01*
X116463817Y-136611753D01*
X116222542Y-136547103D01*
X116222540Y-136547102D01*
X116222534Y-136547101D01*
X115974898Y-136514500D01*
X115974893Y-136514500D01*
X115725107Y-136514500D01*
X115725101Y-136514500D01*
X115477465Y-136547101D01*
X115236179Y-136611754D01*
X115005405Y-136707344D01*
X114789090Y-136832234D01*
X114789089Y-136832235D01*
X114590920Y-136984295D01*
X114590918Y-136984296D01*
X114590914Y-136984300D01*
X114414300Y-137160914D01*
X114262234Y-137359090D01*
X114137344Y-137575405D01*
X114041754Y-137806179D01*
X113977101Y-138047465D01*
X113944500Y-138295101D01*
X110247841Y-138295101D01*
X110252536Y-138291964D01*
X111727464Y-136817036D01*
X111779497Y-136739162D01*
X111837482Y-136688310D01*
X111913128Y-136673263D01*
X111986163Y-136698054D01*
X112037018Y-136756042D01*
X112039688Y-136761759D01*
X112057794Y-136802765D01*
X112137235Y-136882206D01*
X112240009Y-136927585D01*
X112265135Y-136930500D01*
X113854864Y-136930499D01*
X113854866Y-136930499D01*
X113867427Y-136929042D01*
X113879991Y-136927585D01*
X113982765Y-136882206D01*
X114062206Y-136802765D01*
X114107585Y-136699991D01*
X114110500Y-136674865D01*
X114110499Y-135085136D01*
X114107585Y-135060009D01*
X114062206Y-134957235D01*
X113982765Y-134877794D01*
X113982764Y-134877793D01*
X113879994Y-134832416D01*
X113879991Y-134832415D01*
X113854865Y-134829500D01*
X113854859Y-134829500D01*
X113098748Y-134829500D01*
X113024248Y-134809538D01*
X112969710Y-134755000D01*
X112949748Y-134680500D01*
X112969710Y-134606000D01*
X112974862Y-134597716D01*
X112974942Y-134597596D01*
X112984548Y-134574402D01*
X113054130Y-134406420D01*
X113094500Y-134203465D01*
X113094500Y-133996535D01*
X113054130Y-133793580D01*
X112978167Y-133610189D01*
X112974942Y-133602403D01*
X112859977Y-133430345D01*
X112713654Y-133284022D01*
X112541596Y-133169057D01*
X112375933Y-133100438D01*
X112350420Y-133089870D01*
X112350418Y-133089869D01*
X112350417Y-133089869D01*
X112147465Y-133049500D01*
X111940535Y-133049500D01*
X111737582Y-133089869D01*
X111546403Y-133169057D01*
X111374345Y-133284022D01*
X111228022Y-133430345D01*
X111113057Y-133602403D01*
X111033869Y-133793582D01*
X110993500Y-133996534D01*
X110993500Y-134203465D01*
X111033869Y-134406417D01*
X111113057Y-134597596D01*
X111113138Y-134597716D01*
X111113166Y-134597799D01*
X111116507Y-134604049D01*
X111115475Y-134604600D01*
X111137933Y-134670750D01*
X111122888Y-134746397D01*
X111072036Y-134804386D01*
X110999002Y-134829181D01*
X110989252Y-134829500D01*
X110924535Y-134829500D01*
X110721582Y-134869869D01*
X110530403Y-134949057D01*
X110358345Y-135064022D01*
X110212026Y-135210341D01*
X110212022Y-135210346D01*
X110135889Y-135324288D01*
X110077901Y-135375142D01*
X110002255Y-135390189D01*
X109929220Y-135365397D01*
X109888111Y-135324288D01*
X109818082Y-135219482D01*
X109811977Y-135210345D01*
X109665655Y-135064023D01*
X109665654Y-135064022D01*
X109493596Y-134949057D01*
X109321550Y-134877794D01*
X109302420Y-134869870D01*
X109302418Y-134869869D01*
X109302417Y-134869869D01*
X109099465Y-134829500D01*
X109034748Y-134829500D01*
X108960248Y-134809538D01*
X108905710Y-134755000D01*
X108885748Y-134680500D01*
X108905710Y-134606000D01*
X108910862Y-134597716D01*
X108910942Y-134597596D01*
X108920548Y-134574402D01*
X108990130Y-134406420D01*
X109030500Y-134203465D01*
X109030500Y-133996535D01*
X108990130Y-133793580D01*
X108914167Y-133610189D01*
X108910942Y-133602403D01*
X108795977Y-133430345D01*
X108649658Y-133284026D01*
X108649655Y-133284023D01*
X108610839Y-133258087D01*
X108559986Y-133200100D01*
X108544939Y-133124454D01*
X108569731Y-133051419D01*
X108588255Y-133028847D01*
X109360490Y-132256614D01*
X109361122Y-132255519D01*
X129999500Y-132255519D01*
X129999500Y-133144481D01*
X130029060Y-133331118D01*
X130087453Y-133510832D01*
X130173240Y-133679199D01*
X130284310Y-133832073D01*
X130417927Y-133965690D01*
X130570801Y-134076760D01*
X130739168Y-134162547D01*
X130918882Y-134220940D01*
X131105519Y-134250500D01*
X131105524Y-134250500D01*
X131294476Y-134250500D01*
X131294481Y-134250500D01*
X131481118Y-134220940D01*
X131660832Y-134162547D01*
X131829199Y-134076760D01*
X131982073Y-133965690D01*
X132115690Y-133832073D01*
X132226760Y-133679199D01*
X132312547Y-133510832D01*
X132370940Y-133331118D01*
X132400500Y-133144481D01*
X132400500Y-132255519D01*
X132370940Y-132068882D01*
X132312547Y-131889168D01*
X132226760Y-131720801D01*
X132115690Y-131567927D01*
X131982073Y-131434310D01*
X131829199Y-131323240D01*
X131660832Y-131237453D01*
X131481118Y-131179060D01*
X131294481Y-131149500D01*
X131105519Y-131149500D01*
X130918882Y-131179060D01*
X130739168Y-131237453D01*
X130739163Y-131237455D01*
X130739157Y-131237458D01*
X130570804Y-131323238D01*
X130570799Y-131323241D01*
X130417936Y-131434303D01*
X130417925Y-131434312D01*
X130284312Y-131567925D01*
X130284303Y-131567936D01*
X130173241Y-131720799D01*
X130173238Y-131720804D01*
X130087458Y-131889157D01*
X130087455Y-131889163D01*
X130087453Y-131889168D01*
X130029060Y-132068882D01*
X129999500Y-132255519D01*
X109361122Y-132255519D01*
X109419799Y-132153887D01*
X109435397Y-132095672D01*
X109450500Y-132039309D01*
X109450500Y-131201874D01*
X109470462Y-131127374D01*
X109494141Y-131096515D01*
X109544114Y-131046542D01*
X109620775Y-130931811D01*
X109673580Y-130804328D01*
X109700500Y-130668993D01*
X109700500Y-130531007D01*
X109673580Y-130395672D01*
X109620775Y-130268189D01*
X109588764Y-130220281D01*
X109563971Y-130147246D01*
X109579017Y-130071600D01*
X109629871Y-130013612D01*
X109702906Y-129988819D01*
X109712652Y-129988500D01*
X114681592Y-129988500D01*
X114855566Y-129953895D01*
X114937506Y-129919953D01*
X115019447Y-129886013D01*
X115107859Y-129826936D01*
X115166936Y-129787464D01*
X115999265Y-128955135D01*
X124949500Y-128955135D01*
X124949500Y-128955136D01*
X124949500Y-128955140D01*
X124949500Y-130844866D01*
X124952414Y-130869989D01*
X124952415Y-130869992D01*
X124997793Y-130972764D01*
X124997794Y-130972765D01*
X125077235Y-131052206D01*
X125180009Y-131097585D01*
X125205135Y-131100500D01*
X127794864Y-131100499D01*
X127794866Y-131100499D01*
X127807427Y-131099042D01*
X127819991Y-131097585D01*
X127922765Y-131052206D01*
X128002206Y-130972765D01*
X128047585Y-130869991D01*
X128050500Y-130844865D01*
X128050499Y-128955136D01*
X128047585Y-128930009D01*
X128002206Y-128827235D01*
X127922765Y-128747794D01*
X127922764Y-128747793D01*
X127819994Y-128702416D01*
X127819991Y-128702415D01*
X127819982Y-128702414D01*
X127794865Y-128699500D01*
X127794859Y-128699500D01*
X125205133Y-128699500D01*
X125180010Y-128702414D01*
X125180007Y-128702415D01*
X125077235Y-128747793D01*
X124997793Y-128827235D01*
X124952416Y-128930005D01*
X124952415Y-128930008D01*
X124952415Y-128930009D01*
X124949500Y-128955135D01*
X115999265Y-128955135D01*
X122234612Y-122719785D01*
X122301405Y-122681223D01*
X122316651Y-122677982D01*
X122361118Y-122670940D01*
X122361123Y-122670938D01*
X122361128Y-122670937D01*
X122446646Y-122643149D01*
X122540832Y-122612547D01*
X122709199Y-122526760D01*
X122862073Y-122415690D01*
X122995690Y-122282073D01*
X123106760Y-122129199D01*
X123192547Y-121960832D01*
X123250940Y-121781118D01*
X123276969Y-121616771D01*
X123308338Y-121546314D01*
X123318765Y-121534733D01*
X123909358Y-120944141D01*
X123976153Y-120905577D01*
X124014717Y-120900500D01*
X128609609Y-120900500D01*
X129174643Y-120900500D01*
X129249143Y-120920462D01*
X129303681Y-120975000D01*
X129310947Y-120989315D01*
X129332962Y-121039174D01*
X129347794Y-121072765D01*
X129427235Y-121152206D01*
X129530009Y-121197585D01*
X129555135Y-121200500D01*
X131444864Y-121200499D01*
X131444866Y-121200499D01*
X131457427Y-121199042D01*
X131469991Y-121197585D01*
X131572765Y-121152206D01*
X131652206Y-121072765D01*
X131697585Y-120969991D01*
X131700500Y-120944865D01*
X131700499Y-119055136D01*
X131697585Y-119030009D01*
X131652206Y-118927235D01*
X131572765Y-118847794D01*
X131572764Y-118847793D01*
X131469994Y-118802416D01*
X131469991Y-118802415D01*
X131469982Y-118802414D01*
X131444865Y-118799500D01*
X131444859Y-118799500D01*
X129555133Y-118799500D01*
X129530010Y-118802414D01*
X129530007Y-118802415D01*
X129427235Y-118847793D01*
X129347795Y-118927233D01*
X129347794Y-118927234D01*
X129347794Y-118927235D01*
X129310946Y-119010687D01*
X129262595Y-119070773D01*
X129190676Y-119098635D01*
X129174644Y-119099500D01*
X128786991Y-119099500D01*
X123668691Y-119099500D01*
X123491308Y-119099500D01*
X123462444Y-119105241D01*
X123317334Y-119134105D01*
X123317332Y-119134106D01*
X123153453Y-119201986D01*
X123153451Y-119201987D01*
X123005968Y-119300533D01*
X123005963Y-119300537D01*
X123005964Y-119300537D01*
X122045275Y-120261224D01*
X121978480Y-120299788D01*
X121963225Y-120303031D01*
X121798881Y-120329060D01*
X121619174Y-120387451D01*
X121619168Y-120387453D01*
X121619163Y-120387455D01*
X121619157Y-120387458D01*
X121450804Y-120473238D01*
X121450799Y-120473241D01*
X121297936Y-120584303D01*
X121297925Y-120584312D01*
X121164312Y-120717925D01*
X121164303Y-120717936D01*
X121053241Y-120870799D01*
X121053238Y-120870804D01*
X120967458Y-121039157D01*
X120967455Y-121039163D01*
X120967453Y-121039168D01*
X120909060Y-121218882D01*
X120879500Y-121405519D01*
X120879500Y-121405523D01*
X120879500Y-121466182D01*
X120859538Y-121540682D01*
X120835859Y-121571541D01*
X114263541Y-128143859D01*
X114196746Y-128182423D01*
X114158182Y-128187500D01*
X108468709Y-128187500D01*
X108294736Y-128222105D01*
X108294732Y-128222106D01*
X108130853Y-128289986D01*
X108130851Y-128289987D01*
X107983368Y-128388533D01*
X107983363Y-128388537D01*
X107983364Y-128388537D01*
X103582836Y-132789063D01*
X103582831Y-132789069D01*
X103558082Y-132826111D01*
X103558081Y-132826113D01*
X103484285Y-132936556D01*
X103450346Y-133018493D01*
X103416406Y-133100430D01*
X103416404Y-133100438D01*
X103401795Y-133173886D01*
X103401795Y-133173887D01*
X103381800Y-133274408D01*
X103381800Y-135668392D01*
X103403310Y-135776535D01*
X103416405Y-135842366D01*
X103450346Y-135924306D01*
X103484287Y-136006247D01*
X103543363Y-136094659D01*
X103547108Y-136100265D01*
X103547112Y-136100271D01*
X103582831Y-136153730D01*
X103582838Y-136153738D01*
X103749050Y-136319950D01*
X103787614Y-136386745D01*
X103787614Y-136463873D01*
X103749050Y-136530668D01*
X103682255Y-136569232D01*
X103605128Y-136569232D01*
X103522542Y-136547103D01*
X103522540Y-136547102D01*
X103522534Y-136547101D01*
X103274898Y-136514500D01*
X103274893Y-136514500D01*
X103025107Y-136514500D01*
X103025101Y-136514500D01*
X102777465Y-136547101D01*
X102536179Y-136611754D01*
X102305405Y-136707344D01*
X102089090Y-136832234D01*
X102089089Y-136832235D01*
X101890920Y-136984295D01*
X101890918Y-136984296D01*
X101890914Y-136984300D01*
X101714300Y-137160914D01*
X101562234Y-137359090D01*
X101437344Y-137575405D01*
X101341754Y-137806179D01*
X101277101Y-138047465D01*
X101244500Y-138295101D01*
X100500500Y-138295101D01*
X100500500Y-123896534D01*
X106989500Y-123896534D01*
X106989500Y-124103465D01*
X107029869Y-124306417D01*
X107109057Y-124497596D01*
X107224022Y-124669654D01*
X107370345Y-124815977D01*
X107542403Y-124930942D01*
X107621591Y-124963742D01*
X107733580Y-125010130D01*
X107936535Y-125050500D01*
X108143465Y-125050500D01*
X108346420Y-125010130D01*
X108537598Y-124930941D01*
X108709655Y-124815977D01*
X108855977Y-124669655D01*
X108970941Y-124497598D01*
X109050130Y-124306420D01*
X109090500Y-124103465D01*
X109090500Y-123896535D01*
X109090500Y-123896534D01*
X109529500Y-123896534D01*
X109529500Y-124103465D01*
X109569869Y-124306417D01*
X109649057Y-124497596D01*
X109764022Y-124669654D01*
X109910345Y-124815977D01*
X110082403Y-124930942D01*
X110161591Y-124963742D01*
X110273580Y-125010130D01*
X110476535Y-125050500D01*
X110683465Y-125050500D01*
X110886420Y-125010130D01*
X111077598Y-124930941D01*
X111249655Y-124815977D01*
X111395977Y-124669655D01*
X111510941Y-124497598D01*
X111590130Y-124306420D01*
X111630500Y-124103465D01*
X111630500Y-123896535D01*
X111590130Y-123693580D01*
X111543742Y-123581591D01*
X111510942Y-123502403D01*
X111395977Y-123330345D01*
X111249654Y-123184022D01*
X111077596Y-123069057D01*
X110919219Y-123003455D01*
X110886420Y-122989870D01*
X110886418Y-122989869D01*
X110886417Y-122989869D01*
X110683465Y-122949500D01*
X110476535Y-122949500D01*
X110273582Y-122989869D01*
X110082403Y-123069057D01*
X109910345Y-123184022D01*
X109764022Y-123330345D01*
X109649057Y-123502403D01*
X109569869Y-123693582D01*
X109529500Y-123896534D01*
X109090500Y-123896534D01*
X109050130Y-123693580D01*
X109003742Y-123581591D01*
X108970942Y-123502403D01*
X108855977Y-123330345D01*
X108709654Y-123184022D01*
X108537596Y-123069057D01*
X108379219Y-123003455D01*
X108346420Y-122989870D01*
X108346418Y-122989869D01*
X108346417Y-122989869D01*
X108143465Y-122949500D01*
X107936535Y-122949500D01*
X107733582Y-122989869D01*
X107542403Y-123069057D01*
X107370345Y-123184022D01*
X107224022Y-123330345D01*
X107109057Y-123502403D01*
X107029869Y-123693582D01*
X106989500Y-123896534D01*
X100500500Y-123896534D01*
X100500500Y-121149000D01*
X100520462Y-121074500D01*
X100575000Y-121019962D01*
X100649500Y-121000000D01*
X109000000Y-121000000D01*
X109000000Y-120555135D01*
X115799500Y-120555135D01*
X115799500Y-120555136D01*
X115799500Y-120555140D01*
X115799500Y-122444866D01*
X115802414Y-122469989D01*
X115802415Y-122469992D01*
X115847793Y-122572764D01*
X115847794Y-122572765D01*
X115927235Y-122652206D01*
X116030009Y-122697585D01*
X116055135Y-122700500D01*
X117944864Y-122700499D01*
X117944866Y-122700499D01*
X117957427Y-122699042D01*
X117969991Y-122697585D01*
X118072765Y-122652206D01*
X118152206Y-122572765D01*
X118197585Y-122469991D01*
X118200500Y-122444865D01*
X118200499Y-120555136D01*
X118197585Y-120530009D01*
X118152206Y-120427235D01*
X118072765Y-120347794D01*
X118072764Y-120347793D01*
X117969994Y-120302416D01*
X117969991Y-120302415D01*
X117969982Y-120302414D01*
X117944865Y-120299500D01*
X117944859Y-120299500D01*
X116055133Y-120299500D01*
X116030010Y-120302414D01*
X116030007Y-120302415D01*
X115927235Y-120347793D01*
X115847793Y-120427235D01*
X115802416Y-120530005D01*
X115802415Y-120530008D01*
X115802415Y-120530009D01*
X115799500Y-120555135D01*
X109000000Y-120555135D01*
X109000000Y-108331821D01*
X109019962Y-108257321D01*
X109074500Y-108202783D01*
X109149000Y-108182821D01*
X109223500Y-108202783D01*
X109254357Y-108226460D01*
X111491514Y-110463618D01*
X113687115Y-112659219D01*
X113725679Y-112726014D01*
X113728922Y-112787886D01*
X113725328Y-112810579D01*
X113699500Y-112973648D01*
X113699500Y-115102352D01*
X113717561Y-115216381D01*
X113731523Y-115304536D01*
X113792207Y-115491301D01*
X113799500Y-115537344D01*
X113799500Y-115944866D01*
X113802414Y-115969989D01*
X113802415Y-115969992D01*
X113847793Y-116072764D01*
X113847794Y-116072765D01*
X113927235Y-116152206D01*
X114030009Y-116197585D01*
X114055135Y-116200500D01*
X114462650Y-116200499D01*
X114508693Y-116207791D01*
X114524725Y-116213000D01*
X114695466Y-116268477D01*
X114897648Y-116300500D01*
X114897653Y-116300500D01*
X115102347Y-116300500D01*
X115102352Y-116300500D01*
X115304534Y-116268477D01*
X115491307Y-116207790D01*
X115537348Y-116200499D01*
X115944867Y-116200499D01*
X115959940Y-116198750D01*
X115969991Y-116197585D01*
X116072765Y-116152206D01*
X116152206Y-116072765D01*
X116197585Y-115969991D01*
X116200500Y-115944865D01*
X116200499Y-115537344D01*
X116207792Y-115491304D01*
X116268476Y-115304536D01*
X116268477Y-115304534D01*
X116300500Y-115102352D01*
X116300500Y-113676000D01*
X116320462Y-113601500D01*
X116375000Y-113546962D01*
X116449500Y-113527000D01*
X116478704Y-113527000D01*
X116553204Y-113546962D01*
X116607742Y-113601500D01*
X116611464Y-113608355D01*
X116687515Y-113757615D01*
X116807831Y-113923215D01*
X116807834Y-113923219D01*
X116952581Y-114067966D01*
X117118189Y-114188287D01*
X117300582Y-114281220D01*
X117495265Y-114344477D01*
X117697448Y-114376500D01*
X117697453Y-114376500D01*
X117902147Y-114376500D01*
X117902152Y-114376500D01*
X118104335Y-114344477D01*
X118299018Y-114281220D01*
X118481411Y-114188287D01*
X118647019Y-114067966D01*
X120199143Y-112515840D01*
X120265938Y-112477277D01*
X120304502Y-112472200D01*
X125248954Y-112472200D01*
X125323454Y-112492162D01*
X125377992Y-112546700D01*
X125397954Y-112621200D01*
X125377992Y-112695700D01*
X125336535Y-112741743D01*
X125283076Y-112780583D01*
X125283070Y-112780588D01*
X125160583Y-112903075D01*
X125058771Y-113043206D01*
X124980130Y-113197549D01*
X124980125Y-113197561D01*
X124926597Y-113362299D01*
X124908228Y-113478282D01*
X124899500Y-113533389D01*
X124899500Y-113706611D01*
X124907578Y-113757611D01*
X124926597Y-113877700D01*
X124948122Y-113943945D01*
X124980127Y-114042445D01*
X124993131Y-114067966D01*
X125058771Y-114196793D01*
X125120112Y-114281221D01*
X125160586Y-114336928D01*
X125283072Y-114459414D01*
X125423212Y-114561232D01*
X125577555Y-114639873D01*
X125742299Y-114693402D01*
X125913389Y-114720500D01*
X125913393Y-114720500D01*
X126086607Y-114720500D01*
X126086611Y-114720500D01*
X126257701Y-114693402D01*
X126422445Y-114639873D01*
X126576788Y-114561232D01*
X126716928Y-114459414D01*
X126839414Y-114336928D01*
X126941232Y-114196788D01*
X127019873Y-114042445D01*
X127035015Y-113995843D01*
X128889500Y-113995843D01*
X128889500Y-114224157D01*
X128925216Y-114449660D01*
X128995769Y-114666799D01*
X129099421Y-114870228D01*
X129233621Y-115054937D01*
X129395063Y-115216379D01*
X129579772Y-115350579D01*
X129783201Y-115454231D01*
X130000340Y-115524784D01*
X130225843Y-115560500D01*
X130225847Y-115560500D01*
X130454153Y-115560500D01*
X130454157Y-115560500D01*
X130679660Y-115524784D01*
X130896799Y-115454231D01*
X131100228Y-115350579D01*
X131284937Y-115216379D01*
X131446379Y-115054937D01*
X131580579Y-114870228D01*
X131684231Y-114666799D01*
X131754784Y-114449660D01*
X131790500Y-114224157D01*
X131790500Y-113995843D01*
X131754784Y-113770340D01*
X131684231Y-113553201D01*
X131580579Y-113349772D01*
X131446379Y-113165063D01*
X131284937Y-113003621D01*
X131100228Y-112869421D01*
X130896799Y-112765769D01*
X130679660Y-112695216D01*
X130454157Y-112659500D01*
X130225843Y-112659500D01*
X130000340Y-112695216D01*
X129923254Y-112720263D01*
X129783201Y-112765769D01*
X129783195Y-112765771D01*
X129783195Y-112765772D01*
X129579773Y-112869420D01*
X129395066Y-113003618D01*
X129233618Y-113165066D01*
X129099421Y-113349772D01*
X128995769Y-113553201D01*
X128925216Y-113770340D01*
X128889500Y-113995843D01*
X127035015Y-113995843D01*
X127073402Y-113877701D01*
X127100500Y-113706611D01*
X127100500Y-113533389D01*
X127073402Y-113362299D01*
X127019873Y-113197555D01*
X126941232Y-113043212D01*
X126912467Y-113003621D01*
X126847522Y-112914232D01*
X126839414Y-112903072D01*
X126716928Y-112780586D01*
X126716924Y-112780583D01*
X126576793Y-112678771D01*
X126576790Y-112678769D01*
X126576788Y-112678768D01*
X126422445Y-112600127D01*
X126335295Y-112571810D01*
X126270611Y-112529803D01*
X126235596Y-112461081D01*
X126239633Y-112384058D01*
X126281640Y-112319374D01*
X126313686Y-112297348D01*
X126339911Y-112283987D01*
X126505519Y-112163666D01*
X130779894Y-107889288D01*
X130828232Y-107856991D01*
X130833628Y-107854755D01*
X130896799Y-107834231D01*
X130955970Y-107804081D01*
X130961380Y-107801841D01*
X130983030Y-107798990D01*
X131018398Y-107790500D01*
X139889597Y-107790500D01*
X139964097Y-107810462D01*
X139994956Y-107834141D01*
X141655859Y-109495044D01*
X141694423Y-109561839D01*
X141699500Y-109600403D01*
X141699500Y-109793105D01*
X141710122Y-109881563D01*
X141765638Y-110022341D01*
X141771803Y-110030470D01*
X141800912Y-110101894D01*
X141790409Y-110178304D01*
X141743108Y-110239225D01*
X141671684Y-110268334D01*
X141653078Y-110269500D01*
X138638398Y-110269500D01*
X138570754Y-110253260D01*
X138516809Y-110225774D01*
X138516808Y-110225773D01*
X138516799Y-110225769D01*
X138299660Y-110155216D01*
X138074157Y-110119500D01*
X137845843Y-110119500D01*
X137620340Y-110155216D01*
X137403201Y-110225769D01*
X137403195Y-110225771D01*
X137403195Y-110225772D01*
X137199773Y-110329420D01*
X137015066Y-110463618D01*
X136853618Y-110625066D01*
X136719420Y-110809773D01*
X136630800Y-110983700D01*
X136615769Y-111013201D01*
X136545216Y-111230340D01*
X136509500Y-111455843D01*
X136509500Y-111684157D01*
X136545216Y-111909660D01*
X136615769Y-112126799D01*
X136719421Y-112330228D01*
X136766037Y-112394389D01*
X136842768Y-112500000D01*
X136853621Y-112514937D01*
X137015063Y-112676379D01*
X137199772Y-112810579D01*
X137403201Y-112914231D01*
X137620340Y-112984784D01*
X137845843Y-113020500D01*
X137845847Y-113020500D01*
X138074153Y-113020500D01*
X138074157Y-113020500D01*
X138299660Y-112984784D01*
X138516799Y-112914231D01*
X138553651Y-112895453D01*
X138570754Y-112886740D01*
X138638398Y-112870500D01*
X144235147Y-112870500D01*
X144235152Y-112870500D01*
X144437335Y-112838477D01*
X144556105Y-112799886D01*
X144632019Y-112775220D01*
X144748223Y-112716011D01*
X144814411Y-112682287D01*
X144980019Y-112561966D01*
X146149325Y-111392657D01*
X146149332Y-111392652D01*
X146157817Y-111384167D01*
X146157819Y-111384166D01*
X146302566Y-111239419D01*
X146422887Y-111073810D01*
X146453769Y-111013201D01*
X146515821Y-110891418D01*
X146579075Y-110696739D01*
X146579076Y-110696739D01*
X146585333Y-110657235D01*
X146591310Y-110619500D01*
X146608693Y-110509747D01*
X146611100Y-110494553D01*
X146611100Y-109009302D01*
X146631062Y-108934802D01*
X146654741Y-108903943D01*
X153214543Y-102344141D01*
X153281338Y-102305577D01*
X153319902Y-102300500D01*
X154643101Y-102300500D01*
X154643102Y-102300500D01*
X154731564Y-102289877D01*
X154872342Y-102234361D01*
X154992922Y-102142922D01*
X155084361Y-102022342D01*
X155139877Y-101881564D01*
X155150500Y-101793102D01*
X155150500Y-101642384D01*
X155166741Y-101574738D01*
X155205218Y-101499223D01*
X155205218Y-101499222D01*
X155205220Y-101499219D01*
X155268477Y-101304534D01*
X155300500Y-101102352D01*
X155300500Y-100897648D01*
X155268477Y-100695466D01*
X155205220Y-100500781D01*
X155205214Y-100500769D01*
X155166740Y-100425258D01*
X155150500Y-100357614D01*
X155150500Y-100206899D01*
X155150500Y-100206898D01*
X155139877Y-100118436D01*
X155084361Y-99977658D01*
X155035687Y-99913472D01*
X154992923Y-99857079D01*
X154992920Y-99857076D01*
X154945982Y-99821482D01*
X154872342Y-99765639D01*
X154872341Y-99765638D01*
X154731563Y-99710122D01*
X154643105Y-99699500D01*
X154643102Y-99699500D01*
X154102352Y-99699500D01*
X153057002Y-99699500D01*
X152982502Y-99679538D01*
X152927964Y-99625000D01*
X152908002Y-99550500D01*
X152927964Y-99476000D01*
X152951639Y-99445144D01*
X154923325Y-97473457D01*
X154923332Y-97473452D01*
X154931817Y-97464967D01*
X154931819Y-97464966D01*
X155076566Y-97320219D01*
X155196887Y-97154610D01*
X155269749Y-97011611D01*
X155289821Y-96972218D01*
X155353077Y-96777534D01*
X155377657Y-96622343D01*
X155385100Y-96575352D01*
X155385100Y-93982148D01*
X155353077Y-93779966D01*
X155289820Y-93585281D01*
X155196887Y-93402890D01*
X155196885Y-93402887D01*
X155076571Y-93237287D01*
X155076564Y-93237279D01*
X153934641Y-92095356D01*
X153896077Y-92028561D01*
X153891000Y-91989997D01*
X153891000Y-84009901D01*
X153910962Y-83935401D01*
X153934637Y-83904546D01*
X155395043Y-82444139D01*
X155461838Y-82405576D01*
X155500402Y-82400499D01*
X155893097Y-82400499D01*
X155893102Y-82400499D01*
X155981565Y-82389877D01*
X156122343Y-82334361D01*
X156242923Y-82242923D01*
X156334361Y-82122343D01*
X156389877Y-81981565D01*
X156400500Y-81893103D01*
X156400499Y-80106898D01*
X156389877Y-80018435D01*
X156334361Y-79877657D01*
X156242923Y-79757077D01*
X156235700Y-79751600D01*
X156150116Y-79686700D01*
X156122343Y-79665639D01*
X156122341Y-79665638D01*
X156122342Y-79665638D01*
X155981564Y-79610122D01*
X155893106Y-79599500D01*
X155893103Y-79599500D01*
X155632418Y-79599500D01*
X155557918Y-79579538D01*
X155503380Y-79525000D01*
X155483418Y-79450500D01*
X155503380Y-79376000D01*
X155527059Y-79345141D01*
X155994683Y-78877517D01*
X157480463Y-77391736D01*
X157505885Y-77353690D01*
X157579013Y-77244247D01*
X157646894Y-77080366D01*
X157681500Y-76906391D01*
X157681500Y-75192309D01*
X157677835Y-75173886D01*
X157646894Y-75018334D01*
X157628443Y-74973789D01*
X157579013Y-74854453D01*
X157480464Y-74706965D01*
X157355035Y-74581536D01*
X156803802Y-74030303D01*
X156194140Y-73420640D01*
X156155576Y-73353845D01*
X156150499Y-73315281D01*
X156150499Y-72605133D01*
X156147585Y-72580010D01*
X156147584Y-72580008D01*
X156102206Y-72477235D01*
X156022765Y-72397794D01*
X156022764Y-72397793D01*
X155919994Y-72352416D01*
X155919991Y-72352415D01*
X155919982Y-72352414D01*
X155894865Y-72349500D01*
X155894859Y-72349500D01*
X154105133Y-72349500D01*
X154080010Y-72352414D01*
X154080007Y-72352415D01*
X153977235Y-72397793D01*
X153897793Y-72477235D01*
X153852416Y-72580005D01*
X153852415Y-72580008D01*
X153852415Y-72580009D01*
X153849500Y-72605135D01*
X153849500Y-72605136D01*
X153849500Y-72605140D01*
X153849500Y-74394866D01*
X153852414Y-74419989D01*
X153852415Y-74419992D01*
X153897793Y-74522764D01*
X153897794Y-74522765D01*
X153977235Y-74602206D01*
X154080009Y-74647585D01*
X154105135Y-74650500D01*
X154612596Y-74650499D01*
X154687095Y-74670461D01*
X154741633Y-74724999D01*
X154761595Y-74799499D01*
X154741633Y-74873999D01*
X154687095Y-74928537D01*
X154658638Y-74941206D01*
X154558368Y-74973785D01*
X154558363Y-74973787D01*
X154397004Y-75056005D01*
X154396997Y-75056009D01*
X154321248Y-75111044D01*
X154249243Y-75138684D01*
X154233669Y-75139500D01*
X148359217Y-75139500D01*
X148284717Y-75119538D01*
X148253858Y-75095859D01*
X137165804Y-64007804D01*
X137064894Y-63906894D01*
X152149500Y-63906894D01*
X152149500Y-65093105D01*
X152160122Y-65181563D01*
X152215638Y-65322341D01*
X152228586Y-65339416D01*
X152307078Y-65442922D01*
X152427658Y-65534361D01*
X152568436Y-65589877D01*
X152656898Y-65600500D01*
X152656899Y-65600500D01*
X153843101Y-65600500D01*
X153843102Y-65600500D01*
X153931564Y-65589877D01*
X154072342Y-65534361D01*
X154192922Y-65442922D01*
X154284361Y-65322342D01*
X154339877Y-65181564D01*
X154350500Y-65093102D01*
X154350500Y-63906898D01*
X154339877Y-63818436D01*
X154284361Y-63677658D01*
X154192922Y-63557078D01*
X154192920Y-63557076D01*
X154125907Y-63506259D01*
X154072342Y-63465639D01*
X154072341Y-63465638D01*
X153931563Y-63410122D01*
X153843105Y-63399500D01*
X153843102Y-63399500D01*
X152656898Y-63399500D01*
X152656894Y-63399500D01*
X152568436Y-63410122D01*
X152427658Y-63465638D01*
X152427658Y-63465639D01*
X152307079Y-63557076D01*
X152307076Y-63557079D01*
X152215639Y-63677658D01*
X152215638Y-63677658D01*
X152160122Y-63818436D01*
X152149500Y-63906894D01*
X137064894Y-63906894D01*
X134364894Y-61206894D01*
X138849500Y-61206894D01*
X138849500Y-62793105D01*
X138860122Y-62881563D01*
X138915638Y-63022341D01*
X138988120Y-63117923D01*
X139007078Y-63142922D01*
X139127658Y-63234361D01*
X139268436Y-63289877D01*
X139356898Y-63300500D01*
X139356899Y-63300500D01*
X140643101Y-63300500D01*
X140643102Y-63300500D01*
X140731564Y-63289877D01*
X140872342Y-63234361D01*
X140992922Y-63142922D01*
X141084361Y-63022342D01*
X141139877Y-62881564D01*
X141150500Y-62793102D01*
X141150500Y-61206898D01*
X141139877Y-61118436D01*
X141084361Y-60977658D01*
X140992922Y-60857078D01*
X140992920Y-60857076D01*
X140905309Y-60790639D01*
X140872342Y-60765639D01*
X140872341Y-60765638D01*
X140731563Y-60710122D01*
X140643105Y-60699500D01*
X140643102Y-60699500D01*
X139356898Y-60699500D01*
X139356894Y-60699500D01*
X139268436Y-60710122D01*
X139127658Y-60765638D01*
X139127658Y-60765639D01*
X139007079Y-60857076D01*
X139007076Y-60857079D01*
X138915639Y-60977658D01*
X138915638Y-60977658D01*
X138860122Y-61118436D01*
X138849500Y-61206894D01*
X134364894Y-61206894D01*
X132547338Y-59389338D01*
X132547330Y-59389331D01*
X132493871Y-59353612D01*
X132493865Y-59353608D01*
X132488259Y-59349863D01*
X132399847Y-59290787D01*
X132317906Y-59256846D01*
X132235966Y-59222905D01*
X132235964Y-59222904D01*
X132235963Y-59222904D01*
X132061992Y-59188300D01*
X132061991Y-59188300D01*
X113894192Y-59188300D01*
X113716809Y-59188300D01*
X113542834Y-59222904D01*
X113542826Y-59222907D01*
X113426953Y-59270902D01*
X113426954Y-59270903D01*
X113378952Y-59290786D01*
X113231468Y-59389333D01*
X113231463Y-59389337D01*
X111939941Y-60680859D01*
X111873146Y-60719423D01*
X111834582Y-60724500D01*
X111356894Y-60724500D01*
X111268436Y-60735122D01*
X111127658Y-60790638D01*
X111127658Y-60790639D01*
X111007079Y-60882076D01*
X111007076Y-60882079D01*
X110915639Y-61002658D01*
X110915638Y-61002658D01*
X110860122Y-61143436D01*
X110849500Y-61231894D01*
X110849500Y-62768105D01*
X110860122Y-62856563D01*
X110915638Y-62997341D01*
X111000307Y-63108994D01*
X111007078Y-63117922D01*
X111127658Y-63209361D01*
X111260859Y-63261889D01*
X111322841Y-63307790D01*
X111353569Y-63378533D01*
X111344808Y-63455162D01*
X111298907Y-63517144D01*
X111228164Y-63547872D01*
X111206197Y-63549500D01*
X108096886Y-63549500D01*
X108022386Y-63529538D01*
X107967848Y-63475000D01*
X107964125Y-63468143D01*
X107942957Y-63426598D01*
X107941232Y-63423212D01*
X107839414Y-63283072D01*
X107810698Y-63254356D01*
X107772136Y-63187564D01*
X107772136Y-63110436D01*
X107810700Y-63043641D01*
X107877495Y-63005077D01*
X107916059Y-63000000D01*
X109000000Y-63000000D01*
X109000000Y-55416232D01*
X110349500Y-55416232D01*
X110349500Y-56583767D01*
X110382183Y-56748079D01*
X110446294Y-56902858D01*
X110446301Y-56902870D01*
X110539371Y-57042158D01*
X110539374Y-57042162D01*
X110657838Y-57160626D01*
X110657841Y-57160628D01*
X110797129Y-57253698D01*
X110797133Y-57253700D01*
X110797137Y-57253703D01*
X110797138Y-57253703D01*
X110797141Y-57253705D01*
X110842472Y-57272481D01*
X110951918Y-57317816D01*
X111116233Y-57350500D01*
X111283767Y-57350500D01*
X111448082Y-57317816D01*
X111602863Y-57253703D01*
X111742162Y-57160626D01*
X111860626Y-57042162D01*
X111953703Y-56902863D01*
X112017816Y-56748082D01*
X112050500Y-56583767D01*
X112050500Y-56583766D01*
X112051928Y-56576588D01*
X112053406Y-56576882D01*
X112077552Y-56512717D01*
X112137171Y-56463784D01*
X112198671Y-56450500D01*
X113801329Y-56450500D01*
X113875829Y-56470462D01*
X113930367Y-56525000D01*
X113947008Y-56576799D01*
X113948072Y-56576588D01*
X113982183Y-56748079D01*
X114046294Y-56902858D01*
X114046301Y-56902870D01*
X114139371Y-57042158D01*
X114139374Y-57042162D01*
X114257838Y-57160626D01*
X114257841Y-57160628D01*
X114397129Y-57253698D01*
X114397133Y-57253700D01*
X114397137Y-57253703D01*
X114397138Y-57253703D01*
X114397141Y-57253705D01*
X114442472Y-57272481D01*
X114551918Y-57317816D01*
X114716233Y-57350500D01*
X114883767Y-57350500D01*
X115048082Y-57317816D01*
X115202863Y-57253703D01*
X115342162Y-57160626D01*
X115460626Y-57042162D01*
X115553703Y-56902863D01*
X115617816Y-56748082D01*
X115650500Y-56583767D01*
X115650500Y-55416233D01*
X115650500Y-55416232D01*
X127349500Y-55416232D01*
X127349500Y-56583767D01*
X127382183Y-56748079D01*
X127446294Y-56902858D01*
X127446301Y-56902870D01*
X127539371Y-57042158D01*
X127539374Y-57042162D01*
X127657838Y-57160626D01*
X127657841Y-57160628D01*
X127797129Y-57253698D01*
X127797133Y-57253700D01*
X127797137Y-57253703D01*
X127797138Y-57253703D01*
X127797141Y-57253705D01*
X127842472Y-57272481D01*
X127951918Y-57317816D01*
X128116233Y-57350500D01*
X128283767Y-57350500D01*
X128448082Y-57317816D01*
X128602863Y-57253703D01*
X128742162Y-57160626D01*
X128860626Y-57042162D01*
X128953703Y-56902863D01*
X129017816Y-56748082D01*
X129050500Y-56583767D01*
X129050500Y-56583766D01*
X129051928Y-56576588D01*
X129053406Y-56576882D01*
X129077552Y-56512717D01*
X129137171Y-56463784D01*
X129198671Y-56450500D01*
X130801329Y-56450500D01*
X130875829Y-56470462D01*
X130930367Y-56525000D01*
X130947008Y-56576799D01*
X130948072Y-56576588D01*
X130982183Y-56748079D01*
X131046294Y-56902858D01*
X131046301Y-56902870D01*
X131139371Y-57042158D01*
X131139374Y-57042162D01*
X131257838Y-57160626D01*
X131257841Y-57160628D01*
X131397129Y-57253698D01*
X131397133Y-57253700D01*
X131397137Y-57253703D01*
X131397138Y-57253703D01*
X131397141Y-57253705D01*
X131442472Y-57272481D01*
X131551918Y-57317816D01*
X131716233Y-57350500D01*
X131883767Y-57350500D01*
X132048082Y-57317816D01*
X132202863Y-57253703D01*
X132342162Y-57160626D01*
X132460626Y-57042162D01*
X132553703Y-56902863D01*
X132617816Y-56748082D01*
X132650500Y-56583767D01*
X132650500Y-55416233D01*
X132650500Y-55416232D01*
X144349500Y-55416232D01*
X144349500Y-56583767D01*
X144382183Y-56748079D01*
X144446294Y-56902858D01*
X144446301Y-56902870D01*
X144539371Y-57042158D01*
X144539374Y-57042162D01*
X144657838Y-57160626D01*
X144657841Y-57160628D01*
X144797129Y-57253698D01*
X144797133Y-57253700D01*
X144797137Y-57253703D01*
X144797138Y-57253703D01*
X144797141Y-57253705D01*
X144842472Y-57272481D01*
X144951918Y-57317816D01*
X145116233Y-57350500D01*
X145283767Y-57350500D01*
X145448082Y-57317816D01*
X145602863Y-57253703D01*
X145742162Y-57160626D01*
X145860626Y-57042162D01*
X145953703Y-56902863D01*
X146017816Y-56748082D01*
X146050500Y-56583767D01*
X146050500Y-56583766D01*
X146051928Y-56576588D01*
X146053406Y-56576882D01*
X146077552Y-56512717D01*
X146137171Y-56463784D01*
X146198671Y-56450500D01*
X147801329Y-56450500D01*
X147875829Y-56470462D01*
X147930367Y-56525000D01*
X147947008Y-56576799D01*
X147948072Y-56576588D01*
X147982183Y-56748079D01*
X148046294Y-56902858D01*
X148046301Y-56902870D01*
X148139371Y-57042158D01*
X148139374Y-57042162D01*
X148257838Y-57160626D01*
X148257841Y-57160628D01*
X148397129Y-57253698D01*
X148397133Y-57253700D01*
X148397137Y-57253703D01*
X148397138Y-57253703D01*
X148397141Y-57253705D01*
X148442472Y-57272481D01*
X148551918Y-57317816D01*
X148716233Y-57350500D01*
X148883767Y-57350500D01*
X149048082Y-57317816D01*
X149202863Y-57253703D01*
X149342162Y-57160626D01*
X149460626Y-57042162D01*
X149553703Y-56902863D01*
X149617816Y-56748082D01*
X149650500Y-56583767D01*
X149650500Y-55416233D01*
X149617816Y-55251918D01*
X149553703Y-55097137D01*
X149460626Y-54957838D01*
X149342162Y-54839374D01*
X149342158Y-54839371D01*
X149202870Y-54746301D01*
X149202858Y-54746294D01*
X149080136Y-54695461D01*
X149048082Y-54682184D01*
X149048080Y-54682183D01*
X149048079Y-54682183D01*
X148883767Y-54649500D01*
X148716233Y-54649500D01*
X148551920Y-54682183D01*
X148397141Y-54746294D01*
X148397129Y-54746301D01*
X148257841Y-54839371D01*
X148257834Y-54839377D01*
X148139377Y-54957834D01*
X148139371Y-54957841D01*
X148046301Y-55097129D01*
X148046294Y-55097141D01*
X147982183Y-55251920D01*
X147948072Y-55423412D01*
X147946593Y-55423117D01*
X147922448Y-55487283D01*
X147862829Y-55536216D01*
X147801329Y-55549500D01*
X146198671Y-55549500D01*
X146124171Y-55529538D01*
X146069633Y-55475000D01*
X146052991Y-55423200D01*
X146051928Y-55423412D01*
X146017816Y-55251920D01*
X146017816Y-55251918D01*
X145953703Y-55097137D01*
X145860626Y-54957838D01*
X145742162Y-54839374D01*
X145742158Y-54839371D01*
X145602870Y-54746301D01*
X145602858Y-54746294D01*
X145480136Y-54695461D01*
X145448082Y-54682184D01*
X145448080Y-54682183D01*
X145448079Y-54682183D01*
X145283767Y-54649500D01*
X145116233Y-54649500D01*
X144951920Y-54682183D01*
X144797141Y-54746294D01*
X144797129Y-54746301D01*
X144657841Y-54839371D01*
X144657834Y-54839377D01*
X144539377Y-54957834D01*
X144539371Y-54957841D01*
X144446301Y-55097129D01*
X144446294Y-55097141D01*
X144382183Y-55251920D01*
X144349500Y-55416232D01*
X132650500Y-55416232D01*
X132617816Y-55251918D01*
X132553703Y-55097137D01*
X132460626Y-54957838D01*
X132342162Y-54839374D01*
X132342158Y-54839371D01*
X132202870Y-54746301D01*
X132202858Y-54746294D01*
X132080136Y-54695461D01*
X132048082Y-54682184D01*
X132048080Y-54682183D01*
X132048079Y-54682183D01*
X131883767Y-54649500D01*
X131716233Y-54649500D01*
X131551920Y-54682183D01*
X131397141Y-54746294D01*
X131397129Y-54746301D01*
X131257841Y-54839371D01*
X131257834Y-54839377D01*
X131139377Y-54957834D01*
X131139371Y-54957841D01*
X131046301Y-55097129D01*
X131046294Y-55097141D01*
X130982183Y-55251920D01*
X130948072Y-55423412D01*
X130946593Y-55423117D01*
X130922448Y-55487283D01*
X130862829Y-55536216D01*
X130801329Y-55549500D01*
X129198671Y-55549500D01*
X129124171Y-55529538D01*
X129069633Y-55475000D01*
X129052991Y-55423200D01*
X129051928Y-55423412D01*
X129017816Y-55251920D01*
X129017816Y-55251918D01*
X128953703Y-55097137D01*
X128860626Y-54957838D01*
X128742162Y-54839374D01*
X128742158Y-54839371D01*
X128602870Y-54746301D01*
X128602858Y-54746294D01*
X128480136Y-54695461D01*
X128448082Y-54682184D01*
X128448080Y-54682183D01*
X128448079Y-54682183D01*
X128283767Y-54649500D01*
X128116233Y-54649500D01*
X127951920Y-54682183D01*
X127797141Y-54746294D01*
X127797129Y-54746301D01*
X127657841Y-54839371D01*
X127657834Y-54839377D01*
X127539377Y-54957834D01*
X127539371Y-54957841D01*
X127446301Y-55097129D01*
X127446294Y-55097141D01*
X127382183Y-55251920D01*
X127349500Y-55416232D01*
X115650500Y-55416232D01*
X115617816Y-55251918D01*
X115553703Y-55097137D01*
X115460626Y-54957838D01*
X115342162Y-54839374D01*
X115342158Y-54839371D01*
X115202870Y-54746301D01*
X115202858Y-54746294D01*
X115080136Y-54695461D01*
X115048082Y-54682184D01*
X115048080Y-54682183D01*
X115048079Y-54682183D01*
X114883767Y-54649500D01*
X114716233Y-54649500D01*
X114551920Y-54682183D01*
X114397141Y-54746294D01*
X114397129Y-54746301D01*
X114257841Y-54839371D01*
X114257834Y-54839377D01*
X114139377Y-54957834D01*
X114139371Y-54957841D01*
X114046301Y-55097129D01*
X114046294Y-55097141D01*
X113982183Y-55251920D01*
X113948072Y-55423412D01*
X113946593Y-55423117D01*
X113922448Y-55487283D01*
X113862829Y-55536216D01*
X113801329Y-55549500D01*
X112198671Y-55549500D01*
X112124171Y-55529538D01*
X112069633Y-55475000D01*
X112052991Y-55423200D01*
X112051928Y-55423412D01*
X112017816Y-55251920D01*
X112017816Y-55251918D01*
X111953703Y-55097137D01*
X111860626Y-54957838D01*
X111742162Y-54839374D01*
X111742158Y-54839371D01*
X111602870Y-54746301D01*
X111602858Y-54746294D01*
X111480136Y-54695461D01*
X111448082Y-54682184D01*
X111448080Y-54682183D01*
X111448079Y-54682183D01*
X111283767Y-54649500D01*
X111116233Y-54649500D01*
X110951920Y-54682183D01*
X110797141Y-54746294D01*
X110797129Y-54746301D01*
X110657841Y-54839371D01*
X110657834Y-54839377D01*
X110539377Y-54957834D01*
X110539371Y-54957841D01*
X110446301Y-55097129D01*
X110446294Y-55097141D01*
X110382183Y-55251920D01*
X110349500Y-55416232D01*
X109000000Y-55416232D01*
X109000000Y-53413277D01*
X112119500Y-53413277D01*
X112119500Y-53586722D01*
X112153336Y-53756829D01*
X112153337Y-53756833D01*
X112219707Y-53917065D01*
X112219713Y-53917077D01*
X112283951Y-54013215D01*
X112316071Y-54061286D01*
X112438714Y-54183929D01*
X112534204Y-54247733D01*
X112582922Y-54280286D01*
X112582924Y-54280287D01*
X112582927Y-54280289D01*
X112743168Y-54346663D01*
X112913278Y-54380500D01*
X113086722Y-54380500D01*
X113256832Y-54346663D01*
X113417073Y-54280289D01*
X113561286Y-54183929D01*
X113683929Y-54061286D01*
X113780289Y-53917073D01*
X113846663Y-53756832D01*
X113880500Y-53586722D01*
X113880500Y-53413278D01*
X113880500Y-53413277D01*
X129119500Y-53413277D01*
X129119500Y-53586722D01*
X129153336Y-53756829D01*
X129153337Y-53756833D01*
X129219707Y-53917065D01*
X129219713Y-53917077D01*
X129283951Y-54013215D01*
X129316071Y-54061286D01*
X129438714Y-54183929D01*
X129534204Y-54247733D01*
X129582922Y-54280286D01*
X129582924Y-54280287D01*
X129582927Y-54280289D01*
X129743168Y-54346663D01*
X129913278Y-54380500D01*
X130086722Y-54380500D01*
X130256832Y-54346663D01*
X130417073Y-54280289D01*
X130561286Y-54183929D01*
X130683929Y-54061286D01*
X130780289Y-53917073D01*
X130846663Y-53756832D01*
X130880500Y-53586722D01*
X130880500Y-53413278D01*
X130880500Y-53413277D01*
X146119500Y-53413277D01*
X146119500Y-53586722D01*
X146153336Y-53756829D01*
X146153337Y-53756833D01*
X146219707Y-53917065D01*
X146219713Y-53917077D01*
X146283951Y-54013215D01*
X146316071Y-54061286D01*
X146438714Y-54183929D01*
X146534204Y-54247733D01*
X146582922Y-54280286D01*
X146582924Y-54280287D01*
X146582927Y-54280289D01*
X146743168Y-54346663D01*
X146913278Y-54380500D01*
X147086722Y-54380500D01*
X147256832Y-54346663D01*
X147417073Y-54280289D01*
X147561286Y-54183929D01*
X147683929Y-54061286D01*
X147780289Y-53917073D01*
X147846663Y-53756832D01*
X147880500Y-53586722D01*
X147880500Y-53413278D01*
X147846663Y-53243168D01*
X147780289Y-53082927D01*
X147683929Y-52938714D01*
X147561286Y-52816071D01*
X147513215Y-52783951D01*
X147417077Y-52719713D01*
X147417065Y-52719707D01*
X147256833Y-52653337D01*
X147256829Y-52653336D01*
X147086722Y-52619500D01*
X146913278Y-52619500D01*
X146743170Y-52653336D01*
X146743166Y-52653337D01*
X146582934Y-52719707D01*
X146582922Y-52719713D01*
X146438715Y-52816070D01*
X146438710Y-52816074D01*
X146316074Y-52938710D01*
X146316070Y-52938715D01*
X146219713Y-53082922D01*
X146219707Y-53082934D01*
X146153337Y-53243166D01*
X146153336Y-53243170D01*
X146119500Y-53413277D01*
X130880500Y-53413277D01*
X130846663Y-53243168D01*
X130780289Y-53082927D01*
X130683929Y-52938714D01*
X130561286Y-52816071D01*
X130513215Y-52783951D01*
X130417077Y-52719713D01*
X130417065Y-52719707D01*
X130256833Y-52653337D01*
X130256829Y-52653336D01*
X130086722Y-52619500D01*
X129913278Y-52619500D01*
X129743170Y-52653336D01*
X129743166Y-52653337D01*
X129582934Y-52719707D01*
X129582922Y-52719713D01*
X129438715Y-52816070D01*
X129438710Y-52816074D01*
X129316074Y-52938710D01*
X129316070Y-52938715D01*
X129219713Y-53082922D01*
X129219707Y-53082934D01*
X129153337Y-53243166D01*
X129153336Y-53243170D01*
X129119500Y-53413277D01*
X113880500Y-53413277D01*
X113846663Y-53243168D01*
X113780289Y-53082927D01*
X113683929Y-52938714D01*
X113561286Y-52816071D01*
X113513215Y-52783951D01*
X113417077Y-52719713D01*
X113417065Y-52719707D01*
X113256833Y-52653337D01*
X113256829Y-52653336D01*
X113086722Y-52619500D01*
X112913278Y-52619500D01*
X112743170Y-52653336D01*
X112743166Y-52653337D01*
X112582934Y-52719707D01*
X112582922Y-52719713D01*
X112438715Y-52816070D01*
X112438710Y-52816074D01*
X112316074Y-52938710D01*
X112316070Y-52938715D01*
X112219713Y-53082922D01*
X112219707Y-53082934D01*
X112153337Y-53243166D01*
X112153336Y-53243170D01*
X112119500Y-53413277D01*
X109000000Y-53413277D01*
X109000000Y-50649500D01*
X109019962Y-50575000D01*
X109074500Y-50520462D01*
X109149000Y-50500500D01*
X150851000Y-50500500D01*
X150925500Y-50520462D01*
G37*
%TD.AperFunction*%
%TA.AperFunction,Conductor*%
G36*
X106158441Y-63019962D02*
G01*
X106212979Y-63074500D01*
X106232941Y-63149000D01*
X106212979Y-63223500D01*
X106189303Y-63254354D01*
X106172196Y-63271462D01*
X106160588Y-63283070D01*
X106160583Y-63283075D01*
X106058771Y-63423206D01*
X105980130Y-63577549D01*
X105980125Y-63577561D01*
X105926597Y-63742299D01*
X105914539Y-63818436D01*
X105899500Y-63913389D01*
X105899500Y-64086611D01*
X105911137Y-64160086D01*
X105926597Y-64257700D01*
X105959996Y-64360489D01*
X105980127Y-64422445D01*
X105994422Y-64450499D01*
X106058771Y-64576793D01*
X106160583Y-64716924D01*
X106160586Y-64716928D01*
X106283072Y-64839414D01*
X106423212Y-64941232D01*
X106577555Y-65019873D01*
X106742299Y-65073402D01*
X106913389Y-65100500D01*
X106913393Y-65100500D01*
X107086607Y-65100500D01*
X107086611Y-65100500D01*
X107257701Y-65073402D01*
X107422445Y-65019873D01*
X107576788Y-64941232D01*
X107716928Y-64839414D01*
X107839414Y-64716928D01*
X107941232Y-64576788D01*
X107964125Y-64531856D01*
X108015733Y-64474539D01*
X108089086Y-64450704D01*
X108096886Y-64450500D01*
X120059306Y-64450500D01*
X120059309Y-64450500D01*
X120149673Y-64426286D01*
X120173887Y-64419799D01*
X120276614Y-64360489D01*
X121408910Y-63228191D01*
X121475703Y-63189629D01*
X121552831Y-63189629D01*
X121560301Y-63191841D01*
X121730591Y-63247171D01*
X121909454Y-63275500D01*
X121909458Y-63275500D01*
X122090542Y-63275500D01*
X122090546Y-63275500D01*
X122227971Y-63253734D01*
X122304675Y-63261797D01*
X122367073Y-63307132D01*
X122398444Y-63377592D01*
X122390381Y-63454297D01*
X122356637Y-63506259D01*
X112986838Y-72876059D01*
X112920043Y-72914623D01*
X112881479Y-72919700D01*
X107493883Y-72919700D01*
X107419383Y-72899738D01*
X107364845Y-72845200D01*
X107344883Y-72770700D01*
X107364845Y-72696200D01*
X107419383Y-72641662D01*
X107426239Y-72637940D01*
X107442974Y-72629412D01*
X107576788Y-72561232D01*
X107716928Y-72459414D01*
X107839414Y-72336928D01*
X107941232Y-72196788D01*
X108019873Y-72042445D01*
X108073402Y-71877701D01*
X108100500Y-71706611D01*
X108100500Y-71533389D01*
X108073402Y-71362299D01*
X108019873Y-71197555D01*
X107941232Y-71043212D01*
X107839414Y-70903072D01*
X107716928Y-70780586D01*
X107716924Y-70780583D01*
X107576793Y-70678771D01*
X107576790Y-70678769D01*
X107576788Y-70678768D01*
X107422445Y-70600127D01*
X107374821Y-70584653D01*
X107257700Y-70546597D01*
X107160086Y-70531137D01*
X107086611Y-70519500D01*
X106913389Y-70519500D01*
X106847037Y-70530009D01*
X106742299Y-70546597D01*
X106577561Y-70600125D01*
X106577555Y-70600127D01*
X106577549Y-70600129D01*
X106577549Y-70600130D01*
X106423206Y-70678771D01*
X106283075Y-70780583D01*
X106160583Y-70903075D01*
X106058771Y-71043206D01*
X105980130Y-71197549D01*
X105980125Y-71197561D01*
X105926597Y-71362299D01*
X105908228Y-71478282D01*
X105899500Y-71533389D01*
X105899500Y-71706611D01*
X105911137Y-71780086D01*
X105926597Y-71877700D01*
X105964653Y-71994821D01*
X105980127Y-72042445D01*
X105980130Y-72042450D01*
X106058771Y-72196793D01*
X106160583Y-72336924D01*
X106160586Y-72336928D01*
X106283072Y-72459414D01*
X106423212Y-72561232D01*
X106509377Y-72605135D01*
X106573761Y-72637940D01*
X106631079Y-72689549D01*
X106654913Y-72762902D01*
X106638877Y-72838344D01*
X106587268Y-72895662D01*
X106513915Y-72919496D01*
X106506117Y-72919700D01*
X104570491Y-72919700D01*
X104484281Y-72942800D01*
X104476676Y-72944837D01*
X104455911Y-72950401D01*
X104353192Y-73009706D01*
X104353188Y-73009709D01*
X103457063Y-73905833D01*
X103390268Y-73944397D01*
X103313140Y-73944397D01*
X103305660Y-73942181D01*
X103257701Y-73926598D01*
X103086611Y-73899500D01*
X102913389Y-73899500D01*
X102847037Y-73910009D01*
X102742299Y-73926597D01*
X102577561Y-73980125D01*
X102577555Y-73980127D01*
X102577549Y-73980129D01*
X102577549Y-73980130D01*
X102423202Y-74058773D01*
X102413776Y-74065622D01*
X102341770Y-74093260D01*
X102265592Y-74081192D01*
X102205654Y-74032652D01*
X102178016Y-73960646D01*
X102177200Y-73945076D01*
X102177200Y-73641620D01*
X102197162Y-73567120D01*
X102220838Y-73536264D01*
X102542937Y-73214164D01*
X102609730Y-73175602D01*
X102686858Y-73175602D01*
X102694323Y-73177813D01*
X102742299Y-73193402D01*
X102913389Y-73220500D01*
X102913393Y-73220500D01*
X103086607Y-73220500D01*
X103086611Y-73220500D01*
X103257701Y-73193402D01*
X103422445Y-73139873D01*
X103576788Y-73061232D01*
X103716928Y-72959414D01*
X103839414Y-72836928D01*
X103941232Y-72696788D01*
X104019873Y-72542445D01*
X104073402Y-72377701D01*
X104100500Y-72206611D01*
X104100500Y-72033389D01*
X104073402Y-71862299D01*
X104019873Y-71697555D01*
X103941232Y-71543212D01*
X103934097Y-71533392D01*
X103839416Y-71403075D01*
X103839414Y-71403072D01*
X103716928Y-71280586D01*
X103716924Y-71280583D01*
X103576793Y-71178771D01*
X103576790Y-71178769D01*
X103576788Y-71178768D01*
X103422445Y-71100127D01*
X103374821Y-71084653D01*
X103257700Y-71046597D01*
X103160086Y-71031137D01*
X103086611Y-71019500D01*
X102913389Y-71019500D01*
X102847037Y-71030009D01*
X102742299Y-71046597D01*
X102577561Y-71100125D01*
X102577555Y-71100127D01*
X102577549Y-71100129D01*
X102577549Y-71100130D01*
X102423206Y-71178771D01*
X102283075Y-71280583D01*
X102160583Y-71403075D01*
X102058771Y-71543206D01*
X101980130Y-71697549D01*
X101980125Y-71697561D01*
X101926597Y-71862299D01*
X101908228Y-71978282D01*
X101899500Y-72033389D01*
X101899500Y-72206611D01*
X101926598Y-72377701D01*
X101933127Y-72397794D01*
X101942181Y-72425660D01*
X101946218Y-72502683D01*
X101911203Y-72571404D01*
X101905833Y-72577063D01*
X101366209Y-73116688D01*
X101366208Y-73116689D01*
X101306901Y-73219411D01*
X101306902Y-73219411D01*
X101306901Y-73219415D01*
X101276200Y-73333989D01*
X101276200Y-75578811D01*
X101287443Y-75620771D01*
X101287445Y-75620775D01*
X101306902Y-75693390D01*
X101366206Y-75796107D01*
X101366209Y-75796111D01*
X101366211Y-75796114D01*
X102923787Y-77353690D01*
X103026514Y-77412999D01*
X103141091Y-77443700D01*
X131584579Y-77443700D01*
X131659079Y-77463662D01*
X131689938Y-77487341D01*
X135762971Y-81560374D01*
X135801535Y-81627169D01*
X135801535Y-81704297D01*
X135762971Y-81771092D01*
X135696176Y-81809656D01*
X135680924Y-81812898D01*
X135627654Y-81821335D01*
X135578881Y-81829060D01*
X135416569Y-81881799D01*
X135399168Y-81887453D01*
X135399163Y-81887455D01*
X135399157Y-81887458D01*
X135230804Y-81973238D01*
X135230799Y-81973241D01*
X135077936Y-82084303D01*
X135077925Y-82084312D01*
X134944312Y-82217925D01*
X134944303Y-82217936D01*
X134833241Y-82370799D01*
X134833238Y-82370804D01*
X134747458Y-82539157D01*
X134747455Y-82539163D01*
X134747453Y-82539168D01*
X134747451Y-82539173D01*
X134747451Y-82539174D01*
X134731707Y-82587629D01*
X134689700Y-82652314D01*
X134620978Y-82687329D01*
X134543956Y-82683292D01*
X134479271Y-82641285D01*
X134448293Y-82587629D01*
X134447631Y-82585593D01*
X134432547Y-82539168D01*
X134346760Y-82370801D01*
X134235690Y-82217927D01*
X134102073Y-82084310D01*
X133949199Y-81973240D01*
X133780832Y-81887453D01*
X133601118Y-81829060D01*
X133414481Y-81799500D01*
X133225519Y-81799500D01*
X133038888Y-81829059D01*
X133038882Y-81829060D01*
X132919346Y-81867900D01*
X132859168Y-81887453D01*
X132859163Y-81887455D01*
X132859157Y-81887458D01*
X132690804Y-81973238D01*
X132690799Y-81973241D01*
X132537936Y-82084303D01*
X132537925Y-82084312D01*
X132404312Y-82217925D01*
X132404303Y-82217936D01*
X132293241Y-82370799D01*
X132293238Y-82370804D01*
X132207458Y-82539157D01*
X132207455Y-82539163D01*
X132207453Y-82539168D01*
X132207451Y-82539173D01*
X132207451Y-82539174D01*
X132191707Y-82587629D01*
X132149700Y-82652314D01*
X132080978Y-82687329D01*
X132003956Y-82683292D01*
X131939271Y-82641285D01*
X131908293Y-82587629D01*
X131907631Y-82585593D01*
X131892547Y-82539168D01*
X131806760Y-82370801D01*
X131695690Y-82217927D01*
X131562073Y-82084310D01*
X131409199Y-81973240D01*
X131240832Y-81887453D01*
X131061118Y-81829060D01*
X130874481Y-81799500D01*
X130685519Y-81799500D01*
X130498888Y-81829059D01*
X130498882Y-81829060D01*
X130379346Y-81867900D01*
X130319168Y-81887453D01*
X130319163Y-81887455D01*
X130319157Y-81887458D01*
X130150804Y-81973238D01*
X130150799Y-81973241D01*
X129997936Y-82084303D01*
X129997925Y-82084312D01*
X129864312Y-82217925D01*
X129864303Y-82217936D01*
X129753241Y-82370799D01*
X129753238Y-82370804D01*
X129667458Y-82539157D01*
X129667455Y-82539163D01*
X129667453Y-82539168D01*
X129667451Y-82539173D01*
X129667451Y-82539174D01*
X129651707Y-82587629D01*
X129609700Y-82652314D01*
X129540978Y-82687329D01*
X129463956Y-82683292D01*
X129399271Y-82641285D01*
X129368293Y-82587629D01*
X129367631Y-82585593D01*
X129352547Y-82539168D01*
X129266760Y-82370801D01*
X129155690Y-82217927D01*
X129022073Y-82084310D01*
X128869199Y-81973240D01*
X128700832Y-81887453D01*
X128521118Y-81829060D01*
X128334481Y-81799500D01*
X128145519Y-81799500D01*
X127958888Y-81829059D01*
X127958882Y-81829060D01*
X127839346Y-81867900D01*
X127779168Y-81887453D01*
X127779163Y-81887455D01*
X127779157Y-81887458D01*
X127610804Y-81973238D01*
X127610799Y-81973241D01*
X127457936Y-82084303D01*
X127457925Y-82084312D01*
X127324312Y-82217925D01*
X127324303Y-82217936D01*
X127213241Y-82370799D01*
X127213238Y-82370804D01*
X127127458Y-82539157D01*
X127127455Y-82539163D01*
X127127453Y-82539168D01*
X127127451Y-82539173D01*
X127127451Y-82539174D01*
X127111707Y-82587629D01*
X127069700Y-82652314D01*
X127000978Y-82687329D01*
X126923956Y-82683292D01*
X126859271Y-82641285D01*
X126828293Y-82587629D01*
X126827631Y-82585593D01*
X126812547Y-82539168D01*
X126726760Y-82370801D01*
X126615690Y-82217927D01*
X126482073Y-82084310D01*
X126329199Y-81973240D01*
X126160832Y-81887453D01*
X125981118Y-81829060D01*
X125794481Y-81799500D01*
X125605519Y-81799500D01*
X125418888Y-81829059D01*
X125418882Y-81829060D01*
X125299346Y-81867900D01*
X125239168Y-81887453D01*
X125239163Y-81887455D01*
X125239157Y-81887458D01*
X125070804Y-81973238D01*
X125070799Y-81973241D01*
X124917936Y-82084303D01*
X124917925Y-82084312D01*
X124784312Y-82217925D01*
X124784303Y-82217936D01*
X124673241Y-82370799D01*
X124673238Y-82370804D01*
X124587458Y-82539157D01*
X124587456Y-82539161D01*
X124587453Y-82539168D01*
X124529060Y-82718882D01*
X124499500Y-82905519D01*
X124499500Y-83094481D01*
X124529060Y-83281118D01*
X124587453Y-83460832D01*
X124673240Y-83629199D01*
X124784310Y-83782073D01*
X124917927Y-83915690D01*
X125070801Y-84026760D01*
X125239168Y-84112547D01*
X125418882Y-84170940D01*
X125605519Y-84200500D01*
X125605524Y-84200500D01*
X125794476Y-84200500D01*
X125794481Y-84200500D01*
X125981118Y-84170940D01*
X126058697Y-84145732D01*
X126135714Y-84141696D01*
X126204436Y-84176710D01*
X126246444Y-84241395D01*
X126250481Y-84318417D01*
X126215467Y-84387139D01*
X126210096Y-84392799D01*
X125050438Y-85552459D01*
X124983643Y-85591023D01*
X124945079Y-85596100D01*
X118245787Y-85596100D01*
X118155426Y-85620312D01*
X118155426Y-85620313D01*
X118143319Y-85623557D01*
X118131212Y-85626801D01*
X118028485Y-85686110D01*
X116454858Y-87259738D01*
X116388063Y-87298302D01*
X116310935Y-87298302D01*
X116244140Y-87259738D01*
X116205576Y-87192943D01*
X116200499Y-87154379D01*
X116200499Y-87055133D01*
X116197585Y-87030010D01*
X116197584Y-87030008D01*
X116152206Y-86927235D01*
X116072765Y-86847794D01*
X116072764Y-86847793D01*
X115969994Y-86802416D01*
X115969991Y-86802415D01*
X115969982Y-86802414D01*
X115944865Y-86799500D01*
X115944859Y-86799500D01*
X114055133Y-86799500D01*
X114030010Y-86802414D01*
X114030007Y-86802415D01*
X113927235Y-86847793D01*
X113847793Y-86927235D01*
X113802416Y-87030005D01*
X113802415Y-87030008D01*
X113802415Y-87030009D01*
X113799500Y-87055135D01*
X113799500Y-87055136D01*
X113799500Y-87055140D01*
X113799500Y-88292179D01*
X113794423Y-88311126D01*
X113794423Y-88330743D01*
X113784615Y-88347730D01*
X113779538Y-88366679D01*
X113765666Y-88380550D01*
X113755859Y-88397538D01*
X113738871Y-88407345D01*
X113725000Y-88421217D01*
X113706051Y-88426294D01*
X113689064Y-88436102D01*
X113669448Y-88436102D01*
X113650500Y-88441179D01*
X113631552Y-88436102D01*
X113611936Y-88436102D01*
X113594948Y-88426294D01*
X113576000Y-88421217D01*
X113545141Y-88397538D01*
X113494141Y-88346538D01*
X113455577Y-88279743D01*
X113450500Y-88241179D01*
X113450500Y-84349499D01*
X113470462Y-84274999D01*
X113525000Y-84220461D01*
X113599500Y-84200499D01*
X113944867Y-84200499D01*
X113959940Y-84198750D01*
X113969991Y-84197585D01*
X114072765Y-84152206D01*
X114152206Y-84072765D01*
X114197585Y-83969991D01*
X114200500Y-83944865D01*
X114200499Y-82905519D01*
X116879500Y-82905519D01*
X116879500Y-83094481D01*
X116909060Y-83281118D01*
X116967453Y-83460832D01*
X117053240Y-83629199D01*
X117164310Y-83782073D01*
X117297927Y-83915690D01*
X117450801Y-84026760D01*
X117619168Y-84112547D01*
X117798882Y-84170940D01*
X117985519Y-84200500D01*
X117985524Y-84200500D01*
X118174476Y-84200500D01*
X118174481Y-84200500D01*
X118361118Y-84170940D01*
X118540832Y-84112547D01*
X118709199Y-84026760D01*
X118862073Y-83915690D01*
X118995690Y-83782073D01*
X119106760Y-83629199D01*
X119192547Y-83460832D01*
X119208293Y-83412370D01*
X119250299Y-83347686D01*
X119319021Y-83312670D01*
X119396043Y-83316707D01*
X119460728Y-83358713D01*
X119491707Y-83412371D01*
X119507449Y-83460822D01*
X119507451Y-83460828D01*
X119507453Y-83460832D01*
X119593240Y-83629199D01*
X119704310Y-83782073D01*
X119837927Y-83915690D01*
X119990801Y-84026760D01*
X120159168Y-84112547D01*
X120338882Y-84170940D01*
X120525519Y-84200500D01*
X120525524Y-84200500D01*
X120714476Y-84200500D01*
X120714481Y-84200500D01*
X120901118Y-84170940D01*
X121080832Y-84112547D01*
X121249199Y-84026760D01*
X121402073Y-83915690D01*
X121535690Y-83782073D01*
X121646760Y-83629199D01*
X121732547Y-83460832D01*
X121790940Y-83281118D01*
X121820500Y-83094481D01*
X121820500Y-82905519D01*
X121790940Y-82718882D01*
X121732547Y-82539168D01*
X121646760Y-82370801D01*
X121535690Y-82217927D01*
X121402073Y-82084310D01*
X121249199Y-81973240D01*
X121080832Y-81887453D01*
X120901118Y-81829060D01*
X120714481Y-81799500D01*
X120714476Y-81799500D01*
X120710902Y-81798934D01*
X120640442Y-81767563D01*
X120595107Y-81705166D01*
X120587044Y-81628460D01*
X120610324Y-81568984D01*
X120613389Y-81564397D01*
X120625875Y-81545711D01*
X120678680Y-81418228D01*
X120705600Y-81282893D01*
X120705600Y-81144907D01*
X120703958Y-81136654D01*
X120696626Y-81099795D01*
X120678680Y-81009572D01*
X120625875Y-80882089D01*
X120549214Y-80767358D01*
X120451642Y-80669786D01*
X120451638Y-80669783D01*
X120336915Y-80593127D01*
X120336909Y-80593124D01*
X120209429Y-80540320D01*
X120209425Y-80540319D01*
X120074093Y-80513400D01*
X119936107Y-80513400D01*
X119800774Y-80540319D01*
X119800770Y-80540320D01*
X119673290Y-80593124D01*
X119673284Y-80593127D01*
X119558561Y-80669783D01*
X119558554Y-80669789D01*
X119460989Y-80767354D01*
X119460983Y-80767361D01*
X119384327Y-80882084D01*
X119384324Y-80882090D01*
X119331520Y-81009570D01*
X119331520Y-81009571D01*
X119315059Y-81092324D01*
X119280945Y-81161497D01*
X119274281Y-81168613D01*
X118616423Y-81826471D01*
X118549628Y-81865035D01*
X118472500Y-81865035D01*
X118465022Y-81862820D01*
X118361115Y-81829059D01*
X118286722Y-81817276D01*
X118174481Y-81799500D01*
X117985519Y-81799500D01*
X117798888Y-81829059D01*
X117798882Y-81829060D01*
X117679346Y-81867900D01*
X117619168Y-81887453D01*
X117619163Y-81887455D01*
X117619157Y-81887458D01*
X117450804Y-81973238D01*
X117450799Y-81973241D01*
X117297936Y-82084303D01*
X117297925Y-82084312D01*
X117164312Y-82217925D01*
X117164303Y-82217936D01*
X117053241Y-82370799D01*
X117053238Y-82370804D01*
X116967458Y-82539157D01*
X116967456Y-82539161D01*
X116967453Y-82539168D01*
X116909060Y-82718882D01*
X116879500Y-82905519D01*
X114200499Y-82905519D01*
X114200499Y-82055136D01*
X114199115Y-82043206D01*
X114197585Y-82030010D01*
X114197584Y-82030007D01*
X114176194Y-81981564D01*
X114152206Y-81927235D01*
X114072765Y-81847794D01*
X114072764Y-81847793D01*
X113969994Y-81802416D01*
X113969991Y-81802415D01*
X113944865Y-81799500D01*
X113944859Y-81799500D01*
X112729517Y-81799500D01*
X112655017Y-81779538D01*
X112600479Y-81725000D01*
X112580517Y-81650500D01*
X112600479Y-81576000D01*
X112624158Y-81545141D01*
X113401939Y-80767361D01*
X114374059Y-79795241D01*
X114440854Y-79756677D01*
X114479418Y-79751600D01*
X121151191Y-79751600D01*
X121325166Y-79716994D01*
X121489047Y-79649113D01*
X121636535Y-79550564D01*
X121761964Y-79425135D01*
X121860513Y-79277647D01*
X121928394Y-79113766D01*
X121963000Y-78939791D01*
X121963000Y-78762409D01*
X121928394Y-78588434D01*
X121860513Y-78424553D01*
X121761964Y-78277065D01*
X121636535Y-78151636D01*
X121615631Y-78137668D01*
X121489048Y-78053087D01*
X121489046Y-78053086D01*
X121325167Y-77985206D01*
X121325163Y-77985205D01*
X121151191Y-77950600D01*
X114133392Y-77950600D01*
X113956008Y-77950600D01*
X113782035Y-77985204D01*
X113782033Y-77985205D01*
X113723480Y-78009458D01*
X113723467Y-78009464D01*
X113716777Y-78012236D01*
X113618153Y-78053087D01*
X113531181Y-78111200D01*
X113525042Y-78115301D01*
X113525038Y-78115304D01*
X113470665Y-78151635D01*
X113470660Y-78151639D01*
X110101675Y-81520623D01*
X110095172Y-81524377D01*
X110090798Y-81530477D01*
X110062132Y-81543452D01*
X110034880Y-81559187D01*
X110027374Y-81559187D01*
X110020534Y-81562283D01*
X109989217Y-81559187D01*
X109957752Y-81559187D01*
X109951250Y-81555433D01*
X109943780Y-81554695D01*
X109927276Y-81541592D01*
X109890957Y-81520623D01*
X109881103Y-81509746D01*
X109876480Y-81504108D01*
X109832814Y-81438758D01*
X109777649Y-81383593D01*
X109772987Y-81377908D01*
X109760011Y-81349242D01*
X109744277Y-81321990D01*
X109742883Y-81311405D01*
X109741181Y-81307644D01*
X109741698Y-81302406D01*
X109740495Y-81293267D01*
X109740474Y-81293270D01*
X109739200Y-81283596D01*
X109739200Y-81283591D01*
X109708499Y-81169014D01*
X109708497Y-81169010D01*
X109649193Y-81066293D01*
X109649190Y-81066289D01*
X109649189Y-81066287D01*
X109565313Y-80982411D01*
X109565310Y-80982409D01*
X109565306Y-80982406D01*
X109462589Y-80923102D01*
X109462586Y-80923101D01*
X109348009Y-80892400D01*
X109229391Y-80892400D01*
X109114809Y-80923102D01*
X109091997Y-80936273D01*
X109063882Y-80943805D01*
X109036991Y-80954954D01*
X109028542Y-80953274D01*
X109017497Y-80956234D01*
X108960520Y-80944909D01*
X108951476Y-80941166D01*
X108920187Y-80923101D01*
X108894554Y-80916233D01*
X108805609Y-80892400D01*
X104217791Y-80892400D01*
X104128846Y-80916233D01*
X104112593Y-80920587D01*
X104103212Y-80923101D01*
X104000489Y-80982408D01*
X104000488Y-80982409D01*
X103457063Y-81525833D01*
X103390268Y-81564397D01*
X103313140Y-81564397D01*
X103305660Y-81562181D01*
X103300099Y-81560374D01*
X103257701Y-81546598D01*
X103086611Y-81519500D01*
X102913389Y-81519500D01*
X102847037Y-81530009D01*
X102742299Y-81546597D01*
X102577561Y-81600125D01*
X102577555Y-81600127D01*
X102577549Y-81600129D01*
X102577549Y-81600130D01*
X102423206Y-81678771D01*
X102283075Y-81780583D01*
X102160583Y-81903075D01*
X102058771Y-82043206D01*
X101980130Y-82197549D01*
X101980125Y-82197561D01*
X101926597Y-82362299D01*
X101908228Y-82478282D01*
X101899500Y-82533389D01*
X101899500Y-82706611D01*
X101905945Y-82747302D01*
X101926597Y-82877700D01*
X101964653Y-82994821D01*
X101980127Y-83042445D01*
X102049746Y-83179080D01*
X102058771Y-83196793D01*
X102160583Y-83336924D01*
X102160586Y-83336928D01*
X102283072Y-83459414D01*
X102423212Y-83561232D01*
X102577555Y-83639873D01*
X102742299Y-83693402D01*
X102913389Y-83720500D01*
X102913393Y-83720500D01*
X103086607Y-83720500D01*
X103086611Y-83720500D01*
X103257701Y-83693402D01*
X103422445Y-83639873D01*
X103576788Y-83561232D01*
X103716928Y-83459414D01*
X103839414Y-83336928D01*
X103941232Y-83196788D01*
X104019873Y-83042445D01*
X104073402Y-82877701D01*
X104100500Y-82706611D01*
X104100500Y-82533389D01*
X104073402Y-82362299D01*
X104057817Y-82314337D01*
X104053781Y-82237317D01*
X104088795Y-82168595D01*
X104094144Y-82162957D01*
X104420062Y-81837041D01*
X104486857Y-81798477D01*
X104525421Y-81793400D01*
X105947838Y-81793400D01*
X106022338Y-81813362D01*
X106076876Y-81867900D01*
X106096838Y-81942400D01*
X106076876Y-82016900D01*
X106068380Y-82029982D01*
X106058771Y-82043205D01*
X105980130Y-82197549D01*
X105980125Y-82197561D01*
X105926597Y-82362299D01*
X105908228Y-82478282D01*
X105899500Y-82533389D01*
X105899500Y-82706611D01*
X105926598Y-82877701D01*
X105942181Y-82925661D01*
X105946217Y-83002684D01*
X105911201Y-83071405D01*
X105905832Y-83077063D01*
X103939509Y-85043388D01*
X103939508Y-85043389D01*
X103880201Y-85146111D01*
X103880202Y-85146111D01*
X103880201Y-85146115D01*
X103849500Y-85260689D01*
X103849500Y-91650500D01*
X103829538Y-91725000D01*
X103775000Y-91779538D01*
X103700500Y-91799500D01*
X103355133Y-91799500D01*
X103330010Y-91802414D01*
X103330007Y-91802415D01*
X103227235Y-91847793D01*
X103147793Y-91927235D01*
X103102416Y-92030005D01*
X103102415Y-92030008D01*
X103102415Y-92030009D01*
X103099500Y-92055135D01*
X103099500Y-92055136D01*
X103099500Y-92055140D01*
X103099500Y-93944866D01*
X103102414Y-93969989D01*
X103102415Y-93969992D01*
X103147793Y-94072764D01*
X103147794Y-94072765D01*
X103227235Y-94152206D01*
X103330009Y-94197585D01*
X103355135Y-94200500D01*
X105244864Y-94200499D01*
X105244866Y-94200499D01*
X105257427Y-94199042D01*
X105269991Y-94197585D01*
X105372765Y-94152206D01*
X105452206Y-94072765D01*
X105497585Y-93969991D01*
X105500500Y-93944865D01*
X105500499Y-92055136D01*
X105500102Y-92051715D01*
X105497585Y-92030010D01*
X105497584Y-92030008D01*
X105452206Y-91927235D01*
X105372765Y-91847794D01*
X105372764Y-91847793D01*
X105269994Y-91802416D01*
X105269991Y-91802415D01*
X105269982Y-91802414D01*
X105244865Y-91799500D01*
X105244859Y-91799500D01*
X104899500Y-91799500D01*
X104825000Y-91779538D01*
X104770462Y-91725000D01*
X104750500Y-91650500D01*
X104750500Y-85568321D01*
X104770462Y-85493821D01*
X104794141Y-85462962D01*
X105609067Y-84648036D01*
X106542938Y-83714164D01*
X106609731Y-83675602D01*
X106686859Y-83675602D01*
X106694300Y-83677806D01*
X106742299Y-83693402D01*
X106913389Y-83720500D01*
X106913393Y-83720500D01*
X107086607Y-83720500D01*
X107086611Y-83720500D01*
X107257701Y-83693402D01*
X107422445Y-83639873D01*
X107576788Y-83561232D01*
X107716928Y-83459414D01*
X107839414Y-83336928D01*
X107941232Y-83196788D01*
X108019873Y-83042445D01*
X108073402Y-82877701D01*
X108100500Y-82706611D01*
X108100500Y-82533389D01*
X108073402Y-82362299D01*
X108019873Y-82197555D01*
X107941232Y-82043212D01*
X107941230Y-82043210D01*
X107941228Y-82043205D01*
X107931620Y-82029982D01*
X107903979Y-81957977D01*
X107916043Y-81881799D01*
X107964580Y-81821858D01*
X108036585Y-81794217D01*
X108052162Y-81793400D01*
X108439200Y-81793400D01*
X108513700Y-81813362D01*
X108568238Y-81867900D01*
X108588200Y-81942400D01*
X108588200Y-81954293D01*
X108615119Y-82089625D01*
X108615120Y-82089629D01*
X108667924Y-82217109D01*
X108667927Y-82217115D01*
X108744583Y-82331838D01*
X108744586Y-82331842D01*
X108842158Y-82429414D01*
X108842161Y-82429416D01*
X108956884Y-82506072D01*
X108956886Y-82506073D01*
X108956889Y-82506075D01*
X108956891Y-82506076D01*
X108961151Y-82508353D01*
X109017446Y-82561075D01*
X109039838Y-82634881D01*
X109022327Y-82709995D01*
X108996277Y-82745121D01*
X106770538Y-84970861D01*
X106770535Y-84970865D01*
X106758440Y-84988966D01*
X106758432Y-84988978D01*
X106756423Y-84991986D01*
X106671987Y-85118353D01*
X106656429Y-85155914D01*
X106652217Y-85166081D01*
X106652216Y-85166084D01*
X106604105Y-85282234D01*
X106604104Y-85282236D01*
X106584796Y-85379309D01*
X106569500Y-85456208D01*
X106569500Y-101348792D01*
X106587673Y-101440158D01*
X106604105Y-101522766D01*
X106636150Y-101600127D01*
X106671987Y-101686647D01*
X106709173Y-101742299D01*
X106770536Y-101834136D01*
X109689064Y-104752664D01*
X109697221Y-104758114D01*
X109836553Y-104851213D01*
X109918493Y-104885153D01*
X110000434Y-104919095D01*
X110174408Y-104953700D01*
X110174409Y-104953700D01*
X110692382Y-104953700D01*
X110766882Y-104973662D01*
X110797741Y-104997341D01*
X112255959Y-106455558D01*
X112294523Y-106522353D01*
X112299600Y-106560917D01*
X112299600Y-108722992D01*
X112334204Y-108896964D01*
X112334205Y-108896966D01*
X112350451Y-108936189D01*
X112350457Y-108936201D01*
X112352541Y-108941232D01*
X112402087Y-109060847D01*
X112441606Y-109119991D01*
X112500636Y-109208336D01*
X114074964Y-110782664D01*
X114134040Y-110822136D01*
X114222453Y-110881213D01*
X114304393Y-110915153D01*
X114386334Y-110949095D01*
X114560308Y-110983700D01*
X115138691Y-110983700D01*
X115312666Y-110949094D01*
X115476547Y-110881213D01*
X115624035Y-110782664D01*
X115749464Y-110657235D01*
X115848013Y-110509747D01*
X115915894Y-110345866D01*
X115950500Y-110171891D01*
X115950500Y-109994509D01*
X115915894Y-109820534D01*
X115848013Y-109656653D01*
X115827422Y-109625837D01*
X115749466Y-109509168D01*
X115749462Y-109509163D01*
X115624036Y-109383737D01*
X115624031Y-109383733D01*
X115476549Y-109285187D01*
X115458090Y-109277542D01*
X115396901Y-109230590D01*
X115367385Y-109159333D01*
X115377452Y-109082864D01*
X115424404Y-109021675D01*
X115447463Y-109007125D01*
X115576788Y-108941232D01*
X115716928Y-108839414D01*
X115839414Y-108716928D01*
X115941232Y-108576788D01*
X116019873Y-108422445D01*
X116073402Y-108257701D01*
X116100500Y-108086611D01*
X116100500Y-107913389D01*
X116073402Y-107742299D01*
X116019873Y-107577555D01*
X115941232Y-107423212D01*
X115839414Y-107283072D01*
X115716928Y-107160586D01*
X115684256Y-107136848D01*
X115576793Y-107058771D01*
X115576790Y-107058769D01*
X115576788Y-107058768D01*
X115422445Y-106980127D01*
X115374821Y-106964653D01*
X115257700Y-106926597D01*
X115160086Y-106911137D01*
X115086611Y-106899500D01*
X114913389Y-106899500D01*
X114847037Y-106910009D01*
X114742299Y-106926597D01*
X114577561Y-106980125D01*
X114577555Y-106980127D01*
X114423212Y-107058768D01*
X114423210Y-107058769D01*
X114423203Y-107058773D01*
X114337180Y-107121273D01*
X114265175Y-107148914D01*
X114188996Y-107136848D01*
X114129057Y-107088310D01*
X114101416Y-107016305D01*
X114100600Y-107000730D01*
X114100600Y-106037513D01*
X114100599Y-106037505D01*
X114099797Y-106033473D01*
X114099958Y-106031002D01*
X114099882Y-106030223D01*
X114100010Y-106030210D01*
X114104839Y-105956510D01*
X114147687Y-105892379D01*
X114216860Y-105858264D01*
X114245933Y-105855400D01*
X116172579Y-105855400D01*
X116247079Y-105875362D01*
X116277938Y-105899041D01*
X119451159Y-109072262D01*
X119489723Y-109139057D01*
X119494800Y-109177621D01*
X119494800Y-109248293D01*
X119521719Y-109383625D01*
X119521720Y-109383629D01*
X119574524Y-109511109D01*
X119574527Y-109511115D01*
X119651183Y-109625838D01*
X119655833Y-109631504D01*
X119654402Y-109632677D01*
X119688022Y-109690909D01*
X119688022Y-109768037D01*
X119649458Y-109834832D01*
X119582663Y-109873396D01*
X119567408Y-109876638D01*
X119399570Y-109903221D01*
X119399559Y-109903224D01*
X119204884Y-109966478D01*
X119204875Y-109966482D01*
X119113685Y-110012945D01*
X119113685Y-110012946D01*
X119025775Y-110057738D01*
X119022487Y-110059414D01*
X118939788Y-110119499D01*
X118939787Y-110119500D01*
X118856887Y-110179728D01*
X118856879Y-110179735D01*
X118712131Y-110324484D01*
X116807831Y-112228784D01*
X116687514Y-112394387D01*
X116610955Y-112544644D01*
X116608271Y-112547624D01*
X116607233Y-112551500D01*
X116582623Y-112576109D01*
X116559346Y-112601962D01*
X116555531Y-112603201D01*
X116552695Y-112606038D01*
X116519085Y-112615043D01*
X116485993Y-112625796D01*
X116478195Y-112626000D01*
X116321606Y-112626000D01*
X116247106Y-112606038D01*
X116192568Y-112551500D01*
X116188846Y-112544645D01*
X116151933Y-112472200D01*
X116112287Y-112394390D01*
X116032071Y-112283981D01*
X115991971Y-112228787D01*
X115991964Y-112228779D01*
X115847220Y-112084035D01*
X115847212Y-112084028D01*
X115681612Y-111963714D01*
X115499224Y-111870782D01*
X115499220Y-111870780D01*
X115499219Y-111870780D01*
X115304534Y-111807523D01*
X115102352Y-111775500D01*
X114897648Y-111775500D01*
X114729163Y-111802185D01*
X114695465Y-111807523D01*
X114500787Y-111870778D01*
X114500781Y-111870780D01*
X114500778Y-111870781D01*
X114500774Y-111870783D01*
X114380015Y-111932312D01*
X114304573Y-111948347D01*
X114231220Y-111924512D01*
X114207013Y-111904910D01*
X110191394Y-107889291D01*
X106155614Y-103853511D01*
X106155611Y-103853509D01*
X106155607Y-103853506D01*
X106052890Y-103794202D01*
X106052887Y-103794201D01*
X106028673Y-103787713D01*
X105938309Y-103763500D01*
X101551874Y-103763500D01*
X101477374Y-103743538D01*
X101446515Y-103719859D01*
X101396545Y-103669889D01*
X101396542Y-103669886D01*
X101396538Y-103669883D01*
X101281815Y-103593227D01*
X101281809Y-103593224D01*
X101154329Y-103540420D01*
X101154325Y-103540419D01*
X101018993Y-103513500D01*
X100881007Y-103513500D01*
X100745674Y-103540419D01*
X100706518Y-103556638D01*
X100630050Y-103566704D01*
X100558793Y-103537188D01*
X100511841Y-103475997D01*
X100500500Y-103418979D01*
X100500500Y-101913389D01*
X101899500Y-101913389D01*
X101899500Y-102086611D01*
X101908419Y-102142922D01*
X101926597Y-102257700D01*
X101951143Y-102333242D01*
X101980127Y-102422445D01*
X102036656Y-102533389D01*
X102058771Y-102576793D01*
X102153087Y-102706607D01*
X102160586Y-102716928D01*
X102283072Y-102839414D01*
X102283075Y-102839416D01*
X102403946Y-102927235D01*
X102423212Y-102941232D01*
X102577555Y-103019873D01*
X102742299Y-103073402D01*
X102913389Y-103100500D01*
X102913393Y-103100500D01*
X103086607Y-103100500D01*
X103086611Y-103100500D01*
X103257701Y-103073402D01*
X103422445Y-103019873D01*
X103576788Y-102941232D01*
X103716928Y-102839414D01*
X103839414Y-102716928D01*
X103941232Y-102576788D01*
X104019873Y-102422445D01*
X104073402Y-102257701D01*
X104100500Y-102086611D01*
X104100500Y-101913389D01*
X104073402Y-101742299D01*
X104019873Y-101577555D01*
X103941232Y-101423212D01*
X103839414Y-101283072D01*
X103716928Y-101160586D01*
X103675477Y-101130470D01*
X103576793Y-101058771D01*
X103576790Y-101058769D01*
X103576788Y-101058768D01*
X103422445Y-100980127D01*
X103374821Y-100964653D01*
X103257700Y-100926597D01*
X103160086Y-100911137D01*
X103086611Y-100899500D01*
X102913389Y-100899500D01*
X102847037Y-100910009D01*
X102742299Y-100926597D01*
X102577561Y-100980125D01*
X102577555Y-100980127D01*
X102577549Y-100980129D01*
X102577549Y-100980130D01*
X102423206Y-101058771D01*
X102283075Y-101160583D01*
X102160583Y-101283075D01*
X102058771Y-101423206D01*
X101980130Y-101577549D01*
X101980125Y-101577561D01*
X101926597Y-101742299D01*
X101912053Y-101834134D01*
X101899500Y-101913389D01*
X100500500Y-101913389D01*
X100500500Y-64413389D01*
X101899500Y-64413389D01*
X101899500Y-64586611D01*
X101911137Y-64660086D01*
X101926597Y-64757700D01*
X101953148Y-64839414D01*
X101980127Y-64922445D01*
X102029770Y-65019874D01*
X102058771Y-65076793D01*
X102134892Y-65181563D01*
X102160586Y-65216928D01*
X102283072Y-65339414D01*
X102423212Y-65441232D01*
X102577555Y-65519873D01*
X102742299Y-65573402D01*
X102913389Y-65600500D01*
X102913393Y-65600500D01*
X103086607Y-65600500D01*
X103086611Y-65600500D01*
X103257701Y-65573402D01*
X103422445Y-65519873D01*
X103576788Y-65441232D01*
X103716928Y-65339414D01*
X103839414Y-65216928D01*
X103941232Y-65076788D01*
X104019873Y-64922445D01*
X104073402Y-64757701D01*
X104100500Y-64586611D01*
X104100500Y-64413389D01*
X104073402Y-64242299D01*
X104019873Y-64077555D01*
X103941232Y-63923212D01*
X103934097Y-63913392D01*
X103873353Y-63829785D01*
X103839414Y-63783072D01*
X103716928Y-63660586D01*
X103716924Y-63660583D01*
X103576793Y-63558771D01*
X103576790Y-63558769D01*
X103576788Y-63558768D01*
X103422445Y-63480127D01*
X103374821Y-63464653D01*
X103257700Y-63426597D01*
X103153682Y-63410123D01*
X103086611Y-63399500D01*
X102913389Y-63399500D01*
X102847037Y-63410009D01*
X102742299Y-63426597D01*
X102593334Y-63475000D01*
X102577555Y-63480127D01*
X102577549Y-63480129D01*
X102577549Y-63480130D01*
X102423206Y-63558771D01*
X102283075Y-63660583D01*
X102160583Y-63783075D01*
X102058771Y-63923206D01*
X101980130Y-64077549D01*
X101980125Y-64077561D01*
X101926597Y-64242299D01*
X101908228Y-64358282D01*
X101899500Y-64413389D01*
X100500500Y-64413389D01*
X100500500Y-63149000D01*
X100520462Y-63074500D01*
X100575000Y-63019962D01*
X100649500Y-63000000D01*
X106083941Y-63000000D01*
X106158441Y-63019962D01*
G37*
%TD.AperFunction*%
%TA.AperFunction,Conductor*%
G36*
X153576138Y-79614661D02*
G01*
X153585559Y-79613366D01*
X153612915Y-79624515D01*
X153641454Y-79632162D01*
X153648178Y-79638886D01*
X153656983Y-79642475D01*
X153675097Y-79665805D01*
X153695992Y-79686700D01*
X153698453Y-79695886D01*
X153704284Y-79703396D01*
X153708307Y-79732661D01*
X153715954Y-79761200D01*
X153713492Y-79770384D01*
X153714788Y-79779805D01*
X153703638Y-79807161D01*
X153695992Y-79835700D01*
X153685679Y-79851229D01*
X153665641Y-79877653D01*
X153665638Y-79877657D01*
X153610122Y-80018435D01*
X153599500Y-80106893D01*
X153599500Y-80499597D01*
X153579538Y-80574097D01*
X153555859Y-80604956D01*
X151598531Y-82562284D01*
X151478214Y-82727887D01*
X151478211Y-82727891D01*
X151445178Y-82792723D01*
X151445164Y-82792749D01*
X151444586Y-82793886D01*
X151385280Y-82910281D01*
X151385280Y-82910282D01*
X151380247Y-82925771D01*
X151380242Y-82925782D01*
X151325430Y-83094478D01*
X151325430Y-83094479D01*
X151322024Y-83104960D01*
X151322023Y-83104964D01*
X151322023Y-83104966D01*
X151290000Y-83307148D01*
X151290000Y-92488048D01*
X151290000Y-92692752D01*
X151322023Y-92894935D01*
X151337066Y-92941232D01*
X151362618Y-93019874D01*
X151385278Y-93089612D01*
X151385282Y-93089624D01*
X151386765Y-93092534D01*
X151428216Y-93173886D01*
X151478213Y-93272011D01*
X151598534Y-93437619D01*
X152740460Y-94579545D01*
X152779023Y-94646338D01*
X152784100Y-94684902D01*
X152784100Y-95872597D01*
X152764138Y-95947097D01*
X152740459Y-95977956D01*
X151517056Y-97201359D01*
X151450261Y-97239923D01*
X151411697Y-97245000D01*
X145667651Y-97245000D01*
X145462948Y-97245000D01*
X145285162Y-97273158D01*
X145260758Y-97277024D01*
X145066084Y-97340278D01*
X145066075Y-97340282D01*
X144974885Y-97386745D01*
X144974885Y-97386746D01*
X144886975Y-97431538D01*
X144883687Y-97433214D01*
X144883678Y-97433219D01*
X144856807Y-97452743D01*
X144784802Y-97480384D01*
X144769227Y-97481200D01*
X136273103Y-97481200D01*
X136198603Y-97461238D01*
X136167744Y-97437559D01*
X135123282Y-96393097D01*
X134068219Y-95338034D01*
X134068215Y-95338031D01*
X133902615Y-95217715D01*
X133805169Y-95168064D01*
X133747852Y-95116455D01*
X133724018Y-95043101D01*
X133740054Y-94967659D01*
X133757639Y-94940775D01*
X133761107Y-94936548D01*
X133761114Y-94936542D01*
X133837775Y-94821811D01*
X133890580Y-94694328D01*
X133917500Y-94558993D01*
X133917500Y-94421007D01*
X133890580Y-94285672D01*
X133837775Y-94158189D01*
X133833777Y-94152206D01*
X133761116Y-94043461D01*
X133761114Y-94043458D01*
X133663542Y-93945886D01*
X133663538Y-93945883D01*
X133548815Y-93869227D01*
X133548809Y-93869224D01*
X133421329Y-93816420D01*
X133421325Y-93816419D01*
X133285993Y-93789500D01*
X133148007Y-93789500D01*
X133012674Y-93816419D01*
X133012670Y-93816420D01*
X132885190Y-93869224D01*
X132885184Y-93869227D01*
X132770461Y-93945883D01*
X132770454Y-93945889D01*
X132720485Y-93995859D01*
X132653690Y-94034423D01*
X132615126Y-94039500D01*
X126574743Y-94039500D01*
X126507099Y-94023260D01*
X126422445Y-93980127D01*
X126374821Y-93964653D01*
X126257700Y-93926597D01*
X126160086Y-93911137D01*
X126086611Y-93899500D01*
X125913389Y-93899500D01*
X125847037Y-93910009D01*
X125742299Y-93926597D01*
X125577561Y-93980125D01*
X125577555Y-93980127D01*
X125577549Y-93980129D01*
X125577549Y-93980130D01*
X125423206Y-94058771D01*
X125283075Y-94160583D01*
X125160583Y-94283075D01*
X125058771Y-94423206D01*
X124980130Y-94577549D01*
X124980125Y-94577561D01*
X124926597Y-94742299D01*
X124914004Y-94821815D01*
X124899500Y-94913389D01*
X124899500Y-95086611D01*
X124911137Y-95160086D01*
X124926597Y-95257700D01*
X124952699Y-95338031D01*
X124980127Y-95422445D01*
X125058275Y-95575819D01*
X125058771Y-95576793D01*
X125104339Y-95639511D01*
X125160586Y-95716928D01*
X125283072Y-95839414D01*
X125283075Y-95839416D01*
X125413691Y-95934315D01*
X125423212Y-95941232D01*
X125577555Y-96019873D01*
X125742299Y-96073402D01*
X125913389Y-96100500D01*
X125913393Y-96100500D01*
X126086607Y-96100500D01*
X126086611Y-96100500D01*
X126257701Y-96073402D01*
X126422445Y-96019873D01*
X126576788Y-95941232D01*
X126716928Y-95839414D01*
X126839414Y-95716928D01*
X126941232Y-95576788D01*
X127019873Y-95422445D01*
X127073402Y-95257701D01*
X127100500Y-95086611D01*
X127100500Y-95086606D01*
X127100501Y-95086600D01*
X127100960Y-95080771D01*
X127102800Y-95080915D01*
X127120462Y-95015000D01*
X127175000Y-94960462D01*
X127249500Y-94940500D01*
X128744795Y-94940500D01*
X128819295Y-94960462D01*
X128873833Y-95015000D01*
X128893795Y-95089500D01*
X128892802Y-95106670D01*
X128889500Y-95135133D01*
X128889500Y-97524866D01*
X128892414Y-97549989D01*
X128892415Y-97549992D01*
X128937793Y-97652764D01*
X128937794Y-97652765D01*
X129017235Y-97732206D01*
X129120009Y-97777585D01*
X129145135Y-97780500D01*
X131534864Y-97780499D01*
X131534866Y-97780499D01*
X131547427Y-97779042D01*
X131559991Y-97777585D01*
X131662765Y-97732206D01*
X131720830Y-97674141D01*
X131787625Y-97635577D01*
X131826189Y-97630500D01*
X132620597Y-97630500D01*
X132695097Y-97650462D01*
X132725956Y-97674141D01*
X133484688Y-98432873D01*
X133523252Y-98499668D01*
X133523252Y-98576796D01*
X133484688Y-98643591D01*
X133449563Y-98669641D01*
X133445281Y-98671929D01*
X133330561Y-98748583D01*
X133330554Y-98748589D01*
X133232989Y-98846154D01*
X133232983Y-98846161D01*
X133156327Y-98960884D01*
X133156324Y-98960890D01*
X133103520Y-99088370D01*
X133103519Y-99088374D01*
X133076600Y-99223706D01*
X133076600Y-99294377D01*
X133056638Y-99368877D01*
X133032959Y-99399736D01*
X127093311Y-105339383D01*
X127026516Y-105377947D01*
X126949388Y-105377947D01*
X126882593Y-105339383D01*
X126867416Y-105321613D01*
X126839414Y-105283072D01*
X126716928Y-105160586D01*
X126696541Y-105145774D01*
X126576793Y-105058771D01*
X126576790Y-105058769D01*
X126576788Y-105058768D01*
X126422445Y-104980127D01*
X126345750Y-104955207D01*
X126257700Y-104926597D01*
X126160086Y-104911137D01*
X126086611Y-104899500D01*
X125913389Y-104899500D01*
X125847037Y-104910009D01*
X125742299Y-104926597D01*
X125577561Y-104980125D01*
X125577555Y-104980127D01*
X125577549Y-104980129D01*
X125577549Y-104980130D01*
X125423206Y-105058771D01*
X125283075Y-105160583D01*
X125160583Y-105283075D01*
X125058771Y-105423206D01*
X124980130Y-105577549D01*
X124980125Y-105577561D01*
X124926597Y-105742299D01*
X124908685Y-105855400D01*
X124899500Y-105913389D01*
X124899500Y-106086611D01*
X124911137Y-106160086D01*
X124926597Y-106257700D01*
X124942181Y-106305659D01*
X124946218Y-106382681D01*
X124911203Y-106451403D01*
X124905833Y-106457062D01*
X123857038Y-107505859D01*
X123840050Y-107515666D01*
X123826179Y-107529538D01*
X123807230Y-107534615D01*
X123790243Y-107544423D01*
X123751679Y-107549500D01*
X123716886Y-107549500D01*
X123642386Y-107529538D01*
X123587848Y-107475000D01*
X123584125Y-107468143D01*
X123561231Y-107423211D01*
X123561227Y-107423206D01*
X123459414Y-107283072D01*
X123336928Y-107160586D01*
X123304256Y-107136848D01*
X123196793Y-107058771D01*
X123196790Y-107058769D01*
X123196788Y-107058768D01*
X123042445Y-106980127D01*
X122994821Y-106964653D01*
X122877700Y-106926597D01*
X122780086Y-106911137D01*
X122706611Y-106899500D01*
X122533389Y-106899500D01*
X122467037Y-106910009D01*
X122362299Y-106926597D01*
X122197561Y-106980125D01*
X122197555Y-106980127D01*
X122197549Y-106980129D01*
X122197549Y-106980130D01*
X122043206Y-107058771D01*
X121903075Y-107160583D01*
X121780583Y-107283075D01*
X121678771Y-107423206D01*
X121600130Y-107577549D01*
X121600125Y-107577561D01*
X121546597Y-107742299D01*
X121532037Y-107834231D01*
X121519500Y-107913389D01*
X121519500Y-108086611D01*
X121531137Y-108160086D01*
X121546597Y-108257700D01*
X121570681Y-108331821D01*
X121600127Y-108422445D01*
X121669463Y-108558524D01*
X121678771Y-108576793D01*
X121721199Y-108635189D01*
X121780586Y-108716928D01*
X121903072Y-108839414D01*
X121914186Y-108847489D01*
X122036270Y-108936189D01*
X122043212Y-108941232D01*
X122197555Y-109019873D01*
X122362299Y-109073402D01*
X122533389Y-109100500D01*
X122533393Y-109100500D01*
X122706607Y-109100500D01*
X122706611Y-109100500D01*
X122877701Y-109073402D01*
X123042445Y-109019873D01*
X123196788Y-108941232D01*
X123336928Y-108839414D01*
X123459414Y-108716928D01*
X123561232Y-108576788D01*
X123584125Y-108531856D01*
X123635733Y-108474539D01*
X123709086Y-108450704D01*
X123716886Y-108450500D01*
X124059306Y-108450500D01*
X124059309Y-108450500D01*
X124149673Y-108426286D01*
X124173887Y-108419799D01*
X124276614Y-108360489D01*
X125542937Y-107094164D01*
X125609730Y-107055602D01*
X125686858Y-107055602D01*
X125694323Y-107057813D01*
X125742299Y-107073402D01*
X125913389Y-107100500D01*
X125913393Y-107100500D01*
X126086607Y-107100500D01*
X126086611Y-107100500D01*
X126257701Y-107073402D01*
X126422445Y-107019873D01*
X126576788Y-106941232D01*
X126716928Y-106839414D01*
X126839414Y-106716928D01*
X126941232Y-106576788D01*
X126964125Y-106531856D01*
X127015733Y-106474539D01*
X127070239Y-106452902D01*
X127083454Y-106450500D01*
X127129109Y-106450500D01*
X127219473Y-106426286D01*
X127243687Y-106419799D01*
X127346414Y-106360489D01*
X133670063Y-100036841D01*
X133736858Y-99998277D01*
X133775422Y-99993200D01*
X133846093Y-99993200D01*
X133981428Y-99966280D01*
X134108911Y-99913475D01*
X134223642Y-99836814D01*
X134321214Y-99739242D01*
X134397875Y-99624511D01*
X134397879Y-99624500D01*
X134400151Y-99620251D01*
X134452867Y-99563950D01*
X134526671Y-99541550D01*
X134601786Y-99559054D01*
X134636926Y-99585111D01*
X134825479Y-99773664D01*
X134825487Y-99773671D01*
X134991087Y-99893985D01*
X134991090Y-99893987D01*
X135173481Y-99986920D01*
X135368166Y-100050177D01*
X135570348Y-100082200D01*
X135570353Y-100082200D01*
X145431447Y-100082200D01*
X145431452Y-100082200D01*
X145633635Y-100050177D01*
X145730976Y-100018548D01*
X145828319Y-99986920D01*
X145972463Y-99913475D01*
X146010711Y-99893987D01*
X146037595Y-99874454D01*
X146109600Y-99846816D01*
X146125173Y-99846000D01*
X151674597Y-99846000D01*
X151749097Y-99865962D01*
X151803635Y-99920500D01*
X151823597Y-99995000D01*
X151803635Y-100069500D01*
X151779956Y-100100359D01*
X144318630Y-107561685D01*
X144205302Y-107717667D01*
X144145362Y-107766205D01*
X144069183Y-107778270D01*
X144030098Y-107768697D01*
X143881566Y-107710123D01*
X143881563Y-107710122D01*
X143793105Y-107699500D01*
X143793102Y-107699500D01*
X143600403Y-107699500D01*
X143525903Y-107679538D01*
X143495044Y-107655859D01*
X142556109Y-106716924D01*
X141337219Y-105498034D01*
X141171611Y-105377713D01*
X141096384Y-105339383D01*
X141076682Y-105329344D01*
X141076675Y-105329341D01*
X141070942Y-105326420D01*
X140989219Y-105284780D01*
X140880395Y-105249421D01*
X140875372Y-105247789D01*
X140875365Y-105247786D01*
X140794535Y-105221523D01*
X140592352Y-105189500D01*
X140592347Y-105189500D01*
X131018398Y-105189500D01*
X130950754Y-105173260D01*
X130896809Y-105145774D01*
X130896808Y-105145773D01*
X130896799Y-105145769D01*
X130679660Y-105075216D01*
X130454157Y-105039500D01*
X130225843Y-105039500D01*
X130000340Y-105075216D01*
X129783201Y-105145769D01*
X129783195Y-105145771D01*
X129783195Y-105145772D01*
X129579773Y-105249420D01*
X129395066Y-105383618D01*
X129233618Y-105545066D01*
X129099420Y-105729773D01*
X128995769Y-105933201D01*
X128995768Y-105933201D01*
X128977056Y-105990792D01*
X128940708Y-106050106D01*
X125163256Y-109827559D01*
X125096461Y-109866123D01*
X125057897Y-109871200D01*
X120853088Y-109871200D01*
X120778588Y-109851238D01*
X120724050Y-109796700D01*
X120704088Y-109722200D01*
X120724050Y-109647700D01*
X120737905Y-109627680D01*
X120739402Y-109625853D01*
X120739414Y-109625842D01*
X120816075Y-109511111D01*
X120868880Y-109383628D01*
X120895800Y-109248293D01*
X120895800Y-109110307D01*
X120868880Y-108974972D01*
X120816075Y-108847489D01*
X120810679Y-108839414D01*
X120739416Y-108732761D01*
X120739414Y-108732758D01*
X120641842Y-108635186D01*
X120641838Y-108635183D01*
X120527115Y-108558527D01*
X120527109Y-108558524D01*
X120399629Y-108505720D01*
X120399625Y-108505719D01*
X120264293Y-108478800D01*
X120193622Y-108478800D01*
X120119122Y-108458838D01*
X120088263Y-108435159D01*
X119308963Y-107655859D01*
X116697514Y-105044411D01*
X116697511Y-105044409D01*
X116697507Y-105044406D01*
X116594790Y-104985102D01*
X116594787Y-104985101D01*
X116570573Y-104978613D01*
X116480209Y-104954400D01*
X116341121Y-104954400D01*
X116332797Y-104953461D01*
X116304432Y-104942324D01*
X116275000Y-104934438D01*
X116268957Y-104928395D01*
X116261004Y-104925273D01*
X116242008Y-104901446D01*
X116220462Y-104879900D01*
X116218250Y-104871646D01*
X116212924Y-104864965D01*
X116208386Y-104834833D01*
X116200500Y-104805400D01*
X116200499Y-103055133D01*
X116197585Y-103030010D01*
X116197584Y-103030008D01*
X116152206Y-102927235D01*
X116072765Y-102847794D01*
X116072764Y-102847793D01*
X115969994Y-102802416D01*
X115969991Y-102802415D01*
X115969982Y-102802414D01*
X115944865Y-102799500D01*
X115944859Y-102799500D01*
X114055133Y-102799500D01*
X114030010Y-102802414D01*
X114030007Y-102802415D01*
X113927235Y-102847793D01*
X113847793Y-102927235D01*
X113802416Y-103030005D01*
X113802415Y-103030008D01*
X113802415Y-103030009D01*
X113799500Y-103055135D01*
X113799500Y-103055136D01*
X113799500Y-103055140D01*
X113799500Y-104241478D01*
X113779538Y-104315978D01*
X113725000Y-104370516D01*
X113650500Y-104390478D01*
X113576000Y-104370516D01*
X113545141Y-104346837D01*
X112982941Y-103784637D01*
X112944377Y-103717842D01*
X112939300Y-103679278D01*
X112939300Y-102488574D01*
X112959262Y-102414074D01*
X112982941Y-102383215D01*
X113003857Y-102362299D01*
X113032914Y-102333242D01*
X113109575Y-102218511D01*
X113162380Y-102091028D01*
X113189300Y-101955693D01*
X113189300Y-101817707D01*
X113162380Y-101682372D01*
X113109575Y-101554889D01*
X113104034Y-101546597D01*
X113032916Y-101440161D01*
X113032914Y-101440158D01*
X112935342Y-101342586D01*
X112933250Y-101341188D01*
X112820615Y-101265927D01*
X112820609Y-101265924D01*
X112693129Y-101213120D01*
X112693125Y-101213119D01*
X112557793Y-101186200D01*
X112419807Y-101186200D01*
X112284474Y-101213119D01*
X112284470Y-101213120D01*
X112156990Y-101265924D01*
X112156984Y-101265927D01*
X112042261Y-101342583D01*
X112042254Y-101342589D01*
X111944689Y-101440154D01*
X111944683Y-101440161D01*
X111868027Y-101554884D01*
X111868024Y-101554890D01*
X111815220Y-101682370D01*
X111815219Y-101682374D01*
X111788300Y-101817706D01*
X111788300Y-101955693D01*
X111815219Y-102091025D01*
X111815220Y-102091029D01*
X111868024Y-102218509D01*
X111868027Y-102218515D01*
X111944683Y-102333238D01*
X111944689Y-102333245D01*
X111994659Y-102383215D01*
X112033223Y-102450010D01*
X112038300Y-102488574D01*
X112038300Y-103331083D01*
X112018338Y-103405583D01*
X111963800Y-103460121D01*
X111889300Y-103480083D01*
X111814800Y-103460121D01*
X111783941Y-103436442D01*
X111701236Y-103353737D01*
X111701231Y-103353733D01*
X111553748Y-103255187D01*
X111553746Y-103255186D01*
X111389867Y-103187306D01*
X111389863Y-103187305D01*
X111215891Y-103152700D01*
X110697818Y-103152700D01*
X110623318Y-103132738D01*
X110592459Y-103109059D01*
X108414141Y-100930741D01*
X108375577Y-100863946D01*
X108370500Y-100825382D01*
X108370500Y-99913389D01*
X113899500Y-99913389D01*
X113899500Y-100086611D01*
X113904541Y-100118436D01*
X113926597Y-100257700D01*
X113937095Y-100290008D01*
X113980127Y-100422445D01*
X113981561Y-100425258D01*
X114058771Y-100576793D01*
X114144992Y-100695465D01*
X114160586Y-100716928D01*
X114283072Y-100839414D01*
X114283075Y-100839416D01*
X114403068Y-100926597D01*
X114423212Y-100941232D01*
X114577555Y-101019873D01*
X114742299Y-101073402D01*
X114913389Y-101100500D01*
X114913393Y-101100500D01*
X115086607Y-101100500D01*
X115086611Y-101100500D01*
X115257701Y-101073402D01*
X115422445Y-101019873D01*
X115576788Y-100941232D01*
X115716928Y-100839414D01*
X115839414Y-100716928D01*
X115941232Y-100576788D01*
X116019873Y-100422445D01*
X116073402Y-100257701D01*
X116100500Y-100086611D01*
X116100500Y-99913389D01*
X116073402Y-99742299D01*
X116019873Y-99577555D01*
X115941232Y-99423212D01*
X115935375Y-99415151D01*
X115873353Y-99329785D01*
X115839414Y-99283072D01*
X115716928Y-99160586D01*
X115716924Y-99160583D01*
X115576793Y-99058771D01*
X115576790Y-99058769D01*
X115576788Y-99058768D01*
X115422445Y-98980127D01*
X115363222Y-98960884D01*
X115257700Y-98926597D01*
X115160086Y-98911137D01*
X115086611Y-98899500D01*
X114913389Y-98899500D01*
X114847037Y-98910009D01*
X114742299Y-98926597D01*
X114577561Y-98980125D01*
X114577555Y-98980127D01*
X114577549Y-98980129D01*
X114577549Y-98980130D01*
X114423206Y-99058771D01*
X114283075Y-99160583D01*
X114160583Y-99283075D01*
X114058771Y-99423206D01*
X113980130Y-99577549D01*
X113980125Y-99577561D01*
X113926597Y-99742299D01*
X113910173Y-99846000D01*
X113899500Y-99913389D01*
X108370500Y-99913389D01*
X108370500Y-95055135D01*
X113799500Y-95055135D01*
X113799500Y-95055136D01*
X113799500Y-95055140D01*
X113799500Y-96944866D01*
X113802414Y-96969989D01*
X113802415Y-96969992D01*
X113847793Y-97072764D01*
X113847794Y-97072765D01*
X113927235Y-97152206D01*
X114030009Y-97197585D01*
X114055135Y-97200500D01*
X115944864Y-97200499D01*
X115944866Y-97200499D01*
X115957427Y-97199042D01*
X115969991Y-97197585D01*
X116072765Y-97152206D01*
X116152206Y-97072765D01*
X116197585Y-96969991D01*
X116200500Y-96944865D01*
X116200499Y-96845618D01*
X116220460Y-96771121D01*
X116274998Y-96716583D01*
X116349498Y-96696620D01*
X116423998Y-96716581D01*
X116454857Y-96740260D01*
X122695086Y-102980490D01*
X122797813Y-103039799D01*
X122822017Y-103046283D01*
X122822024Y-103046287D01*
X122822025Y-103046286D01*
X122846239Y-103052774D01*
X122912391Y-103070500D01*
X124903114Y-103070500D01*
X124977614Y-103090462D01*
X125032152Y-103145000D01*
X125035872Y-103151852D01*
X125058768Y-103196788D01*
X125160586Y-103336928D01*
X125283072Y-103459414D01*
X125310257Y-103479165D01*
X125416888Y-103556638D01*
X125423212Y-103561232D01*
X125577555Y-103639873D01*
X125742299Y-103693402D01*
X125913389Y-103720500D01*
X125913393Y-103720500D01*
X126086607Y-103720500D01*
X126086611Y-103720500D01*
X126257701Y-103693402D01*
X126422445Y-103639873D01*
X126576788Y-103561232D01*
X126716928Y-103459414D01*
X126839414Y-103336928D01*
X126941232Y-103196788D01*
X127019873Y-103042445D01*
X127073402Y-102877701D01*
X127100500Y-102706611D01*
X127100500Y-102533389D01*
X127073402Y-102362299D01*
X127019873Y-102197555D01*
X126941232Y-102043212D01*
X126926068Y-102022341D01*
X126839416Y-101903075D01*
X126839414Y-101903072D01*
X126716928Y-101780586D01*
X126664231Y-101742299D01*
X126576793Y-101678771D01*
X126576790Y-101678769D01*
X126576788Y-101678768D01*
X126422445Y-101600127D01*
X126352958Y-101577549D01*
X126257700Y-101546597D01*
X126160086Y-101531137D01*
X126086611Y-101519500D01*
X125913389Y-101519500D01*
X125847037Y-101530009D01*
X125742299Y-101546597D01*
X125595439Y-101594316D01*
X125577555Y-101600127D01*
X125577549Y-101600129D01*
X125577549Y-101600130D01*
X125423206Y-101678771D01*
X125283075Y-101780583D01*
X125160583Y-101903075D01*
X125058768Y-102043211D01*
X125041081Y-102077924D01*
X125036656Y-102086611D01*
X125035875Y-102088143D01*
X124984267Y-102145461D01*
X124910914Y-102169296D01*
X124903114Y-102169500D01*
X123220022Y-102169500D01*
X123145522Y-102149538D01*
X123114663Y-102125859D01*
X122329992Y-101341188D01*
X122291428Y-101274393D01*
X122291428Y-101197265D01*
X122329992Y-101130470D01*
X122396787Y-101091906D01*
X122458659Y-101088664D01*
X122479129Y-101091906D01*
X122533388Y-101100500D01*
X122533389Y-101100500D01*
X122706607Y-101100500D01*
X122706611Y-101100500D01*
X122877701Y-101073402D01*
X123042445Y-101019873D01*
X123196788Y-100941232D01*
X123336928Y-100839414D01*
X123459414Y-100716928D01*
X123561232Y-100576788D01*
X123639873Y-100422445D01*
X123693402Y-100257701D01*
X123720500Y-100086611D01*
X123720500Y-99913389D01*
X123693402Y-99742299D01*
X123639873Y-99577555D01*
X123561232Y-99423212D01*
X123555375Y-99415151D01*
X123493353Y-99329785D01*
X123459414Y-99283072D01*
X123336928Y-99160586D01*
X123336924Y-99160583D01*
X123196793Y-99058771D01*
X123196790Y-99058769D01*
X123196788Y-99058768D01*
X123042445Y-98980127D01*
X122983222Y-98960884D01*
X122877700Y-98926597D01*
X122780086Y-98911137D01*
X122706611Y-98899500D01*
X122533389Y-98899500D01*
X122467037Y-98910009D01*
X122362299Y-98926597D01*
X122197561Y-98980125D01*
X122197555Y-98980127D01*
X122197549Y-98980129D01*
X122197549Y-98980130D01*
X122043206Y-99058771D01*
X121903075Y-99160583D01*
X121780583Y-99283075D01*
X121678771Y-99423206D01*
X121600130Y-99577549D01*
X121600125Y-99577561D01*
X121546597Y-99742299D01*
X121530173Y-99846000D01*
X121519500Y-99913389D01*
X121519500Y-100086611D01*
X121524541Y-100118436D01*
X121531336Y-100161341D01*
X121523273Y-100238047D01*
X121477938Y-100300445D01*
X121407478Y-100331815D01*
X121330772Y-100323752D01*
X121278813Y-100290009D01*
X116628314Y-95639511D01*
X116628311Y-95639509D01*
X116628307Y-95639506D01*
X116525590Y-95580202D01*
X116525587Y-95580201D01*
X116501373Y-95573713D01*
X116411009Y-95549500D01*
X116338110Y-95549500D01*
X116326849Y-95547768D01*
X116301623Y-95536671D01*
X116274999Y-95529538D01*
X116266826Y-95521365D01*
X116256249Y-95516713D01*
X116239950Y-95494489D01*
X116220461Y-95475000D01*
X116217469Y-95463835D01*
X116210636Y-95454518D01*
X116207632Y-95427124D01*
X116200499Y-95400500D01*
X116200499Y-95055133D01*
X116197585Y-95030010D01*
X116197584Y-95030008D01*
X116152206Y-94927235D01*
X116072765Y-94847794D01*
X116072764Y-94847793D01*
X115969994Y-94802416D01*
X115969991Y-94802415D01*
X115969982Y-94802414D01*
X115944865Y-94799500D01*
X115944859Y-94799500D01*
X114055133Y-94799500D01*
X114030010Y-94802414D01*
X114030007Y-94802415D01*
X113927235Y-94847793D01*
X113847793Y-94927235D01*
X113802416Y-95030005D01*
X113802415Y-95030008D01*
X113802415Y-95030009D01*
X113799500Y-95055135D01*
X108370500Y-95055135D01*
X108370500Y-85979618D01*
X108390462Y-85905118D01*
X108414141Y-85874259D01*
X109707159Y-84581241D01*
X111289864Y-82998536D01*
X111348834Y-82910281D01*
X111388413Y-82851047D01*
X111423432Y-82766503D01*
X111429081Y-82752864D01*
X111431954Y-82747302D01*
X111440656Y-82737743D01*
X111458977Y-82710321D01*
X111545143Y-82624155D01*
X111611936Y-82585593D01*
X111689064Y-82585593D01*
X111755859Y-82624157D01*
X111794423Y-82690952D01*
X111799500Y-82729516D01*
X111799500Y-83944866D01*
X111802414Y-83969989D01*
X111802415Y-83969992D01*
X111847793Y-84072764D01*
X111847794Y-84072765D01*
X111927235Y-84152206D01*
X112030009Y-84197585D01*
X112055135Y-84200500D01*
X112400501Y-84200499D01*
X112475000Y-84220461D01*
X112529538Y-84274999D01*
X112549500Y-84349499D01*
X112549500Y-88548810D01*
X112572377Y-88634186D01*
X112580202Y-88663391D01*
X112639506Y-88766107D01*
X112639509Y-88766111D01*
X112639511Y-88766114D01*
X113650632Y-89777235D01*
X114615359Y-90741962D01*
X114653923Y-90808757D01*
X114653923Y-90885885D01*
X114615359Y-90952680D01*
X114577645Y-90980081D01*
X114423206Y-91058771D01*
X114283075Y-91160583D01*
X114160583Y-91283075D01*
X114058771Y-91423206D01*
X113980130Y-91577549D01*
X113980125Y-91577561D01*
X113926597Y-91742299D01*
X113917076Y-91802416D01*
X113899500Y-91913389D01*
X113899500Y-92086611D01*
X113905718Y-92125870D01*
X113926597Y-92257700D01*
X113945945Y-92317245D01*
X113980127Y-92422445D01*
X114013554Y-92488048D01*
X114058771Y-92576793D01*
X114079162Y-92604858D01*
X114160586Y-92716928D01*
X114283072Y-92839414D01*
X114423212Y-92941232D01*
X114577555Y-93019873D01*
X114742299Y-93073402D01*
X114913389Y-93100500D01*
X114913393Y-93100500D01*
X115086607Y-93100500D01*
X115086611Y-93100500D01*
X115257701Y-93073402D01*
X115422445Y-93019873D01*
X115576788Y-92941232D01*
X115716928Y-92839414D01*
X115839414Y-92716928D01*
X115941232Y-92576788D01*
X116019873Y-92422445D01*
X116073402Y-92257701D01*
X116100500Y-92086611D01*
X116100500Y-91913389D01*
X116073402Y-91742299D01*
X116019873Y-91577555D01*
X115941232Y-91423212D01*
X115941230Y-91423210D01*
X115941228Y-91423205D01*
X115924427Y-91400082D01*
X115896785Y-91328077D01*
X115908850Y-91251899D01*
X115957387Y-91191958D01*
X116029392Y-91164316D01*
X116044969Y-91163500D01*
X121575031Y-91163500D01*
X121649531Y-91183462D01*
X121704069Y-91238000D01*
X121724031Y-91312500D01*
X121704069Y-91387000D01*
X121695573Y-91400082D01*
X121678771Y-91423205D01*
X121600130Y-91577549D01*
X121600125Y-91577561D01*
X121546597Y-91742299D01*
X121537076Y-91802416D01*
X121519500Y-91913389D01*
X121519500Y-92086611D01*
X121525718Y-92125870D01*
X121546597Y-92257700D01*
X121565945Y-92317245D01*
X121600127Y-92422445D01*
X121633554Y-92488048D01*
X121678771Y-92576793D01*
X121699162Y-92604858D01*
X121780586Y-92716928D01*
X121903072Y-92839414D01*
X122043212Y-92941232D01*
X122197555Y-93019873D01*
X122362299Y-93073402D01*
X122533389Y-93100500D01*
X122533393Y-93100500D01*
X122706607Y-93100500D01*
X122706611Y-93100500D01*
X122877701Y-93073402D01*
X123042445Y-93019873D01*
X123196788Y-92941232D01*
X123336928Y-92839414D01*
X123459414Y-92716928D01*
X123561232Y-92576788D01*
X123639873Y-92422445D01*
X123693402Y-92257701D01*
X123720500Y-92086611D01*
X123720500Y-91913389D01*
X123693402Y-91742299D01*
X123639873Y-91577555D01*
X123561232Y-91423212D01*
X123561230Y-91423210D01*
X123561228Y-91423205D01*
X123544427Y-91400082D01*
X123516785Y-91328077D01*
X123528850Y-91251899D01*
X123577387Y-91191958D01*
X123649392Y-91164316D01*
X123664969Y-91163500D01*
X124464679Y-91163500D01*
X124539179Y-91183462D01*
X124570038Y-91207141D01*
X124905833Y-91542936D01*
X124944397Y-91609731D01*
X124944397Y-91686859D01*
X124942186Y-91694321D01*
X124937802Y-91707817D01*
X124926597Y-91742303D01*
X124917076Y-91802416D01*
X124899500Y-91913389D01*
X124899500Y-92086611D01*
X124905718Y-92125870D01*
X124926597Y-92257700D01*
X124945945Y-92317245D01*
X124980127Y-92422445D01*
X125013554Y-92488048D01*
X125058771Y-92576793D01*
X125079162Y-92604858D01*
X125160586Y-92716928D01*
X125283072Y-92839414D01*
X125423212Y-92941232D01*
X125577555Y-93019873D01*
X125742299Y-93073402D01*
X125913389Y-93100500D01*
X125913393Y-93100500D01*
X126086607Y-93100500D01*
X126086611Y-93100500D01*
X126257701Y-93073402D01*
X126422445Y-93019873D01*
X126576788Y-92941232D01*
X126716928Y-92839414D01*
X126839414Y-92716928D01*
X126941232Y-92576788D01*
X127019873Y-92422445D01*
X127073402Y-92257701D01*
X127100500Y-92086611D01*
X127100500Y-91913389D01*
X132519500Y-91913389D01*
X132519500Y-92086611D01*
X132525718Y-92125870D01*
X132546597Y-92257700D01*
X132565945Y-92317245D01*
X132600127Y-92422445D01*
X132633554Y-92488048D01*
X132678771Y-92576793D01*
X132699162Y-92604858D01*
X132780586Y-92716928D01*
X132903072Y-92839414D01*
X133043212Y-92941232D01*
X133197555Y-93019873D01*
X133362299Y-93073402D01*
X133533389Y-93100500D01*
X133533393Y-93100500D01*
X133706607Y-93100500D01*
X133706611Y-93100500D01*
X133877701Y-93073402D01*
X134042445Y-93019873D01*
X134196788Y-92941232D01*
X134336928Y-92839414D01*
X134459414Y-92716928D01*
X134561232Y-92576788D01*
X134639873Y-92422445D01*
X134693402Y-92257701D01*
X134720500Y-92086611D01*
X134720500Y-91913389D01*
X134693402Y-91742299D01*
X134639873Y-91577555D01*
X134561232Y-91423212D01*
X134534922Y-91387000D01*
X134459416Y-91283075D01*
X134459414Y-91283072D01*
X134336928Y-91160586D01*
X134336924Y-91160583D01*
X134196793Y-91058771D01*
X134196790Y-91058769D01*
X134196788Y-91058768D01*
X134042445Y-90980127D01*
X133994821Y-90964653D01*
X133877700Y-90926597D01*
X133780086Y-90911137D01*
X133706611Y-90899500D01*
X133533389Y-90899500D01*
X133467037Y-90910009D01*
X133362299Y-90926597D01*
X133197561Y-90980125D01*
X133197555Y-90980127D01*
X133197549Y-90980129D01*
X133197549Y-90980130D01*
X133043206Y-91058771D01*
X132903075Y-91160583D01*
X132780583Y-91283075D01*
X132678771Y-91423206D01*
X132600130Y-91577549D01*
X132600125Y-91577561D01*
X132546597Y-91742299D01*
X132537076Y-91802416D01*
X132519500Y-91913389D01*
X127100500Y-91913389D01*
X127073402Y-91742299D01*
X127019873Y-91577555D01*
X126941232Y-91423212D01*
X126914922Y-91387000D01*
X126839416Y-91283075D01*
X126839414Y-91283072D01*
X126716928Y-91160586D01*
X126716924Y-91160583D01*
X126576793Y-91058771D01*
X126576790Y-91058769D01*
X126576788Y-91058768D01*
X126422445Y-90980127D01*
X126374821Y-90964653D01*
X126257700Y-90926597D01*
X126160086Y-90911137D01*
X126086611Y-90899500D01*
X125913389Y-90899500D01*
X125805001Y-90916666D01*
X125742303Y-90926597D01*
X125742300Y-90926597D01*
X125742299Y-90926598D01*
X125694336Y-90942182D01*
X125617315Y-90946218D01*
X125548594Y-90911202D01*
X125542936Y-90905833D01*
X125320859Y-90683756D01*
X124989614Y-90352511D01*
X124989611Y-90352509D01*
X124989607Y-90352506D01*
X124886890Y-90293202D01*
X124886887Y-90293201D01*
X124862673Y-90286713D01*
X124772309Y-90262500D01*
X116378121Y-90262500D01*
X116303621Y-90242538D01*
X116249083Y-90188000D01*
X116229121Y-90113500D01*
X116249083Y-90039000D01*
X116272762Y-90008141D01*
X119138462Y-87142441D01*
X119205257Y-87103877D01*
X119243821Y-87098800D01*
X125002039Y-87098800D01*
X125076539Y-87118762D01*
X125131077Y-87173300D01*
X125151039Y-87247800D01*
X125131077Y-87322300D01*
X125122589Y-87335370D01*
X125098275Y-87368834D01*
X125058771Y-87423206D01*
X124980130Y-87577549D01*
X124980125Y-87577561D01*
X124926597Y-87742299D01*
X124919694Y-87785887D01*
X124899500Y-87913389D01*
X124899500Y-88086611D01*
X124911137Y-88160086D01*
X124926597Y-88257700D01*
X124941283Y-88302897D01*
X124980127Y-88422445D01*
X125044513Y-88548809D01*
X125058771Y-88576793D01*
X125160583Y-88716924D01*
X125160586Y-88716928D01*
X125283072Y-88839414D01*
X125423212Y-88941232D01*
X125577555Y-89019873D01*
X125742299Y-89073402D01*
X125913389Y-89100500D01*
X125913393Y-89100500D01*
X126086607Y-89100500D01*
X126086611Y-89100500D01*
X126257701Y-89073402D01*
X126422445Y-89019873D01*
X126576788Y-88941232D01*
X126716928Y-88839414D01*
X126839414Y-88716928D01*
X126941232Y-88576788D01*
X127019873Y-88422445D01*
X127073402Y-88257701D01*
X127100500Y-88086611D01*
X127100500Y-87913389D01*
X127073402Y-87742299D01*
X127019873Y-87577555D01*
X126941232Y-87423212D01*
X126877417Y-87335378D01*
X126849777Y-87263376D01*
X126861842Y-87187198D01*
X126910380Y-87127257D01*
X126982385Y-87099616D01*
X126997961Y-87098800D01*
X130119979Y-87098800D01*
X130194479Y-87118762D01*
X130225338Y-87142441D01*
X132718087Y-89635190D01*
X132800471Y-89682754D01*
X132800470Y-89682754D01*
X132820810Y-89694497D01*
X132820814Y-89694499D01*
X132935391Y-89725200D01*
X134224809Y-89725200D01*
X134224814Y-89725199D01*
X134261487Y-89715372D01*
X134327089Y-89697794D01*
X134339387Y-89694499D01*
X134442114Y-89635189D01*
X137980667Y-86096634D01*
X138047460Y-86058072D01*
X138124588Y-86058072D01*
X138168805Y-86078107D01*
X138286684Y-86156872D01*
X138286686Y-86156873D01*
X138286689Y-86156875D01*
X138414172Y-86209680D01*
X138549507Y-86236600D01*
X138687493Y-86236600D01*
X138822828Y-86209680D01*
X138950311Y-86156875D01*
X139065042Y-86080214D01*
X139162614Y-85982642D01*
X139239275Y-85867911D01*
X139292080Y-85740428D01*
X139319000Y-85605093D01*
X139319000Y-85476121D01*
X139338962Y-85401621D01*
X139393500Y-85347083D01*
X139468000Y-85327121D01*
X139542500Y-85347083D01*
X139573359Y-85370762D01*
X142805859Y-88603262D01*
X142844423Y-88670057D01*
X142849500Y-88708621D01*
X142849500Y-89500500D01*
X142829538Y-89575000D01*
X142775000Y-89629538D01*
X142700500Y-89649500D01*
X142205133Y-89649500D01*
X142180010Y-89652414D01*
X142180007Y-89652415D01*
X142077235Y-89697793D01*
X141997793Y-89777235D01*
X141952416Y-89880005D01*
X141952415Y-89880008D01*
X141952415Y-89880009D01*
X141949500Y-89905135D01*
X141949500Y-89905136D01*
X141949500Y-89905140D01*
X141949500Y-92094866D01*
X141952414Y-92119989D01*
X141952415Y-92119992D01*
X141997793Y-92222764D01*
X141997794Y-92222765D01*
X142077235Y-92302206D01*
X142180009Y-92347585D01*
X142205135Y-92350500D01*
X143719481Y-92350499D01*
X143793981Y-92370461D01*
X143848519Y-92424999D01*
X143868481Y-92499499D01*
X143848519Y-92573999D01*
X143824840Y-92604858D01*
X142373839Y-94055859D01*
X142307044Y-94094423D01*
X142268480Y-94099500D01*
X140606902Y-94099500D01*
X140606891Y-94099501D01*
X140518439Y-94110122D01*
X140518430Y-94110124D01*
X140377657Y-94165638D01*
X140257077Y-94257076D01*
X140257076Y-94257077D01*
X140165638Y-94377657D01*
X140110122Y-94518435D01*
X140099500Y-94606893D01*
X140099500Y-96393097D01*
X140099501Y-96393108D01*
X140110122Y-96481560D01*
X140110124Y-96481569D01*
X140111833Y-96485902D01*
X140165639Y-96622343D01*
X140257077Y-96742923D01*
X140377657Y-96834361D01*
X140518435Y-96889877D01*
X140606897Y-96900500D01*
X142393102Y-96900499D01*
X142481565Y-96889877D01*
X142622343Y-96834361D01*
X142742923Y-96742923D01*
X142834361Y-96622343D01*
X142889877Y-96481565D01*
X142900500Y-96393103D01*
X142900499Y-96137917D01*
X142920461Y-96063417D01*
X142944136Y-96032562D01*
X146539464Y-92437236D01*
X146638013Y-92289747D01*
X146705895Y-92125866D01*
X146717404Y-92068001D01*
X146751514Y-91998832D01*
X146758163Y-91991731D01*
X146870104Y-91879792D01*
X146989456Y-91715517D01*
X147049396Y-91666979D01*
X147125574Y-91654913D01*
X147197580Y-91682553D01*
X147230544Y-91715517D01*
X147349896Y-91879792D01*
X147500208Y-92030104D01*
X147672184Y-92155051D01*
X147861588Y-92251557D01*
X148063757Y-92317246D01*
X148273713Y-92350500D01*
X148273718Y-92350500D01*
X148486282Y-92350500D01*
X148486287Y-92350500D01*
X148696243Y-92317246D01*
X148898412Y-92251557D01*
X149087816Y-92155051D01*
X149259792Y-92030104D01*
X149410104Y-91879792D01*
X149535051Y-91707816D01*
X149631557Y-91518412D01*
X149697246Y-91316243D01*
X149730500Y-91106287D01*
X149730500Y-90893713D01*
X149697246Y-90683757D01*
X149631557Y-90481588D01*
X149535051Y-90292184D01*
X149410104Y-90120208D01*
X149259792Y-89969896D01*
X149087816Y-89844949D01*
X148898412Y-89748443D01*
X148696243Y-89682754D01*
X148486287Y-89649500D01*
X148273713Y-89649500D01*
X148098749Y-89677211D01*
X148063756Y-89682754D01*
X147933125Y-89725199D01*
X147861588Y-89748443D01*
X147861582Y-89748445D01*
X147861582Y-89748446D01*
X147672182Y-89844950D01*
X147672181Y-89844950D01*
X147500209Y-89969895D01*
X147500206Y-89969897D01*
X147349897Y-90120206D01*
X147349895Y-90120209D01*
X147230544Y-90284482D01*
X147170604Y-90333020D01*
X147094425Y-90345086D01*
X147022420Y-90317446D01*
X146989456Y-90284482D01*
X146919357Y-90188000D01*
X146870104Y-90120208D01*
X146719792Y-89969896D01*
X146547816Y-89844949D01*
X146358412Y-89748443D01*
X146156243Y-89682754D01*
X145946287Y-89649500D01*
X145733713Y-89649500D01*
X145558749Y-89677211D01*
X145523756Y-89682754D01*
X145393125Y-89725199D01*
X145321588Y-89748443D01*
X145321582Y-89748445D01*
X145321582Y-89748446D01*
X145132182Y-89844950D01*
X145132181Y-89844950D01*
X144960209Y-89969895D01*
X144960206Y-89969897D01*
X144904858Y-90025246D01*
X144838063Y-90063810D01*
X144760935Y-90063810D01*
X144694140Y-90025246D01*
X144655576Y-89958451D01*
X144650499Y-89919887D01*
X144650499Y-89905133D01*
X144647585Y-89880010D01*
X144647584Y-89880008D01*
X144602206Y-89777235D01*
X144522765Y-89697794D01*
X144522764Y-89697793D01*
X144419994Y-89652416D01*
X144419991Y-89652415D01*
X144419982Y-89652414D01*
X144394865Y-89649500D01*
X144394859Y-89649500D01*
X143899500Y-89649500D01*
X143825000Y-89629538D01*
X143770462Y-89575000D01*
X143750500Y-89500500D01*
X143750500Y-88400991D01*
X143750499Y-88400989D01*
X143719799Y-88286414D01*
X143677347Y-88212886D01*
X143660489Y-88183686D01*
X135343359Y-79866556D01*
X135304797Y-79799764D01*
X135304797Y-79722636D01*
X135343361Y-79655841D01*
X135410156Y-79617277D01*
X135448720Y-79612200D01*
X153566954Y-79612200D01*
X153576138Y-79614661D01*
G37*
%TD.AperFunction*%
%TA.AperFunction,Conductor*%
G36*
X116003472Y-61009262D02*
G01*
X116058010Y-61063800D01*
X116077972Y-61138300D01*
X116058010Y-61212800D01*
X116049516Y-61225879D01*
X116016009Y-61271997D01*
X116016005Y-61272004D01*
X115933789Y-61433360D01*
X115933789Y-61433361D01*
X115877829Y-61605591D01*
X115849500Y-61784454D01*
X115849500Y-62215546D01*
X115875408Y-62379124D01*
X115877829Y-62394408D01*
X115933789Y-62566639D01*
X116016005Y-62727995D01*
X116016005Y-62727996D01*
X116045144Y-62768102D01*
X116122447Y-62874501D01*
X116250499Y-63002553D01*
X116397006Y-63108996D01*
X116558361Y-63191211D01*
X116730591Y-63247171D01*
X116769504Y-63253334D01*
X116839964Y-63284705D01*
X116885299Y-63347103D01*
X116893362Y-63423808D01*
X116861991Y-63494268D01*
X116799593Y-63539603D01*
X116746196Y-63549500D01*
X112793803Y-63549500D01*
X112719303Y-63529538D01*
X112664765Y-63475000D01*
X112644803Y-63400500D01*
X112664765Y-63326000D01*
X112719303Y-63271462D01*
X112739141Y-63261889D01*
X112758236Y-63254359D01*
X112872342Y-63209361D01*
X112992922Y-63117922D01*
X113084361Y-62997342D01*
X113139877Y-62856564D01*
X113150500Y-62768102D01*
X113150500Y-62079017D01*
X113170462Y-62004517D01*
X113194141Y-61973658D01*
X114134858Y-61032941D01*
X114201653Y-60994377D01*
X114240217Y-60989300D01*
X115928972Y-60989300D01*
X116003472Y-61009262D01*
G37*
%TD.AperFunction*%
%TD*%
M02*
