%TF.GenerationSoftware,KiCad,Pcbnew,9.0.6*%
%TF.CreationDate,2026-09-06T15:37:54-07:00*%
%TF.ProjectId,pitclaw-carrier,70697463-6c61-4772-9d63-617272696572,rev?*%
%TF.SameCoordinates,Original*%
%TF.FileFunction,Soldermask,Bot*%
%TF.FilePolarity,Negative*%
%FSLAX46Y46*%
G04 Gerber Fmt 4.6, Leading zero omitted, Abs format (unit mm)*
G04 Created by KiCad (PCBNEW 9.0.6) date 2026-09-06 15:37:54*
%MOMM*%
%LPD*%
G01*
G04 APERTURE LIST*
G04 Aperture macros list*
%AMRoundRect*
0 Rectangle with rounded corners*
0 $1 Rounding radius*
0 $2 $3 $4 $5 $6 $7 $8 $9 X,Y pos of 4 corners*
0 Add a 4 corners polygon primitive as box body*
4,1,4,$2,$3,$4,$5,$6,$7,$8,$9,$2,$3,0*
0 Add four circle primitives for the rounded corners*
1,1,$1+$1,$2,$3*
1,1,$1+$1,$4,$5*
1,1,$1+$1,$6,$7*
1,1,$1+$1,$8,$9*
0 Add four rect primitives between the rounded corners*
20,1,$1+$1,$2,$3,$4,$5,0*
20,1,$1+$1,$4,$5,$6,$7,0*
20,1,$1+$1,$6,$7,$8,$9,0*
20,1,$1+$1,$8,$9,$2,$3,0*%
G04 Aperture macros list end*
%ADD10RoundRect,0.250000X-0.600000X-0.750000X0.600000X-0.750000X0.600000X0.750000X-0.600000X0.750000X0*%
%ADD11O,1.700000X2.000000*%
%ADD12R,1.800000X1.800000*%
%ADD13C,1.800000*%
%ADD14C,1.200000*%
%ADD15R,2.100000X1.100000*%
%ADD16O,1.100000X2.100000*%
%ADD17RoundRect,0.249999X-0.850001X0.850001X-0.850001X-0.850001X0.850001X-0.850001X0.850001X0.850001X0*%
%ADD18C,2.200000*%
%ADD19C,1.600000*%
%ADD20RoundRect,0.250000X-0.550000X-0.550000X0.550000X-0.550000X0.550000X0.550000X-0.550000X0.550000X0*%
%ADD21C,3.200000*%
%ADD22RoundRect,0.250000X-0.750000X-0.750000X0.750000X-0.750000X0.750000X0.750000X-0.750000X0.750000X0*%
%ADD23C,2.000000*%
%ADD24R,2.500000X1.800000*%
%ADD25O,2.500000X1.800000*%
%ADD26O,1.800000X2.500000*%
%ADD27R,2.100000X2.100000*%
%ADD28C,2.100000*%
%ADD29C,3.250000*%
%ADD30R,1.500000X1.500000*%
%ADD31C,1.500000*%
%ADD32R,1.700000X1.700000*%
%ADD33C,1.700000*%
%ADD34C,2.400000*%
%ADD35RoundRect,0.250000X-0.600000X-0.725000X0.600000X-0.725000X0.600000X0.725000X-0.600000X0.725000X0*%
%ADD36O,1.700000X1.950000*%
%ADD37R,2.300000X2.300000*%
%ADD38C,2.300000*%
%ADD39RoundRect,0.249999X-0.850001X-0.850001X0.850001X-0.850001X0.850001X0.850001X-0.850001X0.850001X0*%
G04 APERTURE END LIST*
D10*
%TO.C,J7*%
X140000000Y-62000000D03*
D11*
X142500000Y-62000000D03*
%TD*%
D12*
%TO.C,C12*%
X115000000Y-104000000D03*
D13*
X120000000Y-104000000D03*
%TD*%
D12*
%TO.C,C11*%
X115000000Y-96000000D03*
D13*
X120000000Y-96000000D03*
%TD*%
D14*
%TO.C,J5*%
X130000000Y-53500000D03*
D15*
X130000000Y-58100000D03*
D16*
X128200000Y-56000000D03*
X131800000Y-56000000D03*
%TD*%
D17*
%TO.C,D3*%
X155000000Y-81000000D03*
D18*
X155000000Y-91160000D03*
%TD*%
D19*
%TO.C,R12*%
X115000000Y-108000000D03*
X122620000Y-108000000D03*
%TD*%
%TO.C,R4*%
X103000000Y-75000000D03*
X103000000Y-82620000D03*
%TD*%
%TO.C,R3*%
X103000000Y-102000000D03*
X110620000Y-102000000D03*
%TD*%
%TO.C,R16*%
X126000000Y-92000000D03*
X133620000Y-92000000D03*
%TD*%
D12*
%TO.C,BZ1*%
X104300000Y-93000000D03*
D13*
X109300000Y-93000000D03*
%TD*%
D20*
%TO.C,C3*%
X153250000Y-64500000D03*
D19*
X156750000Y-64500000D03*
%TD*%
D21*
%TO.C,H4*%
X155500000Y-112500000D03*
%TD*%
%TO.C,H3*%
X104500000Y-112500000D03*
%TD*%
D12*
%TO.C,U2*%
X117000000Y-121500000D03*
D13*
X119540000Y-121500000D03*
X122080000Y-121500000D03*
%TD*%
D10*
%TO.C,J1*%
X154000000Y-101000000D03*
D11*
X156500000Y-101000000D03*
%TD*%
D14*
%TO.C,J4*%
X113000000Y-53500000D03*
D15*
X113000000Y-58100000D03*
D16*
X111200000Y-56000000D03*
X114800000Y-56000000D03*
%TD*%
D21*
%TO.C,H1*%
X104500000Y-54500000D03*
%TD*%
D22*
%TO.C,C1*%
X143000000Y-109000000D03*
D23*
X148000000Y-109000000D03*
%TD*%
D24*
%TO.C,J9*%
X126500000Y-129900000D03*
D25*
X126500000Y-135800000D03*
D26*
X131200000Y-132700000D03*
%TD*%
D19*
%TO.C,R14*%
X126000000Y-95000000D03*
X126000000Y-102620000D03*
%TD*%
D27*
%TO.C,Q1*%
X143300000Y-91000000D03*
D28*
X145840000Y-91000000D03*
X148380000Y-91000000D03*
%TD*%
D29*
%TO.C,J2*%
X115850000Y-138420000D03*
X103150000Y-138420000D03*
D30*
X113060000Y-135880000D03*
D31*
X112044000Y-134100000D03*
X111028000Y-135880000D03*
X110012000Y-134100000D03*
X108996000Y-135880000D03*
X107980000Y-134100000D03*
X106964000Y-135880000D03*
X105948000Y-134100000D03*
%TD*%
D32*
%TO.C,JP1*%
X155000000Y-73500000D03*
D33*
X155000000Y-76040000D03*
%TD*%
D12*
%TO.C,J8*%
X113000000Y-83000000D03*
D13*
X115540000Y-83000000D03*
X118080000Y-83000000D03*
X120620000Y-83000000D03*
X123160000Y-83000000D03*
X125700000Y-83000000D03*
X128240000Y-83000000D03*
X130780000Y-83000000D03*
X133320000Y-83000000D03*
X135860000Y-83000000D03*
%TD*%
D19*
%TO.C,R2*%
X107000000Y-64000000D03*
X107000000Y-71620000D03*
%TD*%
%TO.C,R5*%
X103000000Y-106000000D03*
X110620000Y-106000000D03*
%TD*%
%TO.C,R6*%
X107000000Y-75000000D03*
X107000000Y-82620000D03*
%TD*%
%TO.C,R13*%
X126000000Y-88000000D03*
X133620000Y-88000000D03*
%TD*%
D34*
%TO.C,H6*%
X151993000Y-137817000D03*
%TD*%
D12*
%TO.C,C2*%
X115000000Y-115000000D03*
D13*
X120000000Y-115000000D03*
%TD*%
D19*
%TO.C,R10*%
X115000000Y-92000000D03*
X122620000Y-92000000D03*
%TD*%
D35*
%TO.C,J3*%
X112000000Y-62000000D03*
D36*
X114500000Y-62000000D03*
X117000000Y-62000000D03*
X119500000Y-62000000D03*
X122000000Y-62000000D03*
X124500000Y-62000000D03*
X127000000Y-62000000D03*
X129500000Y-62000000D03*
%TD*%
D34*
%TO.C,H5*%
X136753000Y-137817000D03*
%TD*%
D12*
%TO.C,C4*%
X130500000Y-120000000D03*
D13*
X130500000Y-125000000D03*
%TD*%
D19*
%TO.C,R11*%
X115000000Y-100000000D03*
X122620000Y-100000000D03*
%TD*%
D14*
%TO.C,J6*%
X147000000Y-53500000D03*
D15*
X147000000Y-58100000D03*
D16*
X145200000Y-56000000D03*
X148800000Y-56000000D03*
%TD*%
D19*
%TO.C,R15*%
X126000000Y-106000000D03*
X126000000Y-113620000D03*
%TD*%
D21*
%TO.C,H2*%
X155500000Y-54500000D03*
%TD*%
D19*
%TO.C,R1*%
X103000000Y-64500000D03*
X103000000Y-72120000D03*
%TD*%
D37*
%TO.C,K1*%
X130340000Y-96330000D03*
D38*
X130340000Y-106490000D03*
X130340000Y-114110000D03*
X137960000Y-111570000D03*
X137960000Y-96330000D03*
%TD*%
D12*
%TO.C,C10*%
X115000000Y-88000000D03*
D13*
X120000000Y-88000000D03*
%TD*%
D39*
%TO.C,D2*%
X141500000Y-95500000D03*
D18*
X151660000Y-95500000D03*
%TD*%
D30*
%TO.C,Q2*%
X105500000Y-124000000D03*
D31*
X108040000Y-124000000D03*
X110580000Y-124000000D03*
%TD*%
M02*
