M48
; DRILL file {KiCad 9.0.6} date 2026-09-06T15:37:54-0700
; FORMAT={-:-/ absolute / metric / decimal}
; #@! TF.CreationDate,2026-09-06T15:37:54-07:00
; #@! TF.GenerationSoftware,Kicad,Pcbnew,9.0.6
; #@! TF.FileFunction,Plated,1,2,PTH
FMAT,2
METRIC
; #@! TA.AperFunction,Plated,PTH,ViaDrill
T1C0.400
; #@! TA.AperFunction,Plated,PTH,ComponentDrill
T2C0.500
; #@! TA.AperFunction,Plated,PTH,ViaDrill
T3C0.600
; #@! TA.AperFunction,Plated,PTH,ComponentDrill
T4C0.800
; #@! TA.AperFunction,Plated,PTH,ComponentDrill
T5C0.890
; #@! TA.AperFunction,Plated,PTH,ComponentDrill
T6C0.900
; #@! TA.AperFunction,Plated,PTH,ComponentDrill
T7C0.950
; #@! TA.AperFunction,Plated,PTH,ComponentDrill
T8C1.000
; #@! TA.AperFunction,Plated,PTH,ComponentDrill
T9C1.100
; #@! TA.AperFunction,Plated,PTH,ComponentDrill
T10C1.300
; #@! TA.AperFunction,Plated,PTH,ComponentDrill
T11C1.400
%
G90
G05
T1
X100.95Y-104.214
X109.0Y-130.6
X109.289Y-81.885
X112.489Y-101.887
X120.005Y-81.214
X120.195Y-109.179
X133.217Y-94.49
X133.777Y-99.293
X138.618Y-85.536
T3
X115.05Y-110.083
X121.062Y-78.851
X135.486Y-78.712
T4
X103.0Y-64.5
X103.0Y-72.12
X103.0Y-75.0
X103.0Y-82.62
X103.0Y-102.0
X103.0Y-106.0
X105.5Y-124.0
X107.0Y-64.0
X107.0Y-71.62
X107.0Y-75.0
X107.0Y-82.62
X108.04Y-124.0
X110.58Y-124.0
X110.62Y-102.0
X110.62Y-106.0
X115.0Y-92.0
X115.0Y-100.0
X115.0Y-108.0
X122.62Y-92.0
X122.62Y-100.0
X122.62Y-108.0
X126.0Y-88.0
X126.0Y-92.0
X126.0Y-95.0
X126.0Y-102.62
X126.0Y-106.0
X126.0Y-113.62
X133.62Y-88.0
X133.62Y-92.0
X153.25Y-64.5
X156.75Y-64.5
T5
X105.948Y-134.1
X106.964Y-135.88
X107.98Y-134.1
X108.996Y-135.88
X110.012Y-134.1
X111.028Y-135.88
X112.044Y-134.1
X113.06Y-135.88
T6
X115.0Y-88.0
X115.0Y-96.0
X115.0Y-104.0
X115.0Y-115.0
X120.0Y-88.0
X120.0Y-96.0
X120.0Y-104.0
X120.0Y-115.0
X130.5Y-120.0
X130.5Y-125.0
T7
X112.0Y-62.0
X114.5Y-62.0
X117.0Y-62.0
X119.5Y-62.0
X122.0Y-62.0
X124.5Y-62.0
X127.0Y-62.0
X129.5Y-62.0
T8
X104.3Y-93.0
X109.3Y-93.0
X113.0Y-83.0
X115.54Y-83.0
X117.0Y-121.5
X118.08Y-83.0
X119.54Y-121.5
X120.62Y-83.0
X122.08Y-121.5
X123.16Y-83.0
X125.7Y-83.0
X128.24Y-83.0
X130.78Y-83.0
X133.32Y-83.0
X135.86Y-83.0
X140.0Y-62.0
X142.5Y-62.0
X143.0Y-109.0
X148.0Y-109.0
X154.0Y-101.0
X155.0Y-73.5
X155.0Y-76.04
X156.5Y-101.0
T9
X141.5Y-95.5
X151.66Y-95.5
X155.0Y-81.0
X155.0Y-91.16
T10
X130.34Y-96.33
X130.34Y-106.49
X130.34Y-114.11
X137.96Y-96.33
X137.96Y-111.57
T11
X143.3Y-91.0
X145.84Y-91.0
X148.38Y-91.0
T2
X111.2Y-56.5G85X111.2Y-55.5
G05
X112.5Y-58.1G85X113.5Y-58.1
G05
X114.8Y-56.5G85X114.8Y-55.5
G05
X128.2Y-56.5G85X128.2Y-55.5
G05
X129.5Y-58.1G85X130.5Y-58.1
G05
X131.8Y-56.5G85X131.8Y-55.5
G05
X145.2Y-56.5G85X145.2Y-55.5
G05
X146.5Y-58.1G85X147.5Y-58.1
G05
X148.8Y-56.5G85X148.8Y-55.5
G05
T4
X126.1Y-129.9G85X126.9Y-129.9
G05
X126.1Y-135.8G85X126.9Y-135.8
G05
X131.2Y-133.1G85X131.2Y-132.3
G05
M30
