ISO-10303-21;
HEADER;
/* Generated by software containing ST-Developer
 * from STEP Tools, Inc. (www.steptools.com) 
 */

FILE_DESCRIPTION(
/* description */ (''),
/* implementation_level */ '2;1');

FILE_NAME(
/* name */ 'carrier-retainer.step',
/* time_stamp */ '2026-09-14T13:08:18-07:00',
/* author */ (''),
/* organization */ (''),
/* preprocessor_version */ 'ST-DEVELOPER v20.2',
/* originating_system */ 'Autodesk Translation Framework v15.15.0.0',
/* authorisation */ '');

FILE_SCHEMA (('AUTOMOTIVE_DESIGN { 1 0 10303 214 3 1 1 }'));
ENDSEC;

DATA;
#10=MECHANICAL_DESIGN_GEOMETRIC_PRESENTATION_REPRESENTATION('',(#13),#1991);
#11=SHAPE_REPRESENTATION_RELATIONSHIP('SRR','None',#1998,#12);
#12=ADVANCED_BREP_SHAPE_REPRESENTATION('',(#14),#1990);
#13=STYLED_ITEM('',(#2008),#14);
#14=MANIFOLD_SOLID_BREP('03 WT32 retainer - four anchors',#1179);
#15=FACE_BOUND('',#136,.T.);
#16=FACE_BOUND('',#137,.T.);
#17=FACE_BOUND('',#138,.T.);
#18=FACE_BOUND('',#139,.T.);
#19=FACE_BOUND('',#140,.T.);
#20=FACE_BOUND('',#141,.T.);
#21=FACE_BOUND('',#142,.T.);
#22=FACE_BOUND('',#143,.T.);
#23=FACE_BOUND('',#144,.T.);
#24=FACE_BOUND('',#151,.T.);
#25=FACE_BOUND('',#152,.T.);
#26=FACE_BOUND('',#153,.T.);
#27=FACE_BOUND('',#154,.T.);
#28=FACE_BOUND('',#155,.T.);
#29=FACE_BOUND('',#156,.T.);
#30=FACE_BOUND('',#157,.T.);
#31=FACE_BOUND('',#158,.T.);
#32=FACE_BOUND('',#159,.T.);
#33=PLANE('',#1229);
#34=PLANE('',#1230);
#35=PLANE('',#1231);
#36=PLANE('',#1248);
#37=PLANE('',#1249);
#38=PLANE('',#1250);
#39=PLANE('',#1253);
#40=PLANE('',#1254);
#41=PLANE('',#1271);
#42=PLANE('',#1273);
#43=PLANE('',#1275);
#44=PLANE('',#1276);
#45=PLANE('',#1277);
#46=PLANE('',#1279);
#47=PLANE('',#1280);
#48=PLANE('',#1281);
#49=PLANE('',#1282);
#50=PLANE('',#1284);
#51=PLANE('',#1285);
#52=PLANE('',#1286);
#53=PLANE('',#1288);
#54=PLANE('',#1289);
#55=PLANE('',#1290);
#56=PLANE('',#1291);
#57=PLANE('',#1293);
#58=PLANE('',#1295);
#59=PLANE('',#1297);
#60=PLANE('',#1300);
#61=PLANE('',#1302);
#62=PLANE('',#1305);
#63=FACE_OUTER_BOUND('',#121,.T.);
#64=FACE_OUTER_BOUND('',#122,.T.);
#65=FACE_OUTER_BOUND('',#123,.T.);
#66=FACE_OUTER_BOUND('',#124,.T.);
#67=FACE_OUTER_BOUND('',#125,.T.);
#68=FACE_OUTER_BOUND('',#126,.T.);
#69=FACE_OUTER_BOUND('',#127,.T.);
#70=FACE_OUTER_BOUND('',#128,.T.);
#71=FACE_OUTER_BOUND('',#129,.T.);
#72=FACE_OUTER_BOUND('',#130,.T.);
#73=FACE_OUTER_BOUND('',#131,.T.);
#74=FACE_OUTER_BOUND('',#132,.T.);
#75=FACE_OUTER_BOUND('',#133,.T.);
#76=FACE_OUTER_BOUND('',#134,.T.);
#77=FACE_OUTER_BOUND('',#135,.T.);
#78=FACE_OUTER_BOUND('',#145,.T.);
#79=FACE_OUTER_BOUND('',#146,.T.);
#80=FACE_OUTER_BOUND('',#147,.T.);
#81=FACE_OUTER_BOUND('',#148,.T.);
#82=FACE_OUTER_BOUND('',#149,.T.);
#83=FACE_OUTER_BOUND('',#150,.T.);
#84=FACE_OUTER_BOUND('',#160,.T.);
#85=FACE_OUTER_BOUND('',#161,.T.);
#86=FACE_OUTER_BOUND('',#162,.T.);
#87=FACE_OUTER_BOUND('',#163,.T.);
#88=FACE_OUTER_BOUND('',#164,.T.);
#89=FACE_OUTER_BOUND('',#165,.T.);
#90=FACE_OUTER_BOUND('',#166,.T.);
#91=FACE_OUTER_BOUND('',#167,.T.);
#92=FACE_OUTER_BOUND('',#168,.T.);
#93=FACE_OUTER_BOUND('',#169,.T.);
#94=FACE_OUTER_BOUND('',#170,.T.);
#95=FACE_OUTER_BOUND('',#171,.T.);
#96=FACE_OUTER_BOUND('',#172,.T.);
#97=FACE_OUTER_BOUND('',#173,.T.);
#98=FACE_OUTER_BOUND('',#174,.T.);
#99=FACE_OUTER_BOUND('',#175,.T.);
#100=FACE_OUTER_BOUND('',#176,.T.);
#101=FACE_OUTER_BOUND('',#177,.T.);
#102=FACE_OUTER_BOUND('',#178,.T.);
#103=FACE_OUTER_BOUND('',#179,.T.);
#104=FACE_OUTER_BOUND('',#180,.T.);
#105=FACE_OUTER_BOUND('',#181,.T.);
#106=FACE_OUTER_BOUND('',#182,.T.);
#107=FACE_OUTER_BOUND('',#183,.T.);
#108=FACE_OUTER_BOUND('',#184,.T.);
#109=FACE_OUTER_BOUND('',#185,.T.);
#110=FACE_OUTER_BOUND('',#186,.T.);
#111=FACE_OUTER_BOUND('',#187,.T.);
#112=FACE_OUTER_BOUND('',#188,.T.);
#113=FACE_OUTER_BOUND('',#189,.T.);
#114=FACE_OUTER_BOUND('',#190,.T.);
#115=FACE_OUTER_BOUND('',#191,.T.);
#116=FACE_OUTER_BOUND('',#192,.T.);
#117=FACE_OUTER_BOUND('',#193,.T.);
#118=FACE_OUTER_BOUND('',#194,.T.);
#119=FACE_OUTER_BOUND('',#195,.T.);
#120=FACE_OUTER_BOUND('',#196,.T.);
#121=EDGE_LOOP('',(#757,#758,#759,#760));
#122=EDGE_LOOP('',(#761,#762,#763,#764));
#123=EDGE_LOOP('',(#765,#766,#767,#768));
#124=EDGE_LOOP('',(#769,#770,#771,#772));
#125=EDGE_LOOP('',(#773,#774,#775,#776));
#126=EDGE_LOOP('',(#777,#778,#779,#780));
#127=EDGE_LOOP('',(#781,#782,#783,#784));
#128=EDGE_LOOP('',(#785,#786,#787,#788));
#129=EDGE_LOOP('',(#789,#790,#791,#792));
#130=EDGE_LOOP('',(#793,#794,#795,#796));
#131=EDGE_LOOP('',(#797,#798,#799,#800));
#132=EDGE_LOOP('',(#801,#802,#803,#804));
#133=EDGE_LOOP('',(#805,#806,#807,#808));
#134=EDGE_LOOP('',(#809,#810,#811,#812));
#135=EDGE_LOOP('',(#813,#814,#815,#816,#817,#818,#819,#820,#821,#822,#823,
#824,#825,#826,#827,#828,#829,#830,#831,#832,#833,#834,#835,#836));
#136=EDGE_LOOP('',(#837));
#137=EDGE_LOOP('',(#838));
#138=EDGE_LOOP('',(#839));
#139=EDGE_LOOP('',(#840));
#140=EDGE_LOOP('',(#841,#842,#843,#844,#845,#846,#847,#848,#849,#850,#851,
#852,#853,#854,#855,#856,#857,#858,#859,#860,#861,#862,#863,#864));
#141=EDGE_LOOP('',(#865));
#142=EDGE_LOOP('',(#866));
#143=EDGE_LOOP('',(#867));
#144=EDGE_LOOP('',(#868));
#145=EDGE_LOOP('',(#869,#870,#871,#872));
#146=EDGE_LOOP('',(#873,#874,#875,#876));
#147=EDGE_LOOP('',(#877,#878,#879,#880));
#148=EDGE_LOOP('',(#881,#882,#883,#884));
#149=EDGE_LOOP('',(#885,#886,#887,#888));
#150=EDGE_LOOP('',(#889,#890,#891,#892,#893,#894,#895,#896,#897,#898,#899,
#900,#901,#902,#903,#904,#905,#906,#907,#908,#909,#910,#911,#912));
#151=EDGE_LOOP('',(#913));
#152=EDGE_LOOP('',(#914));
#153=EDGE_LOOP('',(#915));
#154=EDGE_LOOP('',(#916));
#155=EDGE_LOOP('',(#917,#918,#919,#920,#921,#922,#923,#924,#925,#926,#927,
#928,#929,#930,#931,#932,#933,#934,#935,#936,#937,#938,#939,#940));
#156=EDGE_LOOP('',(#941));
#157=EDGE_LOOP('',(#942));
#158=EDGE_LOOP('',(#943));
#159=EDGE_LOOP('',(#944));
#160=EDGE_LOOP('',(#945,#946,#947,#948));
#161=EDGE_LOOP('',(#949,#950,#951,#952));
#162=EDGE_LOOP('',(#953,#954,#955,#956));
#163=EDGE_LOOP('',(#957,#958,#959,#960));
#164=EDGE_LOOP('',(#961,#962,#963,#964));
#165=EDGE_LOOP('',(#965,#966,#967,#968));
#166=EDGE_LOOP('',(#969,#970,#971,#972));
#167=EDGE_LOOP('',(#973,#974,#975,#976));
#168=EDGE_LOOP('',(#977,#978,#979,#980));
#169=EDGE_LOOP('',(#981,#982,#983,#984));
#170=EDGE_LOOP('',(#985,#986,#987,#988));
#171=EDGE_LOOP('',(#989,#990,#991,#992));
#172=EDGE_LOOP('',(#993,#994,#995,#996));
#173=EDGE_LOOP('',(#997,#998,#999,#1000));
#174=EDGE_LOOP('',(#1001,#1002,#1003,#1004));
#175=EDGE_LOOP('',(#1005,#1006,#1007,#1008));
#176=EDGE_LOOP('',(#1009,#1010,#1011,#1012));
#177=EDGE_LOOP('',(#1013,#1014,#1015,#1016));
#178=EDGE_LOOP('',(#1017,#1018,#1019,#1020));
#179=EDGE_LOOP('',(#1021,#1022,#1023,#1024));
#180=EDGE_LOOP('',(#1025,#1026,#1027,#1028));
#181=EDGE_LOOP('',(#1029,#1030,#1031,#1032));
#182=EDGE_LOOP('',(#1033,#1034,#1035,#1036));
#183=EDGE_LOOP('',(#1037,#1038,#1039,#1040));
#184=EDGE_LOOP('',(#1041,#1042,#1043,#1044));
#185=EDGE_LOOP('',(#1045,#1046,#1047,#1048));
#186=EDGE_LOOP('',(#1049,#1050,#1051,#1052));
#187=EDGE_LOOP('',(#1053,#1054,#1055,#1056));
#188=EDGE_LOOP('',(#1057,#1058,#1059,#1060));
#189=EDGE_LOOP('',(#1061,#1062,#1063,#1064));
#190=EDGE_LOOP('',(#1065,#1066,#1067,#1068));
#191=EDGE_LOOP('',(#1069,#1070,#1071,#1072));
#192=EDGE_LOOP('',(#1073,#1074,#1075,#1076));
#193=EDGE_LOOP('',(#1077,#1078,#1079,#1080));
#194=EDGE_LOOP('',(#1081,#1082,#1083,#1084));
#195=EDGE_LOOP('',(#1085,#1086,#1087,#1088));
#196=EDGE_LOOP('',(#1089,#1090,#1091,#1092));
#197=LINE('',#1654,#309);
#198=LINE('',#1660,#310);
#199=LINE('',#1666,#311);
#200=LINE('',#1672,#312);
#201=LINE('',#1678,#313);
#202=LINE('',#1684,#314);
#203=LINE('',#1690,#315);
#204=LINE('',#1696,#316);
#205=LINE('',#1701,#317);
#206=LINE('',#1705,#318);
#207=LINE('',#1712,#319);
#208=LINE('',#1715,#320);
#209=LINE('',#1721,#321);
#210=LINE('',#1724,#322);
#211=LINE('',#1728,#323);
#212=LINE('',#1732,#324);
#213=LINE('',#1736,#325);
#214=LINE('',#1738,#326);
#215=LINE('',#1739,#327);
#216=LINE('',#1741,#328);
#217=LINE('',#1742,#329);
#218=LINE('',#1745,#330);
#219=LINE('',#1749,#331);
#220=LINE('',#1753,#332);
#221=LINE('',#1757,#333);
#222=LINE('',#1760,#334);
#223=LINE('',#1764,#335);
#224=LINE('',#1768,#336);
#225=LINE('',#1772,#337);
#226=LINE('',#1775,#338);
#227=LINE('',#1776,#339);
#228=LINE('',#1779,#340);
#229=LINE('',#1783,#341);
#230=LINE('',#1787,#342);
#231=LINE('',#1789,#343);
#232=LINE('',#1793,#344);
#233=LINE('',#1795,#345);
#234=LINE('',#1797,#346);
#235=LINE('',#1801,#347);
#236=LINE('',#1803,#348);
#237=LINE('',#1807,#349);
#238=LINE('',#1811,#350);
#239=LINE('',#1813,#351);
#240=LINE('',#1817,#352);
#241=LINE('',#1819,#353);
#242=LINE('',#1821,#354);
#243=LINE('',#1824,#355);
#244=LINE('',#1827,#356);
#245=LINE('',#1828,#357);
#246=LINE('',#1831,#358);
#247=LINE('',#1832,#359);
#248=LINE('',#1834,#360);
#249=LINE('',#1837,#361);
#250=LINE('',#1841,#362);
#251=LINE('',#1842,#363);
#252=LINE('',#1847,#364);
#253=LINE('',#1851,#365);
#254=LINE('',#1854,#366);
#255=LINE('',#1858,#367);
#256=LINE('',#1862,#368);
#257=LINE('',#1866,#369);
#258=LINE('',#1870,#370);
#259=LINE('',#1872,#371);
#260=LINE('',#1876,#372);
#261=LINE('',#1878,#373);
#262=LINE('',#1882,#374);
#263=LINE('',#1886,#375);
#264=LINE('',#1888,#376);
#265=LINE('',#1892,#377);
#266=LINE('',#1894,#378);
#267=LINE('',#1896,#379);
#268=LINE('',#1900,#380);
#269=LINE('',#1902,#381);
#270=LINE('',#1906,#382);
#271=LINE('',#1910,#383);
#272=LINE('',#1912,#384);
#273=LINE('',#1915,#385);
#274=LINE('',#1917,#386);
#275=LINE('',#1919,#387);
#276=LINE('',#1921,#388);
#277=LINE('',#1923,#389);
#278=LINE('',#1925,#390);
#279=LINE('',#1927,#391);
#280=LINE('',#1929,#392);
#281=LINE('',#1930,#393);
#282=LINE('',#1932,#394);
#283=LINE('',#1933,#395);
#284=LINE('',#1936,#396);
#285=LINE('',#1938,#397);
#286=LINE('',#1940,#398);
#287=LINE('',#1941,#399);
#288=LINE('',#1943,#400);
#289=LINE('',#1944,#401);
#290=LINE('',#1947,#402);
#291=LINE('',#1949,#403);
#292=LINE('',#1951,#404);
#293=LINE('',#1952,#405);
#294=LINE('',#1955,#406);
#295=LINE('',#1957,#407);
#296=LINE('',#1959,#408);
#297=LINE('',#1960,#409);
#298=LINE('',#1962,#410);
#299=LINE('',#1965,#411);
#300=LINE('',#1966,#412);
#301=LINE('',#1968,#413);
#302=LINE('',#1971,#414);
#303=LINE('',#1973,#415);
#304=LINE('',#1977,#416);
#305=LINE('',#1979,#417);
#306=LINE('',#1981,#418);
#307=LINE('',#1984,#419);
#308=LINE('',#1986,#420);
#309=VECTOR('',#1313,0.17);
#310=VECTOR('',#1320,0.17);
#311=VECTOR('',#1327,0.17);
#312=VECTOR('',#1334,0.17);
#313=VECTOR('',#1341,0.14);
#314=VECTOR('',#1348,0.14);
#315=VECTOR('',#1355,0.14);
#316=VECTOR('',#1362,0.14);
#317=VECTOR('',#1367,1.);
#318=VECTOR('',#1370,1.);
#319=VECTOR('',#1377,1.);
#320=VECTOR('',#1380,1.);
#321=VECTOR('',#1385,1.);
#322=VECTOR('',#1388,1.);
#323=VECTOR('',#1391,1.);
#324=VECTOR('',#1394,1.);
#325=VECTOR('',#1399,1.);
#326=VECTOR('',#1400,1.);
#327=VECTOR('',#1401,1.);
#328=VECTOR('',#1404,1.);
#329=VECTOR('',#1405,1.);
#330=VECTOR('',#1408,1.);
#331=VECTOR('',#1411,1.);
#332=VECTOR('',#1414,1.);
#333=VECTOR('',#1417,1.);
#334=VECTOR('',#1420,1.);
#335=VECTOR('',#1423,1.);
#336=VECTOR('',#1426,1.);
#337=VECTOR('',#1429,1.);
#338=VECTOR('',#1432,1.);
#339=VECTOR('',#1433,1.);
#340=VECTOR('',#1434,1.);
#341=VECTOR('',#1437,1.);
#342=VECTOR('',#1440,1.);
#343=VECTOR('',#1441,1.);
#344=VECTOR('',#1444,1.);
#345=VECTOR('',#1445,1.);
#346=VECTOR('',#1446,1.);
#347=VECTOR('',#1449,1.);
#348=VECTOR('',#1450,1.);
#349=VECTOR('',#1453,1.);
#350=VECTOR('',#1456,1.);
#351=VECTOR('',#1457,1.);
#352=VECTOR('',#1460,1.);
#353=VECTOR('',#1461,1.);
#354=VECTOR('',#1462,1.);
#355=VECTOR('',#1465,1.);
#356=VECTOR('',#1468,1.);
#357=VECTOR('',#1469,1.);
#358=VECTOR('',#1472,1.);
#359=VECTOR('',#1473,1.);
#360=VECTOR('',#1476,1.);
#361=VECTOR('',#1479,1.);
#362=VECTOR('',#1484,1.);
#363=VECTOR('',#1485,1.);
#364=VECTOR('',#1490,1.);
#365=VECTOR('',#1493,1.);
#366=VECTOR('',#1496,1.);
#367=VECTOR('',#1499,1.);
#368=VECTOR('',#1502,1.);
#369=VECTOR('',#1505,1.);
#370=VECTOR('',#1508,1.);
#371=VECTOR('',#1509,1.);
#372=VECTOR('',#1512,1.);
#373=VECTOR('',#1513,1.);
#374=VECTOR('',#1516,1.);
#375=VECTOR('',#1519,1.);
#376=VECTOR('',#1520,1.);
#377=VECTOR('',#1523,1.);
#378=VECTOR('',#1524,1.);
#379=VECTOR('',#1525,1.);
#380=VECTOR('',#1528,1.);
#381=VECTOR('',#1529,1.);
#382=VECTOR('',#1532,1.);
#383=VECTOR('',#1535,1.);
#384=VECTOR('',#1536,1.);
#385=VECTOR('',#1539,1.);
#386=VECTOR('',#1542,1.);
#387=VECTOR('',#1545,1.);
#388=VECTOR('',#1548,1.);
#389=VECTOR('',#1551,1.);
#390=VECTOR('',#1554,1.);
#391=VECTOR('',#1557,1.);
#392=VECTOR('',#1560,1.);
#393=VECTOR('',#1561,1.);
#394=VECTOR('',#1564,1.);
#395=VECTOR('',#1565,1.);
#396=VECTOR('',#1570,1.);
#397=VECTOR('',#1573,1.);
#398=VECTOR('',#1576,1.);
#399=VECTOR('',#1577,1.);
#400=VECTOR('',#1580,1.);
#401=VECTOR('',#1581,1.);
#402=VECTOR('',#1586,1.);
#403=VECTOR('',#1589,1.);
#404=VECTOR('',#1592,1.);
#405=VECTOR('',#1593,1.);
#406=VECTOR('',#1598,1.);
#407=VECTOR('',#1601,1.);
#408=VECTOR('',#1604,1.);
#409=VECTOR('',#1605,1.);
#410=VECTOR('',#1608,1.);
#411=VECTOR('',#1613,1.);
#412=VECTOR('',#1614,1.);
#413=VECTOR('',#1617,1.);
#414=VECTOR('',#1622,1.);
#415=VECTOR('',#1625,1.);
#416=VECTOR('',#1632,1.);
#417=VECTOR('',#1635,1.);
#418=VECTOR('',#1638,1.);
#419=VECTOR('',#1643,1.);
#420=VECTOR('',#1646,1.);
#421=CIRCLE('',#1194,0.17);
#422=CIRCLE('',#1195,0.17);
#423=CIRCLE('',#1197,0.17);
#424=CIRCLE('',#1198,0.17);
#425=CIRCLE('',#1200,0.17);
#426=CIRCLE('',#1201,0.17);
#427=CIRCLE('',#1203,0.17);
#428=CIRCLE('',#1204,0.17);
#429=CIRCLE('',#1206,0.14);
#430=CIRCLE('',#1207,0.14);
#431=CIRCLE('',#1209,0.14);
#432=CIRCLE('',#1210,0.14);
#433=CIRCLE('',#1212,0.14);
#434=CIRCLE('',#1213,0.14);
#435=CIRCLE('',#1215,0.14);
#436=CIRCLE('',#1216,0.14);
#437=CIRCLE('',#1218,0.5);
#438=CIRCLE('',#1219,0.5);
#439=CIRCLE('',#1221,0.5);
#440=CIRCLE('',#1222,0.5);
#441=CIRCLE('',#1224,0.5);
#442=CIRCLE('',#1225,0.5);
#443=CIRCLE('',#1227,0.5);
#444=CIRCLE('',#1228,0.5);
#445=CIRCLE('',#1232,0.45);
#446=CIRCLE('',#1233,0.0999999999999996);
#447=CIRCLE('',#1234,0.1);
#448=CIRCLE('',#1235,0.45);
#449=CIRCLE('',#1236,0.45);
#450=CIRCLE('',#1237,0.0999999999999996);
#451=CIRCLE('',#1238,0.1);
#452=CIRCLE('',#1239,0.45);
#453=CIRCLE('',#1240,0.04);
#454=CIRCLE('',#1241,0.04);
#455=CIRCLE('',#1242,0.32);
#456=CIRCLE('',#1243,0.32);
#457=CIRCLE('',#1244,0.04);
#458=CIRCLE('',#1245,0.04);
#459=CIRCLE('',#1246,0.32);
#460=CIRCLE('',#1247,0.32);
#461=CIRCLE('',#1252,0.45);
#462=CIRCLE('',#1255,0.1);
#463=CIRCLE('',#1256,0.0999999999999996);
#464=CIRCLE('',#1257,0.45);
#465=CIRCLE('',#1258,0.45);
#466=CIRCLE('',#1259,0.1);
#467=CIRCLE('',#1260,0.0999999999999996);
#468=CIRCLE('',#1261,0.45);
#469=CIRCLE('',#1262,0.32);
#470=CIRCLE('',#1263,0.04);
#471=CIRCLE('',#1264,0.04);
#472=CIRCLE('',#1265,0.32);
#473=CIRCLE('',#1266,0.32);
#474=CIRCLE('',#1267,0.04);
#475=CIRCLE('',#1268,0.04);
#476=CIRCLE('',#1269,0.32);
#477=VERTEX_POINT('',#1651);
#478=VERTEX_POINT('',#1653);
#479=VERTEX_POINT('',#1657);
#480=VERTEX_POINT('',#1659);
#481=VERTEX_POINT('',#1663);
#482=VERTEX_POINT('',#1665);
#483=VERTEX_POINT('',#1669);
#484=VERTEX_POINT('',#1671);
#485=VERTEX_POINT('',#1675);
#486=VERTEX_POINT('',#1677);
#487=VERTEX_POINT('',#1681);
#488=VERTEX_POINT('',#1683);
#489=VERTEX_POINT('',#1687);
#490=VERTEX_POINT('',#1689);
#491=VERTEX_POINT('',#1693);
#492=VERTEX_POINT('',#1695);
#493=VERTEX_POINT('',#1699);
#494=VERTEX_POINT('',#1700);
#495=VERTEX_POINT('',#1702);
#496=VERTEX_POINT('',#1704);
#497=VERTEX_POINT('',#1708);
#498=VERTEX_POINT('',#1709);
#499=VERTEX_POINT('',#1711);
#500=VERTEX_POINT('',#1713);
#501=VERTEX_POINT('',#1717);
#502=VERTEX_POINT('',#1718);
#503=VERTEX_POINT('',#1720);
#504=VERTEX_POINT('',#1722);
#505=VERTEX_POINT('',#1726);
#506=VERTEX_POINT('',#1727);
#507=VERTEX_POINT('',#1729);
#508=VERTEX_POINT('',#1731);
#509=VERTEX_POINT('',#1735);
#510=VERTEX_POINT('',#1737);
#511=VERTEX_POINT('',#1744);
#512=VERTEX_POINT('',#1746);
#513=VERTEX_POINT('',#1748);
#514=VERTEX_POINT('',#1750);
#515=VERTEX_POINT('',#1752);
#516=VERTEX_POINT('',#1754);
#517=VERTEX_POINT('',#1756);
#518=VERTEX_POINT('',#1759);
#519=VERTEX_POINT('',#1761);
#520=VERTEX_POINT('',#1763);
#521=VERTEX_POINT('',#1765);
#522=VERTEX_POINT('',#1767);
#523=VERTEX_POINT('',#1769);
#524=VERTEX_POINT('',#1771);
#525=VERTEX_POINT('',#1773);
#526=VERTEX_POINT('',#1777);
#527=VERTEX_POINT('',#1778);
#528=VERTEX_POINT('',#1780);
#529=VERTEX_POINT('',#1782);
#530=VERTEX_POINT('',#1784);
#531=VERTEX_POINT('',#1786);
#532=VERTEX_POINT('',#1788);
#533=VERTEX_POINT('',#1790);
#534=VERTEX_POINT('',#1792);
#535=VERTEX_POINT('',#1794);
#536=VERTEX_POINT('',#1796);
#537=VERTEX_POINT('',#1798);
#538=VERTEX_POINT('',#1800);
#539=VERTEX_POINT('',#1802);
#540=VERTEX_POINT('',#1804);
#541=VERTEX_POINT('',#1806);
#542=VERTEX_POINT('',#1808);
#543=VERTEX_POINT('',#1810);
#544=VERTEX_POINT('',#1812);
#545=VERTEX_POINT('',#1814);
#546=VERTEX_POINT('',#1816);
#547=VERTEX_POINT('',#1818);
#548=VERTEX_POINT('',#1820);
#549=VERTEX_POINT('',#1822);
#550=VERTEX_POINT('',#1826);
#551=VERTEX_POINT('',#1830);
#552=VERTEX_POINT('',#1836);
#553=VERTEX_POINT('',#1840);
#554=VERTEX_POINT('',#1844);
#555=VERTEX_POINT('',#1846);
#556=VERTEX_POINT('',#1848);
#557=VERTEX_POINT('',#1850);
#558=VERTEX_POINT('',#1852);
#559=VERTEX_POINT('',#1855);
#560=VERTEX_POINT('',#1857);
#561=VERTEX_POINT('',#1859);
#562=VERTEX_POINT('',#1861);
#563=VERTEX_POINT('',#1863);
#564=VERTEX_POINT('',#1865);
#565=VERTEX_POINT('',#1868);
#566=VERTEX_POINT('',#1869);
#567=VERTEX_POINT('',#1871);
#568=VERTEX_POINT('',#1873);
#569=VERTEX_POINT('',#1875);
#570=VERTEX_POINT('',#1877);
#571=VERTEX_POINT('',#1879);
#572=VERTEX_POINT('',#1881);
#573=VERTEX_POINT('',#1883);
#574=VERTEX_POINT('',#1885);
#575=VERTEX_POINT('',#1887);
#576=VERTEX_POINT('',#1889);
#577=VERTEX_POINT('',#1891);
#578=VERTEX_POINT('',#1893);
#579=VERTEX_POINT('',#1895);
#580=VERTEX_POINT('',#1897);
#581=VERTEX_POINT('',#1899);
#582=VERTEX_POINT('',#1901);
#583=VERTEX_POINT('',#1903);
#584=VERTEX_POINT('',#1905);
#585=VERTEX_POINT('',#1907);
#586=VERTEX_POINT('',#1909);
#587=VERTEX_POINT('',#1911);
#588=VERTEX_POINT('',#1913);
#589=EDGE_CURVE('',#477,#477,#421,.T.);
#590=EDGE_CURVE('',#477,#478,#197,.T.);
#591=EDGE_CURVE('',#478,#478,#422,.T.);
#592=EDGE_CURVE('',#479,#479,#423,.T.);
#593=EDGE_CURVE('',#479,#480,#198,.T.);
#594=EDGE_CURVE('',#480,#480,#424,.T.);
#595=EDGE_CURVE('',#481,#481,#425,.T.);
#596=EDGE_CURVE('',#481,#482,#199,.T.);
#597=EDGE_CURVE('',#482,#482,#426,.T.);
#598=EDGE_CURVE('',#483,#483,#427,.T.);
#599=EDGE_CURVE('',#483,#484,#200,.T.);
#600=EDGE_CURVE('',#484,#484,#428,.T.);
#601=EDGE_CURVE('',#485,#485,#429,.T.);
#602=EDGE_CURVE('',#485,#486,#201,.T.);
#603=EDGE_CURVE('',#486,#486,#430,.T.);
#604=EDGE_CURVE('',#487,#487,#431,.T.);
#605=EDGE_CURVE('',#487,#488,#202,.T.);
#606=EDGE_CURVE('',#488,#488,#432,.T.);
#607=EDGE_CURVE('',#489,#489,#433,.T.);
#608=EDGE_CURVE('',#489,#490,#203,.T.);
#609=EDGE_CURVE('',#490,#490,#434,.T.);
#610=EDGE_CURVE('',#491,#491,#435,.T.);
#611=EDGE_CURVE('',#491,#492,#204,.T.);
#612=EDGE_CURVE('',#492,#492,#436,.T.);
#613=EDGE_CURVE('',#493,#494,#205,.T.);
#614=EDGE_CURVE('',#495,#493,#437,.T.);
#615=EDGE_CURVE('',#496,#495,#206,.T.);
#616=EDGE_CURVE('',#494,#496,#438,.T.);
#617=EDGE_CURVE('',#497,#498,#439,.T.);
#618=EDGE_CURVE('',#499,#497,#207,.T.);
#619=EDGE_CURVE('',#500,#499,#440,.T.);
#620=EDGE_CURVE('',#498,#500,#208,.T.);
#621=EDGE_CURVE('',#501,#502,#441,.T.);
#622=EDGE_CURVE('',#503,#501,#209,.T.);
#623=EDGE_CURVE('',#504,#503,#442,.T.);
#624=EDGE_CURVE('',#502,#504,#210,.T.);
#625=EDGE_CURVE('',#505,#506,#211,.T.);
#626=EDGE_CURVE('',#507,#505,#443,.T.);
#627=EDGE_CURVE('',#508,#507,#212,.T.);
#628=EDGE_CURVE('',#506,#508,#444,.T.);
#629=EDGE_CURVE('',#501,#509,#213,.T.);
#630=EDGE_CURVE('',#509,#510,#214,.T.);
#631=EDGE_CURVE('',#503,#510,#215,.T.);
#632=EDGE_CURVE('',#497,#502,#216,.T.);
#633=EDGE_CURVE('',#499,#504,#217,.T.);
#634=EDGE_CURVE('',#511,#493,#218,.T.);
#635=EDGE_CURVE('',#512,#511,#445,.T.);
#636=EDGE_CURVE('',#513,#512,#219,.T.);
#637=EDGE_CURVE('',#514,#513,#446,.T.);
#638=EDGE_CURVE('',#515,#514,#220,.T.);
#639=EDGE_CURVE('',#516,#515,#447,.T.);
#640=EDGE_CURVE('',#517,#516,#221,.T.);
#641=EDGE_CURVE('',#509,#517,#448,.T.);
#642=EDGE_CURVE('',#518,#498,#222,.T.);
#643=EDGE_CURVE('',#519,#518,#449,.T.);
#644=EDGE_CURVE('',#520,#519,#223,.T.);
#645=EDGE_CURVE('',#521,#520,#450,.T.);
#646=EDGE_CURVE('',#522,#521,#224,.T.);
#647=EDGE_CURVE('',#523,#522,#451,.T.);
#648=EDGE_CURVE('',#524,#523,#225,.T.);
#649=EDGE_CURVE('',#525,#524,#452,.T.);
#650=EDGE_CURVE('',#507,#525,#226,.T.);
#651=EDGE_CURVE('',#495,#505,#227,.T.);
#652=EDGE_CURVE('',#526,#527,#228,.T.);
#653=EDGE_CURVE('',#528,#526,#453,.T.);
#654=EDGE_CURVE('',#529,#528,#229,.T.);
#655=EDGE_CURVE('',#530,#529,#454,.T.);
#656=EDGE_CURVE('',#531,#530,#230,.T.);
#657=EDGE_CURVE('',#531,#532,#231,.T.);
#658=EDGE_CURVE('',#533,#532,#455,.T.);
#659=EDGE_CURVE('',#533,#534,#232,.T.);
#660=EDGE_CURVE('',#535,#534,#233,.T.);
#661=EDGE_CURVE('',#535,#536,#234,.T.);
#662=EDGE_CURVE('',#537,#536,#456,.T.);
#663=EDGE_CURVE('',#537,#538,#235,.T.);
#664=EDGE_CURVE('',#539,#538,#236,.T.);
#665=EDGE_CURVE('',#540,#539,#457,.T.);
#666=EDGE_CURVE('',#541,#540,#237,.T.);
#667=EDGE_CURVE('',#542,#541,#458,.T.);
#668=EDGE_CURVE('',#543,#542,#238,.T.);
#669=EDGE_CURVE('',#543,#544,#239,.T.);
#670=EDGE_CURVE('',#545,#544,#459,.T.);
#671=EDGE_CURVE('',#545,#546,#240,.T.);
#672=EDGE_CURVE('',#547,#546,#241,.T.);
#673=EDGE_CURVE('',#547,#548,#242,.T.);
#674=EDGE_CURVE('',#549,#548,#460,.T.);
#675=EDGE_CURVE('',#549,#527,#243,.T.);
#676=EDGE_CURVE('',#525,#550,#244,.T.);
#677=EDGE_CURVE('',#508,#550,#245,.T.);
#678=EDGE_CURVE('',#551,#494,#246,.T.);
#679=EDGE_CURVE('',#551,#511,#247,.T.);
#680=EDGE_CURVE('',#496,#506,#248,.T.);
#681=EDGE_CURVE('',#552,#524,#249,.T.);
#682=EDGE_CURVE('',#550,#552,#461,.T.);
#683=EDGE_CURVE('',#523,#553,#250,.T.);
#684=EDGE_CURVE('',#552,#553,#251,.T.);
#685=EDGE_CURVE('',#553,#554,#462,.T.);
#686=EDGE_CURVE('',#554,#555,#252,.T.);
#687=EDGE_CURVE('',#555,#556,#463,.T.);
#688=EDGE_CURVE('',#556,#557,#253,.T.);
#689=EDGE_CURVE('',#557,#558,#464,.T.);
#690=EDGE_CURVE('',#558,#500,#254,.T.);
#691=EDGE_CURVE('',#510,#559,#465,.T.);
#692=EDGE_CURVE('',#559,#560,#255,.T.);
#693=EDGE_CURVE('',#560,#561,#466,.T.);
#694=EDGE_CURVE('',#561,#562,#256,.T.);
#695=EDGE_CURVE('',#562,#563,#467,.T.);
#696=EDGE_CURVE('',#563,#564,#257,.T.);
#697=EDGE_CURVE('',#564,#551,#468,.T.);
#698=EDGE_CURVE('',#565,#566,#258,.T.);
#699=EDGE_CURVE('',#566,#567,#259,.T.);
#700=EDGE_CURVE('',#567,#568,#469,.T.);
#701=EDGE_CURVE('',#568,#569,#260,.T.);
#702=EDGE_CURVE('',#569,#570,#261,.T.);
#703=EDGE_CURVE('',#570,#571,#470,.T.);
#704=EDGE_CURVE('',#571,#572,#262,.T.);
#705=EDGE_CURVE('',#572,#573,#471,.T.);
#706=EDGE_CURVE('',#573,#574,#263,.T.);
#707=EDGE_CURVE('',#574,#575,#264,.T.);
#708=EDGE_CURVE('',#575,#576,#472,.T.);
#709=EDGE_CURVE('',#576,#577,#265,.T.);
#710=EDGE_CURVE('',#577,#578,#266,.T.);
#711=EDGE_CURVE('',#578,#579,#267,.T.);
#712=EDGE_CURVE('',#579,#580,#473,.T.);
#713=EDGE_CURVE('',#580,#581,#268,.T.);
#714=EDGE_CURVE('',#581,#582,#269,.T.);
#715=EDGE_CURVE('',#582,#583,#474,.T.);
#716=EDGE_CURVE('',#583,#584,#270,.T.);
#717=EDGE_CURVE('',#584,#585,#475,.T.);
#718=EDGE_CURVE('',#585,#586,#271,.T.);
#719=EDGE_CURVE('',#586,#587,#272,.T.);
#720=EDGE_CURVE('',#587,#588,#476,.T.);
#721=EDGE_CURVE('',#588,#565,#273,.T.);
#722=EDGE_CURVE('',#559,#517,#274,.T.);
#723=EDGE_CURVE('',#558,#518,#275,.T.);
#724=EDGE_CURVE('',#519,#557,#276,.T.);
#725=EDGE_CURVE('',#520,#556,#277,.T.);
#726=EDGE_CURVE('',#512,#564,#278,.T.);
#727=EDGE_CURVE('',#513,#563,#279,.T.);
#728=EDGE_CURVE('',#527,#586,#280,.T.);
#729=EDGE_CURVE('',#549,#587,#281,.T.);
#730=EDGE_CURVE('',#565,#547,#282,.T.);
#731=EDGE_CURVE('',#548,#588,#283,.T.);
#732=EDGE_CURVE('',#526,#585,#284,.T.);
#733=EDGE_CURVE('',#546,#566,#285,.T.);
#734=EDGE_CURVE('',#538,#574,#286,.T.);
#735=EDGE_CURVE('',#537,#575,#287,.T.);
#736=EDGE_CURVE('',#577,#535,#288,.T.);
#737=EDGE_CURVE('',#536,#576,#289,.T.);
#738=EDGE_CURVE('',#534,#578,#290,.T.);
#739=EDGE_CURVE('',#533,#579,#291,.T.);
#740=EDGE_CURVE('',#581,#531,#292,.T.);
#741=EDGE_CURVE('',#532,#580,#293,.T.);
#742=EDGE_CURVE('',#539,#573,#294,.T.);
#743=EDGE_CURVE('',#530,#582,#295,.T.);
#744=EDGE_CURVE('',#569,#543,#296,.T.);
#745=EDGE_CURVE('',#544,#568,#297,.T.);
#746=EDGE_CURVE('',#545,#567,#298,.T.);
#747=EDGE_CURVE('',#540,#572,#299,.T.);
#748=EDGE_CURVE('',#541,#571,#300,.T.);
#749=EDGE_CURVE('',#542,#570,#301,.T.);
#750=EDGE_CURVE('',#528,#584,#302,.T.);
#751=EDGE_CURVE('',#529,#583,#303,.T.);
#752=EDGE_CURVE('',#516,#560,#304,.T.);
#753=EDGE_CURVE('',#521,#555,#305,.T.);
#754=EDGE_CURVE('',#522,#554,#306,.T.);
#755=EDGE_CURVE('',#514,#562,#307,.T.);
#756=EDGE_CURVE('',#515,#561,#308,.T.);
#757=ORIENTED_EDGE('',*,*,#589,.F.);
#758=ORIENTED_EDGE('',*,*,#590,.T.);
#759=ORIENTED_EDGE('',*,*,#591,.F.);
#760=ORIENTED_EDGE('',*,*,#590,.F.);
#761=ORIENTED_EDGE('',*,*,#592,.F.);
#762=ORIENTED_EDGE('',*,*,#593,.T.);
#763=ORIENTED_EDGE('',*,*,#594,.F.);
#764=ORIENTED_EDGE('',*,*,#593,.F.);
#765=ORIENTED_EDGE('',*,*,#595,.F.);
#766=ORIENTED_EDGE('',*,*,#596,.T.);
#767=ORIENTED_EDGE('',*,*,#597,.F.);
#768=ORIENTED_EDGE('',*,*,#596,.F.);
#769=ORIENTED_EDGE('',*,*,#598,.F.);
#770=ORIENTED_EDGE('',*,*,#599,.T.);
#771=ORIENTED_EDGE('',*,*,#600,.F.);
#772=ORIENTED_EDGE('',*,*,#599,.F.);
#773=ORIENTED_EDGE('',*,*,#601,.F.);
#774=ORIENTED_EDGE('',*,*,#602,.T.);
#775=ORIENTED_EDGE('',*,*,#603,.F.);
#776=ORIENTED_EDGE('',*,*,#602,.F.);
#777=ORIENTED_EDGE('',*,*,#604,.F.);
#778=ORIENTED_EDGE('',*,*,#605,.T.);
#779=ORIENTED_EDGE('',*,*,#606,.F.);
#780=ORIENTED_EDGE('',*,*,#605,.F.);
#781=ORIENTED_EDGE('',*,*,#607,.F.);
#782=ORIENTED_EDGE('',*,*,#608,.T.);
#783=ORIENTED_EDGE('',*,*,#609,.F.);
#784=ORIENTED_EDGE('',*,*,#608,.F.);
#785=ORIENTED_EDGE('',*,*,#610,.F.);
#786=ORIENTED_EDGE('',*,*,#611,.T.);
#787=ORIENTED_EDGE('',*,*,#612,.F.);
#788=ORIENTED_EDGE('',*,*,#611,.F.);
#789=ORIENTED_EDGE('',*,*,#613,.F.);
#790=ORIENTED_EDGE('',*,*,#614,.F.);
#791=ORIENTED_EDGE('',*,*,#615,.F.);
#792=ORIENTED_EDGE('',*,*,#616,.F.);
#793=ORIENTED_EDGE('',*,*,#617,.F.);
#794=ORIENTED_EDGE('',*,*,#618,.F.);
#795=ORIENTED_EDGE('',*,*,#619,.F.);
#796=ORIENTED_EDGE('',*,*,#620,.F.);
#797=ORIENTED_EDGE('',*,*,#621,.F.);
#798=ORIENTED_EDGE('',*,*,#622,.F.);
#799=ORIENTED_EDGE('',*,*,#623,.F.);
#800=ORIENTED_EDGE('',*,*,#624,.F.);
#801=ORIENTED_EDGE('',*,*,#625,.F.);
#802=ORIENTED_EDGE('',*,*,#626,.F.);
#803=ORIENTED_EDGE('',*,*,#627,.F.);
#804=ORIENTED_EDGE('',*,*,#628,.F.);
#805=ORIENTED_EDGE('',*,*,#622,.T.);
#806=ORIENTED_EDGE('',*,*,#629,.T.);
#807=ORIENTED_EDGE('',*,*,#630,.T.);
#808=ORIENTED_EDGE('',*,*,#631,.F.);
#809=ORIENTED_EDGE('',*,*,#618,.T.);
#810=ORIENTED_EDGE('',*,*,#632,.T.);
#811=ORIENTED_EDGE('',*,*,#624,.T.);
#812=ORIENTED_EDGE('',*,*,#633,.F.);
#813=ORIENTED_EDGE('',*,*,#614,.T.);
#814=ORIENTED_EDGE('',*,*,#634,.F.);
#815=ORIENTED_EDGE('',*,*,#635,.F.);
#816=ORIENTED_EDGE('',*,*,#636,.F.);
#817=ORIENTED_EDGE('',*,*,#637,.F.);
#818=ORIENTED_EDGE('',*,*,#638,.F.);
#819=ORIENTED_EDGE('',*,*,#639,.F.);
#820=ORIENTED_EDGE('',*,*,#640,.F.);
#821=ORIENTED_EDGE('',*,*,#641,.F.);
#822=ORIENTED_EDGE('',*,*,#629,.F.);
#823=ORIENTED_EDGE('',*,*,#621,.T.);
#824=ORIENTED_EDGE('',*,*,#632,.F.);
#825=ORIENTED_EDGE('',*,*,#617,.T.);
#826=ORIENTED_EDGE('',*,*,#642,.F.);
#827=ORIENTED_EDGE('',*,*,#643,.F.);
#828=ORIENTED_EDGE('',*,*,#644,.F.);
#829=ORIENTED_EDGE('',*,*,#645,.F.);
#830=ORIENTED_EDGE('',*,*,#646,.F.);
#831=ORIENTED_EDGE('',*,*,#647,.F.);
#832=ORIENTED_EDGE('',*,*,#648,.F.);
#833=ORIENTED_EDGE('',*,*,#649,.F.);
#834=ORIENTED_EDGE('',*,*,#650,.F.);
#835=ORIENTED_EDGE('',*,*,#626,.T.);
#836=ORIENTED_EDGE('',*,*,#651,.F.);
#837=ORIENTED_EDGE('',*,*,#601,.T.);
#838=ORIENTED_EDGE('',*,*,#604,.T.);
#839=ORIENTED_EDGE('',*,*,#607,.T.);
#840=ORIENTED_EDGE('',*,*,#610,.T.);
#841=ORIENTED_EDGE('',*,*,#652,.F.);
#842=ORIENTED_EDGE('',*,*,#653,.F.);
#843=ORIENTED_EDGE('',*,*,#654,.F.);
#844=ORIENTED_EDGE('',*,*,#655,.F.);
#845=ORIENTED_EDGE('',*,*,#656,.F.);
#846=ORIENTED_EDGE('',*,*,#657,.T.);
#847=ORIENTED_EDGE('',*,*,#658,.F.);
#848=ORIENTED_EDGE('',*,*,#659,.T.);
#849=ORIENTED_EDGE('',*,*,#660,.F.);
#850=ORIENTED_EDGE('',*,*,#661,.T.);
#851=ORIENTED_EDGE('',*,*,#662,.F.);
#852=ORIENTED_EDGE('',*,*,#663,.T.);
#853=ORIENTED_EDGE('',*,*,#664,.F.);
#854=ORIENTED_EDGE('',*,*,#665,.F.);
#855=ORIENTED_EDGE('',*,*,#666,.F.);
#856=ORIENTED_EDGE('',*,*,#667,.F.);
#857=ORIENTED_EDGE('',*,*,#668,.F.);
#858=ORIENTED_EDGE('',*,*,#669,.T.);
#859=ORIENTED_EDGE('',*,*,#670,.F.);
#860=ORIENTED_EDGE('',*,*,#671,.T.);
#861=ORIENTED_EDGE('',*,*,#672,.F.);
#862=ORIENTED_EDGE('',*,*,#673,.T.);
#863=ORIENTED_EDGE('',*,*,#674,.F.);
#864=ORIENTED_EDGE('',*,*,#675,.T.);
#865=ORIENTED_EDGE('',*,*,#598,.T.);
#866=ORIENTED_EDGE('',*,*,#595,.T.);
#867=ORIENTED_EDGE('',*,*,#592,.T.);
#868=ORIENTED_EDGE('',*,*,#589,.T.);
#869=ORIENTED_EDGE('',*,*,#627,.T.);
#870=ORIENTED_EDGE('',*,*,#650,.T.);
#871=ORIENTED_EDGE('',*,*,#676,.T.);
#872=ORIENTED_EDGE('',*,*,#677,.F.);
#873=ORIENTED_EDGE('',*,*,#613,.T.);
#874=ORIENTED_EDGE('',*,*,#678,.F.);
#875=ORIENTED_EDGE('',*,*,#679,.T.);
#876=ORIENTED_EDGE('',*,*,#634,.T.);
#877=ORIENTED_EDGE('',*,*,#615,.T.);
#878=ORIENTED_EDGE('',*,*,#651,.T.);
#879=ORIENTED_EDGE('',*,*,#625,.T.);
#880=ORIENTED_EDGE('',*,*,#680,.F.);
#881=ORIENTED_EDGE('',*,*,#676,.F.);
#882=ORIENTED_EDGE('',*,*,#649,.T.);
#883=ORIENTED_EDGE('',*,*,#681,.F.);
#884=ORIENTED_EDGE('',*,*,#682,.F.);
#885=ORIENTED_EDGE('',*,*,#681,.T.);
#886=ORIENTED_EDGE('',*,*,#648,.T.);
#887=ORIENTED_EDGE('',*,*,#683,.T.);
#888=ORIENTED_EDGE('',*,*,#684,.F.);
#889=ORIENTED_EDGE('',*,*,#616,.T.);
#890=ORIENTED_EDGE('',*,*,#680,.T.);
#891=ORIENTED_EDGE('',*,*,#628,.T.);
#892=ORIENTED_EDGE('',*,*,#677,.T.);
#893=ORIENTED_EDGE('',*,*,#682,.T.);
#894=ORIENTED_EDGE('',*,*,#684,.T.);
#895=ORIENTED_EDGE('',*,*,#685,.T.);
#896=ORIENTED_EDGE('',*,*,#686,.T.);
#897=ORIENTED_EDGE('',*,*,#687,.T.);
#898=ORIENTED_EDGE('',*,*,#688,.T.);
#899=ORIENTED_EDGE('',*,*,#689,.T.);
#900=ORIENTED_EDGE('',*,*,#690,.T.);
#901=ORIENTED_EDGE('',*,*,#619,.T.);
#902=ORIENTED_EDGE('',*,*,#633,.T.);
#903=ORIENTED_EDGE('',*,*,#623,.T.);
#904=ORIENTED_EDGE('',*,*,#631,.T.);
#905=ORIENTED_EDGE('',*,*,#691,.T.);
#906=ORIENTED_EDGE('',*,*,#692,.T.);
#907=ORIENTED_EDGE('',*,*,#693,.T.);
#908=ORIENTED_EDGE('',*,*,#694,.T.);
#909=ORIENTED_EDGE('',*,*,#695,.T.);
#910=ORIENTED_EDGE('',*,*,#696,.T.);
#911=ORIENTED_EDGE('',*,*,#697,.T.);
#912=ORIENTED_EDGE('',*,*,#678,.T.);
#913=ORIENTED_EDGE('',*,*,#603,.T.);
#914=ORIENTED_EDGE('',*,*,#606,.T.);
#915=ORIENTED_EDGE('',*,*,#609,.T.);
#916=ORIENTED_EDGE('',*,*,#612,.T.);
#917=ORIENTED_EDGE('',*,*,#698,.T.);
#918=ORIENTED_EDGE('',*,*,#699,.T.);
#919=ORIENTED_EDGE('',*,*,#700,.T.);
#920=ORIENTED_EDGE('',*,*,#701,.T.);
#921=ORIENTED_EDGE('',*,*,#702,.T.);
#922=ORIENTED_EDGE('',*,*,#703,.T.);
#923=ORIENTED_EDGE('',*,*,#704,.T.);
#924=ORIENTED_EDGE('',*,*,#705,.T.);
#925=ORIENTED_EDGE('',*,*,#706,.T.);
#926=ORIENTED_EDGE('',*,*,#707,.T.);
#927=ORIENTED_EDGE('',*,*,#708,.T.);
#928=ORIENTED_EDGE('',*,*,#709,.T.);
#929=ORIENTED_EDGE('',*,*,#710,.T.);
#930=ORIENTED_EDGE('',*,*,#711,.T.);
#931=ORIENTED_EDGE('',*,*,#712,.T.);
#932=ORIENTED_EDGE('',*,*,#713,.T.);
#933=ORIENTED_EDGE('',*,*,#714,.T.);
#934=ORIENTED_EDGE('',*,*,#715,.T.);
#935=ORIENTED_EDGE('',*,*,#716,.T.);
#936=ORIENTED_EDGE('',*,*,#717,.T.);
#937=ORIENTED_EDGE('',*,*,#718,.T.);
#938=ORIENTED_EDGE('',*,*,#719,.T.);
#939=ORIENTED_EDGE('',*,*,#720,.T.);
#940=ORIENTED_EDGE('',*,*,#721,.T.);
#941=ORIENTED_EDGE('',*,*,#600,.T.);
#942=ORIENTED_EDGE('',*,*,#597,.T.);
#943=ORIENTED_EDGE('',*,*,#594,.T.);
#944=ORIENTED_EDGE('',*,*,#591,.T.);
#945=ORIENTED_EDGE('',*,*,#722,.F.);
#946=ORIENTED_EDGE('',*,*,#691,.F.);
#947=ORIENTED_EDGE('',*,*,#630,.F.);
#948=ORIENTED_EDGE('',*,*,#641,.T.);
#949=ORIENTED_EDGE('',*,*,#620,.T.);
#950=ORIENTED_EDGE('',*,*,#690,.F.);
#951=ORIENTED_EDGE('',*,*,#723,.T.);
#952=ORIENTED_EDGE('',*,*,#642,.T.);
#953=ORIENTED_EDGE('',*,*,#723,.F.);
#954=ORIENTED_EDGE('',*,*,#689,.F.);
#955=ORIENTED_EDGE('',*,*,#724,.F.);
#956=ORIENTED_EDGE('',*,*,#643,.T.);
#957=ORIENTED_EDGE('',*,*,#724,.T.);
#958=ORIENTED_EDGE('',*,*,#688,.F.);
#959=ORIENTED_EDGE('',*,*,#725,.F.);
#960=ORIENTED_EDGE('',*,*,#644,.T.);
#961=ORIENTED_EDGE('',*,*,#679,.F.);
#962=ORIENTED_EDGE('',*,*,#697,.F.);
#963=ORIENTED_EDGE('',*,*,#726,.F.);
#964=ORIENTED_EDGE('',*,*,#635,.T.);
#965=ORIENTED_EDGE('',*,*,#726,.T.);
#966=ORIENTED_EDGE('',*,*,#696,.F.);
#967=ORIENTED_EDGE('',*,*,#727,.F.);
#968=ORIENTED_EDGE('',*,*,#636,.T.);
#969=ORIENTED_EDGE('',*,*,#728,.F.);
#970=ORIENTED_EDGE('',*,*,#675,.F.);
#971=ORIENTED_EDGE('',*,*,#729,.T.);
#972=ORIENTED_EDGE('',*,*,#719,.F.);
#973=ORIENTED_EDGE('',*,*,#730,.F.);
#974=ORIENTED_EDGE('',*,*,#721,.F.);
#975=ORIENTED_EDGE('',*,*,#731,.F.);
#976=ORIENTED_EDGE('',*,*,#673,.F.);
#977=ORIENTED_EDGE('',*,*,#674,.T.);
#978=ORIENTED_EDGE('',*,*,#731,.T.);
#979=ORIENTED_EDGE('',*,*,#720,.F.);
#980=ORIENTED_EDGE('',*,*,#729,.F.);
#981=ORIENTED_EDGE('',*,*,#728,.T.);
#982=ORIENTED_EDGE('',*,*,#718,.F.);
#983=ORIENTED_EDGE('',*,*,#732,.F.);
#984=ORIENTED_EDGE('',*,*,#652,.T.);
#985=ORIENTED_EDGE('',*,*,#730,.T.);
#986=ORIENTED_EDGE('',*,*,#672,.T.);
#987=ORIENTED_EDGE('',*,*,#733,.T.);
#988=ORIENTED_EDGE('',*,*,#698,.F.);
#989=ORIENTED_EDGE('',*,*,#734,.F.);
#990=ORIENTED_EDGE('',*,*,#663,.F.);
#991=ORIENTED_EDGE('',*,*,#735,.T.);
#992=ORIENTED_EDGE('',*,*,#707,.F.);
#993=ORIENTED_EDGE('',*,*,#736,.F.);
#994=ORIENTED_EDGE('',*,*,#709,.F.);
#995=ORIENTED_EDGE('',*,*,#737,.F.);
#996=ORIENTED_EDGE('',*,*,#661,.F.);
#997=ORIENTED_EDGE('',*,*,#662,.T.);
#998=ORIENTED_EDGE('',*,*,#737,.T.);
#999=ORIENTED_EDGE('',*,*,#708,.F.);
#1000=ORIENTED_EDGE('',*,*,#735,.F.);
#1001=ORIENTED_EDGE('',*,*,#736,.T.);
#1002=ORIENTED_EDGE('',*,*,#660,.T.);
#1003=ORIENTED_EDGE('',*,*,#738,.T.);
#1004=ORIENTED_EDGE('',*,*,#710,.F.);
#1005=ORIENTED_EDGE('',*,*,#738,.F.);
#1006=ORIENTED_EDGE('',*,*,#659,.F.);
#1007=ORIENTED_EDGE('',*,*,#739,.T.);
#1008=ORIENTED_EDGE('',*,*,#711,.F.);
#1009=ORIENTED_EDGE('',*,*,#740,.F.);
#1010=ORIENTED_EDGE('',*,*,#713,.F.);
#1011=ORIENTED_EDGE('',*,*,#741,.F.);
#1012=ORIENTED_EDGE('',*,*,#657,.F.);
#1013=ORIENTED_EDGE('',*,*,#658,.T.);
#1014=ORIENTED_EDGE('',*,*,#741,.T.);
#1015=ORIENTED_EDGE('',*,*,#712,.F.);
#1016=ORIENTED_EDGE('',*,*,#739,.F.);
#1017=ORIENTED_EDGE('',*,*,#734,.T.);
#1018=ORIENTED_EDGE('',*,*,#706,.F.);
#1019=ORIENTED_EDGE('',*,*,#742,.F.);
#1020=ORIENTED_EDGE('',*,*,#664,.T.);
#1021=ORIENTED_EDGE('',*,*,#740,.T.);
#1022=ORIENTED_EDGE('',*,*,#656,.T.);
#1023=ORIENTED_EDGE('',*,*,#743,.T.);
#1024=ORIENTED_EDGE('',*,*,#714,.F.);
#1025=ORIENTED_EDGE('',*,*,#744,.F.);
#1026=ORIENTED_EDGE('',*,*,#701,.F.);
#1027=ORIENTED_EDGE('',*,*,#745,.F.);
#1028=ORIENTED_EDGE('',*,*,#669,.F.);
#1029=ORIENTED_EDGE('',*,*,#733,.F.);
#1030=ORIENTED_EDGE('',*,*,#671,.F.);
#1031=ORIENTED_EDGE('',*,*,#746,.T.);
#1032=ORIENTED_EDGE('',*,*,#699,.F.);
#1033=ORIENTED_EDGE('',*,*,#670,.T.);
#1034=ORIENTED_EDGE('',*,*,#745,.T.);
#1035=ORIENTED_EDGE('',*,*,#700,.F.);
#1036=ORIENTED_EDGE('',*,*,#746,.F.);
#1037=ORIENTED_EDGE('',*,*,#666,.T.);
#1038=ORIENTED_EDGE('',*,*,#747,.T.);
#1039=ORIENTED_EDGE('',*,*,#704,.F.);
#1040=ORIENTED_EDGE('',*,*,#748,.F.);
#1041=ORIENTED_EDGE('',*,*,#667,.T.);
#1042=ORIENTED_EDGE('',*,*,#748,.T.);
#1043=ORIENTED_EDGE('',*,*,#703,.F.);
#1044=ORIENTED_EDGE('',*,*,#749,.F.);
#1045=ORIENTED_EDGE('',*,*,#744,.T.);
#1046=ORIENTED_EDGE('',*,*,#668,.T.);
#1047=ORIENTED_EDGE('',*,*,#749,.T.);
#1048=ORIENTED_EDGE('',*,*,#702,.F.);
#1049=ORIENTED_EDGE('',*,*,#653,.T.);
#1050=ORIENTED_EDGE('',*,*,#732,.T.);
#1051=ORIENTED_EDGE('',*,*,#717,.F.);
#1052=ORIENTED_EDGE('',*,*,#750,.F.);
#1053=ORIENTED_EDGE('',*,*,#654,.T.);
#1054=ORIENTED_EDGE('',*,*,#750,.T.);
#1055=ORIENTED_EDGE('',*,*,#716,.F.);
#1056=ORIENTED_EDGE('',*,*,#751,.F.);
#1057=ORIENTED_EDGE('',*,*,#655,.T.);
#1058=ORIENTED_EDGE('',*,*,#751,.T.);
#1059=ORIENTED_EDGE('',*,*,#715,.F.);
#1060=ORIENTED_EDGE('',*,*,#743,.F.);
#1061=ORIENTED_EDGE('',*,*,#665,.T.);
#1062=ORIENTED_EDGE('',*,*,#742,.T.);
#1063=ORIENTED_EDGE('',*,*,#705,.F.);
#1064=ORIENTED_EDGE('',*,*,#747,.F.);
#1065=ORIENTED_EDGE('',*,*,#722,.T.);
#1066=ORIENTED_EDGE('',*,*,#640,.T.);
#1067=ORIENTED_EDGE('',*,*,#752,.T.);
#1068=ORIENTED_EDGE('',*,*,#692,.F.);
#1069=ORIENTED_EDGE('',*,*,#645,.T.);
#1070=ORIENTED_EDGE('',*,*,#725,.T.);
#1071=ORIENTED_EDGE('',*,*,#687,.F.);
#1072=ORIENTED_EDGE('',*,*,#753,.F.);
#1073=ORIENTED_EDGE('',*,*,#646,.T.);
#1074=ORIENTED_EDGE('',*,*,#753,.T.);
#1075=ORIENTED_EDGE('',*,*,#686,.F.);
#1076=ORIENTED_EDGE('',*,*,#754,.F.);
#1077=ORIENTED_EDGE('',*,*,#647,.T.);
#1078=ORIENTED_EDGE('',*,*,#754,.T.);
#1079=ORIENTED_EDGE('',*,*,#685,.F.);
#1080=ORIENTED_EDGE('',*,*,#683,.F.);
#1081=ORIENTED_EDGE('',*,*,#637,.T.);
#1082=ORIENTED_EDGE('',*,*,#727,.T.);
#1083=ORIENTED_EDGE('',*,*,#695,.F.);
#1084=ORIENTED_EDGE('',*,*,#755,.F.);
#1085=ORIENTED_EDGE('',*,*,#638,.T.);
#1086=ORIENTED_EDGE('',*,*,#755,.T.);
#1087=ORIENTED_EDGE('',*,*,#694,.F.);
#1088=ORIENTED_EDGE('',*,*,#756,.F.);
#1089=ORIENTED_EDGE('',*,*,#639,.T.);
#1090=ORIENTED_EDGE('',*,*,#756,.T.);
#1091=ORIENTED_EDGE('',*,*,#693,.F.);
#1092=ORIENTED_EDGE('',*,*,#752,.F.);
#1093=CYLINDRICAL_SURFACE('',#1193,0.17);
#1094=CYLINDRICAL_SURFACE('',#1196,0.17);
#1095=CYLINDRICAL_SURFACE('',#1199,0.17);
#1096=CYLINDRICAL_SURFACE('',#1202,0.17);
#1097=CYLINDRICAL_SURFACE('',#1205,0.14);
#1098=CYLINDRICAL_SURFACE('',#1208,0.14);
#1099=CYLINDRICAL_SURFACE('',#1211,0.14);
#1100=CYLINDRICAL_SURFACE('',#1214,0.14);
#1101=CYLINDRICAL_SURFACE('',#1217,0.5);
#1102=CYLINDRICAL_SURFACE('',#1220,0.5);
#1103=CYLINDRICAL_SURFACE('',#1223,0.5);
#1104=CYLINDRICAL_SURFACE('',#1226,0.5);
#1105=CYLINDRICAL_SURFACE('',#1251,0.45);
#1106=CYLINDRICAL_SURFACE('',#1270,0.45);
#1107=CYLINDRICAL_SURFACE('',#1272,0.45);
#1108=CYLINDRICAL_SURFACE('',#1274,0.45);
#1109=CYLINDRICAL_SURFACE('',#1278,0.32);
#1110=CYLINDRICAL_SURFACE('',#1283,0.32);
#1111=CYLINDRICAL_SURFACE('',#1287,0.32);
#1112=CYLINDRICAL_SURFACE('',#1292,0.32);
#1113=CYLINDRICAL_SURFACE('',#1294,0.04);
#1114=CYLINDRICAL_SURFACE('',#1296,0.04);
#1115=CYLINDRICAL_SURFACE('',#1298,0.04);
#1116=CYLINDRICAL_SURFACE('',#1299,0.04);
#1117=CYLINDRICAL_SURFACE('',#1301,0.0999999999999996);
#1118=CYLINDRICAL_SURFACE('',#1303,0.1);
#1119=CYLINDRICAL_SURFACE('',#1304,0.0999999999999996);
#1120=CYLINDRICAL_SURFACE('',#1306,0.1);
#1121=ADVANCED_FACE('',(#63),#1093,.F.);
#1122=ADVANCED_FACE('',(#64),#1094,.F.);
#1123=ADVANCED_FACE('',(#65),#1095,.F.);
#1124=ADVANCED_FACE('',(#66),#1096,.F.);
#1125=ADVANCED_FACE('',(#67),#1097,.F.);
#1126=ADVANCED_FACE('',(#68),#1098,.F.);
#1127=ADVANCED_FACE('',(#69),#1099,.F.);
#1128=ADVANCED_FACE('',(#70),#1100,.F.);
#1129=ADVANCED_FACE('',(#71),#1101,.F.);
#1130=ADVANCED_FACE('',(#72),#1102,.F.);
#1131=ADVANCED_FACE('',(#73),#1103,.F.);
#1132=ADVANCED_FACE('',(#74),#1104,.F.);
#1133=ADVANCED_FACE('',(#75),#33,.T.);
#1134=ADVANCED_FACE('',(#76),#34,.T.);
#1135=ADVANCED_FACE('',(#77,#15,#16,#17,#18,#19,#20,#21,#22,#23),#35,.F.);
#1136=ADVANCED_FACE('',(#78),#36,.T.);
#1137=ADVANCED_FACE('',(#79),#37,.T.);
#1138=ADVANCED_FACE('',(#80),#38,.T.);
#1139=ADVANCED_FACE('',(#81),#1105,.T.);
#1140=ADVANCED_FACE('',(#82),#39,.T.);
#1141=ADVANCED_FACE('',(#83,#24,#25,#26,#27,#28,#29,#30,#31,#32),#40,.T.);
#1142=ADVANCED_FACE('',(#84),#1106,.T.);
#1143=ADVANCED_FACE('',(#85),#41,.T.);
#1144=ADVANCED_FACE('',(#86),#1107,.T.);
#1145=ADVANCED_FACE('',(#87),#42,.T.);
#1146=ADVANCED_FACE('',(#88),#1108,.T.);
#1147=ADVANCED_FACE('',(#89),#43,.T.);
#1148=ADVANCED_FACE('',(#90),#44,.T.);
#1149=ADVANCED_FACE('',(#91),#45,.T.);
#1150=ADVANCED_FACE('',(#92),#1109,.T.);
#1151=ADVANCED_FACE('',(#93),#46,.T.);
#1152=ADVANCED_FACE('',(#94),#47,.T.);
#1153=ADVANCED_FACE('',(#95),#48,.T.);
#1154=ADVANCED_FACE('',(#96),#49,.T.);
#1155=ADVANCED_FACE('',(#97),#1110,.T.);
#1156=ADVANCED_FACE('',(#98),#50,.T.);
#1157=ADVANCED_FACE('',(#99),#51,.T.);
#1158=ADVANCED_FACE('',(#100),#52,.T.);
#1159=ADVANCED_FACE('',(#101),#1111,.T.);
#1160=ADVANCED_FACE('',(#102),#53,.T.);
#1161=ADVANCED_FACE('',(#103),#54,.T.);
#1162=ADVANCED_FACE('',(#104),#55,.T.);
#1163=ADVANCED_FACE('',(#105),#56,.T.);
#1164=ADVANCED_FACE('',(#106),#1112,.T.);
#1165=ADVANCED_FACE('',(#107),#57,.T.);
#1166=ADVANCED_FACE('',(#108),#1113,.F.);
#1167=ADVANCED_FACE('',(#109),#58,.T.);
#1168=ADVANCED_FACE('',(#110),#1114,.F.);
#1169=ADVANCED_FACE('',(#111),#59,.T.);
#1170=ADVANCED_FACE('',(#112),#1115,.F.);
#1171=ADVANCED_FACE('',(#113),#1116,.F.);
#1172=ADVANCED_FACE('',(#114),#60,.T.);
#1173=ADVANCED_FACE('',(#115),#1117,.T.);
#1174=ADVANCED_FACE('',(#116),#61,.T.);
#1175=ADVANCED_FACE('',(#117),#1118,.T.);
#1176=ADVANCED_FACE('',(#118),#1119,.T.);
#1177=ADVANCED_FACE('',(#119),#62,.T.);
#1178=ADVANCED_FACE('',(#120),#1120,.T.);
#1179=CLOSED_SHELL('',(#1121,#1122,#1123,#1124,#1125,#1126,#1127,#1128,
#1129,#1130,#1131,#1132,#1133,#1134,#1135,#1136,#1137,#1138,#1139,#1140,
#1141,#1142,#1143,#1144,#1145,#1146,#1147,#1148,#1149,#1150,#1151,#1152,
#1153,#1154,#1155,#1156,#1157,#1158,#1159,#1160,#1161,#1162,#1163,#1164,
#1165,#1166,#1167,#1168,#1169,#1170,#1171,#1172,#1173,#1174,#1175,#1176,
#1177,#1178));
#1180=DERIVED_UNIT_ELEMENT(#1182,1.);
#1181=DERIVED_UNIT_ELEMENT(#1993,-3.);
#1182=(
MASS_UNIT()
NAMED_UNIT(*)
SI_UNIT(.KILO.,.GRAM.)
);
#1183=DERIVED_UNIT((#1180,#1181));
#1184=MEASURE_REPRESENTATION_ITEM('density measure',
POSITIVE_RATIO_MEASURE(7850.),#1183);
#1185=PROPERTY_DEFINITION_REPRESENTATION(#1190,#1187);
#1186=PROPERTY_DEFINITION_REPRESENTATION(#1191,#1188);
#1187=REPRESENTATION('material name',(#1189),#1990);
#1188=REPRESENTATION('density',(#1184),#1990);
#1189=DESCRIPTIVE_REPRESENTATION_ITEM('Steel','Steel');
#1190=PROPERTY_DEFINITION('material property','material name',#2000);
#1191=PROPERTY_DEFINITION('material property','density of part',#2000);
#1192=AXIS2_PLACEMENT_3D('',#1649,#1307,#1308);
#1193=AXIS2_PLACEMENT_3D('',#1650,#1309,#1310);
#1194=AXIS2_PLACEMENT_3D('',#1652,#1311,#1312);
#1195=AXIS2_PLACEMENT_3D('',#1655,#1314,#1315);
#1196=AXIS2_PLACEMENT_3D('',#1656,#1316,#1317);
#1197=AXIS2_PLACEMENT_3D('',#1658,#1318,#1319);
#1198=AXIS2_PLACEMENT_3D('',#1661,#1321,#1322);
#1199=AXIS2_PLACEMENT_3D('',#1662,#1323,#1324);
#1200=AXIS2_PLACEMENT_3D('',#1664,#1325,#1326);
#1201=AXIS2_PLACEMENT_3D('',#1667,#1328,#1329);
#1202=AXIS2_PLACEMENT_3D('',#1668,#1330,#1331);
#1203=AXIS2_PLACEMENT_3D('',#1670,#1332,#1333);
#1204=AXIS2_PLACEMENT_3D('',#1673,#1335,#1336);
#1205=AXIS2_PLACEMENT_3D('',#1674,#1337,#1338);
#1206=AXIS2_PLACEMENT_3D('',#1676,#1339,#1340);
#1207=AXIS2_PLACEMENT_3D('',#1679,#1342,#1343);
#1208=AXIS2_PLACEMENT_3D('',#1680,#1344,#1345);
#1209=AXIS2_PLACEMENT_3D('',#1682,#1346,#1347);
#1210=AXIS2_PLACEMENT_3D('',#1685,#1349,#1350);
#1211=AXIS2_PLACEMENT_3D('',#1686,#1351,#1352);
#1212=AXIS2_PLACEMENT_3D('',#1688,#1353,#1354);
#1213=AXIS2_PLACEMENT_3D('',#1691,#1356,#1357);
#1214=AXIS2_PLACEMENT_3D('',#1692,#1358,#1359);
#1215=AXIS2_PLACEMENT_3D('',#1694,#1360,#1361);
#1216=AXIS2_PLACEMENT_3D('',#1697,#1363,#1364);
#1217=AXIS2_PLACEMENT_3D('',#1698,#1365,#1366);
#1218=AXIS2_PLACEMENT_3D('',#1703,#1368,#1369);
#1219=AXIS2_PLACEMENT_3D('',#1706,#1371,#1372);
#1220=AXIS2_PLACEMENT_3D('',#1707,#1373,#1374);
#1221=AXIS2_PLACEMENT_3D('',#1710,#1375,#1376);
#1222=AXIS2_PLACEMENT_3D('',#1714,#1378,#1379);
#1223=AXIS2_PLACEMENT_3D('',#1716,#1381,#1382);
#1224=AXIS2_PLACEMENT_3D('',#1719,#1383,#1384);
#1225=AXIS2_PLACEMENT_3D('',#1723,#1386,#1387);
#1226=AXIS2_PLACEMENT_3D('',#1725,#1389,#1390);
#1227=AXIS2_PLACEMENT_3D('',#1730,#1392,#1393);
#1228=AXIS2_PLACEMENT_3D('',#1733,#1395,#1396);
#1229=AXIS2_PLACEMENT_3D('',#1734,#1397,#1398);
#1230=AXIS2_PLACEMENT_3D('',#1740,#1402,#1403);
#1231=AXIS2_PLACEMENT_3D('',#1743,#1406,#1407);
#1232=AXIS2_PLACEMENT_3D('',#1747,#1409,#1410);
#1233=AXIS2_PLACEMENT_3D('',#1751,#1412,#1413);
#1234=AXIS2_PLACEMENT_3D('',#1755,#1415,#1416);
#1235=AXIS2_PLACEMENT_3D('',#1758,#1418,#1419);
#1236=AXIS2_PLACEMENT_3D('',#1762,#1421,#1422);
#1237=AXIS2_PLACEMENT_3D('',#1766,#1424,#1425);
#1238=AXIS2_PLACEMENT_3D('',#1770,#1427,#1428);
#1239=AXIS2_PLACEMENT_3D('',#1774,#1430,#1431);
#1240=AXIS2_PLACEMENT_3D('',#1781,#1435,#1436);
#1241=AXIS2_PLACEMENT_3D('',#1785,#1438,#1439);
#1242=AXIS2_PLACEMENT_3D('',#1791,#1442,#1443);
#1243=AXIS2_PLACEMENT_3D('',#1799,#1447,#1448);
#1244=AXIS2_PLACEMENT_3D('',#1805,#1451,#1452);
#1245=AXIS2_PLACEMENT_3D('',#1809,#1454,#1455);
#1246=AXIS2_PLACEMENT_3D('',#1815,#1458,#1459);
#1247=AXIS2_PLACEMENT_3D('',#1823,#1463,#1464);
#1248=AXIS2_PLACEMENT_3D('',#1825,#1466,#1467);
#1249=AXIS2_PLACEMENT_3D('',#1829,#1470,#1471);
#1250=AXIS2_PLACEMENT_3D('',#1833,#1474,#1475);
#1251=AXIS2_PLACEMENT_3D('',#1835,#1477,#1478);
#1252=AXIS2_PLACEMENT_3D('',#1838,#1480,#1481);
#1253=AXIS2_PLACEMENT_3D('',#1839,#1482,#1483);
#1254=AXIS2_PLACEMENT_3D('',#1843,#1486,#1487);
#1255=AXIS2_PLACEMENT_3D('',#1845,#1488,#1489);
#1256=AXIS2_PLACEMENT_3D('',#1849,#1491,#1492);
#1257=AXIS2_PLACEMENT_3D('',#1853,#1494,#1495);
#1258=AXIS2_PLACEMENT_3D('',#1856,#1497,#1498);
#1259=AXIS2_PLACEMENT_3D('',#1860,#1500,#1501);
#1260=AXIS2_PLACEMENT_3D('',#1864,#1503,#1504);
#1261=AXIS2_PLACEMENT_3D('',#1867,#1506,#1507);
#1262=AXIS2_PLACEMENT_3D('',#1874,#1510,#1511);
#1263=AXIS2_PLACEMENT_3D('',#1880,#1514,#1515);
#1264=AXIS2_PLACEMENT_3D('',#1884,#1517,#1518);
#1265=AXIS2_PLACEMENT_3D('',#1890,#1521,#1522);
#1266=AXIS2_PLACEMENT_3D('',#1898,#1526,#1527);
#1267=AXIS2_PLACEMENT_3D('',#1904,#1530,#1531);
#1268=AXIS2_PLACEMENT_3D('',#1908,#1533,#1534);
#1269=AXIS2_PLACEMENT_3D('',#1914,#1537,#1538);
#1270=AXIS2_PLACEMENT_3D('',#1916,#1540,#1541);
#1271=AXIS2_PLACEMENT_3D('',#1918,#1543,#1544);
#1272=AXIS2_PLACEMENT_3D('',#1920,#1546,#1547);
#1273=AXIS2_PLACEMENT_3D('',#1922,#1549,#1550);
#1274=AXIS2_PLACEMENT_3D('',#1924,#1552,#1553);
#1275=AXIS2_PLACEMENT_3D('',#1926,#1555,#1556);
#1276=AXIS2_PLACEMENT_3D('',#1928,#1558,#1559);
#1277=AXIS2_PLACEMENT_3D('',#1931,#1562,#1563);
#1278=AXIS2_PLACEMENT_3D('',#1934,#1566,#1567);
#1279=AXIS2_PLACEMENT_3D('',#1935,#1568,#1569);
#1280=AXIS2_PLACEMENT_3D('',#1937,#1571,#1572);
#1281=AXIS2_PLACEMENT_3D('',#1939,#1574,#1575);
#1282=AXIS2_PLACEMENT_3D('',#1942,#1578,#1579);
#1283=AXIS2_PLACEMENT_3D('',#1945,#1582,#1583);
#1284=AXIS2_PLACEMENT_3D('',#1946,#1584,#1585);
#1285=AXIS2_PLACEMENT_3D('',#1948,#1587,#1588);
#1286=AXIS2_PLACEMENT_3D('',#1950,#1590,#1591);
#1287=AXIS2_PLACEMENT_3D('',#1953,#1594,#1595);
#1288=AXIS2_PLACEMENT_3D('',#1954,#1596,#1597);
#1289=AXIS2_PLACEMENT_3D('',#1956,#1599,#1600);
#1290=AXIS2_PLACEMENT_3D('',#1958,#1602,#1603);
#1291=AXIS2_PLACEMENT_3D('',#1961,#1606,#1607);
#1292=AXIS2_PLACEMENT_3D('',#1963,#1609,#1610);
#1293=AXIS2_PLACEMENT_3D('',#1964,#1611,#1612);
#1294=AXIS2_PLACEMENT_3D('',#1967,#1615,#1616);
#1295=AXIS2_PLACEMENT_3D('',#1969,#1618,#1619);
#1296=AXIS2_PLACEMENT_3D('',#1970,#1620,#1621);
#1297=AXIS2_PLACEMENT_3D('',#1972,#1623,#1624);
#1298=AXIS2_PLACEMENT_3D('',#1974,#1626,#1627);
#1299=AXIS2_PLACEMENT_3D('',#1975,#1628,#1629);
#1300=AXIS2_PLACEMENT_3D('',#1976,#1630,#1631);
#1301=AXIS2_PLACEMENT_3D('',#1978,#1633,#1634);
#1302=AXIS2_PLACEMENT_3D('',#1980,#1636,#1637);
#1303=AXIS2_PLACEMENT_3D('',#1982,#1639,#1640);
#1304=AXIS2_PLACEMENT_3D('',#1983,#1641,#1642);
#1305=AXIS2_PLACEMENT_3D('',#1985,#1644,#1645);
#1306=AXIS2_PLACEMENT_3D('',#1987,#1647,#1648);
#1307=DIRECTION('axis',(0.,0.,1.));
#1308=DIRECTION('refdir',(1.,0.,0.));
#1309=DIRECTION('center_axis',(0.,0.,1.));
#1310=DIRECTION('ref_axis',(1.,0.,0.));
#1311=DIRECTION('center_axis',(0.,0.,1.));
#1312=DIRECTION('ref_axis',(1.,0.,0.));
#1313=DIRECTION('',(0.,0.,1.));
#1314=DIRECTION('center_axis',(0.,0.,-1.));
#1315=DIRECTION('ref_axis',(1.,0.,0.));
#1316=DIRECTION('center_axis',(0.,0.,1.));
#1317=DIRECTION('ref_axis',(1.,0.,0.));
#1318=DIRECTION('center_axis',(0.,0.,1.));
#1319=DIRECTION('ref_axis',(1.,0.,0.));
#1320=DIRECTION('',(0.,0.,1.));
#1321=DIRECTION('center_axis',(0.,0.,-1.));
#1322=DIRECTION('ref_axis',(1.,0.,0.));
#1323=DIRECTION('center_axis',(0.,0.,1.));
#1324=DIRECTION('ref_axis',(1.,0.,0.));
#1325=DIRECTION('center_axis',(0.,0.,1.));
#1326=DIRECTION('ref_axis',(1.,0.,0.));
#1327=DIRECTION('',(0.,0.,1.));
#1328=DIRECTION('center_axis',(0.,0.,-1.));
#1329=DIRECTION('ref_axis',(1.,0.,0.));
#1330=DIRECTION('center_axis',(0.,0.,1.));
#1331=DIRECTION('ref_axis',(1.,0.,0.));
#1332=DIRECTION('center_axis',(0.,0.,1.));
#1333=DIRECTION('ref_axis',(1.,0.,0.));
#1334=DIRECTION('',(0.,0.,1.));
#1335=DIRECTION('center_axis',(0.,0.,-1.));
#1336=DIRECTION('ref_axis',(1.,0.,0.));
#1337=DIRECTION('center_axis',(0.,0.,1.));
#1338=DIRECTION('ref_axis',(1.,0.,0.));
#1339=DIRECTION('center_axis',(0.,0.,1.));
#1340=DIRECTION('ref_axis',(1.,0.,0.));
#1341=DIRECTION('',(0.,0.,1.));
#1342=DIRECTION('center_axis',(0.,0.,-1.));
#1343=DIRECTION('ref_axis',(1.,0.,0.));
#1344=DIRECTION('center_axis',(0.,0.,1.));
#1345=DIRECTION('ref_axis',(1.,0.,0.));
#1346=DIRECTION('center_axis',(0.,0.,1.));
#1347=DIRECTION('ref_axis',(1.,0.,0.));
#1348=DIRECTION('',(0.,0.,1.));
#1349=DIRECTION('center_axis',(0.,0.,-1.));
#1350=DIRECTION('ref_axis',(1.,0.,0.));
#1351=DIRECTION('center_axis',(0.,0.,1.));
#1352=DIRECTION('ref_axis',(1.,0.,0.));
#1353=DIRECTION('center_axis',(0.,0.,1.));
#1354=DIRECTION('ref_axis',(1.,0.,0.));
#1355=DIRECTION('',(0.,0.,1.));
#1356=DIRECTION('center_axis',(0.,0.,-1.));
#1357=DIRECTION('ref_axis',(1.,0.,0.));
#1358=DIRECTION('center_axis',(0.,0.,1.));
#1359=DIRECTION('ref_axis',(1.,0.,0.));
#1360=DIRECTION('center_axis',(0.,0.,1.));
#1361=DIRECTION('ref_axis',(1.,0.,0.));
#1362=DIRECTION('',(0.,0.,1.));
#1363=DIRECTION('center_axis',(0.,0.,-1.));
#1364=DIRECTION('ref_axis',(1.,0.,0.));
#1365=DIRECTION('center_axis',(0.,0.,1.));
#1366=DIRECTION('ref_axis',(-1.,-1.22464679914735E-16,0.));
#1367=DIRECTION('',(0.,0.,1.));
#1368=DIRECTION('center_axis',(0.,0.,1.));
#1369=DIRECTION('ref_axis',(1.,0.,0.));
#1370=DIRECTION('',(0.,0.,-1.));
#1371=DIRECTION('center_axis',(0.,0.,-1.));
#1372=DIRECTION('ref_axis',(1.,0.,0.));
#1373=DIRECTION('center_axis',(0.,0.,1.));
#1374=DIRECTION('ref_axis',(1.,0.,0.));
#1375=DIRECTION('center_axis',(0.,0.,1.));
#1376=DIRECTION('ref_axis',(1.,0.,0.));
#1377=DIRECTION('',(0.,0.,-1.));
#1378=DIRECTION('center_axis',(0.,0.,-1.));
#1379=DIRECTION('ref_axis',(1.,0.,0.));
#1380=DIRECTION('',(0.,0.,1.));
#1381=DIRECTION('center_axis',(0.,0.,1.));
#1382=DIRECTION('ref_axis',(1.,0.,0.));
#1383=DIRECTION('center_axis',(0.,0.,1.));
#1384=DIRECTION('ref_axis',(1.,0.,0.));
#1385=DIRECTION('',(0.,0.,-1.));
#1386=DIRECTION('center_axis',(0.,0.,-1.));
#1387=DIRECTION('ref_axis',(1.,0.,0.));
#1388=DIRECTION('',(0.,0.,1.));
#1389=DIRECTION('center_axis',(0.,0.,1.));
#1390=DIRECTION('ref_axis',(-1.,-1.22464679914735E-16,0.));
#1391=DIRECTION('',(0.,0.,1.));
#1392=DIRECTION('center_axis',(0.,0.,1.));
#1393=DIRECTION('ref_axis',(1.,0.,0.));
#1394=DIRECTION('',(0.,0.,-1.));
#1395=DIRECTION('center_axis',(0.,0.,-1.));
#1396=DIRECTION('ref_axis',(1.,0.,0.));
#1397=DIRECTION('center_axis',(-1.,0.,0.));
#1398=DIRECTION('ref_axis',(0.,-1.,0.));
#1399=DIRECTION('',(0.,-1.,0.));
#1400=DIRECTION('',(0.,0.,1.));
#1401=DIRECTION('',(0.,-1.,0.));
#1402=DIRECTION('center_axis',(-1.,0.,0.));
#1403=DIRECTION('ref_axis',(0.,-1.,0.));
#1404=DIRECTION('',(0.,-1.,0.));
#1405=DIRECTION('',(0.,-1.,0.));
#1406=DIRECTION('center_axis',(0.,0.,1.));
#1407=DIRECTION('ref_axis',(1.,0.,0.));
#1408=DIRECTION('',(0.,1.,0.));
#1409=DIRECTION('center_axis',(0.,0.,1.));
#1410=DIRECTION('ref_axis',(1.,0.,0.));
#1411=DIRECTION('',(0.,1.,0.));
#1412=DIRECTION('center_axis',(0.,0.,1.));
#1413=DIRECTION('ref_axis',(0.,-1.,0.));
#1414=DIRECTION('',(1.,0.,0.));
#1415=DIRECTION('center_axis',(0.,0.,1.));
#1416=DIRECTION('ref_axis',(-1.,0.,0.));
#1417=DIRECTION('',(0.,-1.,0.));
#1418=DIRECTION('center_axis',(0.,0.,1.));
#1419=DIRECTION('ref_axis',(1.,0.,0.));
#1420=DIRECTION('',(0.,-1.,0.));
#1421=DIRECTION('center_axis',(0.,0.,1.));
#1422=DIRECTION('ref_axis',(1.,0.,0.));
#1423=DIRECTION('',(0.,-1.,0.));
#1424=DIRECTION('center_axis',(0.,0.,1.));
#1425=DIRECTION('ref_axis',(0.,1.,0.));
#1426=DIRECTION('',(-1.,0.,0.));
#1427=DIRECTION('center_axis',(0.,0.,1.));
#1428=DIRECTION('ref_axis',(1.,0.,0.));
#1429=DIRECTION('',(0.,1.,0.));
#1430=DIRECTION('center_axis',(0.,0.,1.));
#1431=DIRECTION('ref_axis',(1.,0.,0.));
#1432=DIRECTION('',(0.,1.,0.));
#1433=DIRECTION('',(0.,1.,0.));
#1434=DIRECTION('',(0.,-1.,0.));
#1435=DIRECTION('center_axis',(0.,0.,-1.));
#1436=DIRECTION('ref_axis',(1.,0.,0.));
#1437=DIRECTION('',(1.,0.,0.));
#1438=DIRECTION('center_axis',(0.,0.,-1.));
#1439=DIRECTION('ref_axis',(0.,1.,0.));
#1440=DIRECTION('',(0.,1.,0.));
#1441=DIRECTION('',(0.924719074203297,0.380650277557494,0.));
#1442=DIRECTION('center_axis',(0.,0.,1.));
#1443=DIRECTION('ref_axis',(-0.380650277557494,-0.924719074203297,0.));
#1444=DIRECTION('',(-0.924719074203297,0.380650277557494,0.));
#1445=DIRECTION('',(0.,1.,0.));
#1446=DIRECTION('',(0.924719074203297,0.380650277557494,0.));
#1447=DIRECTION('center_axis',(0.,0.,1.));
#1448=DIRECTION('ref_axis',(-0.380650277557494,-0.924719074203297,0.));
#1449=DIRECTION('',(-0.924719074203297,0.380650277557495,0.));
#1450=DIRECTION('',(0.,1.,0.));
#1451=DIRECTION('center_axis',(0.,0.,-1.));
#1452=DIRECTION('ref_axis',(-1.,0.,0.));
#1453=DIRECTION('',(-1.,0.,0.));
#1454=DIRECTION('center_axis',(0.,0.,-1.));
#1455=DIRECTION('ref_axis',(0.,-1.,0.));
#1456=DIRECTION('',(0.,-1.,0.));
#1457=DIRECTION('',(-0.924719074203297,-0.380650277557495,0.));
#1458=DIRECTION('center_axis',(0.,0.,1.));
#1459=DIRECTION('ref_axis',(0.380650277557494,0.924719074203297,0.));
#1460=DIRECTION('',(0.924719074203297,-0.380650277557494,0.));
#1461=DIRECTION('',(0.,-1.,0.));
#1462=DIRECTION('',(-0.924719074203297,-0.380650277557494,0.));
#1463=DIRECTION('center_axis',(0.,0.,1.));
#1464=DIRECTION('ref_axis',(0.380650277557494,0.924719074203297,0.));
#1465=DIRECTION('',(0.924719074203297,-0.380650277557494,0.));
#1466=DIRECTION('center_axis',(1.,0.,0.));
#1467=DIRECTION('ref_axis',(0.,1.,0.));
#1468=DIRECTION('',(0.,0.,1.));
#1469=DIRECTION('',(0.,1.,0.));
#1470=DIRECTION('center_axis',(1.,0.,0.));
#1471=DIRECTION('ref_axis',(0.,1.,0.));
#1472=DIRECTION('',(0.,1.,0.));
#1473=DIRECTION('',(0.,0.,-1.));
#1474=DIRECTION('center_axis',(1.,0.,0.));
#1475=DIRECTION('ref_axis',(0.,1.,0.));
#1476=DIRECTION('',(0.,1.,0.));
#1477=DIRECTION('center_axis',(0.,0.,1.));
#1478=DIRECTION('ref_axis',(1.,0.,0.));
#1479=DIRECTION('',(0.,0.,-1.));
#1480=DIRECTION('center_axis',(0.,0.,1.));
#1481=DIRECTION('ref_axis',(1.,0.,0.));
#1482=DIRECTION('center_axis',(1.,0.,0.));
#1483=DIRECTION('ref_axis',(0.,1.,0.));
#1484=DIRECTION('',(0.,0.,1.));
#1485=DIRECTION('',(0.,1.,0.));
#1486=DIRECTION('center_axis',(0.,0.,1.));
#1487=DIRECTION('ref_axis',(1.,0.,0.));
#1488=DIRECTION('center_axis',(0.,0.,1.));
#1489=DIRECTION('ref_axis',(1.,0.,0.));
#1490=DIRECTION('',(-1.,0.,0.));
#1491=DIRECTION('center_axis',(0.,0.,1.));
#1492=DIRECTION('ref_axis',(0.,1.,0.));
#1493=DIRECTION('',(0.,-1.,0.));
#1494=DIRECTION('center_axis',(0.,0.,1.));
#1495=DIRECTION('ref_axis',(1.,0.,0.));
#1496=DIRECTION('',(0.,-1.,0.));
#1497=DIRECTION('center_axis',(0.,0.,1.));
#1498=DIRECTION('ref_axis',(1.,0.,0.));
#1499=DIRECTION('',(0.,-1.,0.));
#1500=DIRECTION('center_axis',(0.,0.,1.));
#1501=DIRECTION('ref_axis',(-1.,0.,0.));
#1502=DIRECTION('',(1.,0.,0.));
#1503=DIRECTION('center_axis',(0.,0.,1.));
#1504=DIRECTION('ref_axis',(0.,-1.,0.));
#1505=DIRECTION('',(0.,1.,0.));
#1506=DIRECTION('center_axis',(0.,0.,1.));
#1507=DIRECTION('ref_axis',(1.,0.,0.));
#1508=DIRECTION('',(0.,-1.,0.));
#1509=DIRECTION('',(-0.924719074203297,0.380650277557494,0.));
#1510=DIRECTION('center_axis',(0.,0.,1.));
#1511=DIRECTION('ref_axis',(0.380650277557494,0.924719074203297,0.));
#1512=DIRECTION('',(0.924719074203297,0.380650277557495,0.));
#1513=DIRECTION('',(0.,-1.,0.));
#1514=DIRECTION('center_axis',(0.,0.,-1.));
#1515=DIRECTION('ref_axis',(0.,-1.,0.));
#1516=DIRECTION('',(-1.,0.,0.));
#1517=DIRECTION('center_axis',(0.,0.,-1.));
#1518=DIRECTION('ref_axis',(-1.,0.,0.));
#1519=DIRECTION('',(0.,1.,0.));
#1520=DIRECTION('',(0.924719074203297,-0.380650277557495,0.));
#1521=DIRECTION('center_axis',(0.,0.,1.));
#1522=DIRECTION('ref_axis',(-0.380650277557494,-0.924719074203297,0.));
#1523=DIRECTION('',(-0.924719074203297,-0.380650277557494,0.));
#1524=DIRECTION('',(0.,1.,0.));
#1525=DIRECTION('',(0.924719074203297,-0.380650277557494,0.));
#1526=DIRECTION('center_axis',(0.,0.,1.));
#1527=DIRECTION('ref_axis',(-0.380650277557494,-0.924719074203297,0.));
#1528=DIRECTION('',(-0.924719074203297,-0.380650277557494,0.));
#1529=DIRECTION('',(0.,1.,0.));
#1530=DIRECTION('center_axis',(0.,0.,-1.));
#1531=DIRECTION('ref_axis',(0.,1.,0.));
#1532=DIRECTION('',(1.,0.,0.));
#1533=DIRECTION('center_axis',(0.,0.,-1.));
#1534=DIRECTION('ref_axis',(1.,0.,0.));
#1535=DIRECTION('',(0.,-1.,0.));
#1536=DIRECTION('',(-0.924719074203297,0.380650277557494,0.));
#1537=DIRECTION('center_axis',(0.,0.,1.));
#1538=DIRECTION('ref_axis',(0.380650277557494,0.924719074203297,0.));
#1539=DIRECTION('',(0.924719074203297,0.380650277557494,0.));
#1540=DIRECTION('center_axis',(0.,0.,1.));
#1541=DIRECTION('ref_axis',(-1.,-1.22464679914735E-16,0.));
#1542=DIRECTION('',(0.,0.,-1.));
#1543=DIRECTION('center_axis',(-1.,0.,0.));
#1544=DIRECTION('ref_axis',(0.,-1.,0.));
#1545=DIRECTION('',(0.,0.,-1.));
#1546=DIRECTION('center_axis',(0.,0.,1.));
#1547=DIRECTION('ref_axis',(-1.,-1.22464679914735E-16,0.));
#1548=DIRECTION('',(0.,0.,1.));
#1549=DIRECTION('center_axis',(-1.,0.,0.));
#1550=DIRECTION('ref_axis',(0.,-1.,0.));
#1551=DIRECTION('',(0.,0.,1.));
#1552=DIRECTION('center_axis',(0.,0.,1.));
#1553=DIRECTION('ref_axis',(1.,0.,0.));
#1554=DIRECTION('',(0.,0.,1.));
#1555=DIRECTION('center_axis',(1.,0.,0.));
#1556=DIRECTION('ref_axis',(0.,1.,0.));
#1557=DIRECTION('',(0.,0.,1.));
#1558=DIRECTION('center_axis',(0.380650277557494,0.924719074203297,0.));
#1559=DIRECTION('ref_axis',(-0.924719074203297,0.380650277557494,0.));
#1560=DIRECTION('',(0.,0.,1.));
#1561=DIRECTION('',(0.,0.,1.));
#1562=DIRECTION('center_axis',(0.380650277557494,-0.924719074203297,0.));
#1563=DIRECTION('ref_axis',(0.924719074203297,0.380650277557494,0.));
#1564=DIRECTION('',(0.,0.,-1.));
#1565=DIRECTION('',(0.,0.,1.));
#1566=DIRECTION('center_axis',(0.,0.,1.));
#1567=DIRECTION('ref_axis',(-1.,1.3010426069826E-16,0.));
#1568=DIRECTION('center_axis',(-1.,0.,0.));
#1569=DIRECTION('ref_axis',(0.,-1.,0.));
#1570=DIRECTION('',(0.,0.,1.));
#1571=DIRECTION('center_axis',(-1.,0.,0.));
#1572=DIRECTION('ref_axis',(0.,-1.,0.));
#1573=DIRECTION('',(0.,0.,1.));
#1574=DIRECTION('center_axis',(-0.380650277557495,-0.924719074203297,0.));
#1575=DIRECTION('ref_axis',(0.924719074203297,-0.380650277557495,0.));
#1576=DIRECTION('',(0.,0.,1.));
#1577=DIRECTION('',(0.,0.,1.));
#1578=DIRECTION('center_axis',(-0.380650277557494,0.924719074203297,0.));
#1579=DIRECTION('ref_axis',(-0.924719074203297,-0.380650277557494,0.));
#1580=DIRECTION('',(0.,0.,-1.));
#1581=DIRECTION('',(0.,0.,1.));
#1582=DIRECTION('center_axis',(0.,0.,1.));
#1583=DIRECTION('ref_axis',(1.,-1.3010426069826E-16,0.));
#1584=DIRECTION('center_axis',(1.,0.,0.));
#1585=DIRECTION('ref_axis',(0.,1.,0.));
#1586=DIRECTION('',(0.,0.,1.));
#1587=DIRECTION('center_axis',(-0.380650277557494,-0.924719074203297,0.));
#1588=DIRECTION('ref_axis',(0.924719074203297,-0.380650277557494,0.));
#1589=DIRECTION('',(0.,0.,1.));
#1590=DIRECTION('center_axis',(-0.380650277557494,0.924719074203297,0.));
#1591=DIRECTION('ref_axis',(-0.924719074203297,-0.380650277557494,0.));
#1592=DIRECTION('',(0.,0.,-1.));
#1593=DIRECTION('',(0.,0.,1.));
#1594=DIRECTION('center_axis',(0.,0.,1.));
#1595=DIRECTION('ref_axis',(1.,4.33680868994202E-17,0.));
#1596=DIRECTION('center_axis',(1.,0.,0.));
#1597=DIRECTION('ref_axis',(0.,1.,0.));
#1598=DIRECTION('',(0.,0.,1.));
#1599=DIRECTION('center_axis',(1.,0.,0.));
#1600=DIRECTION('ref_axis',(0.,1.,0.));
#1601=DIRECTION('',(0.,0.,1.));
#1602=DIRECTION('center_axis',(0.380650277557495,-0.924719074203297,0.));
#1603=DIRECTION('ref_axis',(0.924719074203297,0.380650277557495,0.));
#1604=DIRECTION('',(0.,0.,-1.));
#1605=DIRECTION('',(0.,0.,1.));
#1606=DIRECTION('center_axis',(0.380650277557494,0.924719074203297,0.));
#1607=DIRECTION('ref_axis',(-0.924719074203297,0.380650277557494,0.));
#1608=DIRECTION('',(0.,0.,1.));
#1609=DIRECTION('center_axis',(0.,0.,1.));
#1610=DIRECTION('ref_axis',(-1.,1.3010426069826E-16,0.));
#1611=DIRECTION('center_axis',(0.,1.,0.));
#1612=DIRECTION('ref_axis',(-1.,0.,0.));
#1613=DIRECTION('',(0.,0.,1.));
#1614=DIRECTION('',(0.,0.,1.));
#1615=DIRECTION('center_axis',(0.,0.,1.));
#1616=DIRECTION('ref_axis',(0.,-1.,0.));
#1617=DIRECTION('',(0.,0.,1.));
#1618=DIRECTION('center_axis',(-1.,0.,0.));
#1619=DIRECTION('ref_axis',(0.,-1.,0.));
#1620=DIRECTION('center_axis',(0.,0.,1.));
#1621=DIRECTION('ref_axis',(1.,0.,0.));
#1622=DIRECTION('',(0.,0.,1.));
#1623=DIRECTION('center_axis',(0.,-1.,0.));
#1624=DIRECTION('ref_axis',(1.,0.,0.));
#1625=DIRECTION('',(0.,0.,1.));
#1626=DIRECTION('center_axis',(0.,0.,1.));
#1627=DIRECTION('ref_axis',(0.,1.,0.));
#1628=DIRECTION('center_axis',(0.,0.,1.));
#1629=DIRECTION('ref_axis',(-1.,0.,0.));
#1630=DIRECTION('center_axis',(-1.,0.,0.));
#1631=DIRECTION('ref_axis',(0.,-1.,0.));
#1632=DIRECTION('',(0.,0.,1.));
#1633=DIRECTION('center_axis',(0.,0.,1.));
#1634=DIRECTION('ref_axis',(0.,1.,0.));
#1635=DIRECTION('',(0.,0.,1.));
#1636=DIRECTION('center_axis',(0.,1.,0.));
#1637=DIRECTION('ref_axis',(-1.,0.,0.));
#1638=DIRECTION('',(0.,0.,1.));
#1639=DIRECTION('center_axis',(0.,0.,1.));
#1640=DIRECTION('ref_axis',(1.,0.,0.));
#1641=DIRECTION('center_axis',(0.,0.,1.));
#1642=DIRECTION('ref_axis',(0.,-1.,0.));
#1643=DIRECTION('',(0.,0.,1.));
#1644=DIRECTION('center_axis',(0.,-1.,0.));
#1645=DIRECTION('ref_axis',(1.,0.,0.));
#1646=DIRECTION('',(0.,0.,1.));
#1647=DIRECTION('center_axis',(0.,0.,1.));
#1648=DIRECTION('ref_axis',(-1.,0.,0.));
#1649=CARTESIAN_POINT('',(0.,0.,0.));
#1650=CARTESIAN_POINT('Origin',(3.55,-4.,3.008));
#1651=CARTESIAN_POINT('',(3.38,-4.,3.01));
#1652=CARTESIAN_POINT('Origin',(3.55,-4.,3.01));
#1653=CARTESIAN_POINT('',(3.38,-4.,3.26));
#1654=CARTESIAN_POINT('',(3.38,-4.,3.008));
#1655=CARTESIAN_POINT('Origin',(3.55,-4.,3.26));
#1656=CARTESIAN_POINT('Origin',(-3.55,4.,3.008));
#1657=CARTESIAN_POINT('',(-3.72,4.,3.01));
#1658=CARTESIAN_POINT('Origin',(-3.55,4.,3.01));
#1659=CARTESIAN_POINT('',(-3.72,4.,3.26));
#1660=CARTESIAN_POINT('',(-3.72,4.,3.008));
#1661=CARTESIAN_POINT('Origin',(-3.55,4.,3.26));
#1662=CARTESIAN_POINT('Origin',(-3.55,-4.,3.008));
#1663=CARTESIAN_POINT('',(-3.72,-4.,3.01));
#1664=CARTESIAN_POINT('Origin',(-3.55,-4.,3.01));
#1665=CARTESIAN_POINT('',(-3.72,-4.,3.26));
#1666=CARTESIAN_POINT('',(-3.72,-4.,3.008));
#1667=CARTESIAN_POINT('Origin',(-3.55,-4.,3.26));
#1668=CARTESIAN_POINT('Origin',(3.55,4.,3.008));
#1669=CARTESIAN_POINT('',(3.38,4.,3.01));
#1670=CARTESIAN_POINT('Origin',(3.55,4.,3.01));
#1671=CARTESIAN_POINT('',(3.38,4.,3.26));
#1672=CARTESIAN_POINT('',(3.38,4.,3.008));
#1673=CARTESIAN_POINT('Origin',(3.55,4.,3.26));
#1674=CARTESIAN_POINT('Origin',(2.5695,-3.948,3.008));
#1675=CARTESIAN_POINT('',(2.4295,-3.948,3.01));
#1676=CARTESIAN_POINT('Origin',(2.5695,-3.948,3.01));
#1677=CARTESIAN_POINT('',(2.4295,-3.948,3.26));
#1678=CARTESIAN_POINT('',(2.4295,-3.948,3.008));
#1679=CARTESIAN_POINT('Origin',(2.5695,-3.948,3.26));
#1680=CARTESIAN_POINT('Origin',(-2.5695,3.566,3.008));
#1681=CARTESIAN_POINT('',(-2.7095,3.566,3.01));
#1682=CARTESIAN_POINT('Origin',(-2.5695,3.566,3.01));
#1683=CARTESIAN_POINT('',(-2.7095,3.566,3.26));
#1684=CARTESIAN_POINT('',(-2.7095,3.566,3.008));
#1685=CARTESIAN_POINT('Origin',(-2.5695,3.566,3.26));
#1686=CARTESIAN_POINT('Origin',(-2.5695,-3.948,3.008));
#1687=CARTESIAN_POINT('',(-2.7095,-3.948,3.01));
#1688=CARTESIAN_POINT('Origin',(-2.5695,-3.948,3.01));
#1689=CARTESIAN_POINT('',(-2.7095,-3.948,3.26));
#1690=CARTESIAN_POINT('',(-2.7095,-3.948,3.008));
#1691=CARTESIAN_POINT('Origin',(-2.5695,-3.948,3.26));
#1692=CARTESIAN_POINT('Origin',(2.5695,3.566,3.008));
#1693=CARTESIAN_POINT('',(2.4295,3.566,3.01));
#1694=CARTESIAN_POINT('Origin',(2.5695,3.566,3.01));
#1695=CARTESIAN_POINT('',(2.4295,3.566,3.26));
#1696=CARTESIAN_POINT('',(2.4295,3.566,3.008));
#1697=CARTESIAN_POINT('Origin',(2.5695,3.566,3.26));
#1698=CARTESIAN_POINT('Origin',(3.8,-2.8,3.008));
#1699=CARTESIAN_POINT('',(3.5,-3.2,3.01));
#1700=CARTESIAN_POINT('',(3.5,-3.2,3.26));
#1701=CARTESIAN_POINT('',(3.5,-3.2,3.008));
#1702=CARTESIAN_POINT('',(3.5,-2.4,3.01));
#1703=CARTESIAN_POINT('Origin',(3.8,-2.8,3.01));
#1704=CARTESIAN_POINT('',(3.5,-2.4,3.26));
#1705=CARTESIAN_POINT('',(3.5,-2.4,3.008));
#1706=CARTESIAN_POINT('Origin',(3.8,-2.8,3.26));
#1707=CARTESIAN_POINT('Origin',(-3.8,2.8,3.008));
#1708=CARTESIAN_POINT('',(-3.5,2.4,3.01));
#1709=CARTESIAN_POINT('',(-3.5,3.2,3.01));
#1710=CARTESIAN_POINT('Origin',(-3.8,2.8,3.01));
#1711=CARTESIAN_POINT('',(-3.5,2.4,3.26));
#1712=CARTESIAN_POINT('',(-3.5,2.4,3.008));
#1713=CARTESIAN_POINT('',(-3.5,3.2,3.26));
#1714=CARTESIAN_POINT('Origin',(-3.8,2.8,3.26));
#1715=CARTESIAN_POINT('',(-3.5,3.2,3.008));
#1716=CARTESIAN_POINT('Origin',(-3.8,-2.8,3.008));
#1717=CARTESIAN_POINT('',(-3.5,-3.2,3.01));
#1718=CARTESIAN_POINT('',(-3.5,-2.4,3.01));
#1719=CARTESIAN_POINT('Origin',(-3.8,-2.8,3.01));
#1720=CARTESIAN_POINT('',(-3.5,-3.2,3.26));
#1721=CARTESIAN_POINT('',(-3.5,-3.2,3.008));
#1722=CARTESIAN_POINT('',(-3.5,-2.4,3.26));
#1723=CARTESIAN_POINT('Origin',(-3.8,-2.8,3.26));
#1724=CARTESIAN_POINT('',(-3.5,-2.4,3.008));
#1725=CARTESIAN_POINT('Origin',(3.8,2.8,3.008));
#1726=CARTESIAN_POINT('',(3.5,2.4,3.01));
#1727=CARTESIAN_POINT('',(3.5,2.4,3.26));
#1728=CARTESIAN_POINT('',(3.5,2.4,3.008));
#1729=CARTESIAN_POINT('',(3.5,3.2,3.01));
#1730=CARTESIAN_POINT('Origin',(3.8,2.8,3.01));
#1731=CARTESIAN_POINT('',(3.5,3.2,3.26));
#1732=CARTESIAN_POINT('',(3.5,3.2,3.008));
#1733=CARTESIAN_POINT('Origin',(3.8,2.8,3.26));
#1734=CARTESIAN_POINT('Origin',(-3.5,4.7,3.01));
#1735=CARTESIAN_POINT('',(-3.5,-3.55278640450004,3.01));
#1736=CARTESIAN_POINT('',(-3.5,4.7,3.01));
#1737=CARTESIAN_POINT('',(-3.5,-3.55278640450004,3.26));
#1738=CARTESIAN_POINT('',(-3.5,-3.55278640450004,3.01));
#1739=CARTESIAN_POINT('',(-3.5,4.7,3.26));
#1740=CARTESIAN_POINT('Origin',(-3.5,4.7,3.01));
#1741=CARTESIAN_POINT('',(-3.5,4.7,3.01));
#1742=CARTESIAN_POINT('',(-3.5,4.7,3.26));
#1743=CARTESIAN_POINT('Origin',(0.,0.,3.01));
#1744=CARTESIAN_POINT('',(3.5,-3.55278640450004,3.01));
#1745=CARTESIAN_POINT('',(3.5,-4.7,3.01));
#1746=CARTESIAN_POINT('',(3.5,-4.44721359549996,3.01));
#1747=CARTESIAN_POINT('Origin',(3.55,-4.,3.01));
#1748=CARTESIAN_POINT('',(3.5,-4.7,3.01));
#1749=CARTESIAN_POINT('',(3.5,-4.7,3.01));
#1750=CARTESIAN_POINT('',(3.4,-4.8,3.01));
#1751=CARTESIAN_POINT('Origin',(3.4,-4.7,3.01));
#1752=CARTESIAN_POINT('',(-3.4,-4.8,3.01));
#1753=CARTESIAN_POINT('',(-3.4,-4.8,3.01));
#1754=CARTESIAN_POINT('',(-3.5,-4.7,3.01));
#1755=CARTESIAN_POINT('Origin',(-3.4,-4.7,3.01));
#1756=CARTESIAN_POINT('',(-3.5,-4.44721359549996,3.01));
#1757=CARTESIAN_POINT('',(-3.5,4.7,3.01));
#1758=CARTESIAN_POINT('Origin',(-3.55,-4.,3.01));
#1759=CARTESIAN_POINT('',(-3.5,3.55278640450004,3.01));
#1760=CARTESIAN_POINT('',(-3.5,4.7,3.01));
#1761=CARTESIAN_POINT('',(-3.5,4.44721359549996,3.01));
#1762=CARTESIAN_POINT('Origin',(-3.55,4.,3.01));
#1763=CARTESIAN_POINT('',(-3.5,4.7,3.01));
#1764=CARTESIAN_POINT('',(-3.5,4.7,3.01));
#1765=CARTESIAN_POINT('',(-3.4,4.8,3.01));
#1766=CARTESIAN_POINT('Origin',(-3.4,4.7,3.01));
#1767=CARTESIAN_POINT('',(3.4,4.8,3.01));
#1768=CARTESIAN_POINT('',(3.4,4.8,3.01));
#1769=CARTESIAN_POINT('',(3.5,4.7,3.01));
#1770=CARTESIAN_POINT('Origin',(3.4,4.7,3.01));
#1771=CARTESIAN_POINT('',(3.5,4.44721359549996,3.01));
#1772=CARTESIAN_POINT('',(3.5,-4.7,3.01));
#1773=CARTESIAN_POINT('',(3.5,3.55278640450004,3.01));
#1774=CARTESIAN_POINT('Origin',(3.55,4.,3.01));
#1775=CARTESIAN_POINT('',(3.5,-4.7,3.01));
#1776=CARTESIAN_POINT('',(3.5,-4.7,3.01));
#1777=CARTESIAN_POINT('',(3.04,4.6,3.01));
#1778=CARTESIAN_POINT('',(3.04,3.7183749734811,3.01));
#1779=CARTESIAN_POINT('',(3.04,-4.6,3.01));
#1780=CARTESIAN_POINT('',(3.,4.64,3.01));
#1781=CARTESIAN_POINT('Origin',(3.,4.6,3.01));
#1782=CARTESIAN_POINT('',(-3.,4.64,3.01));
#1783=CARTESIAN_POINT('',(3.,4.64,3.01));
#1784=CARTESIAN_POINT('',(-3.04,4.6,3.01));
#1785=CARTESIAN_POINT('Origin',(-3.,4.6,3.01));
#1786=CARTESIAN_POINT('',(-3.04,3.7183749734811,3.01));
#1787=CARTESIAN_POINT('',(-3.04,4.6,3.01));
#1788=CARTESIAN_POINT('',(-2.6913080888184,3.86191010374505,3.01));
#1789=CARTESIAN_POINT('',(-3.2304520222046,3.63997752593626,3.01));
#1790=CARTESIAN_POINT('',(-2.6913080888184,3.27008989625494,3.01));
#1791=CARTESIAN_POINT('Origin',(-2.5695,3.566,3.01));
#1792=CARTESIAN_POINT('',(-3.04,3.41362502651889,3.01));
#1793=CARTESIAN_POINT('',(-2.6913080888184,3.27008989625494,3.01));
#1794=CARTESIAN_POINT('',(-3.04,-3.79562502651889,3.01));
#1795=CARTESIAN_POINT('',(-3.04,4.6,3.01));
#1796=CARTESIAN_POINT('',(-2.6913080888184,-3.65208989625494,3.01));
#1797=CARTESIAN_POINT('',(-3.2304520222046,-3.87402247406374,3.01));
#1798=CARTESIAN_POINT('',(-2.6913080888184,-4.24391010374505,3.01));
#1799=CARTESIAN_POINT('Origin',(-2.5695,-3.948,3.01));
#1800=CARTESIAN_POINT('',(-3.04,-4.1003749734811,3.01));
#1801=CARTESIAN_POINT('',(-2.6913080888184,-4.24391010374505,3.01));
#1802=CARTESIAN_POINT('',(-3.04,-4.6,3.01));
#1803=CARTESIAN_POINT('',(-3.04,4.6,3.01));
#1804=CARTESIAN_POINT('',(-3.,-4.64,3.01));
#1805=CARTESIAN_POINT('Origin',(-3.,-4.6,3.01));
#1806=CARTESIAN_POINT('',(3.,-4.64,3.01));
#1807=CARTESIAN_POINT('',(-3.,-4.64,3.01));
#1808=CARTESIAN_POINT('',(3.04,-4.6,3.01));
#1809=CARTESIAN_POINT('Origin',(3.,-4.6,3.01));
#1810=CARTESIAN_POINT('',(3.04,-4.1003749734811,3.01));
#1811=CARTESIAN_POINT('',(3.04,-4.6,3.01));
#1812=CARTESIAN_POINT('',(2.6913080888184,-4.24391010374505,3.01));
#1813=CARTESIAN_POINT('',(3.2304520222046,-4.02197752593626,3.01));
#1814=CARTESIAN_POINT('',(2.6913080888184,-3.65208989625494,3.01));
#1815=CARTESIAN_POINT('Origin',(2.5695,-3.948,3.01));
#1816=CARTESIAN_POINT('',(3.04,-3.79562502651889,3.01));
#1817=CARTESIAN_POINT('',(2.6913080888184,-3.65208989625494,3.01));
#1818=CARTESIAN_POINT('',(3.04,3.4136250265189,3.01));
#1819=CARTESIAN_POINT('',(3.04,-4.6,3.01));
#1820=CARTESIAN_POINT('',(2.6913080888184,3.27008989625494,3.01));
#1821=CARTESIAN_POINT('',(3.2304520222046,3.49202247406374,3.01));
#1822=CARTESIAN_POINT('',(2.6913080888184,3.86191010374506,3.01));
#1823=CARTESIAN_POINT('Origin',(2.5695,3.566,3.01));
#1824=CARTESIAN_POINT('',(2.6913080888184,3.86191010374505,3.01));
#1825=CARTESIAN_POINT('Origin',(3.5,-4.7,3.01));
#1826=CARTESIAN_POINT('',(3.5,3.55278640450004,3.26));
#1827=CARTESIAN_POINT('',(3.5,3.55278640450004,3.01));
#1828=CARTESIAN_POINT('',(3.5,-4.7,3.26));
#1829=CARTESIAN_POINT('Origin',(3.5,-4.7,3.01));
#1830=CARTESIAN_POINT('',(3.5,-3.55278640450004,3.26));
#1831=CARTESIAN_POINT('',(3.5,-4.7,3.26));
#1832=CARTESIAN_POINT('',(3.5,-3.55278640450004,3.01));
#1833=CARTESIAN_POINT('Origin',(3.5,-4.7,3.01));
#1834=CARTESIAN_POINT('',(3.5,-4.7,3.26));
#1835=CARTESIAN_POINT('Origin',(3.55,4.,3.01));
#1836=CARTESIAN_POINT('',(3.5,4.44721359549996,3.26));
#1837=CARTESIAN_POINT('',(3.5,4.44721359549996,3.01));
#1838=CARTESIAN_POINT('Origin',(3.55,4.,3.26));
#1839=CARTESIAN_POINT('Origin',(3.5,-4.7,3.01));
#1840=CARTESIAN_POINT('',(3.5,4.7,3.26));
#1841=CARTESIAN_POINT('',(3.5,4.7,3.01));
#1842=CARTESIAN_POINT('',(3.5,-4.7,3.26));
#1843=CARTESIAN_POINT('Origin',(0.,0.,3.26));
#1844=CARTESIAN_POINT('',(3.4,4.8,3.26));
#1845=CARTESIAN_POINT('Origin',(3.4,4.7,3.26));
#1846=CARTESIAN_POINT('',(-3.4,4.8,3.26));
#1847=CARTESIAN_POINT('',(3.4,4.8,3.26));
#1848=CARTESIAN_POINT('',(-3.5,4.7,3.26));
#1849=CARTESIAN_POINT('Origin',(-3.4,4.7,3.26));
#1850=CARTESIAN_POINT('',(-3.5,4.44721359549996,3.26));
#1851=CARTESIAN_POINT('',(-3.5,4.7,3.26));
#1852=CARTESIAN_POINT('',(-3.5,3.55278640450004,3.26));
#1853=CARTESIAN_POINT('Origin',(-3.55,4.,3.26));
#1854=CARTESIAN_POINT('',(-3.5,4.7,3.26));
#1855=CARTESIAN_POINT('',(-3.5,-4.44721359549996,3.26));
#1856=CARTESIAN_POINT('Origin',(-3.55,-4.,3.26));
#1857=CARTESIAN_POINT('',(-3.5,-4.7,3.26));
#1858=CARTESIAN_POINT('',(-3.5,4.7,3.26));
#1859=CARTESIAN_POINT('',(-3.4,-4.8,3.26));
#1860=CARTESIAN_POINT('Origin',(-3.4,-4.7,3.26));
#1861=CARTESIAN_POINT('',(3.4,-4.8,3.26));
#1862=CARTESIAN_POINT('',(-3.4,-4.8,3.26));
#1863=CARTESIAN_POINT('',(3.5,-4.7,3.26));
#1864=CARTESIAN_POINT('Origin',(3.4,-4.7,3.26));
#1865=CARTESIAN_POINT('',(3.5,-4.44721359549996,3.26));
#1866=CARTESIAN_POINT('',(3.5,-4.7,3.26));
#1867=CARTESIAN_POINT('Origin',(3.55,-4.,3.26));
#1868=CARTESIAN_POINT('',(3.04,3.4136250265189,3.26));
#1869=CARTESIAN_POINT('',(3.04,-3.79562502651889,3.26));
#1870=CARTESIAN_POINT('',(3.04,-4.6,3.26));
#1871=CARTESIAN_POINT('',(2.6913080888184,-3.65208989625494,3.26));
#1872=CARTESIAN_POINT('',(2.6913080888184,-3.65208989625494,3.26));
#1873=CARTESIAN_POINT('',(2.6913080888184,-4.24391010374505,3.26));
#1874=CARTESIAN_POINT('Origin',(2.5695,-3.948,3.26));
#1875=CARTESIAN_POINT('',(3.04,-4.1003749734811,3.26));
#1876=CARTESIAN_POINT('',(3.2304520222046,-4.02197752593626,3.26));
#1877=CARTESIAN_POINT('',(3.04,-4.6,3.26));
#1878=CARTESIAN_POINT('',(3.04,-4.6,3.26));
#1879=CARTESIAN_POINT('',(3.,-4.64,3.26));
#1880=CARTESIAN_POINT('Origin',(3.,-4.6,3.26));
#1881=CARTESIAN_POINT('',(-3.,-4.64,3.26));
#1882=CARTESIAN_POINT('',(-3.,-4.64,3.26));
#1883=CARTESIAN_POINT('',(-3.04,-4.6,3.26));
#1884=CARTESIAN_POINT('Origin',(-3.,-4.6,3.26));
#1885=CARTESIAN_POINT('',(-3.04,-4.1003749734811,3.26));
#1886=CARTESIAN_POINT('',(-3.04,4.6,3.26));
#1887=CARTESIAN_POINT('',(-2.6913080888184,-4.24391010374505,3.26));
#1888=CARTESIAN_POINT('',(-2.6913080888184,-4.24391010374505,3.26));
#1889=CARTESIAN_POINT('',(-2.6913080888184,-3.65208989625494,3.26));
#1890=CARTESIAN_POINT('Origin',(-2.5695,-3.948,3.26));
#1891=CARTESIAN_POINT('',(-3.04,-3.79562502651889,3.26));
#1892=CARTESIAN_POINT('',(-3.2304520222046,-3.87402247406374,3.26));
#1893=CARTESIAN_POINT('',(-3.04,3.41362502651889,3.26));
#1894=CARTESIAN_POINT('',(-3.04,4.6,3.26));
#1895=CARTESIAN_POINT('',(-2.6913080888184,3.27008989625494,3.26));
#1896=CARTESIAN_POINT('',(-2.6913080888184,3.27008989625494,3.26));
#1897=CARTESIAN_POINT('',(-2.6913080888184,3.86191010374505,3.26));
#1898=CARTESIAN_POINT('Origin',(-2.5695,3.566,3.26));
#1899=CARTESIAN_POINT('',(-3.04,3.7183749734811,3.26));
#1900=CARTESIAN_POINT('',(-3.2304520222046,3.63997752593626,3.26));
#1901=CARTESIAN_POINT('',(-3.04,4.6,3.26));
#1902=CARTESIAN_POINT('',(-3.04,4.6,3.26));
#1903=CARTESIAN_POINT('',(-3.,4.64,3.26));
#1904=CARTESIAN_POINT('Origin',(-3.,4.6,3.26));
#1905=CARTESIAN_POINT('',(3.,4.64,3.26));
#1906=CARTESIAN_POINT('',(3.,4.64,3.26));
#1907=CARTESIAN_POINT('',(3.04,4.6,3.26));
#1908=CARTESIAN_POINT('Origin',(3.,4.6,3.26));
#1909=CARTESIAN_POINT('',(3.04,3.7183749734811,3.26));
#1910=CARTESIAN_POINT('',(3.04,-4.6,3.26));
#1911=CARTESIAN_POINT('',(2.6913080888184,3.86191010374506,3.26));
#1912=CARTESIAN_POINT('',(2.6913080888184,3.86191010374505,3.26));
#1913=CARTESIAN_POINT('',(2.6913080888184,3.27008989625494,3.26));
#1914=CARTESIAN_POINT('Origin',(2.5695,3.566,3.26));
#1915=CARTESIAN_POINT('',(3.2304520222046,3.49202247406374,3.26));
#1916=CARTESIAN_POINT('Origin',(-3.55,-4.,3.01));
#1917=CARTESIAN_POINT('',(-3.5,-4.44721359549996,3.01));
#1918=CARTESIAN_POINT('Origin',(-3.5,4.7,3.01));
#1919=CARTESIAN_POINT('',(-3.5,3.55278640450004,3.01));
#1920=CARTESIAN_POINT('Origin',(-3.55,4.,3.01));
#1921=CARTESIAN_POINT('',(-3.5,4.44721359549996,3.01));
#1922=CARTESIAN_POINT('Origin',(-3.5,4.7,3.01));
#1923=CARTESIAN_POINT('',(-3.5,4.7,3.01));
#1924=CARTESIAN_POINT('Origin',(3.55,-4.,3.01));
#1925=CARTESIAN_POINT('',(3.5,-4.44721359549996,3.01));
#1926=CARTESIAN_POINT('Origin',(3.5,-4.7,3.01));
#1927=CARTESIAN_POINT('',(3.5,-4.7,3.01));
#1928=CARTESIAN_POINT('Origin',(3.2304520222046,3.63997752593626,3.01));
#1929=CARTESIAN_POINT('',(3.04,3.7183749734811,3.01));
#1930=CARTESIAN_POINT('',(2.6913080888184,3.86191010374506,3.01));
#1931=CARTESIAN_POINT('Origin',(2.6913080888184,3.27008989625494,3.01));
#1932=CARTESIAN_POINT('',(3.04,3.41362502651889,3.01));
#1933=CARTESIAN_POINT('',(2.6913080888184,3.27008989625494,3.01));
#1934=CARTESIAN_POINT('Origin',(2.5695,3.566,3.01));
#1935=CARTESIAN_POINT('Origin',(3.04,4.6,3.01));
#1936=CARTESIAN_POINT('',(3.04,4.6,3.01));
#1937=CARTESIAN_POINT('Origin',(3.04,4.6,3.01));
#1938=CARTESIAN_POINT('',(3.04,-3.79562502651889,3.01));
#1939=CARTESIAN_POINT('Origin',(-3.2304520222046,-4.02197752593626,3.01));
#1940=CARTESIAN_POINT('',(-3.04,-4.1003749734811,3.01));
#1941=CARTESIAN_POINT('',(-2.6913080888184,-4.24391010374505,3.01));
#1942=CARTESIAN_POINT('Origin',(-2.6913080888184,-3.65208989625494,3.01));
#1943=CARTESIAN_POINT('',(-3.04,-3.79562502651889,3.01));
#1944=CARTESIAN_POINT('',(-2.6913080888184,-3.65208989625494,3.01));
#1945=CARTESIAN_POINT('Origin',(-2.5695,-3.948,3.01));
#1946=CARTESIAN_POINT('Origin',(-3.04,-4.6,3.01));
#1947=CARTESIAN_POINT('',(-3.04,3.4136250265189,3.01));
#1948=CARTESIAN_POINT('Origin',(-3.2304520222046,3.49202247406374,3.01));
#1949=CARTESIAN_POINT('',(-2.6913080888184,3.27008989625494,3.01));
#1950=CARTESIAN_POINT('Origin',(-2.6913080888184,3.86191010374505,3.01));
#1951=CARTESIAN_POINT('',(-3.04,3.7183749734811,3.01));
#1952=CARTESIAN_POINT('',(-2.6913080888184,3.86191010374505,3.01));
#1953=CARTESIAN_POINT('Origin',(-2.5695,3.566,3.01));
#1954=CARTESIAN_POINT('Origin',(-3.04,-4.6,3.01));
#1955=CARTESIAN_POINT('',(-3.04,-4.6,3.01));
#1956=CARTESIAN_POINT('Origin',(-3.04,-4.6,3.01));
#1957=CARTESIAN_POINT('',(-3.04,4.6,3.01));
#1958=CARTESIAN_POINT('Origin',(2.6913080888184,-4.24391010374505,3.01));
#1959=CARTESIAN_POINT('',(3.04,-4.10037497348111,3.01));
#1960=CARTESIAN_POINT('',(2.6913080888184,-4.24391010374505,3.01));
#1961=CARTESIAN_POINT('Origin',(3.2304520222046,-3.87402247406374,3.01));
#1962=CARTESIAN_POINT('',(2.6913080888184,-3.65208989625494,3.01));
#1963=CARTESIAN_POINT('Origin',(2.5695,-3.948,3.01));
#1964=CARTESIAN_POINT('Origin',(3.,-4.64,3.01));
#1965=CARTESIAN_POINT('',(-3.,-4.64,3.01));
#1966=CARTESIAN_POINT('',(3.,-4.64,3.01));
#1967=CARTESIAN_POINT('Origin',(3.,-4.6,3.01));
#1968=CARTESIAN_POINT('',(3.04,-4.6,3.01));
#1969=CARTESIAN_POINT('Origin',(3.04,4.6,3.01));
#1970=CARTESIAN_POINT('Origin',(3.,4.6,3.01));
#1971=CARTESIAN_POINT('',(3.,4.64,3.01));
#1972=CARTESIAN_POINT('Origin',(-3.,4.64,3.01));
#1973=CARTESIAN_POINT('',(-3.,4.64,3.01));
#1974=CARTESIAN_POINT('Origin',(-3.,4.6,3.01));
#1975=CARTESIAN_POINT('Origin',(-3.,-4.6,3.01));
#1976=CARTESIAN_POINT('Origin',(-3.5,4.7,3.01));
#1977=CARTESIAN_POINT('',(-3.5,-4.7,3.01));
#1978=CARTESIAN_POINT('Origin',(-3.4,4.7,3.01));
#1979=CARTESIAN_POINT('',(-3.4,4.8,3.01));
#1980=CARTESIAN_POINT('Origin',(3.4,4.8,3.01));
#1981=CARTESIAN_POINT('',(3.4,4.8,3.01));
#1982=CARTESIAN_POINT('Origin',(3.4,4.7,3.01));
#1983=CARTESIAN_POINT('Origin',(3.4,-4.7,3.01));
#1984=CARTESIAN_POINT('',(3.4,-4.8,3.01));
#1985=CARTESIAN_POINT('Origin',(-3.4,-4.8,3.01));
#1986=CARTESIAN_POINT('',(-3.4,-4.8,3.01));
#1987=CARTESIAN_POINT('Origin',(-3.4,-4.7,3.01));
#1988=UNCERTAINTY_MEASURE_WITH_UNIT(LENGTH_MEASURE(0.001),#1992,
'DISTANCE_ACCURACY_VALUE',
'Maximum model space distance between geometric entities at asserted c
onnectivities');
#1989=UNCERTAINTY_MEASURE_WITH_UNIT(LENGTH_MEASURE(0.001),#1992,
'DISTANCE_ACCURACY_VALUE',
'Maximum model space distance between geometric entities at asserted c
onnectivities');
#1990=(
GEOMETRIC_REPRESENTATION_CONTEXT(3)
GLOBAL_UNCERTAINTY_ASSIGNED_CONTEXT((#1988))
GLOBAL_UNIT_ASSIGNED_CONTEXT((#1992,#1994,#1995))
REPRESENTATION_CONTEXT('','3D')
);
#1991=(
GEOMETRIC_REPRESENTATION_CONTEXT(3)
GLOBAL_UNCERTAINTY_ASSIGNED_CONTEXT((#1989))
GLOBAL_UNIT_ASSIGNED_CONTEXT((#1992,#1994,#1995))
REPRESENTATION_CONTEXT('','3D')
);
#1992=(
LENGTH_UNIT()
NAMED_UNIT(*)
SI_UNIT(.CENTI.,.METRE.)
);
#1993=(
LENGTH_UNIT()
NAMED_UNIT(*)
SI_UNIT($,.METRE.)
);
#1994=(
NAMED_UNIT(*)
PLANE_ANGLE_UNIT()
SI_UNIT($,.RADIAN.)
);
#1995=(
NAMED_UNIT(*)
SI_UNIT($,.STERADIAN.)
SOLID_ANGLE_UNIT()
);
#1996=SHAPE_DEFINITION_REPRESENTATION(#1997,#1998);
#1997=PRODUCT_DEFINITION_SHAPE('',$,#2000);
#1998=SHAPE_REPRESENTATION('',(#1192),#1990);
#1999=PRODUCT_DEFINITION_CONTEXT('part definition',#2004,'design');
#2000=PRODUCT_DEFINITION('03 WT32 retainer - four anchors',
'03 WT32 retainer - four anchors',#2001,#1999);
#2001=PRODUCT_DEFINITION_FORMATION('',$,#2006);
#2002=PRODUCT_RELATED_PRODUCT_CATEGORY(
'03 WT32 retainer - four anchors','03 WT32 retainer - four anchors',(#2006));
#2003=APPLICATION_PROTOCOL_DEFINITION('international standard',
'automotive_design',2009,#2004);
#2004=APPLICATION_CONTEXT(
'Core Data for Automotive Mechanical Design Process');
#2005=PRODUCT_CONTEXT('part definition',#2004,'mechanical');
#2006=PRODUCT('03 WT32 retainer - four anchors',
'03 WT32 retainer - four anchors',$,(#2005));
#2007=PRESENTATION_STYLE_ASSIGNMENT((#2009));
#2008=PRESENTATION_STYLE_ASSIGNMENT((#2010));
#2009=SURFACE_STYLE_USAGE(.BOTH.,#2011);
#2010=SURFACE_STYLE_USAGE(.BOTH.,#2012);
#2011=SURFACE_SIDE_STYLE('',(#2013));
#2012=SURFACE_SIDE_STYLE('',(#2014));
#2013=SURFACE_STYLE_FILL_AREA(#2015);
#2014=SURFACE_STYLE_FILL_AREA(#2016);
#2015=FILL_AREA_STYLE('Steel - Satin',(#2017));
#2016=FILL_AREA_STYLE('Retainer light gray',(#2018));
#2017=FILL_AREA_STYLE_COLOUR('Steel - Satin',#2019);
#2018=FILL_AREA_STYLE_COLOUR('Retainer light gray',#2020);
#2019=COLOUR_RGB('Steel - Satin',0.627450980392157,0.627450980392157,0.627450980392157);
#2020=COLOUR_RGB('Retainer light gray',0.686274509803922,0.733333333333333,
0.752941176470588);
ENDSEC;
END-ISO-10303-21;
