ISO-10303-21;
HEADER;
/* Generated by software containing ST-Developer
 * from STEP Tools, Inc. (www.steptools.com) 
 */

FILE_DESCRIPTION(
/* description */ (''),
/* implementation_level */ '2;1');

FILE_NAME(
/* name */ 'probe-fascia.step',
/* time_stamp */ '2026-09-14T13:08:18-07:00',
/* author */ (''),
/* organization */ (''),
/* preprocessor_version */ 'ST-DEVELOPER v20.2',
/* originating_system */ 'Autodesk Translation Framework v15.15.0.0',
/* authorisation */ '');

FILE_SCHEMA (('AUTOMOTIVE_DESIGN { 1 0 10303 214 3 1 1 }'));
ENDSEC;

DATA;
#10=MECHANICAL_DESIGN_GEOMETRIC_PRESENTATION_REPRESENTATION('',(#13),#2107);
#11=SHAPE_REPRESENTATION_RELATIONSHIP('SRR','None',#2114,#12);
#12=ADVANCED_BREP_SHAPE_REPRESENTATION('',(#14),#2106);
#13=STYLED_ITEM('',(#2124),#14);
#14=MANIFOLD_SOLID_BREP('04 Probe fascia - continuous runners',#1127);
#15=B_SPLINE_SURFACE_WITH_KNOTS('',3,3,((#1943,#1944,#1945,#1946),(#1947,
#1948,#1949,#1950),(#1951,#1952,#1953,#1954),(#1955,#1956,#1957,#1958),
(#1959,#1960,#1961,#1962),(#1963,#1964,#1965,#1966),(#1967,#1968,#1969,
#1970),(#1971,#1972,#1973,#1974),(#1975,#1976,#1977,#1978),(#1979,#1980,
#1981,#1982),(#1983,#1984,#1985,#1986),(#1987,#1988,#1989,#1990),(#1991,
#1992,#1993,#1994),(#1995,#1996,#1997,#1998),(#1999,#2000,#2001,#2002),
(#2003,#2004,#2005,#2006),(#2007,#2008,#2009,#2010),(#2011,#2012,#2013,
#2014),(#2015,#2016,#2017,#2018),(#2019,#2020,#2021,#2022),(#2023,#2024,
#2025,#2026),(#2027,#2028,#2029,#2030),(#2031,#2032,#2033,#2034),(#2035,
#2036,#2037,#2038),(#2039,#2040,#2041,#2042),(#2043,#2044,#2045,#2046),
(#2047,#2048,#2049,#2050),(#2051,#2052,#2053,#2054),(#2055,#2056,#2057,
#2058),(#2059,#2060,#2061,#2062),(#2063,#2064,#2065,#2066),(#2067,#2068,
#2069,#2070),(#2071,#2072,#2073,#2074),(#2075,#2076,#2077,#2078),(#2079,
#2080,#2081,#2082),(#2083,#2084,#2085,#2086),(#2087,#2088,#2089,#2090),
(#2091,#2092,#2093,#2094),(#2095,#2096,#2097,#2098)),.UNSPECIFIED.,.T.,
 .F.,.F.,(4,1,1,1,2,1,2,1,1,1,2,1,1,1,1,1,1,2,1,1,1,2,1,1,2,1,1,1,2,4),
(4,4),(0.,0.012225643830143,0.024451287660286,0.036676931490429,0.048902575320572,
0.136409389262165,0.398929831086943,0.411155474917086,0.423381118747229,
0.435606762577372,0.447832406407515,0.460874304805636,0.473916203203758,
0.480437152402818,0.486958101601879,0.493479050800939,0.49673952540047,
0.5,0.512225643830143,0.524451287660286,0.536676931490429,0.548902575320572,
0.723916203203758,0.811423017145351,0.898929831086944,0.911155474917086,
0.92338111874723,0.935606762577373,0.947832406407515,1.),(0.00265957446808299,
1.),.UNSPECIFIED.);
#16=CYLINDRICAL_SURFACE('',#1171,0.28);
#17=CYLINDRICAL_SURFACE('',#1173,0.28);
#18=CYLINDRICAL_SURFACE('',#1175,0.28);
#19=CYLINDRICAL_SURFACE('',#1196,0.4);
#20=CYLINDRICAL_SURFACE('',#1200,0.4);
#21=CYLINDRICAL_SURFACE('',#1203,0.4);
#22=CYLINDRICAL_SURFACE('',#1214,0.4);
#23=CONICAL_SURFACE('',#1165,0.32,0.572966142888705);
#24=CONICAL_SURFACE('',#1167,0.32,0.572966142888705);
#25=CONICAL_SURFACE('',#1169,0.32,0.572966142888705);
#26=CIRCLE('',#1154,0.4);
#27=CIRCLE('',#1155,0.4);
#28=CIRCLE('',#1156,0.4);
#29=CIRCLE('',#1157,0.4);
#30=CIRCLE('',#1158,0.318709677419355);
#31=CIRCLE('',#1159,0.318709677419355);
#32=CIRCLE('',#1160,0.318709677419355);
#33=CIRCLE('',#1163,0.4);
#34=CIRCLE('',#1166,0.28);
#35=CIRCLE('',#1168,0.28);
#36=CIRCLE('',#1170,0.28);
#37=CIRCLE('',#1172,0.28);
#38=CIRCLE('',#1174,0.28);
#39=CIRCLE('',#1176,0.28);
#40=CIRCLE('',#1186,0.4);
#41=CIRCLE('',#1189,0.4);
#42=CIRCLE('',#1197,0.4);
#43=CIRCLE('',#1204,0.4);
#44=CIRCLE('',#1211,0.4);
#45=FACE_BOUND('',#119,.T.);
#46=FACE_BOUND('',#128,.T.);
#47=FACE_BOUND('',#129,.T.);
#48=FACE_BOUND('',#130,.T.);
#49=FACE_BOUND('',#131,.T.);
#50=FACE_BOUND('',#132,.T.);
#51=FACE_BOUND('',#174,.T.);
#52=FACE_BOUND('',#175,.T.);
#53=FACE_BOUND('',#176,.T.);
#54=B_SPLINE_CURVE_WITH_KNOTS('',3,(#1549,#1550,#1551,#1552,#1553,#1554,
#1555,#1556,#1557,#1558,#1559,#1560,#1561,#1562,#1563,#1564,#1565,#1566,
#1567,#1568,#1569,#1570,#1571,#1572,#1573,#1574,#1575,#1576,#1577,#1578,
#1579,#1580,#1581,#1582,#1583,#1584,#1585,#1586,#1587,#1588,#1589,#1590,
#1591,#1592,#1593,#1594,#1595,#1596,#1597,#1598,#1599,#1600,#1601,#1602,
#1603,#1604,#1605,#1606,#1607,#1608,#1609,#1610,#1611,#1612,#1613,#1614,
#1615,#1616,#1617,#1618,#1619,#1620,#1621,#1622,#1623,#1624,#1625,#1626,
#1627,#1628,#1629,#1630,#1631,#1632,#1633,#1634,#1635,#1636),
 .UNSPECIFIED.,.T.,.F.,(4,3,3,3,3,3,3,3,3,3,3,3,3,3,3,3,3,3,3,3,3,3,3,3,
3,3,3,3,3,4),(0.465750682363783,0.614828086592376,0.763905490821021,0.912982895049667,
1.06206029927831,2.12910338150584,5.33023262818842,5.47931003241706,5.62838743664571,
5.77746484087435,5.926542245103,6.08557291755004,6.24460358999708,6.3241189262206,
6.40363426244412,6.48314959866764,6.5229072667794,6.56266493489116,6.71174233911981,
6.86081974334845,7.0098971475771,7.15897455180574,9.2930607162608,10.3601037984883,
11.4271468807159,11.5762242849445,11.7253016891731,11.8743790934018,12.0234564976304,
12.6595791874186),.UNSPECIFIED.);
#55=B_SPLINE_CURVE_WITH_KNOTS('',3,(#1904,#1905,#1906,#1907,#1908,#1909,
#1910,#1911,#1912,#1913,#1914,#1915,#1916,#1917,#1918,#1919,#1920,#1921,
#1922,#1923,#1924,#1925,#1926,#1927,#1928,#1929,#1930,#1931,#1932,#1933,
#1934,#1935,#1936,#1937,#1938,#1939,#1940,#1941,#1942),.UNSPECIFIED.,.T.,
 .F.,(4,1,1,1,2,1,2,1,1,1,2,1,1,1,1,1,1,2,1,1,1,2,1,1,2,1,1,1,2,4),(0.,
0.012225643830143,0.024451287660286,0.036676931490429,0.048902575320572,
0.136409389262165,0.398929831086943,0.411155474917086,0.423381118747229,
0.435606762577372,0.447832406407515,0.460874304805636,0.473916203203758,
0.480437152402818,0.486958101601879,0.493479050800939,0.49673952540047,
0.5,0.512225643830143,0.524451287660286,0.536676931490429,0.548902575320572,
0.723916203203758,0.811423017145351,0.898929831086944,0.911155474917086,
0.92338111874723,0.935606762577373,0.947832406407515,1.),.UNSPECIFIED.);
#56=FACE_OUTER_BOUND('',#114,.T.);
#57=FACE_OUTER_BOUND('',#115,.T.);
#58=FACE_OUTER_BOUND('',#116,.T.);
#59=FACE_OUTER_BOUND('',#117,.T.);
#60=FACE_OUTER_BOUND('',#118,.T.);
#61=FACE_OUTER_BOUND('',#120,.T.);
#62=FACE_OUTER_BOUND('',#121,.T.);
#63=FACE_OUTER_BOUND('',#122,.T.);
#64=FACE_OUTER_BOUND('',#123,.T.);
#65=FACE_OUTER_BOUND('',#124,.T.);
#66=FACE_OUTER_BOUND('',#125,.T.);
#67=FACE_OUTER_BOUND('',#126,.T.);
#68=FACE_OUTER_BOUND('',#127,.T.);
#69=FACE_OUTER_BOUND('',#133,.T.);
#70=FACE_OUTER_BOUND('',#134,.T.);
#71=FACE_OUTER_BOUND('',#135,.T.);
#72=FACE_OUTER_BOUND('',#136,.T.);
#73=FACE_OUTER_BOUND('',#137,.T.);
#74=FACE_OUTER_BOUND('',#138,.T.);
#75=FACE_OUTER_BOUND('',#139,.T.);
#76=FACE_OUTER_BOUND('',#140,.T.);
#77=FACE_OUTER_BOUND('',#141,.T.);
#78=FACE_OUTER_BOUND('',#142,.T.);
#79=FACE_OUTER_BOUND('',#143,.T.);
#80=FACE_OUTER_BOUND('',#144,.T.);
#81=FACE_OUTER_BOUND('',#145,.T.);
#82=FACE_OUTER_BOUND('',#146,.T.);
#83=FACE_OUTER_BOUND('',#147,.T.);
#84=FACE_OUTER_BOUND('',#148,.T.);
#85=FACE_OUTER_BOUND('',#149,.T.);
#86=FACE_OUTER_BOUND('',#150,.T.);
#87=FACE_OUTER_BOUND('',#151,.T.);
#88=FACE_OUTER_BOUND('',#152,.T.);
#89=FACE_OUTER_BOUND('',#153,.T.);
#90=FACE_OUTER_BOUND('',#154,.T.);
#91=FACE_OUTER_BOUND('',#155,.T.);
#92=FACE_OUTER_BOUND('',#156,.T.);
#93=FACE_OUTER_BOUND('',#157,.T.);
#94=FACE_OUTER_BOUND('',#158,.T.);
#95=FACE_OUTER_BOUND('',#159,.T.);
#96=FACE_OUTER_BOUND('',#160,.T.);
#97=FACE_OUTER_BOUND('',#161,.T.);
#98=FACE_OUTER_BOUND('',#162,.T.);
#99=FACE_OUTER_BOUND('',#163,.T.);
#100=FACE_OUTER_BOUND('',#164,.T.);
#101=FACE_OUTER_BOUND('',#165,.T.);
#102=FACE_OUTER_BOUND('',#166,.T.);
#103=FACE_OUTER_BOUND('',#167,.T.);
#104=FACE_OUTER_BOUND('',#168,.T.);
#105=FACE_OUTER_BOUND('',#169,.T.);
#106=FACE_OUTER_BOUND('',#170,.T.);
#107=FACE_OUTER_BOUND('',#171,.T.);
#108=FACE_OUTER_BOUND('',#172,.T.);
#109=FACE_OUTER_BOUND('',#173,.T.);
#110=FACE_OUTER_BOUND('',#177,.T.);
#111=FACE_OUTER_BOUND('',#178,.T.);
#112=FACE_OUTER_BOUND('',#179,.T.);
#113=FACE_OUTER_BOUND('',#180,.T.);
#114=EDGE_LOOP('',(#710,#711,#712,#713));
#115=EDGE_LOOP('',(#714,#715,#716,#717));
#116=EDGE_LOOP('',(#718,#719,#720,#721));
#117=EDGE_LOOP('',(#722,#723,#724,#725));
#118=EDGE_LOOP('',(#726,#727,#728,#729,#730,#731,#732,#733,#734,#735,#736,
#737));
#119=EDGE_LOOP('',(#738));
#120=EDGE_LOOP('',(#739,#740,#741,#742));
#121=EDGE_LOOP('',(#743,#744,#745,#746,#747,#748,#749,#750,#751,#752));
#122=EDGE_LOOP('',(#753,#754,#755,#756));
#123=EDGE_LOOP('',(#757,#758,#759,#760));
#124=EDGE_LOOP('',(#761,#762,#763,#764));
#125=EDGE_LOOP('',(#765,#766,#767,#768));
#126=EDGE_LOOP('',(#769,#770,#771,#772));
#127=EDGE_LOOP('',(#773,#774,#775,#776,#777,#778,#779,#780,#781,#782));
#128=EDGE_LOOP('',(#783,#784,#785));
#129=EDGE_LOOP('',(#786,#787,#788));
#130=EDGE_LOOP('',(#789));
#131=EDGE_LOOP('',(#790));
#132=EDGE_LOOP('',(#791));
#133=EDGE_LOOP('',(#792,#793,#794,#795));
#134=EDGE_LOOP('',(#796,#797,#798,#799,#800,#801,#802,#803));
#135=EDGE_LOOP('',(#804,#805,#806,#807,#808,#809,#810,#811,#812,#813));
#136=EDGE_LOOP('',(#814,#815,#816,#817));
#137=EDGE_LOOP('',(#818,#819,#820,#821));
#138=EDGE_LOOP('',(#822,#823,#824,#825));
#139=EDGE_LOOP('',(#826,#827,#828,#829));
#140=EDGE_LOOP('',(#830,#831,#832,#833));
#141=EDGE_LOOP('',(#834,#835,#836,#837));
#142=EDGE_LOOP('',(#838,#839,#840,#841));
#143=EDGE_LOOP('',(#842,#843,#844,#845,#846,#847));
#144=EDGE_LOOP('',(#848,#849,#850,#851));
#145=EDGE_LOOP('',(#852,#853,#854,#855,#856,#857));
#146=EDGE_LOOP('',(#858,#859,#860,#861));
#147=EDGE_LOOP('',(#862,#863,#864,#865,#866,#867,#868,#869,#870,#871,#872,
#873));
#148=EDGE_LOOP('',(#874,#875,#876,#877,#878,#879,#880,#881));
#149=EDGE_LOOP('',(#882,#883,#884,#885));
#150=EDGE_LOOP('',(#886,#887,#888,#889,#890));
#151=EDGE_LOOP('',(#891,#892,#893,#894,#895,#896,#897,#898));
#152=EDGE_LOOP('',(#899,#900,#901,#902,#903,#904,#905,#906));
#153=EDGE_LOOP('',(#907,#908,#909,#910,#911,#912));
#154=EDGE_LOOP('',(#913,#914,#915,#916));
#155=EDGE_LOOP('',(#917,#918,#919,#920));
#156=EDGE_LOOP('',(#921,#922,#923,#924,#925,#926));
#157=EDGE_LOOP('',(#927,#928,#929,#930));
#158=EDGE_LOOP('',(#931,#932,#933,#934));
#159=EDGE_LOOP('',(#935,#936,#937,#938,#939,#940));
#160=EDGE_LOOP('',(#941,#942,#943,#944,#945,#946,#947,#948));
#161=EDGE_LOOP('',(#949,#950,#951,#952));
#162=EDGE_LOOP('',(#953,#954,#955,#956,#957,#958));
#163=EDGE_LOOP('',(#959,#960,#961,#962));
#164=EDGE_LOOP('',(#963,#964,#965,#966));
#165=EDGE_LOOP('',(#967,#968,#969,#970));
#166=EDGE_LOOP('',(#971,#972,#973));
#167=EDGE_LOOP('',(#974,#975,#976,#977));
#168=EDGE_LOOP('',(#978,#979,#980,#981,#982));
#169=EDGE_LOOP('',(#983,#984,#985,#986,#987,#988,#989,#990));
#170=EDGE_LOOP('',(#991,#992,#993,#994));
#171=EDGE_LOOP('',(#995,#996,#997));
#172=EDGE_LOOP('',(#998,#999,#1000,#1001));
#173=EDGE_LOOP('',(#1002));
#174=EDGE_LOOP('',(#1003));
#175=EDGE_LOOP('',(#1004));
#176=EDGE_LOOP('',(#1005));
#177=EDGE_LOOP('',(#1006,#1007,#1008,#1009));
#178=EDGE_LOOP('',(#1010,#1011,#1012,#1013));
#179=EDGE_LOOP('',(#1014,#1015,#1016,#1017));
#180=EDGE_LOOP('',(#1018,#1019,#1020,#1021));
#181=LINE('',#1510,#316);
#182=LINE('',#1512,#317);
#183=LINE('',#1514,#318);
#184=LINE('',#1515,#319);
#185=LINE('',#1518,#320);
#186=LINE('',#1520,#321);
#187=LINE('',#1521,#322);
#188=LINE('',#1524,#323);
#189=LINE('',#1526,#324);
#190=LINE('',#1527,#325);
#191=LINE('',#1529,#326);
#192=LINE('',#1532,#327);
#193=LINE('',#1534,#328);
#194=LINE('',#1536,#329);
#195=LINE('',#1538,#330);
#196=LINE('',#1540,#331);
#197=LINE('',#1542,#332);
#198=LINE('',#1544,#333);
#199=LINE('',#1546,#334);
#200=LINE('',#1547,#335);
#201=LINE('',#1640,#336);
#202=LINE('',#1642,#337);
#203=LINE('',#1644,#338);
#204=LINE('',#1645,#339);
#205=LINE('',#1648,#340);
#206=LINE('',#1649,#341);
#207=LINE('',#1651,#342);
#208=LINE('',#1652,#343);
#209=LINE('',#1655,#344);
#210=LINE('',#1657,#345);
#211=LINE('',#1658,#346);
#212=LINE('',#1661,#347);
#213=LINE('',#1663,#348);
#214=LINE('',#1664,#349);
#215=LINE('',#1666,#350);
#216=LINE('',#1667,#351);
#217=LINE('',#1672,#352);
#218=LINE('',#1674,#353);
#219=LINE('',#1676,#354);
#220=LINE('',#1677,#355);
#221=LINE('',#1680,#356);
#222=LINE('',#1681,#357);
#223=LINE('',#1683,#358);
#224=LINE('',#1687,#359);
#225=LINE('',#1690,#360);
#226=LINE('',#1695,#361);
#227=LINE('',#1696,#362);
#228=LINE('',#1699,#363);
#229=LINE('',#1701,#364);
#230=LINE('',#1711,#365);
#231=LINE('',#1712,#366);
#232=LINE('',#1715,#367);
#233=LINE('',#1717,#368);
#234=LINE('',#1719,#369);
#235=LINE('',#1721,#370);
#236=LINE('',#1723,#371);
#237=LINE('',#1726,#372);
#238=LINE('',#1727,#373);
#239=LINE('',#1730,#374);
#240=LINE('',#1734,#375);
#241=LINE('',#1738,#376);
#242=LINE('',#1743,#377);
#243=LINE('',#1747,#378);
#244=LINE('',#1751,#379);
#245=LINE('',#1755,#380);
#246=LINE('',#1757,#381);
#247=LINE('',#1759,#382);
#248=LINE('',#1760,#383);
#249=LINE('',#1763,#384);
#250=LINE('',#1765,#385);
#251=LINE('',#1767,#386);
#252=LINE('',#1769,#387);
#253=LINE('',#1770,#388);
#254=LINE('',#1773,#389);
#255=LINE('',#1775,#390);
#256=LINE('',#1776,#391);
#257=LINE('',#1779,#392);
#258=LINE('',#1781,#393);
#259=LINE('',#1782,#394);
#260=LINE('',#1783,#395);
#261=LINE('',#1787,#396);
#262=LINE('',#1789,#397);
#263=LINE('',#1791,#398);
#264=LINE('',#1792,#399);
#265=LINE('',#1793,#400);
#266=LINE('',#1796,#401);
#267=LINE('',#1798,#402);
#268=LINE('',#1800,#403);
#269=LINE('',#1802,#404);
#270=LINE('',#1804,#405);
#271=LINE('',#1805,#406);
#272=LINE('',#1808,#407);
#273=LINE('',#1810,#408);
#274=LINE('',#1811,#409);
#275=LINE('',#1814,#410);
#276=LINE('',#1816,#411);
#277=LINE('',#1819,#412);
#278=LINE('',#1822,#413);
#279=LINE('',#1823,#414);
#280=LINE('',#1826,#415);
#281=LINE('',#1829,#416);
#282=LINE('',#1832,#417);
#283=LINE('',#1834,#418);
#284=LINE('',#1836,#419);
#285=LINE('',#1837,#420);
#286=LINE('',#1840,#421);
#287=LINE('',#1841,#422);
#288=LINE('',#1844,#423);
#289=LINE('',#1846,#424);
#290=LINE('',#1847,#425);
#291=LINE('',#1849,#426);
#292=LINE('',#1850,#427);
#293=LINE('',#1854,#428);
#294=LINE('',#1856,#429);
#295=LINE('',#1857,#430);
#296=LINE('',#1862,#431);
#297=LINE('',#1863,#432);
#298=LINE('',#1865,#433);
#299=LINE('',#1866,#434);
#300=LINE('',#1868,#435);
#301=LINE('',#1870,#436);
#302=LINE('',#1873,#437);
#303=LINE('',#1875,#438);
#304=LINE('',#1876,#439);
#305=LINE('',#1881,#440);
#306=LINE('',#1883,#441);
#307=LINE('',#1886,#442);
#308=LINE('',#1887,#443);
#309=LINE('',#1889,#444);
#310=LINE('',#1893,#445);
#311=LINE('',#1895,#446);
#312=LINE('',#1896,#447);
#313=LINE('',#1900,#448);
#314=LINE('',#2099,#449);
#315=LINE('',#2101,#450);
#316=VECTOR('',#1221,1.);
#317=VECTOR('',#1222,1.);
#318=VECTOR('',#1223,1.);
#319=VECTOR('',#1224,1.);
#320=VECTOR('',#1227,1.);
#321=VECTOR('',#1228,1.);
#322=VECTOR('',#1229,1.);
#323=VECTOR('',#1232,1.);
#324=VECTOR('',#1233,1.);
#325=VECTOR('',#1234,1.);
#326=VECTOR('',#1237,1.);
#327=VECTOR('',#1240,1.);
#328=VECTOR('',#1241,1.);
#329=VECTOR('',#1242,1.);
#330=VECTOR('',#1243,1.);
#331=VECTOR('',#1244,1.);
#332=VECTOR('',#1245,1.);
#333=VECTOR('',#1246,1.);
#334=VECTOR('',#1247,1.);
#335=VECTOR('',#1248,1.);
#336=VECTOR('',#1251,1.);
#337=VECTOR('',#1252,1.);
#338=VECTOR('',#1253,1.);
#339=VECTOR('',#1254,1.);
#340=VECTOR('',#1257,1.);
#341=VECTOR('',#1258,1.);
#342=VECTOR('',#1259,1.);
#343=VECTOR('',#1260,1.);
#344=VECTOR('',#1263,1.);
#345=VECTOR('',#1264,1.);
#346=VECTOR('',#1265,1.);
#347=VECTOR('',#1268,1.);
#348=VECTOR('',#1269,1.);
#349=VECTOR('',#1270,1.);
#350=VECTOR('',#1273,1.);
#351=VECTOR('',#1274,1.);
#352=VECTOR('',#1279,1.);
#353=VECTOR('',#1280,1.);
#354=VECTOR('',#1281,1.);
#355=VECTOR('',#1282,1.);
#356=VECTOR('',#1285,1.);
#357=VECTOR('',#1286,1.);
#358=VECTOR('',#1287,1.);
#359=VECTOR('',#1290,1.);
#360=VECTOR('',#1293,1.);
#361=VECTOR('',#1296,1.);
#362=VECTOR('',#1297,1.);
#363=VECTOR('',#1298,1.);
#364=VECTOR('',#1299,1.);
#365=VECTOR('',#1310,1.);
#366=VECTOR('',#1311,1.);
#367=VECTOR('',#1314,1.);
#368=VECTOR('',#1315,1.);
#369=VECTOR('',#1316,1.);
#370=VECTOR('',#1317,1.);
#371=VECTOR('',#1318,1.);
#372=VECTOR('',#1323,1.);
#373=VECTOR('',#1324,1.);
#374=VECTOR('',#1327,0.32);
#375=VECTOR('',#1332,0.32);
#376=VECTOR('',#1337,0.32);
#377=VECTOR('',#1344,0.28);
#378=VECTOR('',#1349,0.28);
#379=VECTOR('',#1354,0.28);
#380=VECTOR('',#1357,1.);
#381=VECTOR('',#1358,1.);
#382=VECTOR('',#1359,1.);
#383=VECTOR('',#1360,1.);
#384=VECTOR('',#1363,1.);
#385=VECTOR('',#1364,1.);
#386=VECTOR('',#1365,1.);
#387=VECTOR('',#1366,1.);
#388=VECTOR('',#1367,1.);
#389=VECTOR('',#1370,1.);
#390=VECTOR('',#1371,1.);
#391=VECTOR('',#1372,1.);
#392=VECTOR('',#1375,1.);
#393=VECTOR('',#1376,1.);
#394=VECTOR('',#1377,1.);
#395=VECTOR('',#1378,1.);
#396=VECTOR('',#1383,1.);
#397=VECTOR('',#1384,1.);
#398=VECTOR('',#1385,1.);
#399=VECTOR('',#1386,1.);
#400=VECTOR('',#1387,1.);
#401=VECTOR('',#1390,1.);
#402=VECTOR('',#1391,1.);
#403=VECTOR('',#1392,1.);
#404=VECTOR('',#1393,1.);
#405=VECTOR('',#1394,1.);
#406=VECTOR('',#1395,1.);
#407=VECTOR('',#1398,1.);
#408=VECTOR('',#1399,1.);
#409=VECTOR('',#1400,1.);
#410=VECTOR('',#1403,1.);
#411=VECTOR('',#1404,1.);
#412=VECTOR('',#1407,1.);
#413=VECTOR('',#1410,1.);
#414=VECTOR('',#1411,1.);
#415=VECTOR('',#1414,1.);
#416=VECTOR('',#1417,1.);
#417=VECTOR('',#1420,1.);
#418=VECTOR('',#1421,1.);
#419=VECTOR('',#1422,1.);
#420=VECTOR('',#1423,1.);
#421=VECTOR('',#1426,1.);
#422=VECTOR('',#1427,1.);
#423=VECTOR('',#1430,1.);
#424=VECTOR('',#1431,1.);
#425=VECTOR('',#1432,1.);
#426=VECTOR('',#1435,1.);
#427=VECTOR('',#1436,1.);
#428=VECTOR('',#1441,1.);
#429=VECTOR('',#1442,1.);
#430=VECTOR('',#1443,1.);
#431=VECTOR('',#1448,1.);
#432=VECTOR('',#1449,1.);
#433=VECTOR('',#1452,1.);
#434=VECTOR('',#1453,1.);
#435=VECTOR('',#1456,1.);
#436=VECTOR('',#1459,1.);
#437=VECTOR('',#1462,1.);
#438=VECTOR('',#1463,1.);
#439=VECTOR('',#1464,1.);
#440=VECTOR('',#1471,1.);
#441=VECTOR('',#1474,1.);
#442=VECTOR('',#1477,1.);
#443=VECTOR('',#1478,1.);
#444=VECTOR('',#1481,1.);
#445=VECTOR('',#1486,1.);
#446=VECTOR('',#1487,1.);
#447=VECTOR('',#1488,1.);
#448=VECTOR('',#1493,1.);
#449=VECTOR('',#1498,0.915425584086441);
#450=VECTOR('',#1501,1.);
#451=VERTEX_POINT('',#1508);
#452=VERTEX_POINT('',#1509);
#453=VERTEX_POINT('',#1511);
#454=VERTEX_POINT('',#1513);
#455=VERTEX_POINT('',#1517);
#456=VERTEX_POINT('',#1519);
#457=VERTEX_POINT('',#1523);
#458=VERTEX_POINT('',#1525);
#459=VERTEX_POINT('',#1531);
#460=VERTEX_POINT('',#1533);
#461=VERTEX_POINT('',#1535);
#462=VERTEX_POINT('',#1537);
#463=VERTEX_POINT('',#1539);
#464=VERTEX_POINT('',#1541);
#465=VERTEX_POINT('',#1543);
#466=VERTEX_POINT('',#1545);
#467=VERTEX_POINT('',#1548);
#468=VERTEX_POINT('',#1638);
#469=VERTEX_POINT('',#1639);
#470=VERTEX_POINT('',#1641);
#471=VERTEX_POINT('',#1643);
#472=VERTEX_POINT('',#1647);
#473=VERTEX_POINT('',#1650);
#474=VERTEX_POINT('',#1654);
#475=VERTEX_POINT('',#1656);
#476=VERTEX_POINT('',#1660);
#477=VERTEX_POINT('',#1662);
#478=VERTEX_POINT('',#1670);
#479=VERTEX_POINT('',#1671);
#480=VERTEX_POINT('',#1673);
#481=VERTEX_POINT('',#1675);
#482=VERTEX_POINT('',#1679);
#483=VERTEX_POINT('',#1682);
#484=VERTEX_POINT('',#1684);
#485=VERTEX_POINT('',#1686);
#486=VERTEX_POINT('',#1688);
#487=VERTEX_POINT('',#1691);
#488=VERTEX_POINT('',#1692);
#489=VERTEX_POINT('',#1694);
#490=VERTEX_POINT('',#1697);
#491=VERTEX_POINT('',#1698);
#492=VERTEX_POINT('',#1700);
#493=VERTEX_POINT('',#1703);
#494=VERTEX_POINT('',#1705);
#495=VERTEX_POINT('',#1707);
#496=VERTEX_POINT('',#1710);
#497=VERTEX_POINT('',#1714);
#498=VERTEX_POINT('',#1716);
#499=VERTEX_POINT('',#1718);
#500=VERTEX_POINT('',#1720);
#501=VERTEX_POINT('',#1722);
#502=VERTEX_POINT('',#1729);
#503=VERTEX_POINT('',#1733);
#504=VERTEX_POINT('',#1737);
#505=VERTEX_POINT('',#1741);
#506=VERTEX_POINT('',#1745);
#507=VERTEX_POINT('',#1749);
#508=VERTEX_POINT('',#1753);
#509=VERTEX_POINT('',#1754);
#510=VERTEX_POINT('',#1756);
#511=VERTEX_POINT('',#1758);
#512=VERTEX_POINT('',#1762);
#513=VERTEX_POINT('',#1764);
#514=VERTEX_POINT('',#1766);
#515=VERTEX_POINT('',#1768);
#516=VERTEX_POINT('',#1772);
#517=VERTEX_POINT('',#1774);
#518=VERTEX_POINT('',#1778);
#519=VERTEX_POINT('',#1780);
#520=VERTEX_POINT('',#1786);
#521=VERTEX_POINT('',#1788);
#522=VERTEX_POINT('',#1790);
#523=VERTEX_POINT('',#1795);
#524=VERTEX_POINT('',#1797);
#525=VERTEX_POINT('',#1799);
#526=VERTEX_POINT('',#1801);
#527=VERTEX_POINT('',#1803);
#528=VERTEX_POINT('',#1807);
#529=VERTEX_POINT('',#1809);
#530=VERTEX_POINT('',#1813);
#531=VERTEX_POINT('',#1815);
#532=VERTEX_POINT('',#1817);
#533=VERTEX_POINT('',#1821);
#534=VERTEX_POINT('',#1825);
#535=VERTEX_POINT('',#1827);
#536=VERTEX_POINT('',#1831);
#537=VERTEX_POINT('',#1833);
#538=VERTEX_POINT('',#1835);
#539=VERTEX_POINT('',#1839);
#540=VERTEX_POINT('',#1843);
#541=VERTEX_POINT('',#1845);
#542=VERTEX_POINT('',#1853);
#543=VERTEX_POINT('',#1855);
#544=VERTEX_POINT('',#1859);
#545=VERTEX_POINT('',#1860);
#546=VERTEX_POINT('',#1872);
#547=VERTEX_POINT('',#1874);
#548=VERTEX_POINT('',#1879);
#549=VERTEX_POINT('',#1885);
#550=VERTEX_POINT('',#1892);
#551=VERTEX_POINT('',#1894);
#552=VERTEX_POINT('',#1898);
#553=VERTEX_POINT('',#1903);
#554=EDGE_CURVE('',#451,#452,#181,.T.);
#555=EDGE_CURVE('',#453,#451,#182,.T.);
#556=EDGE_CURVE('',#454,#453,#183,.T.);
#557=EDGE_CURVE('',#452,#454,#184,.T.);
#558=EDGE_CURVE('',#455,#451,#185,.T.);
#559=EDGE_CURVE('',#455,#456,#186,.T.);
#560=EDGE_CURVE('',#456,#453,#187,.T.);
#561=EDGE_CURVE('',#457,#455,#188,.T.);
#562=EDGE_CURVE('',#458,#457,#189,.T.);
#563=EDGE_CURVE('',#458,#456,#190,.T.);
#564=EDGE_CURVE('',#454,#458,#191,.T.);
#565=EDGE_CURVE('',#459,#457,#192,.T.);
#566=EDGE_CURVE('',#460,#459,#193,.T.);
#567=EDGE_CURVE('',#461,#460,#194,.T.);
#568=EDGE_CURVE('',#462,#461,#195,.T.);
#569=EDGE_CURVE('',#463,#462,#196,.T.);
#570=EDGE_CURVE('',#464,#463,#197,.T.);
#571=EDGE_CURVE('',#465,#464,#198,.T.);
#572=EDGE_CURVE('',#466,#465,#199,.T.);
#573=EDGE_CURVE('',#452,#466,#200,.T.);
#574=EDGE_CURVE('',#467,#467,#54,.T.);
#575=EDGE_CURVE('',#468,#469,#201,.T.);
#576=EDGE_CURVE('',#470,#468,#202,.T.);
#577=EDGE_CURVE('',#470,#471,#203,.T.);
#578=EDGE_CURVE('',#471,#469,#204,.T.);
#579=EDGE_CURVE('',#466,#472,#205,.T.);
#580=EDGE_CURVE('',#472,#471,#206,.T.);
#581=EDGE_CURVE('',#470,#473,#207,.T.);
#582=EDGE_CURVE('',#459,#473,#208,.T.);
#583=EDGE_CURVE('',#474,#461,#209,.T.);
#584=EDGE_CURVE('',#475,#474,#210,.T.);
#585=EDGE_CURVE('',#462,#475,#211,.T.);
#586=EDGE_CURVE('',#476,#474,#212,.T.);
#587=EDGE_CURVE('',#476,#477,#213,.T.);
#588=EDGE_CURVE('',#477,#475,#214,.T.);
#589=EDGE_CURVE('',#464,#476,#215,.T.);
#590=EDGE_CURVE('',#463,#477,#216,.T.);
#591=EDGE_CURVE('',#478,#479,#217,.T.);
#592=EDGE_CURVE('',#478,#480,#218,.T.);
#593=EDGE_CURVE('',#480,#481,#219,.T.);
#594=EDGE_CURVE('',#479,#481,#220,.T.);
#595=EDGE_CURVE('',#472,#482,#221,.T.);
#596=EDGE_CURVE('',#482,#480,#222,.T.);
#597=EDGE_CURVE('',#478,#483,#223,.T.);
#598=EDGE_CURVE('',#483,#484,#26,.T.);
#599=EDGE_CURVE('',#484,#485,#224,.T.);
#600=EDGE_CURVE('',#485,#486,#27,.T.);
#601=EDGE_CURVE('',#486,#469,#225,.T.);
#602=EDGE_CURVE('',#487,#488,#28,.T.);
#603=EDGE_CURVE('',#488,#489,#226,.T.);
#604=EDGE_CURVE('',#489,#487,#227,.T.);
#605=EDGE_CURVE('',#490,#491,#228,.T.);
#606=EDGE_CURVE('',#490,#492,#229,.T.);
#607=EDGE_CURVE('',#492,#491,#29,.T.);
#608=EDGE_CURVE('',#493,#493,#30,.T.);
#609=EDGE_CURVE('',#494,#494,#31,.T.);
#610=EDGE_CURVE('',#495,#495,#32,.T.);
#611=EDGE_CURVE('',#496,#479,#230,.T.);
#612=EDGE_CURVE('',#496,#483,#231,.T.);
#613=EDGE_CURVE('',#497,#481,#232,.T.);
#614=EDGE_CURVE('',#498,#497,#233,.T.);
#615=EDGE_CURVE('',#498,#499,#234,.T.);
#616=EDGE_CURVE('',#499,#500,#235,.T.);
#617=EDGE_CURVE('',#500,#501,#236,.T.);
#618=EDGE_CURVE('',#501,#496,#33,.T.);
#619=EDGE_CURVE('',#497,#460,#237,.T.);
#620=EDGE_CURVE('',#482,#465,#238,.T.);
#621=EDGE_CURVE('',#495,#502,#239,.T.);
#622=EDGE_CURVE('',#502,#502,#34,.T.);
#623=EDGE_CURVE('',#494,#503,#240,.T.);
#624=EDGE_CURVE('',#503,#503,#35,.T.);
#625=EDGE_CURVE('',#493,#504,#241,.T.);
#626=EDGE_CURVE('',#504,#504,#36,.T.);
#627=EDGE_CURVE('',#505,#505,#37,.T.);
#628=EDGE_CURVE('',#505,#504,#242,.T.);
#629=EDGE_CURVE('',#506,#506,#38,.T.);
#630=EDGE_CURVE('',#506,#503,#243,.T.);
#631=EDGE_CURVE('',#507,#507,#39,.T.);
#632=EDGE_CURVE('',#507,#502,#244,.T.);
#633=EDGE_CURVE('',#508,#509,#245,.T.);
#634=EDGE_CURVE('',#510,#508,#246,.T.);
#635=EDGE_CURVE('',#511,#510,#247,.T.);
#636=EDGE_CURVE('',#511,#509,#248,.T.);
#637=EDGE_CURVE('',#509,#512,#249,.T.);
#638=EDGE_CURVE('',#513,#511,#250,.T.);
#639=EDGE_CURVE('',#513,#514,#251,.T.);
#640=EDGE_CURVE('',#515,#514,#252,.T.);
#641=EDGE_CURVE('',#512,#515,#253,.T.);
#642=EDGE_CURVE('',#514,#516,#254,.T.);
#643=EDGE_CURVE('',#517,#513,#255,.T.);
#644=EDGE_CURVE('',#517,#516,#256,.T.);
#645=EDGE_CURVE('',#518,#508,#257,.T.);
#646=EDGE_CURVE('',#519,#518,#258,.T.);
#647=EDGE_CURVE('',#516,#519,#259,.T.);
#648=EDGE_CURVE('',#510,#517,#260,.T.);
#649=EDGE_CURVE('',#512,#520,#261,.T.);
#650=EDGE_CURVE('',#520,#521,#262,.T.);
#651=EDGE_CURVE('',#521,#522,#263,.T.);
#652=EDGE_CURVE('',#522,#498,#264,.T.);
#653=EDGE_CURVE('',#473,#518,#265,.T.);
#654=EDGE_CURVE('',#515,#523,#266,.T.);
#655=EDGE_CURVE('',#523,#524,#267,.T.);
#656=EDGE_CURVE('',#524,#525,#268,.T.);
#657=EDGE_CURVE('',#525,#526,#269,.T.);
#658=EDGE_CURVE('',#526,#527,#270,.T.);
#659=EDGE_CURVE('',#527,#520,#271,.T.);
#660=EDGE_CURVE('',#524,#528,#272,.T.);
#661=EDGE_CURVE('',#529,#523,#273,.T.);
#662=EDGE_CURVE('',#528,#529,#274,.T.);
#663=EDGE_CURVE('',#530,#529,#275,.T.);
#664=EDGE_CURVE('',#531,#530,#276,.T.);
#665=EDGE_CURVE('',#532,#531,#40,.T.);
#666=EDGE_CURVE('',#528,#532,#277,.T.);
#667=EDGE_CURVE('',#533,#519,#278,.T.);
#668=EDGE_CURVE('',#533,#530,#279,.T.);
#669=EDGE_CURVE('',#468,#534,#280,.T.);
#670=EDGE_CURVE('',#534,#535,#41,.T.);
#671=EDGE_CURVE('',#535,#533,#281,.T.);
#672=EDGE_CURVE('',#536,#527,#282,.T.);
#673=EDGE_CURVE('',#537,#536,#283,.T.);
#674=EDGE_CURVE('',#538,#537,#284,.T.);
#675=EDGE_CURVE('',#538,#521,#285,.T.);
#676=EDGE_CURVE('',#539,#538,#286,.T.);
#677=EDGE_CURVE('',#539,#522,#287,.T.);
#678=EDGE_CURVE('',#540,#536,#288,.T.);
#679=EDGE_CURVE('',#541,#540,#289,.T.);
#680=EDGE_CURVE('',#537,#541,#290,.T.);
#681=EDGE_CURVE('',#499,#540,#291,.T.);
#682=EDGE_CURVE('',#541,#539,#292,.T.);
#683=EDGE_CURVE('',#542,#525,#293,.T.);
#684=EDGE_CURVE('',#542,#543,#294,.T.);
#685=EDGE_CURVE('',#526,#543,#295,.T.);
#686=EDGE_CURVE('',#544,#545,#42,.T.);
#687=EDGE_CURVE('',#545,#484,#296,.T.);
#688=EDGE_CURVE('',#501,#544,#297,.T.);
#689=EDGE_CURVE('',#532,#485,#298,.T.);
#690=EDGE_CURVE('',#545,#542,#299,.T.);
#691=EDGE_CURVE('',#531,#535,#300,.T.);
#692=EDGE_CURVE('',#534,#486,#301,.T.);
#693=EDGE_CURVE('',#546,#489,#302,.T.);
#694=EDGE_CURVE('',#547,#546,#303,.T.);
#695=EDGE_CURVE('',#487,#547,#304,.T.);
#696=EDGE_CURVE('',#548,#547,#43,.T.);
#697=EDGE_CURVE('',#488,#548,#305,.T.);
#698=EDGE_CURVE('',#546,#548,#306,.T.);
#699=EDGE_CURVE('',#549,#500,#307,.T.);
#700=EDGE_CURVE('',#544,#549,#308,.T.);
#701=EDGE_CURVE('',#543,#549,#309,.T.);
#702=EDGE_CURVE('',#550,#491,#310,.T.);
#703=EDGE_CURVE('',#551,#550,#311,.T.);
#704=EDGE_CURVE('',#490,#551,#312,.T.);
#705=EDGE_CURVE('',#550,#552,#44,.T.);
#706=EDGE_CURVE('',#552,#551,#313,.T.);
#707=EDGE_CURVE('',#553,#553,#55,.T.);
#708=EDGE_CURVE('',#467,#553,#314,.T.);
#709=EDGE_CURVE('',#552,#492,#315,.T.);
#710=ORIENTED_EDGE('',*,*,#554,.F.);
#711=ORIENTED_EDGE('',*,*,#555,.F.);
#712=ORIENTED_EDGE('',*,*,#556,.F.);
#713=ORIENTED_EDGE('',*,*,#557,.F.);
#714=ORIENTED_EDGE('',*,*,#558,.F.);
#715=ORIENTED_EDGE('',*,*,#559,.T.);
#716=ORIENTED_EDGE('',*,*,#560,.T.);
#717=ORIENTED_EDGE('',*,*,#555,.T.);
#718=ORIENTED_EDGE('',*,*,#561,.F.);
#719=ORIENTED_EDGE('',*,*,#562,.F.);
#720=ORIENTED_EDGE('',*,*,#563,.T.);
#721=ORIENTED_EDGE('',*,*,#559,.F.);
#722=ORIENTED_EDGE('',*,*,#564,.F.);
#723=ORIENTED_EDGE('',*,*,#556,.T.);
#724=ORIENTED_EDGE('',*,*,#560,.F.);
#725=ORIENTED_EDGE('',*,*,#563,.F.);
#726=ORIENTED_EDGE('',*,*,#565,.F.);
#727=ORIENTED_EDGE('',*,*,#566,.F.);
#728=ORIENTED_EDGE('',*,*,#567,.F.);
#729=ORIENTED_EDGE('',*,*,#568,.F.);
#730=ORIENTED_EDGE('',*,*,#569,.F.);
#731=ORIENTED_EDGE('',*,*,#570,.F.);
#732=ORIENTED_EDGE('',*,*,#571,.F.);
#733=ORIENTED_EDGE('',*,*,#572,.F.);
#734=ORIENTED_EDGE('',*,*,#573,.F.);
#735=ORIENTED_EDGE('',*,*,#557,.T.);
#736=ORIENTED_EDGE('',*,*,#564,.T.);
#737=ORIENTED_EDGE('',*,*,#562,.T.);
#738=ORIENTED_EDGE('',*,*,#574,.T.);
#739=ORIENTED_EDGE('',*,*,#575,.F.);
#740=ORIENTED_EDGE('',*,*,#576,.F.);
#741=ORIENTED_EDGE('',*,*,#577,.T.);
#742=ORIENTED_EDGE('',*,*,#578,.T.);
#743=ORIENTED_EDGE('',*,*,#554,.T.);
#744=ORIENTED_EDGE('',*,*,#573,.T.);
#745=ORIENTED_EDGE('',*,*,#579,.T.);
#746=ORIENTED_EDGE('',*,*,#580,.T.);
#747=ORIENTED_EDGE('',*,*,#577,.F.);
#748=ORIENTED_EDGE('',*,*,#581,.T.);
#749=ORIENTED_EDGE('',*,*,#582,.F.);
#750=ORIENTED_EDGE('',*,*,#565,.T.);
#751=ORIENTED_EDGE('',*,*,#561,.T.);
#752=ORIENTED_EDGE('',*,*,#558,.T.);
#753=ORIENTED_EDGE('',*,*,#583,.F.);
#754=ORIENTED_EDGE('',*,*,#584,.F.);
#755=ORIENTED_EDGE('',*,*,#585,.F.);
#756=ORIENTED_EDGE('',*,*,#568,.T.);
#757=ORIENTED_EDGE('',*,*,#586,.F.);
#758=ORIENTED_EDGE('',*,*,#587,.T.);
#759=ORIENTED_EDGE('',*,*,#588,.T.);
#760=ORIENTED_EDGE('',*,*,#584,.T.);
#761=ORIENTED_EDGE('',*,*,#589,.F.);
#762=ORIENTED_EDGE('',*,*,#570,.T.);
#763=ORIENTED_EDGE('',*,*,#590,.T.);
#764=ORIENTED_EDGE('',*,*,#587,.F.);
#765=ORIENTED_EDGE('',*,*,#569,.T.);
#766=ORIENTED_EDGE('',*,*,#585,.T.);
#767=ORIENTED_EDGE('',*,*,#588,.F.);
#768=ORIENTED_EDGE('',*,*,#590,.F.);
#769=ORIENTED_EDGE('',*,*,#591,.F.);
#770=ORIENTED_EDGE('',*,*,#592,.T.);
#771=ORIENTED_EDGE('',*,*,#593,.T.);
#772=ORIENTED_EDGE('',*,*,#594,.F.);
#773=ORIENTED_EDGE('',*,*,#578,.F.);
#774=ORIENTED_EDGE('',*,*,#580,.F.);
#775=ORIENTED_EDGE('',*,*,#595,.T.);
#776=ORIENTED_EDGE('',*,*,#596,.T.);
#777=ORIENTED_EDGE('',*,*,#592,.F.);
#778=ORIENTED_EDGE('',*,*,#597,.T.);
#779=ORIENTED_EDGE('',*,*,#598,.T.);
#780=ORIENTED_EDGE('',*,*,#599,.T.);
#781=ORIENTED_EDGE('',*,*,#600,.T.);
#782=ORIENTED_EDGE('',*,*,#601,.T.);
#783=ORIENTED_EDGE('',*,*,#602,.T.);
#784=ORIENTED_EDGE('',*,*,#603,.T.);
#785=ORIENTED_EDGE('',*,*,#604,.T.);
#786=ORIENTED_EDGE('',*,*,#605,.F.);
#787=ORIENTED_EDGE('',*,*,#606,.T.);
#788=ORIENTED_EDGE('',*,*,#607,.T.);
#789=ORIENTED_EDGE('',*,*,#608,.T.);
#790=ORIENTED_EDGE('',*,*,#609,.T.);
#791=ORIENTED_EDGE('',*,*,#610,.T.);
#792=ORIENTED_EDGE('',*,*,#591,.T.);
#793=ORIENTED_EDGE('',*,*,#611,.F.);
#794=ORIENTED_EDGE('',*,*,#612,.T.);
#795=ORIENTED_EDGE('',*,*,#597,.F.);
#796=ORIENTED_EDGE('',*,*,#594,.T.);
#797=ORIENTED_EDGE('',*,*,#613,.F.);
#798=ORIENTED_EDGE('',*,*,#614,.F.);
#799=ORIENTED_EDGE('',*,*,#615,.T.);
#800=ORIENTED_EDGE('',*,*,#616,.T.);
#801=ORIENTED_EDGE('',*,*,#617,.T.);
#802=ORIENTED_EDGE('',*,*,#618,.T.);
#803=ORIENTED_EDGE('',*,*,#611,.T.);
#804=ORIENTED_EDGE('',*,*,#583,.T.);
#805=ORIENTED_EDGE('',*,*,#567,.T.);
#806=ORIENTED_EDGE('',*,*,#619,.F.);
#807=ORIENTED_EDGE('',*,*,#613,.T.);
#808=ORIENTED_EDGE('',*,*,#593,.F.);
#809=ORIENTED_EDGE('',*,*,#596,.F.);
#810=ORIENTED_EDGE('',*,*,#620,.T.);
#811=ORIENTED_EDGE('',*,*,#571,.T.);
#812=ORIENTED_EDGE('',*,*,#589,.T.);
#813=ORIENTED_EDGE('',*,*,#586,.T.);
#814=ORIENTED_EDGE('',*,*,#610,.F.);
#815=ORIENTED_EDGE('',*,*,#621,.T.);
#816=ORIENTED_EDGE('',*,*,#622,.F.);
#817=ORIENTED_EDGE('',*,*,#621,.F.);
#818=ORIENTED_EDGE('',*,*,#609,.F.);
#819=ORIENTED_EDGE('',*,*,#623,.T.);
#820=ORIENTED_EDGE('',*,*,#624,.F.);
#821=ORIENTED_EDGE('',*,*,#623,.F.);
#822=ORIENTED_EDGE('',*,*,#608,.F.);
#823=ORIENTED_EDGE('',*,*,#625,.T.);
#824=ORIENTED_EDGE('',*,*,#626,.F.);
#825=ORIENTED_EDGE('',*,*,#625,.F.);
#826=ORIENTED_EDGE('',*,*,#627,.F.);
#827=ORIENTED_EDGE('',*,*,#628,.T.);
#828=ORIENTED_EDGE('',*,*,#626,.T.);
#829=ORIENTED_EDGE('',*,*,#628,.F.);
#830=ORIENTED_EDGE('',*,*,#629,.F.);
#831=ORIENTED_EDGE('',*,*,#630,.T.);
#832=ORIENTED_EDGE('',*,*,#624,.T.);
#833=ORIENTED_EDGE('',*,*,#630,.F.);
#834=ORIENTED_EDGE('',*,*,#631,.F.);
#835=ORIENTED_EDGE('',*,*,#632,.T.);
#836=ORIENTED_EDGE('',*,*,#622,.T.);
#837=ORIENTED_EDGE('',*,*,#632,.F.);
#838=ORIENTED_EDGE('',*,*,#633,.F.);
#839=ORIENTED_EDGE('',*,*,#634,.F.);
#840=ORIENTED_EDGE('',*,*,#635,.F.);
#841=ORIENTED_EDGE('',*,*,#636,.T.);
#842=ORIENTED_EDGE('',*,*,#637,.F.);
#843=ORIENTED_EDGE('',*,*,#636,.F.);
#844=ORIENTED_EDGE('',*,*,#638,.F.);
#845=ORIENTED_EDGE('',*,*,#639,.T.);
#846=ORIENTED_EDGE('',*,*,#640,.F.);
#847=ORIENTED_EDGE('',*,*,#641,.F.);
#848=ORIENTED_EDGE('',*,*,#642,.F.);
#849=ORIENTED_EDGE('',*,*,#639,.F.);
#850=ORIENTED_EDGE('',*,*,#643,.F.);
#851=ORIENTED_EDGE('',*,*,#644,.T.);
#852=ORIENTED_EDGE('',*,*,#645,.F.);
#853=ORIENTED_EDGE('',*,*,#646,.F.);
#854=ORIENTED_EDGE('',*,*,#647,.F.);
#855=ORIENTED_EDGE('',*,*,#644,.F.);
#856=ORIENTED_EDGE('',*,*,#648,.F.);
#857=ORIENTED_EDGE('',*,*,#634,.T.);
#858=ORIENTED_EDGE('',*,*,#638,.T.);
#859=ORIENTED_EDGE('',*,*,#635,.T.);
#860=ORIENTED_EDGE('',*,*,#648,.T.);
#861=ORIENTED_EDGE('',*,*,#643,.T.);
#862=ORIENTED_EDGE('',*,*,#645,.T.);
#863=ORIENTED_EDGE('',*,*,#633,.T.);
#864=ORIENTED_EDGE('',*,*,#637,.T.);
#865=ORIENTED_EDGE('',*,*,#649,.T.);
#866=ORIENTED_EDGE('',*,*,#650,.T.);
#867=ORIENTED_EDGE('',*,*,#651,.T.);
#868=ORIENTED_EDGE('',*,*,#652,.T.);
#869=ORIENTED_EDGE('',*,*,#614,.T.);
#870=ORIENTED_EDGE('',*,*,#619,.T.);
#871=ORIENTED_EDGE('',*,*,#566,.T.);
#872=ORIENTED_EDGE('',*,*,#582,.T.);
#873=ORIENTED_EDGE('',*,*,#653,.T.);
#874=ORIENTED_EDGE('',*,*,#641,.T.);
#875=ORIENTED_EDGE('',*,*,#654,.T.);
#876=ORIENTED_EDGE('',*,*,#655,.T.);
#877=ORIENTED_EDGE('',*,*,#656,.T.);
#878=ORIENTED_EDGE('',*,*,#657,.T.);
#879=ORIENTED_EDGE('',*,*,#658,.T.);
#880=ORIENTED_EDGE('',*,*,#659,.T.);
#881=ORIENTED_EDGE('',*,*,#649,.F.);
#882=ORIENTED_EDGE('',*,*,#660,.F.);
#883=ORIENTED_EDGE('',*,*,#655,.F.);
#884=ORIENTED_EDGE('',*,*,#661,.F.);
#885=ORIENTED_EDGE('',*,*,#662,.F.);
#886=ORIENTED_EDGE('',*,*,#663,.F.);
#887=ORIENTED_EDGE('',*,*,#664,.F.);
#888=ORIENTED_EDGE('',*,*,#665,.F.);
#889=ORIENTED_EDGE('',*,*,#666,.F.);
#890=ORIENTED_EDGE('',*,*,#662,.T.);
#891=ORIENTED_EDGE('',*,*,#647,.T.);
#892=ORIENTED_EDGE('',*,*,#667,.F.);
#893=ORIENTED_EDGE('',*,*,#668,.T.);
#894=ORIENTED_EDGE('',*,*,#663,.T.);
#895=ORIENTED_EDGE('',*,*,#661,.T.);
#896=ORIENTED_EDGE('',*,*,#654,.F.);
#897=ORIENTED_EDGE('',*,*,#640,.T.);
#898=ORIENTED_EDGE('',*,*,#642,.T.);
#899=ORIENTED_EDGE('',*,*,#576,.T.);
#900=ORIENTED_EDGE('',*,*,#669,.T.);
#901=ORIENTED_EDGE('',*,*,#670,.T.);
#902=ORIENTED_EDGE('',*,*,#671,.T.);
#903=ORIENTED_EDGE('',*,*,#667,.T.);
#904=ORIENTED_EDGE('',*,*,#646,.T.);
#905=ORIENTED_EDGE('',*,*,#653,.F.);
#906=ORIENTED_EDGE('',*,*,#581,.F.);
#907=ORIENTED_EDGE('',*,*,#672,.F.);
#908=ORIENTED_EDGE('',*,*,#673,.F.);
#909=ORIENTED_EDGE('',*,*,#674,.F.);
#910=ORIENTED_EDGE('',*,*,#675,.T.);
#911=ORIENTED_EDGE('',*,*,#650,.F.);
#912=ORIENTED_EDGE('',*,*,#659,.F.);
#913=ORIENTED_EDGE('',*,*,#651,.F.);
#914=ORIENTED_EDGE('',*,*,#675,.F.);
#915=ORIENTED_EDGE('',*,*,#676,.F.);
#916=ORIENTED_EDGE('',*,*,#677,.T.);
#917=ORIENTED_EDGE('',*,*,#678,.F.);
#918=ORIENTED_EDGE('',*,*,#679,.F.);
#919=ORIENTED_EDGE('',*,*,#680,.F.);
#920=ORIENTED_EDGE('',*,*,#673,.T.);
#921=ORIENTED_EDGE('',*,*,#681,.F.);
#922=ORIENTED_EDGE('',*,*,#615,.F.);
#923=ORIENTED_EDGE('',*,*,#652,.F.);
#924=ORIENTED_EDGE('',*,*,#677,.F.);
#925=ORIENTED_EDGE('',*,*,#682,.F.);
#926=ORIENTED_EDGE('',*,*,#679,.T.);
#927=ORIENTED_EDGE('',*,*,#682,.T.);
#928=ORIENTED_EDGE('',*,*,#676,.T.);
#929=ORIENTED_EDGE('',*,*,#674,.T.);
#930=ORIENTED_EDGE('',*,*,#680,.T.);
#931=ORIENTED_EDGE('',*,*,#683,.F.);
#932=ORIENTED_EDGE('',*,*,#684,.T.);
#933=ORIENTED_EDGE('',*,*,#685,.F.);
#934=ORIENTED_EDGE('',*,*,#657,.F.);
#935=ORIENTED_EDGE('',*,*,#686,.T.);
#936=ORIENTED_EDGE('',*,*,#687,.T.);
#937=ORIENTED_EDGE('',*,*,#598,.F.);
#938=ORIENTED_EDGE('',*,*,#612,.F.);
#939=ORIENTED_EDGE('',*,*,#618,.F.);
#940=ORIENTED_EDGE('',*,*,#688,.T.);
#941=ORIENTED_EDGE('',*,*,#666,.T.);
#942=ORIENTED_EDGE('',*,*,#689,.T.);
#943=ORIENTED_EDGE('',*,*,#599,.F.);
#944=ORIENTED_EDGE('',*,*,#687,.F.);
#945=ORIENTED_EDGE('',*,*,#690,.T.);
#946=ORIENTED_EDGE('',*,*,#683,.T.);
#947=ORIENTED_EDGE('',*,*,#656,.F.);
#948=ORIENTED_EDGE('',*,*,#660,.T.);
#949=ORIENTED_EDGE('',*,*,#691,.F.);
#950=ORIENTED_EDGE('',*,*,#664,.T.);
#951=ORIENTED_EDGE('',*,*,#668,.F.);
#952=ORIENTED_EDGE('',*,*,#671,.F.);
#953=ORIENTED_EDGE('',*,*,#665,.T.);
#954=ORIENTED_EDGE('',*,*,#691,.T.);
#955=ORIENTED_EDGE('',*,*,#670,.F.);
#956=ORIENTED_EDGE('',*,*,#692,.T.);
#957=ORIENTED_EDGE('',*,*,#600,.F.);
#958=ORIENTED_EDGE('',*,*,#689,.F.);
#959=ORIENTED_EDGE('',*,*,#693,.F.);
#960=ORIENTED_EDGE('',*,*,#694,.F.);
#961=ORIENTED_EDGE('',*,*,#695,.F.);
#962=ORIENTED_EDGE('',*,*,#604,.F.);
#963=ORIENTED_EDGE('',*,*,#575,.T.);
#964=ORIENTED_EDGE('',*,*,#601,.F.);
#965=ORIENTED_EDGE('',*,*,#692,.F.);
#966=ORIENTED_EDGE('',*,*,#669,.F.);
#967=ORIENTED_EDGE('',*,*,#695,.T.);
#968=ORIENTED_EDGE('',*,*,#696,.F.);
#969=ORIENTED_EDGE('',*,*,#697,.F.);
#970=ORIENTED_EDGE('',*,*,#602,.F.);
#971=ORIENTED_EDGE('',*,*,#694,.T.);
#972=ORIENTED_EDGE('',*,*,#698,.T.);
#973=ORIENTED_EDGE('',*,*,#696,.T.);
#974=ORIENTED_EDGE('',*,*,#688,.F.);
#975=ORIENTED_EDGE('',*,*,#617,.F.);
#976=ORIENTED_EDGE('',*,*,#699,.F.);
#977=ORIENTED_EDGE('',*,*,#700,.F.);
#978=ORIENTED_EDGE('',*,*,#686,.F.);
#979=ORIENTED_EDGE('',*,*,#700,.T.);
#980=ORIENTED_EDGE('',*,*,#701,.F.);
#981=ORIENTED_EDGE('',*,*,#684,.F.);
#982=ORIENTED_EDGE('',*,*,#690,.F.);
#983=ORIENTED_EDGE('',*,*,#672,.T.);
#984=ORIENTED_EDGE('',*,*,#658,.F.);
#985=ORIENTED_EDGE('',*,*,#685,.T.);
#986=ORIENTED_EDGE('',*,*,#701,.T.);
#987=ORIENTED_EDGE('',*,*,#699,.T.);
#988=ORIENTED_EDGE('',*,*,#616,.F.);
#989=ORIENTED_EDGE('',*,*,#681,.T.);
#990=ORIENTED_EDGE('',*,*,#678,.T.);
#991=ORIENTED_EDGE('',*,*,#702,.F.);
#992=ORIENTED_EDGE('',*,*,#703,.F.);
#993=ORIENTED_EDGE('',*,*,#704,.F.);
#994=ORIENTED_EDGE('',*,*,#605,.T.);
#995=ORIENTED_EDGE('',*,*,#703,.T.);
#996=ORIENTED_EDGE('',*,*,#705,.T.);
#997=ORIENTED_EDGE('',*,*,#706,.T.);
#998=ORIENTED_EDGE('',*,*,#693,.T.);
#999=ORIENTED_EDGE('',*,*,#603,.F.);
#1000=ORIENTED_EDGE('',*,*,#697,.T.);
#1001=ORIENTED_EDGE('',*,*,#698,.F.);
#1002=ORIENTED_EDGE('',*,*,#707,.F.);
#1003=ORIENTED_EDGE('',*,*,#627,.T.);
#1004=ORIENTED_EDGE('',*,*,#629,.T.);
#1005=ORIENTED_EDGE('',*,*,#631,.T.);
#1006=ORIENTED_EDGE('',*,*,#574,.F.);
#1007=ORIENTED_EDGE('',*,*,#708,.T.);
#1008=ORIENTED_EDGE('',*,*,#707,.T.);
#1009=ORIENTED_EDGE('',*,*,#708,.F.);
#1010=ORIENTED_EDGE('',*,*,#702,.T.);
#1011=ORIENTED_EDGE('',*,*,#607,.F.);
#1012=ORIENTED_EDGE('',*,*,#709,.F.);
#1013=ORIENTED_EDGE('',*,*,#705,.F.);
#1014=ORIENTED_EDGE('',*,*,#704,.T.);
#1015=ORIENTED_EDGE('',*,*,#706,.F.);
#1016=ORIENTED_EDGE('',*,*,#709,.T.);
#1017=ORIENTED_EDGE('',*,*,#606,.F.);
#1018=ORIENTED_EDGE('',*,*,#579,.F.);
#1019=ORIENTED_EDGE('',*,*,#572,.T.);
#1020=ORIENTED_EDGE('',*,*,#620,.F.);
#1021=ORIENTED_EDGE('',*,*,#595,.F.);
#1022=PLANE('',#1141);
#1023=PLANE('',#1142);
#1024=PLANE('',#1143);
#1025=PLANE('',#1144);
#1026=PLANE('',#1145);
#1027=PLANE('',#1146);
#1028=PLANE('',#1147);
#1029=PLANE('',#1148);
#1030=PLANE('',#1149);
#1031=PLANE('',#1150);
#1032=PLANE('',#1151);
#1033=PLANE('',#1152);
#1034=PLANE('',#1153);
#1035=PLANE('',#1161);
#1036=PLANE('',#1162);
#1037=PLANE('',#1164);
#1038=PLANE('',#1177);
#1039=PLANE('',#1178);
#1040=PLANE('',#1179);
#1041=PLANE('',#1180);
#1042=PLANE('',#1181);
#1043=PLANE('',#1182);
#1044=PLANE('',#1183);
#1045=PLANE('',#1184);
#1046=PLANE('',#1185);
#1047=PLANE('',#1187);
#1048=PLANE('',#1188);
#1049=PLANE('',#1190);
#1050=PLANE('',#1191);
#1051=PLANE('',#1192);
#1052=PLANE('',#1193);
#1053=PLANE('',#1194);
#1054=PLANE('',#1195);
#1055=PLANE('',#1198);
#1056=PLANE('',#1199);
#1057=PLANE('',#1201);
#1058=PLANE('',#1202);
#1059=PLANE('',#1205);
#1060=PLANE('',#1206);
#1061=PLANE('',#1207);
#1062=PLANE('',#1208);
#1063=PLANE('',#1209);
#1064=PLANE('',#1210);
#1065=PLANE('',#1212);
#1066=PLANE('',#1213);
#1067=PLANE('',#1215);
#1068=PLANE('',#1216);
#1069=ADVANCED_FACE('',(#56),#1022,.T.);
#1070=ADVANCED_FACE('',(#57),#1023,.T.);
#1071=ADVANCED_FACE('',(#58),#1024,.T.);
#1072=ADVANCED_FACE('',(#59),#1025,.T.);
#1073=ADVANCED_FACE('',(#60,#45),#1026,.F.);
#1074=ADVANCED_FACE('',(#61),#1027,.T.);
#1075=ADVANCED_FACE('',(#62),#1028,.T.);
#1076=ADVANCED_FACE('',(#63),#1029,.T.);
#1077=ADVANCED_FACE('',(#64),#1030,.T.);
#1078=ADVANCED_FACE('',(#65),#1031,.T.);
#1079=ADVANCED_FACE('',(#66),#1032,.T.);
#1080=ADVANCED_FACE('',(#67),#1033,.T.);
#1081=ADVANCED_FACE('',(#68,#46,#47,#48,#49,#50),#1034,.T.);
#1082=ADVANCED_FACE('',(#69),#1035,.T.);
#1083=ADVANCED_FACE('',(#70),#1036,.T.);
#1084=ADVANCED_FACE('',(#71),#1037,.T.);
#1085=ADVANCED_FACE('',(#72),#23,.F.);
#1086=ADVANCED_FACE('',(#73),#24,.F.);
#1087=ADVANCED_FACE('',(#74),#25,.F.);
#1088=ADVANCED_FACE('',(#75),#16,.F.);
#1089=ADVANCED_FACE('',(#76),#17,.F.);
#1090=ADVANCED_FACE('',(#77),#18,.F.);
#1091=ADVANCED_FACE('',(#78),#1038,.F.);
#1092=ADVANCED_FACE('',(#79),#1039,.F.);
#1093=ADVANCED_FACE('',(#80),#1040,.F.);
#1094=ADVANCED_FACE('',(#81),#1041,.F.);
#1095=ADVANCED_FACE('',(#82),#1042,.T.);
#1096=ADVANCED_FACE('',(#83),#1043,.T.);
#1097=ADVANCED_FACE('',(#84),#1044,.T.);
#1098=ADVANCED_FACE('',(#85),#1045,.T.);
#1099=ADVANCED_FACE('',(#86),#1046,.T.);
#1100=ADVANCED_FACE('',(#87),#1047,.T.);
#1101=ADVANCED_FACE('',(#88),#1048,.T.);
#1102=ADVANCED_FACE('',(#89),#1049,.F.);
#1103=ADVANCED_FACE('',(#90),#1050,.F.);
#1104=ADVANCED_FACE('',(#91),#1051,.F.);
#1105=ADVANCED_FACE('',(#92),#1052,.F.);
#1106=ADVANCED_FACE('',(#93),#1053,.T.);
#1107=ADVANCED_FACE('',(#94),#1054,.T.);
#1108=ADVANCED_FACE('',(#95),#19,.T.);
#1109=ADVANCED_FACE('',(#96),#1055,.T.);
#1110=ADVANCED_FACE('',(#97),#1056,.T.);
#1111=ADVANCED_FACE('',(#98),#20,.T.);
#1112=ADVANCED_FACE('',(#99),#1057,.T.);
#1113=ADVANCED_FACE('',(#100),#1058,.T.);
#1114=ADVANCED_FACE('',(#101),#21,.T.);
#1115=ADVANCED_FACE('',(#102),#1059,.T.);
#1116=ADVANCED_FACE('',(#103),#1060,.T.);
#1117=ADVANCED_FACE('',(#104),#1061,.T.);
#1118=ADVANCED_FACE('',(#105),#1062,.T.);
#1119=ADVANCED_FACE('',(#106),#1063,.T.);
#1120=ADVANCED_FACE('',(#107),#1064,.T.);
#1121=ADVANCED_FACE('',(#108),#1065,.F.);
#1122=ADVANCED_FACE('',(#109,#51,#52,#53),#1066,.F.);
#1123=ADVANCED_FACE('',(#110),#15,.F.);
#1124=ADVANCED_FACE('',(#111),#22,.T.);
#1125=ADVANCED_FACE('',(#112),#1067,.F.);
#1126=ADVANCED_FACE('',(#113),#1068,.T.);
#1127=CLOSED_SHELL('',(#1069,#1070,#1071,#1072,#1073,#1074,#1075,#1076,
#1077,#1078,#1079,#1080,#1081,#1082,#1083,#1084,#1085,#1086,#1087,#1088,
#1089,#1090,#1091,#1092,#1093,#1094,#1095,#1096,#1097,#1098,#1099,#1100,
#1101,#1102,#1103,#1104,#1105,#1106,#1107,#1108,#1109,#1110,#1111,#1112,
#1113,#1114,#1115,#1116,#1117,#1118,#1119,#1120,#1121,#1122,#1123,#1124,
#1125,#1126));
#1128=DERIVED_UNIT_ELEMENT(#1130,1.);
#1129=DERIVED_UNIT_ELEMENT(#2109,-3.);
#1130=(
MASS_UNIT()
NAMED_UNIT(*)
SI_UNIT(.KILO.,.GRAM.)
);
#1131=DERIVED_UNIT((#1128,#1129));
#1132=MEASURE_REPRESENTATION_ITEM('density measure',
POSITIVE_RATIO_MEASURE(7850.),#1131);
#1133=PROPERTY_DEFINITION_REPRESENTATION(#1138,#1135);
#1134=PROPERTY_DEFINITION_REPRESENTATION(#1139,#1136);
#1135=REPRESENTATION('material name',(#1137),#2106);
#1136=REPRESENTATION('density',(#1132),#2106);
#1137=DESCRIPTIVE_REPRESENTATION_ITEM('Steel','Steel');
#1138=PROPERTY_DEFINITION('material property','material name',#2116);
#1139=PROPERTY_DEFINITION('material property','density of part',#2116);
#1140=AXIS2_PLACEMENT_3D('',#1506,#1217,#1218);
#1141=AXIS2_PLACEMENT_3D('',#1507,#1219,#1220);
#1142=AXIS2_PLACEMENT_3D('',#1516,#1225,#1226);
#1143=AXIS2_PLACEMENT_3D('',#1522,#1230,#1231);
#1144=AXIS2_PLACEMENT_3D('',#1528,#1235,#1236);
#1145=AXIS2_PLACEMENT_3D('',#1530,#1238,#1239);
#1146=AXIS2_PLACEMENT_3D('',#1637,#1249,#1250);
#1147=AXIS2_PLACEMENT_3D('',#1646,#1255,#1256);
#1148=AXIS2_PLACEMENT_3D('',#1653,#1261,#1262);
#1149=AXIS2_PLACEMENT_3D('',#1659,#1266,#1267);
#1150=AXIS2_PLACEMENT_3D('',#1665,#1271,#1272);
#1151=AXIS2_PLACEMENT_3D('',#1668,#1275,#1276);
#1152=AXIS2_PLACEMENT_3D('',#1669,#1277,#1278);
#1153=AXIS2_PLACEMENT_3D('',#1678,#1283,#1284);
#1154=AXIS2_PLACEMENT_3D('',#1685,#1288,#1289);
#1155=AXIS2_PLACEMENT_3D('',#1689,#1291,#1292);
#1156=AXIS2_PLACEMENT_3D('',#1693,#1294,#1295);
#1157=AXIS2_PLACEMENT_3D('',#1702,#1300,#1301);
#1158=AXIS2_PLACEMENT_3D('',#1704,#1302,#1303);
#1159=AXIS2_PLACEMENT_3D('',#1706,#1304,#1305);
#1160=AXIS2_PLACEMENT_3D('',#1708,#1306,#1307);
#1161=AXIS2_PLACEMENT_3D('',#1709,#1308,#1309);
#1162=AXIS2_PLACEMENT_3D('',#1713,#1312,#1313);
#1163=AXIS2_PLACEMENT_3D('',#1724,#1319,#1320);
#1164=AXIS2_PLACEMENT_3D('',#1725,#1321,#1322);
#1165=AXIS2_PLACEMENT_3D('',#1728,#1325,#1326);
#1166=AXIS2_PLACEMENT_3D('',#1731,#1328,#1329);
#1167=AXIS2_PLACEMENT_3D('',#1732,#1330,#1331);
#1168=AXIS2_PLACEMENT_3D('',#1735,#1333,#1334);
#1169=AXIS2_PLACEMENT_3D('',#1736,#1335,#1336);
#1170=AXIS2_PLACEMENT_3D('',#1739,#1338,#1339);
#1171=AXIS2_PLACEMENT_3D('',#1740,#1340,#1341);
#1172=AXIS2_PLACEMENT_3D('',#1742,#1342,#1343);
#1173=AXIS2_PLACEMENT_3D('',#1744,#1345,#1346);
#1174=AXIS2_PLACEMENT_3D('',#1746,#1347,#1348);
#1175=AXIS2_PLACEMENT_3D('',#1748,#1350,#1351);
#1176=AXIS2_PLACEMENT_3D('',#1750,#1352,#1353);
#1177=AXIS2_PLACEMENT_3D('',#1752,#1355,#1356);
#1178=AXIS2_PLACEMENT_3D('',#1761,#1361,#1362);
#1179=AXIS2_PLACEMENT_3D('',#1771,#1368,#1369);
#1180=AXIS2_PLACEMENT_3D('',#1777,#1373,#1374);
#1181=AXIS2_PLACEMENT_3D('',#1784,#1379,#1380);
#1182=AXIS2_PLACEMENT_3D('',#1785,#1381,#1382);
#1183=AXIS2_PLACEMENT_3D('',#1794,#1388,#1389);
#1184=AXIS2_PLACEMENT_3D('',#1806,#1396,#1397);
#1185=AXIS2_PLACEMENT_3D('',#1812,#1401,#1402);
#1186=AXIS2_PLACEMENT_3D('',#1818,#1405,#1406);
#1187=AXIS2_PLACEMENT_3D('',#1820,#1408,#1409);
#1188=AXIS2_PLACEMENT_3D('',#1824,#1412,#1413);
#1189=AXIS2_PLACEMENT_3D('',#1828,#1415,#1416);
#1190=AXIS2_PLACEMENT_3D('',#1830,#1418,#1419);
#1191=AXIS2_PLACEMENT_3D('',#1838,#1424,#1425);
#1192=AXIS2_PLACEMENT_3D('',#1842,#1428,#1429);
#1193=AXIS2_PLACEMENT_3D('',#1848,#1433,#1434);
#1194=AXIS2_PLACEMENT_3D('',#1851,#1437,#1438);
#1195=AXIS2_PLACEMENT_3D('',#1852,#1439,#1440);
#1196=AXIS2_PLACEMENT_3D('',#1858,#1444,#1445);
#1197=AXIS2_PLACEMENT_3D('',#1861,#1446,#1447);
#1198=AXIS2_PLACEMENT_3D('',#1864,#1450,#1451);
#1199=AXIS2_PLACEMENT_3D('',#1867,#1454,#1455);
#1200=AXIS2_PLACEMENT_3D('',#1869,#1457,#1458);
#1201=AXIS2_PLACEMENT_3D('',#1871,#1460,#1461);
#1202=AXIS2_PLACEMENT_3D('',#1877,#1465,#1466);
#1203=AXIS2_PLACEMENT_3D('',#1878,#1467,#1468);
#1204=AXIS2_PLACEMENT_3D('',#1880,#1469,#1470);
#1205=AXIS2_PLACEMENT_3D('',#1882,#1472,#1473);
#1206=AXIS2_PLACEMENT_3D('',#1884,#1475,#1476);
#1207=AXIS2_PLACEMENT_3D('',#1888,#1479,#1480);
#1208=AXIS2_PLACEMENT_3D('',#1890,#1482,#1483);
#1209=AXIS2_PLACEMENT_3D('',#1891,#1484,#1485);
#1210=AXIS2_PLACEMENT_3D('',#1897,#1489,#1490);
#1211=AXIS2_PLACEMENT_3D('',#1899,#1491,#1492);
#1212=AXIS2_PLACEMENT_3D('',#1901,#1494,#1495);
#1213=AXIS2_PLACEMENT_3D('',#1902,#1496,#1497);
#1214=AXIS2_PLACEMENT_3D('',#2100,#1499,#1500);
#1215=AXIS2_PLACEMENT_3D('',#2102,#1502,#1503);
#1216=AXIS2_PLACEMENT_3D('',#2103,#1504,#1505);
#1217=DIRECTION('axis',(0.,0.,1.));
#1218=DIRECTION('refdir',(1.,0.,0.));
#1219=DIRECTION('center_axis',(0.,0.,-1.));
#1220=DIRECTION('ref_axis',(-1.,0.,0.));
#1221=DIRECTION('',(0.,-1.,0.));
#1222=DIRECTION('',(-1.,0.,0.));
#1223=DIRECTION('',(0.,1.,0.));
#1224=DIRECTION('',(1.,0.,0.));
#1225=DIRECTION('center_axis',(0.,1.,0.));
#1226=DIRECTION('ref_axis',(0.,0.,1.));
#1227=DIRECTION('',(0.,0.,-1.));
#1228=DIRECTION('',(0.707106781186547,0.,-0.707106781186548));
#1229=DIRECTION('',(0.,0.,-1.));
#1230=DIRECTION('center_axis',(0.707106781186548,0.,0.707106781186547));
#1231=DIRECTION('ref_axis',(0.707106781186547,0.,-0.707106781186548));
#1232=DIRECTION('',(0.,1.,0.));
#1233=DIRECTION('',(-0.707106781186547,0.,0.707106781186548));
#1234=DIRECTION('',(0.,1.,0.));
#1235=DIRECTION('center_axis',(1.,0.,0.));
#1236=DIRECTION('ref_axis',(0.,0.,-1.));
#1237=DIRECTION('',(0.,0.,1.));
#1238=DIRECTION('center_axis',(0.,1.,0.));
#1239=DIRECTION('ref_axis',(-1.,0.,0.));
#1240=DIRECTION('',(0.,0.,-1.));
#1241=DIRECTION('',(1.,0.,0.));
#1242=DIRECTION('',(0.,0.,1.));
#1243=DIRECTION('',(0.707106781186547,0.,0.707106781186548));
#1244=DIRECTION('',(0.,0.,1.));
#1245=DIRECTION('',(-1.,0.,0.));
#1246=DIRECTION('',(0.,0.,1.));
#1247=DIRECTION('',(-1.,0.,0.));
#1248=DIRECTION('',(0.,0.,-1.));
#1249=DIRECTION('center_axis',(0.,0.,1.));
#1250=DIRECTION('ref_axis',(1.,0.,0.));
#1251=DIRECTION('',(0.,1.,0.));
#1252=DIRECTION('',(-1.,0.,0.));
#1253=DIRECTION('',(0.,1.,0.));
#1254=DIRECTION('',(-1.,0.,0.));
#1255=DIRECTION('center_axis',(1.,0.,0.));
#1256=DIRECTION('ref_axis',(0.,1.,0.));
#1257=DIRECTION('',(0.,1.,0.));
#1258=DIRECTION('',(0.,0.,1.));
#1259=DIRECTION('',(0.,0.,1.));
#1260=DIRECTION('',(0.,1.,0.));
#1261=DIRECTION('center_axis',(-0.707106781186548,0.,0.707106781186547));
#1262=DIRECTION('ref_axis',(0.707106781186547,0.,0.707106781186548));
#1263=DIRECTION('',(0.,-1.,0.));
#1264=DIRECTION('',(0.707106781186547,0.,0.707106781186548));
#1265=DIRECTION('',(0.,1.,0.));
#1266=DIRECTION('center_axis',(0.,1.,0.));
#1267=DIRECTION('ref_axis',(0.,0.,1.));
#1268=DIRECTION('',(0.,0.,1.));
#1269=DIRECTION('',(-1.,0.,0.));
#1270=DIRECTION('',(0.,0.,1.));
#1271=DIRECTION('center_axis',(0.,0.,-1.));
#1272=DIRECTION('ref_axis',(-1.,0.,0.));
#1273=DIRECTION('',(0.,1.,0.));
#1274=DIRECTION('',(0.,1.,0.));
#1275=DIRECTION('center_axis',(-1.,0.,0.));
#1276=DIRECTION('ref_axis',(0.,0.,1.));
#1277=DIRECTION('center_axis',(0.,0.,1.));
#1278=DIRECTION('ref_axis',(1.,0.,0.));
#1279=DIRECTION('',(0.,-1.,0.));
#1280=DIRECTION('',(-1.,0.,0.));
#1281=DIRECTION('',(0.,-1.,0.));
#1282=DIRECTION('',(-1.,0.,0.));
#1283=DIRECTION('center_axis',(0.,1.,0.));
#1284=DIRECTION('ref_axis',(1.,0.,0.));
#1285=DIRECTION('',(-1.,0.,0.));
#1286=DIRECTION('',(0.,0.,1.));
#1287=DIRECTION('',(0.,0.,1.));
#1288=DIRECTION('center_axis',(0.,1.,0.));
#1289=DIRECTION('ref_axis',(-1.,0.,0.));
#1290=DIRECTION('',(1.,0.,0.));
#1291=DIRECTION('center_axis',(0.,1.,0.));
#1292=DIRECTION('ref_axis',(0.,0.,1.));
#1293=DIRECTION('',(0.,0.,-1.));
#1294=DIRECTION('center_axis',(0.,1.,0.));
#1295=DIRECTION('ref_axis',(1.,0.,0.));
#1296=DIRECTION('',(1.,0.,0.));
#1297=DIRECTION('',(0.,0.,1.));
#1298=DIRECTION('',(0.,0.,1.));
#1299=DIRECTION('',(1.,0.,0.));
#1300=DIRECTION('center_axis',(0.,1.,0.));
#1301=DIRECTION('ref_axis',(0.,0.,-1.));
#1302=DIRECTION('center_axis',(0.,-1.,0.));
#1303=DIRECTION('ref_axis',(1.,0.,0.));
#1304=DIRECTION('center_axis',(0.,-1.,0.));
#1305=DIRECTION('ref_axis',(1.,0.,0.));
#1306=DIRECTION('center_axis',(0.,-1.,0.));
#1307=DIRECTION('ref_axis',(1.,0.,0.));
#1308=DIRECTION('center_axis',(-1.,0.,0.));
#1309=DIRECTION('ref_axis',(0.,0.,1.));
#1310=DIRECTION('',(0.,0.,-1.));
#1311=DIRECTION('',(0.,1.,0.));
#1312=DIRECTION('center_axis',(0.,1.,0.));
#1313=DIRECTION('ref_axis',(-1.,0.,0.));
#1314=DIRECTION('',(0.,0.,-1.));
#1315=DIRECTION('',(-1.,0.,0.));
#1316=DIRECTION('',(0.,0.,-1.));
#1317=DIRECTION('',(-1.,0.,0.));
#1318=DIRECTION('',(0.,0.,-1.));
#1319=DIRECTION('center_axis',(0.,-1.,0.));
#1320=DIRECTION('ref_axis',(-1.,0.,0.));
#1321=DIRECTION('center_axis',(-1.,0.,0.));
#1322=DIRECTION('ref_axis',(0.,-1.,0.));
#1323=DIRECTION('',(0.,-1.,0.));
#1324=DIRECTION('',(0.,-1.,0.));
#1325=DIRECTION('center_axis',(0.,1.,0.));
#1326=DIRECTION('ref_axis',(1.,0.,0.));
#1327=DIRECTION('',(0.542126869822092,-0.840296648224245,6.63913935859398E-17));
#1328=DIRECTION('center_axis',(0.,1.,0.));
#1329=DIRECTION('ref_axis',(1.,0.,0.));
#1330=DIRECTION('center_axis',(0.,1.,0.));
#1331=DIRECTION('ref_axis',(1.,0.,0.));
#1332=DIRECTION('',(0.542126869822092,-0.840296648224245,6.63913935859398E-17));
#1333=DIRECTION('center_axis',(0.,1.,0.));
#1334=DIRECTION('ref_axis',(1.,0.,0.));
#1335=DIRECTION('center_axis',(0.,1.,0.));
#1336=DIRECTION('ref_axis',(1.,0.,0.));
#1337=DIRECTION('',(0.542126869822092,-0.840296648224245,6.63913935859398E-17));
#1338=DIRECTION('center_axis',(0.,1.,0.));
#1339=DIRECTION('ref_axis',(1.,0.,0.));
#1340=DIRECTION('center_axis',(0.,1.,0.));
#1341=DIRECTION('ref_axis',(1.,0.,0.));
#1342=DIRECTION('center_axis',(-3.88673468859513E-32,1.,-4.50855275981007E-31));
#1343=DIRECTION('ref_axis',(1.,0.,0.));
#1344=DIRECTION('',(0.,1.,0.));
#1345=DIRECTION('center_axis',(0.,1.,0.));
#1346=DIRECTION('ref_axis',(1.,0.,0.));
#1347=DIRECTION('center_axis',(-3.88673468859513E-32,1.,-4.50855275981007E-31));
#1348=DIRECTION('ref_axis',(1.,0.,0.));
#1349=DIRECTION('',(0.,1.,0.));
#1350=DIRECTION('center_axis',(0.,1.,0.));
#1351=DIRECTION('ref_axis',(1.,0.,0.));
#1352=DIRECTION('center_axis',(-3.88673468859513E-32,1.,-4.50855275981007E-31));
#1353=DIRECTION('ref_axis',(1.,0.,0.));
#1354=DIRECTION('',(0.,1.,0.));
#1355=DIRECTION('center_axis',(0.,-1.,0.));
#1356=DIRECTION('ref_axis',(1.,0.,0.));
#1357=DIRECTION('',(-1.,0.,0.));
#1358=DIRECTION('',(0.,0.,1.));
#1359=DIRECTION('',(1.,0.,0.));
#1360=DIRECTION('',(0.,0.,1.));
#1361=DIRECTION('center_axis',(-1.,0.,0.));
#1362=DIRECTION('ref_axis',(0.,-1.,0.));
#1363=DIRECTION('',(0.,1.,0.));
#1364=DIRECTION('',(0.,-1.,0.));
#1365=DIRECTION('',(0.,0.,1.));
#1366=DIRECTION('',(0.,1.,0.));
#1367=DIRECTION('',(0.,0.,-1.));
#1368=DIRECTION('center_axis',(0.,1.,0.));
#1369=DIRECTION('ref_axis',(-1.,0.,0.));
#1370=DIRECTION('',(1.,0.,0.));
#1371=DIRECTION('',(-1.,0.,0.));
#1372=DIRECTION('',(0.,0.,1.));
#1373=DIRECTION('center_axis',(1.,0.,0.));
#1374=DIRECTION('ref_axis',(0.,1.,0.));
#1375=DIRECTION('',(0.,-1.,0.));
#1376=DIRECTION('',(0.,0.,1.));
#1377=DIRECTION('',(0.,-1.,0.));
#1378=DIRECTION('',(0.,1.,0.));
#1379=DIRECTION('center_axis',(0.,0.,1.));
#1380=DIRECTION('ref_axis',(1.,0.,0.));
#1381=DIRECTION('center_axis',(0.,0.,1.));
#1382=DIRECTION('ref_axis',(1.,0.,0.));
#1383=DIRECTION('',(-1.,0.,0.));
#1384=DIRECTION('',(0.,-1.,0.));
#1385=DIRECTION('',(-1.,0.,0.));
#1386=DIRECTION('',(0.,1.,0.));
#1387=DIRECTION('',(-1.,0.,0.));
#1388=DIRECTION('center_axis',(0.,1.,0.));
#1389=DIRECTION('ref_axis',(-1.,0.,0.));
#1390=DIRECTION('',(-1.,0.,0.));
#1391=DIRECTION('',(0.,0.,-1.));
#1392=DIRECTION('',(-1.,0.,0.));
#1393=DIRECTION('',(0.,0.,1.));
#1394=DIRECTION('',(-1.,0.,0.));
#1395=DIRECTION('',(0.,0.,1.));
#1396=DIRECTION('center_axis',(-1.,0.,0.));
#1397=DIRECTION('ref_axis',(0.,-1.,0.));
#1398=DIRECTION('',(0.,1.,0.));
#1399=DIRECTION('',(0.,-1.,0.));
#1400=DIRECTION('',(0.,0.,1.));
#1401=DIRECTION('center_axis',(0.,1.,0.));
#1402=DIRECTION('ref_axis',(-1.,0.,0.));
#1403=DIRECTION('',(-1.,0.,0.));
#1404=DIRECTION('',(0.,0.,1.));
#1405=DIRECTION('center_axis',(0.,1.,0.));
#1406=DIRECTION('ref_axis',(0.,0.,1.));
#1407=DIRECTION('',(1.,0.,0.));
#1408=DIRECTION('center_axis',(0.,0.,1.));
#1409=DIRECTION('ref_axis',(1.,0.,0.));
#1410=DIRECTION('',(-1.,0.,0.));
#1411=DIRECTION('',(0.,1.,0.));
#1412=DIRECTION('center_axis',(0.,1.,0.));
#1413=DIRECTION('ref_axis',(-1.,0.,0.));
#1414=DIRECTION('',(0.,0.,1.));
#1415=DIRECTION('center_axis',(0.,-1.,0.));
#1416=DIRECTION('ref_axis',(0.,0.,1.));
#1417=DIRECTION('',(0.,0.,1.));
#1418=DIRECTION('center_axis',(1.,0.,0.));
#1419=DIRECTION('ref_axis',(0.,1.,0.));
#1420=DIRECTION('',(0.,-1.,0.));
#1421=DIRECTION('',(0.,0.,1.));
#1422=DIRECTION('',(0.,1.,0.));
#1423=DIRECTION('',(0.,0.,1.));
#1424=DIRECTION('center_axis',(0.,-1.,0.));
#1425=DIRECTION('ref_axis',(1.,0.,0.));
#1426=DIRECTION('',(1.,0.,0.));
#1427=DIRECTION('',(0.,0.,1.));
#1428=DIRECTION('center_axis',(0.,1.,0.));
#1429=DIRECTION('ref_axis',(-1.,0.,0.));
#1430=DIRECTION('',(1.,0.,0.));
#1431=DIRECTION('',(0.,0.,1.));
#1432=DIRECTION('',(-1.,0.,0.));
#1433=DIRECTION('center_axis',(-1.,0.,0.));
#1434=DIRECTION('ref_axis',(0.,-1.,0.));
#1435=DIRECTION('',(0.,1.,0.));
#1436=DIRECTION('',(0.,-1.,0.));
#1437=DIRECTION('center_axis',(0.,0.,1.));
#1438=DIRECTION('ref_axis',(1.,0.,0.));
#1439=DIRECTION('center_axis',(1.,0.,0.));
#1440=DIRECTION('ref_axis',(0.,1.,0.));
#1441=DIRECTION('',(0.,-1.,0.));
#1442=DIRECTION('',(0.,0.,1.));
#1443=DIRECTION('',(0.,1.,0.));
#1444=DIRECTION('center_axis',(0.,1.,0.));
#1445=DIRECTION('ref_axis',(-1.,0.,0.));
#1446=DIRECTION('center_axis',(0.,1.,0.));
#1447=DIRECTION('ref_axis',(-1.,0.,0.));
#1448=DIRECTION('',(0.,1.,0.));
#1449=DIRECTION('',(0.,1.,0.));
#1450=DIRECTION('center_axis',(0.,0.,1.));
#1451=DIRECTION('ref_axis',(1.,0.,0.));
#1452=DIRECTION('',(0.,1.,0.));
#1453=DIRECTION('',(1.,0.,0.));
#1454=DIRECTION('center_axis',(1.,0.,0.));
#1455=DIRECTION('ref_axis',(0.,1.,0.));
#1456=DIRECTION('',(0.,-1.,0.));
#1457=DIRECTION('center_axis',(0.,1.,0.));
#1458=DIRECTION('ref_axis',(0.,0.,1.));
#1459=DIRECTION('',(0.,1.,0.));
#1460=DIRECTION('center_axis',(-1.,0.,0.));
#1461=DIRECTION('ref_axis',(0.,-1.,0.));
#1462=DIRECTION('',(0.,1.,0.));
#1463=DIRECTION('',(0.,0.,-1.));
#1464=DIRECTION('',(0.,-1.,0.));
#1465=DIRECTION('center_axis',(1.,0.,0.));
#1466=DIRECTION('ref_axis',(0.,0.,-1.));
#1467=DIRECTION('center_axis',(0.,1.,0.));
#1468=DIRECTION('ref_axis',(1.,0.,0.));
#1469=DIRECTION('center_axis',(0.,-1.,0.));
#1470=DIRECTION('ref_axis',(1.,0.,0.));
#1471=DIRECTION('',(0.,-1.,0.));
#1472=DIRECTION('center_axis',(0.,1.,0.));
#1473=DIRECTION('ref_axis',(-1.,0.,0.));
#1474=DIRECTION('',(-1.,0.,0.));
#1475=DIRECTION('center_axis',(-1.,0.,0.));
#1476=DIRECTION('ref_axis',(0.,-1.,0.));
#1477=DIRECTION('',(0.,-1.,0.));
#1478=DIRECTION('',(0.,0.,1.));
#1479=DIRECTION('center_axis',(0.,1.,0.));
#1480=DIRECTION('ref_axis',(-1.,0.,0.));
#1481=DIRECTION('',(-1.,0.,0.));
#1482=DIRECTION('center_axis',(0.,0.,1.));
#1483=DIRECTION('ref_axis',(1.,0.,0.));
#1484=DIRECTION('center_axis',(1.,0.,0.));
#1485=DIRECTION('ref_axis',(0.,1.,0.));
#1486=DIRECTION('',(0.,1.,0.));
#1487=DIRECTION('',(0.,0.,1.));
#1488=DIRECTION('',(0.,-1.,0.));
#1489=DIRECTION('center_axis',(0.,1.,0.));
#1490=DIRECTION('ref_axis',(-1.,0.,0.));
#1491=DIRECTION('center_axis',(0.,-1.,0.));
#1492=DIRECTION('ref_axis',(0.,0.,-1.));
#1493=DIRECTION('',(-1.,0.,0.));
#1494=DIRECTION('center_axis',(0.,0.,-1.));
#1495=DIRECTION('ref_axis',(-1.,0.,0.));
#1496=DIRECTION('center_axis',(-3.88673468859513E-32,1.,-4.50855275981007E-31));
#1497=DIRECTION('ref_axis',(0.,4.50855275981007E-31,1.));
#1498=DIRECTION('',(-0.546194042084787,0.82147583929552,0.163858212625436));
#1499=DIRECTION('center_axis',(0.,1.,0.));
#1500=DIRECTION('ref_axis',(0.,0.,-1.));
#1501=DIRECTION('',(0.,1.,0.));
#1502=DIRECTION('center_axis',(0.,0.,-1.));
#1503=DIRECTION('ref_axis',(-1.,0.,0.));
#1504=DIRECTION('center_axis',(0.,0.,-1.));
#1505=DIRECTION('ref_axis',(-1.,0.,0.));
#1506=CARTESIAN_POINT('',(0.,0.,0.));
#1507=CARTESIAN_POINT('Origin',(3.6,-5.2,0.38));
#1508=CARTESIAN_POINT('',(3.3,-4.3,0.38));
#1509=CARTESIAN_POINT('',(3.3,-5.2,0.38));
#1510=CARTESIAN_POINT('',(3.3,-5.25,0.38));
#1511=CARTESIAN_POINT('',(3.6,-4.3,0.38));
#1512=CARTESIAN_POINT('',(3.27,-4.3,0.38));
#1513=CARTESIAN_POINT('',(3.6,-5.2,0.38));
#1514=CARTESIAN_POINT('',(3.6,-5.2,0.38));
#1515=CARTESIAN_POINT('',(3.27,-5.2,0.38));
#1516=CARTESIAN_POINT('Origin',(3.435,-4.3,0.645));
#1517=CARTESIAN_POINT('',(3.3,-4.3,0.880000000000001));
#1518=CARTESIAN_POINT('',(3.3,-4.3,0.3225));
#1519=CARTESIAN_POINT('',(3.6,-4.3,0.58));
#1520=CARTESIAN_POINT('',(3.6,-4.3,0.58));
#1521=CARTESIAN_POINT('',(3.6,-4.3,0.38));
#1522=CARTESIAN_POINT('Origin',(3.27,-5.2,0.91));
#1523=CARTESIAN_POINT('',(3.3,-5.2,0.880000000000001));
#1524=CARTESIAN_POINT('',(3.3,-5.25,0.880000000000001));
#1525=CARTESIAN_POINT('',(3.6,-5.2,0.58));
#1526=CARTESIAN_POINT('',(3.6,-5.2,0.58));
#1527=CARTESIAN_POINT('',(3.6,-5.2,0.58));
#1528=CARTESIAN_POINT('Origin',(3.6,-5.2,0.58));
#1529=CARTESIAN_POINT('',(3.6,-5.2,0.38));
#1530=CARTESIAN_POINT('Origin',(3.8,-5.2,0.));
#1531=CARTESIAN_POINT('',(3.3,-5.2,2.73));
#1532=CARTESIAN_POINT('',(3.3,-5.2,0.));
#1533=CARTESIAN_POINT('',(-3.3,-5.2,2.73));
#1534=CARTESIAN_POINT('',(1.9,-5.2,2.73));
#1535=CARTESIAN_POINT('',(-3.3,-5.2,0.880000000000001));
#1536=CARTESIAN_POINT('',(-3.3,-5.2,0.));
#1537=CARTESIAN_POINT('',(-3.6,-5.2,0.58));
#1538=CARTESIAN_POINT('',(-3.6,-5.2,0.58));
#1539=CARTESIAN_POINT('',(-3.6,-5.2,0.38));
#1540=CARTESIAN_POINT('',(-3.6,-5.2,0.38));
#1541=CARTESIAN_POINT('',(-3.3,-5.2,0.38));
#1542=CARTESIAN_POINT('',(-3.27,-5.2,0.38));
#1543=CARTESIAN_POINT('',(-3.3,-5.2,0.));
#1544=CARTESIAN_POINT('',(-3.3,-5.2,0.));
#1545=CARTESIAN_POINT('',(3.3,-5.2,0.));
#1546=CARTESIAN_POINT('',(3.8,-5.2,0.));
#1547=CARTESIAN_POINT('',(3.3,-5.2,0.));
#1548=CARTESIAN_POINT('',(2.99867021276596,-5.2,0.715398936170213));
#1549=CARTESIAN_POINT('Ctrl Pts',(2.99867021276596,-5.2,0.715398936170146));
#1550=CARTESIAN_POINT('Ctrl Pts',(2.99867021276595,-5.2,0.652966509393347));
#1551=CARTESIAN_POINT('Ctrl Pts',(2.98753011359322,-5.2,0.58154790169505));
#1552=CARTESIAN_POINT('Ctrl Pts',(2.95986412995685,-5.2,0.512144194081493));
#1553=CARTESIAN_POINT('Ctrl Pts',(2.93219814632047,-5.2,0.44274048646791));
#1554=CARTESIAN_POINT('Ctrl Pts',(2.88800627822044,-5.2,0.375351678939069));
#1555=CARTESIAN_POINT('Ctrl Pts',(2.83211639356097,-5.2,0.321082911298103));
#1556=CARTESIAN_POINT('Ctrl Pts',(2.77622650890151,-5.2,0.266814143657137));
#1557=CARTESIAN_POINT('Ctrl Pts',(2.70863860768261,-5.2,0.225665415904046));
#1558=CARTESIAN_POINT('Ctrl Pts',(2.64116779851321,-5.2,0.200487993550999));
#1559=CARTESIAN_POINT('Ctrl Pts',(2.57369698934382,-5.2,0.175310571197952));
#1560=CARTESIAN_POINT('Ctrl Pts',(2.50634327222394,-5.2,0.16610445424495));
#1561=CARTESIAN_POINT('Ctrl Pts',(2.44934886581685,-5.2,0.166086239507226));
#1562=CARTESIAN_POINT('Ctrl Pts',(2.04140315870574,-5.2,0.165955864887524));
#1563=CARTESIAN_POINT('Ctrl Pts',(1.63322147877373,-5.2,0.166015528547459));
#1564=CARTESIAN_POINT('Ctrl Pts',(1.22495424429605,-5.2,0.166043276629196));
#1565=CARTESIAN_POINT('Ctrl Pts',(0.000152540863012751,-5.2,0.166126520874405));
#1566=CARTESIAN_POINT('Ctrl Pts',(-1.22541915348112,-5.2,0.165922524915824));
#1567=CARTESIAN_POINT('Ctrl Pts',(-2.44936520973307,-5.2,0.166139995174591));
#1568=CARTESIAN_POINT('Ctrl Pts',(-2.50636468926706,-5.2,0.166150122819924));
#1569=CARTESIAN_POINT('Ctrl Pts',(-2.57368140376462,-5.2,0.175443485237025));
#1570=CARTESIAN_POINT('Ctrl Pts',(-2.64115926323691,-5.2,0.200608716242448));
#1571=CARTESIAN_POINT('Ctrl Pts',(-2.70863712270921,-5.2,0.22577394724787));
#1572=CARTESIAN_POINT('Ctrl Pts',(-2.77627612715624,-5.2,0.266811046841613));
#1573=CARTESIAN_POINT('Ctrl Pts',(-2.83214061339738,-5.2,0.321059722580104));
#1574=CARTESIAN_POINT('Ctrl Pts',(-2.88800509963853,-5.2,0.375308398318595));
#1575=CARTESIAN_POINT('Ctrl Pts',(-2.93209506767378,-5.2,0.442768650201833));
#1576=CARTESIAN_POINT('Ctrl Pts',(-2.95974548283791,-5.2,0.512186606079547));
#1577=CARTESIAN_POINT('Ctrl Pts',(-2.98739589800204,-5.2,0.581604561957262));
#1578=CARTESIAN_POINT('Ctrl Pts',(-2.99860676029504,-5.2,0.652980221829451));
#1579=CARTESIAN_POINT('Ctrl Pts',(-2.99861726085877,-5.2,0.715404133863594));
#1580=CARTESIAN_POINT('Ctrl Pts',(-2.99862846250075,-5.2,0.781995826675328));
#1581=CARTESIAN_POINT('Ctrl Pts',(-2.9986273918541,-5.2,0.848615397597333));
#1582=CARTESIAN_POINT('Ctrl Pts',(-2.99862751038862,-5.2,0.915241076024539));
#1583=CARTESIAN_POINT('Ctrl Pts',(-2.99862762892315,-5.2,0.981866754451746));
#1584=CARTESIAN_POINT('Ctrl Pts',(-2.99862893663885,-5.2,1.04849854038415));
#1585=CARTESIAN_POINT('Ctrl Pts',(-2.9986293622793,-5.2,1.11513138673775));
#1586=CARTESIAN_POINT('Ctrl Pts',(-2.99862957509953,-5.2,1.14844780991454));
#1587=CARTESIAN_POINT('Ctrl Pts',(-2.99862956740095,-5.2,1.18176449819663));
#1588=CARTESIAN_POINT('Ctrl Pts',(-2.99862952217186,-5.2,1.21508003240168));
#1589=CARTESIAN_POINT('Ctrl Pts',(-2.99862947694276,-5.2,1.24839556660672));
#1590=CARTESIAN_POINT('Ctrl Pts',(-2.99862939418316,-5.2,1.28170994673473));
#1591=CARTESIAN_POINT('Ctrl Pts',(-2.99862927121982,-5.2,1.31502243709256));
#1592=CARTESIAN_POINT('Ctrl Pts',(-2.99862914825648,-5.2,1.34833492745039));
#1593=CARTESIAN_POINT('Ctrl Pts',(-2.9986289850894,-5.2,1.38164552803806));
#1594=CARTESIAN_POINT('Ctrl Pts',(-2.99862857394624,-5.2,1.41495276532002));
#1595=CARTESIAN_POINT('Ctrl Pts',(-2.99862836837466,-5.2,1.431606383961));
#1596=CARTESIAN_POINT('Ctrl Pts',(-2.99862810080905,-5.2,1.44825916177555));
#1597=CARTESIAN_POINT('Ctrl Pts',(-2.99862826168756,-5.2,1.46491146416267));
#1598=CARTESIAN_POINT('Ctrl Pts',(-2.99862842256607,-5.2,1.48156376654978));
#1599=CARTESIAN_POINT('Ctrl Pts',(-2.9986290118887,-5.2,1.49821559350946));
#1600=CARTESIAN_POINT('Ctrl Pts',(-2.99862628282485,-5.2,1.51486352555083));
#1601=CARTESIAN_POINT('Ctrl Pts',(-2.99861604978621,-5.2,1.57728747072601));
#1602=CARTESIAN_POINT('Ctrl Pts',(-2.98740455745937,-5.2,1.64866295289534));
#1603=CARTESIAN_POINT('Ctrl Pts',(-2.95975379554307,-5.2,1.71808081223685));
#1604=CARTESIAN_POINT('Ctrl Pts',(-2.93210303362678,-5.2,1.78749867157835));
#1605=CARTESIAN_POINT('Ctrl Pts',(-2.88801300212104,-5.2,1.85495890809204));
#1606=CARTESIAN_POINT('Ctrl Pts',(-2.83214845486288,-5.2,1.90920753113082));
#1607=CARTESIAN_POINT('Ctrl Pts',(-2.77628390760472,-5.2,1.96345615416961));
#1608=CARTESIAN_POINT('Ctrl Pts',(-2.70864484459412,-5.2,2.00449316373349));
#1609=CARTESIAN_POINT('Ctrl Pts',(-2.64116679493027,-5.2,2.02965836846248));
#1610=CARTESIAN_POINT('Ctrl Pts',(-2.57368874526642,-5.2,2.05482357319148));
#1611=CARTESIAN_POINT('Ctrl Pts',(-2.5063717089493,-5.2,2.06411697308559));
#1612=CARTESIAN_POINT('Ctrl Pts',(-2.4493734166238,-5.2,2.06412679451136));
#1613=CARTESIAN_POINT('Ctrl Pts',(-1.63342637435534,-5.20000000000001,2.06426739106225));
#1614=CARTESIAN_POINT('Ctrl Pts',(-0.816674631515417,-5.2,2.06421284869485));
#1615=CARTESIAN_POINT('Ctrl Pts',(6.15199032605318E-6,-5.2,2.06419841613975));
#1616=CARTESIAN_POINT('Ctrl Pts',(0.408346543743198,-5.2,2.0641911998622));
#1617=CARTESIAN_POINT('Ctrl Pts',(0.816669195662523,-5.2,2.06419401103772));
#1618=CARTESIAN_POINT('Ctrl Pts',(1.22493300165998,-5.2,2.0641980390918));
#1619=CARTESIAN_POINT('Ctrl Pts',(1.63319680765744,-5.2,2.06420206714588));
#1620=CARTESIAN_POINT('Ctrl Pts',(2.04140176773303,-5.2,2.06420731207852));
#1621=CARTESIAN_POINT('Ctrl Pts',(2.44936910540886,-5.20000000000001,2.06412667217921));
#1622=CARTESIAN_POINT('Ctrl Pts',(2.50636653383866,-5.20000000000001,2.06411540591727));
#1623=CARTESIAN_POINT('Ctrl Pts',(2.57368395070314,-5.20000000000001,2.05482203951647));
#1624=CARTESIAN_POINT('Ctrl Pts',(2.64116210483641,-5.20000000000001,2.02965669223125));
#1625=CARTESIAN_POINT('Ctrl Pts',(2.70864025896968,-5.20000000000001,2.00449134494603));
#1626=CARTESIAN_POINT('Ctrl Pts',(2.77627915037174,-5.20000000000001,1.96345401677638));
#1627=CARTESIAN_POINT('Ctrl Pts',(2.83214364120285,-5.20000000000001,1.90920511560158));
#1628=CARTESIAN_POINT('Ctrl Pts',(2.88800813203396,-5.20000000000001,1.85495621442677));
#1629=CARTESIAN_POINT('Ctrl Pts',(2.93209822229412,-5.20000000000001,1.78749574024682));
#1630=CARTESIAN_POINT('Ctrl Pts',(2.95974885534174,-5.20000000000001,1.7180776416382));
#1631=CARTESIAN_POINT('Ctrl Pts',(2.98739948838936,-5.2,1.64865954302958));
#1632=CARTESIAN_POINT('Ctrl Pts',(2.99861066422444,-5.2,1.5772838199923));
#1633=CARTESIAN_POINT('Ctrl Pts',(2.99862098829777,-5.2,1.51485868351282));
#1634=CARTESIAN_POINT('Ctrl Pts',(2.99866504177006,-5.2,1.24848668748038));
#1635=CARTESIAN_POINT('Ctrl Pts',(2.99867021276596,-5.2,0.981802040361361));
#1636=CARTESIAN_POINT('Ctrl Pts',(2.99867021276596,-5.2,0.715398936170216));
#1637=CARTESIAN_POINT('Origin',(3.2,-4.725,0.95));
#1638=CARTESIAN_POINT('',(3.2,-4.95,0.95));
#1639=CARTESIAN_POINT('',(3.2,-4.25,0.95));
#1640=CARTESIAN_POINT('',(3.2,-4.9625,0.95));
#1641=CARTESIAN_POINT('',(3.3,-4.95,0.95));
#1642=CARTESIAN_POINT('',(3.5,-4.95,0.95));
#1643=CARTESIAN_POINT('',(3.3,-4.25,0.95));
#1644=CARTESIAN_POINT('',(3.3,-5.2,0.95));
#1645=CARTESIAN_POINT('',(3.3,-4.25,0.95));
#1646=CARTESIAN_POINT('Origin',(3.3,-5.3,0.));
#1647=CARTESIAN_POINT('',(3.3,-4.25,0.));
#1648=CARTESIAN_POINT('',(3.3,-2.65,0.));
#1649=CARTESIAN_POINT('',(3.3,-4.25,0.));
#1650=CARTESIAN_POINT('',(3.3,-4.95,2.73));
#1651=CARTESIAN_POINT('',(3.3,-4.95,0.125));
#1652=CARTESIAN_POINT('',(3.3,-5.3,2.73));
#1653=CARTESIAN_POINT('Origin',(-3.6,-5.2,0.58));
#1654=CARTESIAN_POINT('',(-3.3,-4.3,0.880000000000001));
#1655=CARTESIAN_POINT('',(-3.3,-4.725,0.880000000000001));
#1656=CARTESIAN_POINT('',(-3.6,-4.3,0.58));
#1657=CARTESIAN_POINT('',(-3.6,-4.3,0.58));
#1658=CARTESIAN_POINT('',(-3.6,-5.2,0.58));
#1659=CARTESIAN_POINT('Origin',(-3.435,-4.3,0.645));
#1660=CARTESIAN_POINT('',(-3.3,-4.3,0.38));
#1661=CARTESIAN_POINT('',(-3.3,-4.3,0.3225));
#1662=CARTESIAN_POINT('',(-3.6,-4.3,0.38));
#1663=CARTESIAN_POINT('',(-3.27,-4.3,0.38));
#1664=CARTESIAN_POINT('',(-3.6,-4.3,0.38));
#1665=CARTESIAN_POINT('Origin',(-3.27,-5.2,0.38));
#1666=CARTESIAN_POINT('',(-3.3,-4.725,0.38));
#1667=CARTESIAN_POINT('',(-3.6,-5.2,0.38));
#1668=CARTESIAN_POINT('Origin',(-3.6,-5.2,0.38));
#1669=CARTESIAN_POINT('Origin',(-3.2,-4.725,0.95));
#1670=CARTESIAN_POINT('',(-3.2,-4.25,0.95));
#1671=CARTESIAN_POINT('',(-3.2,-4.95,0.95));
#1672=CARTESIAN_POINT('',(-3.2,-4.9625,0.95));
#1673=CARTESIAN_POINT('',(-3.3,-4.25,0.95));
#1674=CARTESIAN_POINT('',(-3.1,-4.25,0.95));
#1675=CARTESIAN_POINT('',(-3.3,-4.95,0.95));
#1676=CARTESIAN_POINT('',(-3.3,-4.25,0.95));
#1677=CARTESIAN_POINT('',(0.3,-4.95,0.95));
#1678=CARTESIAN_POINT('Origin',(0.,-4.25,1.165));
#1679=CARTESIAN_POINT('',(-3.3,-4.25,0.));
#1680=CARTESIAN_POINT('',(1.65,-4.25,0.));
#1681=CARTESIAN_POINT('',(-3.3,-4.25,0.248));
#1682=CARTESIAN_POINT('',(-3.2,-4.25,1.765));
#1683=CARTESIAN_POINT('',(-3.2,-4.25,1.765));
#1684=CARTESIAN_POINT('',(-2.8,-4.25,2.165));
#1685=CARTESIAN_POINT('Origin',(-2.8,-4.25,1.765));
#1686=CARTESIAN_POINT('',(2.8,-4.25,2.165));
#1687=CARTESIAN_POINT('',(2.8,-4.25,2.165));
#1688=CARTESIAN_POINT('',(3.2,-4.25,1.765));
#1689=CARTESIAN_POINT('Origin',(2.8,-4.25,1.765));
#1690=CARTESIAN_POINT('',(3.2,-4.25,0.565));
#1691=CARTESIAN_POINT('',(3.1,-4.25,0.300424868893541));
#1692=CARTESIAN_POINT('',(3.04652586071242,-4.25,0.25));
#1693=CARTESIAN_POINT('Origin',(2.8,-4.25,0.565));
#1694=CARTESIAN_POINT('',(3.1,-4.25,0.25));
#1695=CARTESIAN_POINT('',(1.65,-4.25,0.25));
#1696=CARTESIAN_POINT('',(3.1,-4.25,0.248));
#1697=CARTESIAN_POINT('',(-3.1,-4.25,0.25));
#1698=CARTESIAN_POINT('',(-3.1,-4.25,0.300424868893541));
#1699=CARTESIAN_POINT('',(-3.1,-4.25,0.248));
#1700=CARTESIAN_POINT('',(-3.04652586071242,-4.25,0.25));
#1701=CARTESIAN_POINT('',(1.65,-4.25,0.25));
#1702=CARTESIAN_POINT('Origin',(-2.8,-4.25,0.565));
#1703=CARTESIAN_POINT('',(-2.01870967741936,-4.25,1.165));
#1704=CARTESIAN_POINT('Origin',(-1.7,-4.25,1.165));
#1705=CARTESIAN_POINT('',(-0.318709677419355,-4.25,1.165));
#1706=CARTESIAN_POINT('Origin',(0.,-4.25,1.165));
#1707=CARTESIAN_POINT('',(1.38129032258064,-4.25,1.165));
#1708=CARTESIAN_POINT('Origin',(1.7,-4.25,1.165));
#1709=CARTESIAN_POINT('Origin',(-3.2,-5.2,0.565));
#1710=CARTESIAN_POINT('',(-3.2,-4.95,1.765));
#1711=CARTESIAN_POINT('',(-3.2,-4.95,0.4075));
#1712=CARTESIAN_POINT('',(-3.2,-5.2,1.765));
#1713=CARTESIAN_POINT('Origin',(3.8,-4.95,0.25));
#1714=CARTESIAN_POINT('',(-3.3,-4.95,2.73));
#1715=CARTESIAN_POINT('',(-3.3,-4.95,0.125));
#1716=CARTESIAN_POINT('',(-2.73,-4.95,2.73));
#1717=CARTESIAN_POINT('',(1.9,-4.95,2.73));
#1718=CARTESIAN_POINT('',(-2.73,-4.95,2.5));
#1719=CARTESIAN_POINT('',(-2.73,-4.95,1.164));
#1720=CARTESIAN_POINT('',(-3.13,-4.95,2.5));
#1721=CARTESIAN_POINT('',(0.3925,-4.95,2.5));
#1722=CARTESIAN_POINT('',(-3.13,-4.95,1.99105309110915));
#1723=CARTESIAN_POINT('',(-3.13,-4.95,1.025));
#1724=CARTESIAN_POINT('Origin',(-2.8,-4.95,1.765));
#1725=CARTESIAN_POINT('Origin',(-3.3,-4.25,0.));
#1726=CARTESIAN_POINT('',(-3.3,-4.25,2.73));
#1727=CARTESIAN_POINT('',(-3.3,-2.125,0.));
#1728=CARTESIAN_POINT('Origin',(1.7,-4.248,1.165));
#1729=CARTESIAN_POINT('',(1.42,-4.31,1.165));
#1730=CARTESIAN_POINT('',(1.38,-4.248,1.165));
#1731=CARTESIAN_POINT('Origin',(1.7,-4.31,1.165));
#1732=CARTESIAN_POINT('Origin',(0.,-4.248,1.165));
#1733=CARTESIAN_POINT('',(-0.28,-4.31,1.165));
#1734=CARTESIAN_POINT('',(-0.32,-4.248,1.165));
#1735=CARTESIAN_POINT('Origin',(0.,-4.31,1.165));
#1736=CARTESIAN_POINT('Origin',(-1.7,-4.248,1.165));
#1737=CARTESIAN_POINT('',(-1.98,-4.31,1.165));
#1738=CARTESIAN_POINT('',(-2.02,-4.248,1.165));
#1739=CARTESIAN_POINT('Origin',(-1.7,-4.31,1.165));
#1740=CARTESIAN_POINT('Origin',(-1.7,-4.452,1.165));
#1741=CARTESIAN_POINT('',(-1.98,-4.45,1.165));
#1742=CARTESIAN_POINT('Origin',(-1.7,-4.45,1.165));
#1743=CARTESIAN_POINT('',(-1.98,-4.452,1.165));
#1744=CARTESIAN_POINT('Origin',(0.,-4.452,1.165));
#1745=CARTESIAN_POINT('',(-0.28,-4.45,1.165));
#1746=CARTESIAN_POINT('Origin',(0.,-4.45,1.165));
#1747=CARTESIAN_POINT('',(-0.28,-4.452,1.165));
#1748=CARTESIAN_POINT('Origin',(1.7,-4.452,1.165));
#1749=CARTESIAN_POINT('',(1.42,-4.45,1.165));
#1750=CARTESIAN_POINT('Origin',(1.7,-4.45,1.165));
#1751=CARTESIAN_POINT('',(1.42,-4.452,1.165));
#1752=CARTESIAN_POINT('Origin',(1.47,-5.085,2.078));
#1753=CARTESIAN_POINT('',(2.73,-5.085,2.73));
#1754=CARTESIAN_POINT('',(1.47,-5.085,2.73));
#1755=CARTESIAN_POINT('',(0.735,-5.085,2.73));
#1756=CARTESIAN_POINT('',(2.73,-5.085,2.078));
#1757=CARTESIAN_POINT('',(2.73,-5.085,2.078));
#1758=CARTESIAN_POINT('',(1.47,-5.085,2.078));
#1759=CARTESIAN_POINT('',(1.47,-5.085,2.078));
#1760=CARTESIAN_POINT('',(1.47,-5.085,2.078));
#1761=CARTESIAN_POINT('Origin',(1.47,-4.825,2.078));
#1762=CARTESIAN_POINT('',(1.47,-4.95,2.73));
#1763=CARTESIAN_POINT('',(1.47,-4.8,2.73));
#1764=CARTESIAN_POINT('',(1.47,-4.825,2.078));
#1765=CARTESIAN_POINT('',(1.47,-4.825,2.078));
#1766=CARTESIAN_POINT('',(1.47,-4.825,2.5));
#1767=CARTESIAN_POINT('',(1.47,-4.825,2.078));
#1768=CARTESIAN_POINT('',(1.47,-4.95,2.5));
#1769=CARTESIAN_POINT('',(1.47,-4.7875,2.5));
#1770=CARTESIAN_POINT('',(1.47,-4.95,1.164));
#1771=CARTESIAN_POINT('Origin',(2.73,-4.825,2.078));
#1772=CARTESIAN_POINT('',(2.73,-4.825,2.5));
#1773=CARTESIAN_POINT('',(2.8725,-4.825,2.5));
#1774=CARTESIAN_POINT('',(2.73,-4.825,2.078));
#1775=CARTESIAN_POINT('',(2.73,-4.825,2.078));
#1776=CARTESIAN_POINT('',(2.73,-4.825,2.078));
#1777=CARTESIAN_POINT('Origin',(2.73,-5.085,2.078));
#1778=CARTESIAN_POINT('',(2.73,-4.95,2.73));
#1779=CARTESIAN_POINT('',(2.73,-4.93,2.73));
#1780=CARTESIAN_POINT('',(2.73,-4.95,2.5));
#1781=CARTESIAN_POINT('',(2.73,-4.95,1.164));
#1782=CARTESIAN_POINT('',(2.73,-4.9175,2.5));
#1783=CARTESIAN_POINT('',(2.73,-5.085,2.078));
#1784=CARTESIAN_POINT('Origin',(2.1,-4.955,2.078));
#1785=CARTESIAN_POINT('Origin',(0.,-4.775,2.73));
#1786=CARTESIAN_POINT('',(-1.47,-4.95,2.73));
#1787=CARTESIAN_POINT('',(1.9,-4.95,2.73));
#1788=CARTESIAN_POINT('',(-1.47,-5.085,2.73));
#1789=CARTESIAN_POINT('',(-1.47,-4.93,2.73));
#1790=CARTESIAN_POINT('',(-2.73,-5.085,2.73));
#1791=CARTESIAN_POINT('',(-1.365,-5.085,2.73));
#1792=CARTESIAN_POINT('',(-2.73,-4.8,2.73));
#1793=CARTESIAN_POINT('',(1.9,-4.95,2.73));
#1794=CARTESIAN_POINT('Origin',(3.8,-4.95,0.25));
#1795=CARTESIAN_POINT('',(1.17,-4.95,2.5));
#1796=CARTESIAN_POINT('',(2.95,-4.95,2.5));
#1797=CARTESIAN_POINT('',(1.17,-4.95,2.165));
#1798=CARTESIAN_POINT('',(1.17,-4.95,1.165));
#1799=CARTESIAN_POINT('',(-1.17,-4.95,2.165));
#1800=CARTESIAN_POINT('',(0.5,-4.95,2.165));
#1801=CARTESIAN_POINT('',(-1.17,-4.95,2.5));
#1802=CARTESIAN_POINT('',(-1.17,-4.95,1.165));
#1803=CARTESIAN_POINT('',(-1.47,-4.95,2.5));
#1804=CARTESIAN_POINT('',(0.3925,-4.95,2.5));
#1805=CARTESIAN_POINT('',(-1.47,-4.95,1.164));
#1806=CARTESIAN_POINT('Origin',(1.17,-4.55,2.08));
#1807=CARTESIAN_POINT('',(1.17,-4.55,2.165));
#1808=CARTESIAN_POINT('',(1.17,-4.875,2.165));
#1809=CARTESIAN_POINT('',(1.17,-4.55,2.5));
#1810=CARTESIAN_POINT('',(1.17,-4.55,2.5));
#1811=CARTESIAN_POINT('',(1.17,-4.55,2.08));
#1812=CARTESIAN_POINT('Origin',(3.13,-4.55,1.8));
#1813=CARTESIAN_POINT('',(3.13,-4.55,2.5));
#1814=CARTESIAN_POINT('',(3.13,-4.55,2.5));
#1815=CARTESIAN_POINT('',(3.13,-4.55,1.99105309110915));
#1816=CARTESIAN_POINT('',(3.13,-4.55,1.8));
#1817=CARTESIAN_POINT('',(2.8,-4.55,2.165));
#1818=CARTESIAN_POINT('Origin',(2.8,-4.55,1.765));
#1819=CARTESIAN_POINT('',(0.115,-4.55,2.165));
#1820=CARTESIAN_POINT('Origin',(3.015,-4.75,2.5));
#1821=CARTESIAN_POINT('',(3.13,-4.95,2.5));
#1822=CARTESIAN_POINT('',(2.95,-4.95,2.5));
#1823=CARTESIAN_POINT('',(3.13,-4.95,2.5));
#1824=CARTESIAN_POINT('Origin',(3.8,-4.95,0.25));
#1825=CARTESIAN_POINT('',(3.2,-4.95,1.765));
#1826=CARTESIAN_POINT('',(3.2,-4.95,1.0075));
#1827=CARTESIAN_POINT('',(3.13,-4.95,1.99105309110915));
#1828=CARTESIAN_POINT('Origin',(2.8,-4.95,1.765));
#1829=CARTESIAN_POINT('',(3.13,-4.95,1.025));
#1830=CARTESIAN_POINT('Origin',(-1.47,-5.085,2.078));
#1831=CARTESIAN_POINT('',(-1.47,-4.825,2.5));
#1832=CARTESIAN_POINT('',(-1.47,-4.9175,2.5));
#1833=CARTESIAN_POINT('',(-1.47,-4.825,2.078));
#1834=CARTESIAN_POINT('',(-1.47,-4.825,2.078));
#1835=CARTESIAN_POINT('',(-1.47,-5.085,2.078));
#1836=CARTESIAN_POINT('',(-1.47,-5.085,2.078));
#1837=CARTESIAN_POINT('',(-1.47,-5.085,2.078));
#1838=CARTESIAN_POINT('Origin',(-2.73,-5.085,2.078));
#1839=CARTESIAN_POINT('',(-2.73,-5.085,2.078));
#1840=CARTESIAN_POINT('',(-2.73,-5.085,2.078));
#1841=CARTESIAN_POINT('',(-2.73,-5.085,2.078));
#1842=CARTESIAN_POINT('Origin',(-1.47,-4.825,2.078));
#1843=CARTESIAN_POINT('',(-2.73,-4.825,2.5));
#1844=CARTESIAN_POINT('',(-2.2425,-4.825,2.5));
#1845=CARTESIAN_POINT('',(-2.73,-4.825,2.078));
#1846=CARTESIAN_POINT('',(-2.73,-4.825,2.078));
#1847=CARTESIAN_POINT('',(-1.47,-4.825,2.078));
#1848=CARTESIAN_POINT('Origin',(-2.73,-4.825,2.078));
#1849=CARTESIAN_POINT('',(-2.73,-4.7875,2.5));
#1850=CARTESIAN_POINT('',(-2.73,-4.825,2.078));
#1851=CARTESIAN_POINT('Origin',(-2.1,-4.955,2.078));
#1852=CARTESIAN_POINT('Origin',(-1.17,-5.2,2.08));
#1853=CARTESIAN_POINT('',(-1.17,-4.55,2.165));
#1854=CARTESIAN_POINT('',(-1.17,-5.2,2.165));
#1855=CARTESIAN_POINT('',(-1.17,-4.55,2.5));
#1856=CARTESIAN_POINT('',(-1.17,-4.55,2.08));
#1857=CARTESIAN_POINT('',(-1.17,-5.2,2.5));
#1858=CARTESIAN_POINT('Origin',(-2.8,-5.2,1.765));
#1859=CARTESIAN_POINT('',(-3.13,-4.55,1.99105309110915));
#1860=CARTESIAN_POINT('',(-2.8,-4.55,2.165));
#1861=CARTESIAN_POINT('Origin',(-2.8,-4.55,1.765));
#1862=CARTESIAN_POINT('',(-2.8,-5.2,2.165));
#1863=CARTESIAN_POINT('',(-3.13,-5.2,1.99105309110915));
#1864=CARTESIAN_POINT('Origin',(-2.8,-5.2,2.165));
#1865=CARTESIAN_POINT('',(2.8,-5.2,2.165));
#1866=CARTESIAN_POINT('',(-1.985,-4.55,2.165));
#1867=CARTESIAN_POINT('Origin',(3.13,-4.95,1.8));
#1868=CARTESIAN_POINT('',(3.13,-5.2,1.99105309110915));
#1869=CARTESIAN_POINT('Origin',(2.8,-5.2,1.765));
#1870=CARTESIAN_POINT('',(3.2,-5.2,1.765));
#1871=CARTESIAN_POINT('Origin',(3.1,-4.25,0.248));
#1872=CARTESIAN_POINT('',(3.1,-4.95,0.25));
#1873=CARTESIAN_POINT('',(3.1,-2.125,0.25));
#1874=CARTESIAN_POINT('',(3.1,-4.95,0.300424868893541));
#1875=CARTESIAN_POINT('',(3.1,-4.95,0.249));
#1876=CARTESIAN_POINT('',(3.1,-5.2,0.300424868893541));
#1877=CARTESIAN_POINT('Origin',(3.2,-5.2,1.765));
#1878=CARTESIAN_POINT('Origin',(2.8,-5.2,0.565));
#1879=CARTESIAN_POINT('',(3.04652586071242,-4.95,0.25));
#1880=CARTESIAN_POINT('Origin',(2.8,-4.95,0.565));
#1881=CARTESIAN_POINT('',(3.04652586071242,-5.2,0.25));
#1882=CARTESIAN_POINT('Origin',(3.8,-4.95,0.25));
#1883=CARTESIAN_POINT('',(3.8,-4.95,0.25));
#1884=CARTESIAN_POINT('Origin',(-3.13,-4.55,1.8));
#1885=CARTESIAN_POINT('',(-3.13,-4.55,2.5));
#1886=CARTESIAN_POINT('',(-3.13,-4.55,2.5));
#1887=CARTESIAN_POINT('',(-3.13,-4.55,1.8));
#1888=CARTESIAN_POINT('Origin',(-2.9,-4.55,1.8));
#1889=CARTESIAN_POINT('',(-2.9,-4.55,2.5));
#1890=CARTESIAN_POINT('Origin',(-3.015,-4.75,2.5));
#1891=CARTESIAN_POINT('Origin',(-3.1,-5.2,0.248));
#1892=CARTESIAN_POINT('',(-3.1,-4.95,0.300424868893541));
#1893=CARTESIAN_POINT('',(-3.1,-5.2,0.300424868893541));
#1894=CARTESIAN_POINT('',(-3.1,-4.95,0.25));
#1895=CARTESIAN_POINT('',(-3.1,-4.95,0.249));
#1896=CARTESIAN_POINT('',(-3.1,-2.6,0.25));
#1897=CARTESIAN_POINT('Origin',(3.8,-4.95,0.25));
#1898=CARTESIAN_POINT('',(-3.04652586071242,-4.95,0.25));
#1899=CARTESIAN_POINT('Origin',(-2.8,-4.95,0.565));
#1900=CARTESIAN_POINT('',(3.8,-4.95,0.25));
#1901=CARTESIAN_POINT('Origin',(0.,0.,0.25));
#1902=CARTESIAN_POINT('Origin',(0.227272727272726,-4.45,1.13772727272727));
#1903=CARTESIAN_POINT('',(2.5,-4.45,0.865));
#1904=CARTESIAN_POINT('Ctrl Pts',(2.5,-4.45,0.865));
#1905=CARTESIAN_POINT('Ctrl Pts',(2.5,-4.45,0.825730091830128));
#1906=CARTESIAN_POINT('Ctrl Pts',(2.48438858912301,-4.45,0.747198741364465));
#1907=CARTESIAN_POINT('Ctrl Pts',(2.41766488599096,-4.45,0.647330927830434));
#1908=CARTESIAN_POINT('Ctrl Pts',(2.31779725938233,-4.45,0.580607454944863));
#1909=CARTESIAN_POINT('Ctrl Pts',(2.23926457656087,-4.45,0.564996182427391));
#1910=CARTESIAN_POINT('Ctrl Pts',(1.9189230231803,-4.45,0.564993158280855));
#1911=CARTESIAN_POINT('Ctrl Pts',(0.537839458830525,-4.45,0.565002731867455));
#1912=CARTESIAN_POINT('Ctrl Pts',(-1.35676464694354,-4.45,0.565000204898017));
#1913=CARTESIAN_POINT('Ctrl Pts',(-2.23926821128663,-4.45,0.564997395702846));
#1914=CARTESIAN_POINT('Ctrl Pts',(-2.31778897382724,-4.45,0.580623102979893));
#1915=CARTESIAN_POINT('Ctrl Pts',(-2.41768060044793,-4.45,0.647318413470763));
#1916=CARTESIAN_POINT('Ctrl Pts',(-2.48437586728619,-4.45,0.747210003688745));
#1917=CARTESIAN_POINT('Ctrl Pts',(-2.50000154421093,-4.45,0.825730831429708));
#1918=CARTESIAN_POINT('Ctrl Pts',(-2.50000108621096,-4.45,0.906891543767955));
#1919=CARTESIAN_POINT('Ctrl Pts',(-2.50000111170468,-4.45,1.00283775474964));
#1920=CARTESIAN_POINT('Ctrl Pts',(-2.5000010455604,-4.45,1.13797282855283));
#1921=CARTESIAN_POINT('Ctrl Pts',(-2.50000104415167,-4.45,1.24608107190148));
#1922=CARTESIAN_POINT('Ctrl Pts',(-2.50000105119399,-4.45,1.32488176736261));
#1923=CARTESIAN_POINT('Ctrl Pts',(-2.50000106453179,-4.45,1.38674833448979));
#1924=CARTESIAN_POINT('Ctrl Pts',(-2.50000108836022,-4.45,1.43282087862555));
#1925=CARTESIAN_POINT('Ctrl Pts',(-2.5000010655007,-4.45,1.45452699145456));
#1926=CARTESIAN_POINT('Ctrl Pts',(-2.50000133894204,-4.45,1.50426924158435));
#1927=CARTESIAN_POINT('Ctrl Pts',(-2.48437570734808,-4.45,1.58279004615798));
#1928=CARTESIAN_POINT('Ctrl Pts',(-2.41768043446731,-4.45,1.68268163875733));
#1929=CARTESIAN_POINT('Ctrl Pts',(-2.31778886327481,-4.45,1.74937691261398));
#1930=CARTESIAN_POINT('Ctrl Pts',(-2.23926804422293,-4.45,1.76500265704255));
#1931=CARTESIAN_POINT('Ctrl Pts',(-1.63784414690515,-4.45,1.764999526248));
#1932=CARTESIAN_POINT('Ctrl Pts',(-0.409457997928124,-4.45,1.76500028567255));
#1933=CARTESIAN_POINT('Ctrl Pts',(1.22837870171531,-4.45,1.76500021715347));
#1934=CARTESIAN_POINT('Ctrl Pts',(1.91892198256882,-4.45,1.76500052538444));
#1935=CARTESIAN_POINT('Ctrl Pts',(2.23926818389426,-4.45,1.7650023180026));
#1936=CARTESIAN_POINT('Ctrl Pts',(2.31778902500412,-4.45,1.74937657856189));
#1937=CARTESIAN_POINT('Ctrl Pts',(2.41768057883952,-4.45,1.68268130300993));
#1938=CARTESIAN_POINT('Ctrl Pts',(2.48437585029523,-4.45,1.58278969271269));
#1939=CARTESIAN_POINT('Ctrl Pts',(2.50000149279307,-4.45,1.50426888881692));
#1940=CARTESIAN_POINT('Ctrl Pts',(2.50000030140712,-4.45,1.2974340228056));
#1941=CARTESIAN_POINT('Ctrl Pts',(2.5,-4.45,1.03256717587087));
#1942=CARTESIAN_POINT('Ctrl Pts',(2.5,-4.45,0.865000000000002));
#1943=CARTESIAN_POINT('Ctrl Pts',(2.99867021276596,-5.2,0.715398936170213));
#1944=CARTESIAN_POINT('Ctrl Pts',(2.83244680851064,-4.95,0.765265957446808));
#1945=CARTESIAN_POINT('Ctrl Pts',(2.66622340425532,-4.7,0.815132978723404));
#1946=CARTESIAN_POINT('Ctrl Pts',(2.5,-4.45,0.865));
#1947=CARTESIAN_POINT('Ctrl Pts',(2.99867021276596,-5.2,0.652966509393398));
#1948=CARTESIAN_POINT('Ctrl Pts',(2.83243264103156,-4.95,0.710487033595075));
#1949=CARTESIAN_POINT('Ctrl Pts',(2.66623757173439,-4.7,0.768209567628451));
#1950=CARTESIAN_POINT('Ctrl Pts',(2.5,-4.45,0.825730091830128));
#1951=CARTESIAN_POINT('Ctrl Pts',(2.9763900144205,-5.2,0.510129293996751));
#1952=CARTESIAN_POINT('Ctrl Pts',(2.81241415803051,-4.95,0.589151211140153));
#1953=CARTESIAN_POINT('Ctrl Pts',(2.648364445513,-4.7,0.668176824221063));
#1954=CARTESIAN_POINT('Ctrl Pts',(2.48438858912301,-4.45,0.747198741364465));
#1955=CARTESIAN_POINT('Ctrl Pts',(2.84381441012041,-5.2,0.307962871410227));
#1956=CARTESIAN_POINT('Ctrl Pts',(2.70178647604225,-4.95,0.421050568876217));
#1957=CARTESIAN_POINT('Ctrl Pts',(2.55969282006913,-4.7,0.534243230364444));
#1958=CARTESIAN_POINT('Ctrl Pts',(2.41766488599096,-4.45,0.647330927830434));
#1959=CARTESIAN_POINT('Ctrl Pts',(2.6410507064637,-5.20000000000001,0.184516688150954));
#1960=CARTESIAN_POINT('Ctrl Pts',(2.53332897483221,-4.95,0.316536281559258));
#1961=CARTESIAN_POINT('Ctrl Pts',(2.42551899101383,-4.7,0.448587861536558));
#1962=CARTESIAN_POINT('Ctrl Pts',(2.31779725938233,-4.45,0.580607454944863));
#1963=CARTESIAN_POINT('Ctrl Pts',(2.50634327222394,-5.20000000000001,0.166104454244949));
#1964=CARTESIAN_POINT('Ctrl Pts',(2.41733762759849,-4.95,0.299081633408973));
#1965=CARTESIAN_POINT('Ctrl Pts',(2.32827022118632,-4.7,0.432019003263367));
#1966=CARTESIAN_POINT('Ctrl Pts',(2.23926457656087,-4.45,0.564996182427391));
#1967=CARTESIAN_POINT('Ctrl Pts',(2.04140315870574,-5.20000000000001,0.165955864887523));
#1968=CARTESIAN_POINT('Ctrl Pts',(2.00059279063863,-4.95,0.298935503208084));
#1969=CARTESIAN_POINT('Ctrl Pts',(1.95973339124741,-4.7,0.432013519960293));
#1970=CARTESIAN_POINT('Ctrl Pts',(1.9189230231803,-4.45,0.564993158280855));
#1971=CARTESIAN_POINT('Ctrl Pts',(0.408676438977723,-5.2,0.166194519527265));
#1972=CARTESIAN_POINT('Ctrl Pts',(0.451729581855988,-4.95,0.299172160080375));
#1973=CARTESIAN_POINT('Ctrl Pts',(0.49478631595226,-4.7,0.432025091314344));
#1974=CARTESIAN_POINT('Ctrl Pts',(0.537839458830525,-4.45,0.565002731867455));
#1975=CARTESIAN_POINT('Ctrl Pts',(-1.22541915348112,-5.2,0.165922524915824));
#1976=CARTESIAN_POINT('Ctrl Pts',(-1.26921310725872,-4.95,0.298901673791352));
#1977=CARTESIAN_POINT('Ctrl Pts',(-1.31297069316595,-4.7,0.432021056022489));
#1978=CARTESIAN_POINT('Ctrl Pts',(-1.35676464694354,-4.45,0.565000204898017));
#1979=CARTESIAN_POINT('Ctrl Pts',(-2.50636468926706,-5.2,0.166150122819923));
#1980=CARTESIAN_POINT('Ctrl Pts',(-2.41735823788043,-4.95,0.299129363492417));
#1981=CARTESIAN_POINT('Ctrl Pts',(-2.32827466267326,-4.7,0.432018155030352));
#1982=CARTESIAN_POINT('Ctrl Pts',(-2.23926821128663,-4.45,0.564997395702846));
#1983=CARTESIAN_POINT('Ctrl Pts',(-2.64099811826218,-5.2,0.184736847654126));
#1984=CARTESIAN_POINT('Ctrl Pts',(-2.5332747214344,-4.95,0.316747470928776));
#1985=CARTESIAN_POINT('Ctrl Pts',(-2.42551237065502,-4.7,0.448612479705242));
#1986=CARTESIAN_POINT('Ctrl Pts',(-2.31778897382724,-4.45,0.580623102979893));
#1987=CARTESIAN_POINT('Ctrl Pts',(-2.84391513160327,-5.20000000000001,0.307848146435355));
#1988=CARTESIAN_POINT('Ctrl Pts',(-2.70188261120283,-4.95,0.420944599620837));
#1989=CARTESIAN_POINT('Ctrl Pts',(-2.55971312084838,-4.7,0.534221960285281));
#1990=CARTESIAN_POINT('Ctrl Pts',(-2.41768060044793,-4.45,0.647318413470763));
#1991=CARTESIAN_POINT('Ctrl Pts',(-2.97618503570903,-5.20000000000001,0.510228902085072));
#1992=CARTESIAN_POINT('Ctrl Pts',(-2.81221545250264,-4.95000000000001,0.589242464548735));
#1993=CARTESIAN_POINT('Ctrl Pts',(-2.64834545049258,-4.7,0.668196441225082));
#1994=CARTESIAN_POINT('Ctrl Pts',(-2.48437586728619,-4.45,0.747210003688745));
#1995=CARTESIAN_POINT('Ctrl Pts',(-2.99860676029504,-5.20000000000001,0.652980221829451));
#1996=CARTESIAN_POINT('Ctrl Pts',(-2.83236873678987,-4.95000000000001,0.710520394596282));
#1997=CARTESIAN_POINT('Ctrl Pts',(-2.66623956771611,-4.7,0.768190658662877));
#1998=CARTESIAN_POINT('Ctrl Pts',(-2.50000154421093,-4.45,0.825730831429708));
#1999=CARTESIAN_POINT('Ctrl Pts',(-2.99862846250075,-5.20000000000001,0.781995826675328));
#2000=CARTESIAN_POINT('Ctrl Pts',(-2.83241163878067,-4.95,0.823651801015351));
#2001=CARTESIAN_POINT('Ctrl Pts',(-2.66621790993104,-4.7,0.865235569427932));
#2002=CARTESIAN_POINT('Ctrl Pts',(-2.50000108621096,-4.45,0.906891543767955));
#2003=CARTESIAN_POINT('Ctrl Pts',(-2.99862632120745,-5.2,0.915234968519338));
#2004=CARTESIAN_POINT('Ctrl Pts',(-2.83239874599198,-4.95,0.944419100510822));
#2005=CARTESIAN_POINT('Ctrl Pts',(-2.66622868692015,-4.7,0.973653622758155));
#2006=CARTESIAN_POINT('Ctrl Pts',(-2.50000111170468,-4.45,1.00283775474964));
#2007=CARTESIAN_POINT('Ctrl Pts',(-2.9986295904967,-5.2,1.08181443335036));
#2008=CARTESIAN_POINT('Ctrl Pts',(-2.8324081181011,-4.95,1.10054228567846));
#2009=CARTESIAN_POINT('Ctrl Pts',(-2.66622251795601,-4.7,1.11924497622472));
#2010=CARTESIAN_POINT('Ctrl Pts',(-2.5000010455604,-4.45,1.13797282855283));
#2011=CARTESIAN_POINT('Ctrl Pts',(-2.99862955970236,-5.2,1.21508118647872));
#2012=CARTESIAN_POINT('Ctrl Pts',(-2.83240546605654,-4.95,1.22540938529405));
#2013=CARTESIAN_POINT('Ctrl Pts',(-2.66622513779749,-4.7,1.23575287308615));
#2014=CARTESIAN_POINT('Ctrl Pts',(-2.50000104415167,-4.45,1.24608107190148));
#2015=CARTESIAN_POINT('Ctrl Pts',(-2.99862931142356,-5.2,1.31502432686273));
#2016=CARTESIAN_POINT('Ctrl Pts',(-2.83240614667182,-4.95,1.31831464758982));
#2017=CARTESIAN_POINT('Ctrl Pts',(-2.66622421594573,-4.7,1.32159144663551));
#2018=CARTESIAN_POINT('Ctrl Pts',(-2.50000105119399,-4.45,1.32488176736261));
#2019=CARTESIAN_POINT('Ctrl Pts',(-2.99862890350587,-5.2,1.39830082833189));
#2020=CARTESIAN_POINT('Ctrl Pts',(-2.832405991131,-4.95,1.39444356467526));
#2021=CARTESIAN_POINT('Ctrl Pts',(-2.66622397690665,-4.7,1.39060559814643));
#2022=CARTESIAN_POINT('Ctrl Pts',(-2.50000106453179,-4.45,1.38674833448979));
#2023=CARTESIAN_POINT('Ctrl Pts',(-2.99862783324345,-5.2,1.4649119395901));
#2024=CARTESIAN_POINT('Ctrl Pts',(-2.83240326519198,-4.95,1.45422166849287));
#2025=CARTESIAN_POINT('Ctrl Pts',(-2.66622565641169,-4.7,1.44351114972278));
#2026=CARTESIAN_POINT('Ctrl Pts',(-2.50000108836022,-4.45,1.43282087862555));
#2027=CARTESIAN_POINT('Ctrl Pts',(-2.9986290118887,-5.2,1.49821559350946));
#2028=CARTESIAN_POINT('Ctrl Pts',(-2.83240823547215,-4.95,1.48363969097238));
#2029=CARTESIAN_POINT('Ctrl Pts',(-2.66622184191725,-4.7,1.46910289399164));
#2030=CARTESIAN_POINT('Ctrl Pts',(-2.5000010655007,-4.45,1.45452699145456));
#2031=CARTESIAN_POINT('Ctrl Pts',(-2.99861604978621,-5.2,1.57728747072601));
#2032=CARTESIAN_POINT('Ctrl Pts',(-2.83237281462798,-4.95,1.55301216975632));
#2033=CARTESIAN_POINT('Ctrl Pts',(-2.66624457410028,-4.7,1.52854454255404));
#2034=CARTESIAN_POINT('Ctrl Pts',(-2.50000133894204,-4.45,1.50426924158435));
#2035=CARTESIAN_POINT('Ctrl Pts',(-2.97619306513252,-5.2,1.72003843506466));
#2036=CARTESIAN_POINT('Ctrl Pts',(-2.81222621592478,-4.95,1.67425826517531));
#2037=CARTESIAN_POINT('Ctrl Pts',(-2.64834255655582,-4.7,1.62857021604734));
#2038=CARTESIAN_POINT('Ctrl Pts',(-2.48437570734808,-4.45,1.58279004615798));
#2039=CARTESIAN_POINT('Ctrl Pts',(-2.84392297061531,-5.2,1.92241914460573));
#2040=CARTESIAN_POINT('Ctrl Pts',(-2.70188911992068,-4.95,1.84257374702385));
#2041=CARTESIAN_POINT('Ctrl Pts',(-2.55971428516194,-4.7,1.76252703633921));
#2042=CARTESIAN_POINT('Ctrl Pts',(-2.41768043446731,-4.45,1.68268163875733));
#2043=CARTESIAN_POINT('Ctrl Pts',(-2.64100578158353,-5.20000000000001,2.04553017329737));
#2044=CARTESIAN_POINT('Ctrl Pts',(-2.53328280185456,-4.95000000000001,1.94676047559025));
#2045=CARTESIAN_POINT('Ctrl Pts',(-2.42551184300378,-4.7,1.84814661032111));
#2046=CARTESIAN_POINT('Ctrl Pts',(-2.31778886327481,-4.45,1.74937691261398));
#2047=CARTESIAN_POINT('Ctrl Pts',(-2.5063717089493,-5.20000000000001,2.06411697308559));
#2048=CARTESIAN_POINT('Ctrl Pts',(-2.41736604267352,-4.95,1.96438300526072));
#2049=CARTESIAN_POINT('Ctrl Pts',(-2.32827371049871,-4.7,1.86473662486742));
#2050=CARTESIAN_POINT('Ctrl Pts',(-2.23926804422293,-4.45,1.76500265704255));
#2051=CARTESIAN_POINT('Ctrl Pts',(-1.63342637435534,-5.20000000000001,2.06426739106225));
#2052=CARTESIAN_POINT('Ctrl Pts',(-1.63491161077578,-4.95000000000001,1.96453277907468));
#2053=CARTESIAN_POINT('Ctrl Pts',(-1.63635891048471,-4.7,1.86473413823556));
#2054=CARTESIAN_POINT('Ctrl Pts',(-1.63784414690515,-4.45,1.764999526248));
#2055=CARTESIAN_POINT('Ctrl Pts',(-0.408298760095452,-5.2,2.06418557751115));
#2056=CARTESIAN_POINT('Ctrl Pts',(-0.408683364736508,-4.95,1.96445197384038));
#2057=CARTESIAN_POINT('Ctrl Pts',(-0.409073393287068,-4.7,1.86473388934332));
#2058=CARTESIAN_POINT('Ctrl Pts',(-0.409457997928124,-4.45,1.76500028567255));
#2059=CARTESIAN_POINT('Ctrl Pts',(1.22499184758185,-5.2,2.06419682221325));
#2060=CARTESIAN_POINT('Ctrl Pts',(1.22612268180674,-4.95,1.964462526035));
#2061=CARTESIAN_POINT('Ctrl Pts',(1.22724786749042,-4.7,1.86473451333172));
#2062=CARTESIAN_POINT('Ctrl Pts',(1.22837870171531,-4.45,1.76500021715347));
#2063=CARTESIAN_POINT('Ctrl Pts',(2.04140176773303,-5.20000000000001,2.06420731207852));
#2064=CARTESIAN_POINT('Ctrl Pts',(2.00058397420512,-4.95000000000001,1.96447359247242));
#2065=CARTESIAN_POINT('Ctrl Pts',(1.95973977609673,-4.7,1.86473424499055));
#2066=CARTESIAN_POINT('Ctrl Pts',(1.91892198256882,-4.45,1.76500052538444));
#2067=CARTESIAN_POINT('Ctrl Pts',(2.50636653383866,-5.20000000000001,2.06411540591728));
#2068=CARTESIAN_POINT('Ctrl Pts',(2.41736313532318,-4.95000000000001,1.96438009977719));
#2069=CARTESIAN_POINT('Ctrl Pts',(2.32827158240974,-4.70000000000001,1.86473762414269));
#2070=CARTESIAN_POINT('Ctrl Pts',(2.23926818389426,-4.45,1.7650023180026));
#2071=CARTESIAN_POINT('Ctrl Pts',(2.64100136756762,-5.20000000000001,2.04552867311567));
#2072=CARTESIAN_POINT('Ctrl Pts',(2.53327520444868,-4.95000000000001,1.94676661407617));
#2073=CARTESIAN_POINT('Ctrl Pts',(2.42551518812306,-4.7,1.8481386376014));
#2074=CARTESIAN_POINT('Ctrl Pts',(2.31778902500412,-4.45,1.74937657856189));
#2075=CARTESIAN_POINT('Ctrl Pts',(2.8439180417738,-5.20000000000001,1.92241668860673));
#2076=CARTESIAN_POINT('Ctrl Pts',(2.7018883018142,-4.95000000000001,1.8425584275287));
#2077=CARTESIAN_POINT('Ctrl Pts',(2.55971031879913,-4.70000000000001,1.76253956408796));
#2078=CARTESIAN_POINT('Ctrl Pts',(2.41768057883952,-4.45,1.68268130300993));
#2079=CARTESIAN_POINT('Ctrl Pts',(2.97618831255428,-5.20000000000001,1.72003526606686));
#2080=CARTESIAN_POINT('Ctrl Pts',(2.81221498273663,-4.95000000000001,1.67427773772668));
#2081=CARTESIAN_POINT('Ctrl Pts',(2.64834918011288,-4.70000000000001,1.62854722105288));
#2082=CARTESIAN_POINT('Ctrl Pts',(2.48437585029523,-4.45,1.58278969271269));
#2083=CARTESIAN_POINT('Ctrl Pts',(2.99861066422444,-5.20000000000001,1.5772838199923));
#2084=CARTESIAN_POINT('Ctrl Pts',(2.83237828361597,-4.95000000000001,1.55296849659408));
#2085=CARTESIAN_POINT('Ctrl Pts',(2.66623387340155,-4.7,1.52858421221515));
#2086=CARTESIAN_POINT('Ctrl Pts',(2.50000149279307,-4.45,1.50426888881692));
#2087=CARTESIAN_POINT('Ctrl Pts',(2.99866504177006,-5.2,1.24848668748038));
#2088=CARTESIAN_POINT('Ctrl Pts',(2.83245133724823,-4.95,1.2647768834798));
#2089=CARTESIAN_POINT('Ctrl Pts',(2.66621400592895,-4.7,1.28114382680617));
#2090=CARTESIAN_POINT('Ctrl Pts',(2.50000030140712,-4.45,1.2974340228056));
#2091=CARTESIAN_POINT('Ctrl Pts',(2.99867021276596,-5.2,0.981802040361361));
#2092=CARTESIAN_POINT('Ctrl Pts',(2.83244118642319,-4.95,0.998743415493948));
#2093=CARTESIAN_POINT('Ctrl Pts',(2.66622902634276,-4.7,1.01562580073828));
#2094=CARTESIAN_POINT('Ctrl Pts',(2.5,-4.45,1.03256717587087));
#2095=CARTESIAN_POINT('Ctrl Pts',(2.99867021276596,-5.2,0.715398936170216));
#2096=CARTESIAN_POINT('Ctrl Pts',(2.83244680851064,-4.95,0.765265957446811));
#2097=CARTESIAN_POINT('Ctrl Pts',(2.66622340425532,-4.7,0.815132978723407));
#2098=CARTESIAN_POINT('Ctrl Pts',(2.5,-4.45,0.865000000000002));
#2099=CARTESIAN_POINT('',(3.,-5.202,0.715));
#2100=CARTESIAN_POINT('Origin',(-2.8,-5.2,0.565));
#2101=CARTESIAN_POINT('',(-3.04652586071242,-5.2,0.25));
#2102=CARTESIAN_POINT('Origin',(0.,0.,0.25));
#2103=CARTESIAN_POINT('Origin',(0.,0.,0.));
#2104=UNCERTAINTY_MEASURE_WITH_UNIT(LENGTH_MEASURE(0.001),#2108,
'DISTANCE_ACCURACY_VALUE',
'Maximum model space distance between geometric entities at asserted c
onnectivities');
#2105=UNCERTAINTY_MEASURE_WITH_UNIT(LENGTH_MEASURE(0.001),#2108,
'DISTANCE_ACCURACY_VALUE',
'Maximum model space distance between geometric entities at asserted c
onnectivities');
#2106=(
GEOMETRIC_REPRESENTATION_CONTEXT(3)
GLOBAL_UNCERTAINTY_ASSIGNED_CONTEXT((#2104))
GLOBAL_UNIT_ASSIGNED_CONTEXT((#2108,#2110,#2111))
REPRESENTATION_CONTEXT('','3D')
);
#2107=(
GEOMETRIC_REPRESENTATION_CONTEXT(3)
GLOBAL_UNCERTAINTY_ASSIGNED_CONTEXT((#2105))
GLOBAL_UNIT_ASSIGNED_CONTEXT((#2108,#2110,#2111))
REPRESENTATION_CONTEXT('','3D')
);
#2108=(
LENGTH_UNIT()
NAMED_UNIT(*)
SI_UNIT(.CENTI.,.METRE.)
);
#2109=(
LENGTH_UNIT()
NAMED_UNIT(*)
SI_UNIT($,.METRE.)
);
#2110=(
NAMED_UNIT(*)
PLANE_ANGLE_UNIT()
SI_UNIT($,.RADIAN.)
);
#2111=(
NAMED_UNIT(*)
SI_UNIT($,.STERADIAN.)
SOLID_ANGLE_UNIT()
);
#2112=SHAPE_DEFINITION_REPRESENTATION(#2113,#2114);
#2113=PRODUCT_DEFINITION_SHAPE('',$,#2116);
#2114=SHAPE_REPRESENTATION('',(#1140),#2106);
#2115=PRODUCT_DEFINITION_CONTEXT('part definition',#2120,'design');
#2116=PRODUCT_DEFINITION('04 Probe fascia - continuous runners',
'04 Probe fascia - continuous runners',#2117,#2115);
#2117=PRODUCT_DEFINITION_FORMATION('',$,#2122);
#2118=PRODUCT_RELATED_PRODUCT_CATEGORY(
'04 Probe fascia - continuous runners',
'04 Probe fascia - continuous runners',(#2122));
#2119=APPLICATION_PROTOCOL_DEFINITION('international standard',
'automotive_design',2009,#2120);
#2120=APPLICATION_CONTEXT(
'Core Data for Automotive Mechanical Design Process');
#2121=PRODUCT_CONTEXT('part definition',#2120,'mechanical');
#2122=PRODUCT('04 Probe fascia - continuous runners',
'04 Probe fascia - continuous runners',$,(#2121));
#2123=PRESENTATION_STYLE_ASSIGNMENT((#2125));
#2124=PRESENTATION_STYLE_ASSIGNMENT((#2126));
#2125=SURFACE_STYLE_USAGE(.BOTH.,#2127);
#2126=SURFACE_STYLE_USAGE(.BOTH.,#2128);
#2127=SURFACE_SIDE_STYLE('',(#2129));
#2128=SURFACE_SIDE_STYLE('',(#2130));
#2129=SURFACE_STYLE_FILL_AREA(#2131);
#2130=SURFACE_STYLE_FILL_AREA(#2132);
#2131=FILL_AREA_STYLE('Steel - Satin',(#2133));
#2132=FILL_AREA_STYLE('Case bottom slate',(#2134));
#2133=FILL_AREA_STYLE_COLOUR('Steel - Satin',#2135);
#2134=FILL_AREA_STYLE_COLOUR('Case bottom slate',#2136);
#2135=COLOUR_RGB('Steel - Satin',0.627450980392157,0.627450980392157,0.627450980392157);
#2136=COLOUR_RGB('Case bottom slate',0.282352941176471,0.356862745098039,
0.415686274509804);
ENDSEC;
END-ISO-10303-21;
